<svg width="24" height="24" viewBox="0 0 24 24" fill="none" xmlns="http://www.w3.org/2000/svg">
<path d="M2 3C2 2.44772 2.44772 2 3 2H21C21.5523 2 22 2.44772 22 3C22 3.55228 21.5523 4 21 4H3C2.44772 4 2 3.55228 2 3Z" fill="#8D94A0"/>
<path d="M2 21C2 20.4477 2.44772 20 3 20H21C21.5523 20 22 20.4477 22 21C22 21.5523 21.5523 22 21 22H3C2.44772 22 2 21.5523 2 21Z" fill="#8D94A0"/>
<path d="M8.20291 18C8.72882 18 9.19366 17.6556 9.35033 17.1499L9.94446 15.232H14.0667L14.6623 17.1544C14.8181 17.6574 15.2805 18 15.8035 18C16.6182 18 17.1942 17.1972 16.9388 16.418L14.0003 7.45331C13.716 6.58589 12.9114 6 12.0046 6C11.0988 6 10.2948 6.58472 10.0098 7.45092L7.06198 16.4081C6.80406 17.1918 7.3833 18 8.20291 18ZM10.5423 13.2928L11.9663 8.70166H12.0449L13.4688 13.2928H10.5423Z" fill="#8D94A0"/>
</svg>
