<svg width="24" height="24" viewBox="0 0 24 24" fill="none" xmlns="http://www.w3.org/2000/svg">
<rect width="24" height="24" fill="#E5E5E5"/>
<rect id="Rectangle 3504" x="-121" y="-426" width="1440" height="1826" fill="white"/>
<g id="ic/&#8;a_in_circle_color">
<path id="Exclude" fill-rule="evenodd" clip-rule="evenodd" d="M1 12C1 5.925 5.925 1 12 1C18.075 1 23 5.925 23 12C23 18.075 18.075 23 12 23C5.925 23 1 18.075 1 12ZM9.55557 16.7458C9.40204 17.2377 8.94654 17.5728 8.4312 17.5728C7.62804 17.5728 7.06044 16.7866 7.31318 16.0242L10.2018 7.31137C10.4811 6.4688 11.2689 5.90002 12.1566 5.90002C13.0451 5.90002 13.8335 6.46994 14.1121 7.3137L16.9916 16.0339C17.2419 16.7919 16.6774 17.5728 15.8792 17.5728C15.3666 17.5728 14.9135 17.2395 14.7608 16.7502L14.1772 14.8803H10.1378L9.55557 16.7458ZM12.119 8.528L10.7236 12.9939H13.5914L12.196 8.528H12.119Z" fill="#BACEF8"/>
<path id="A" d="M8.4312 17.5728C8.94654 17.5728 9.40204 17.2377 9.55557 16.7458L10.1378 14.8803H14.1772L14.7608 16.7502C14.9135 17.2395 15.3666 17.5728 15.8792 17.5728C16.6774 17.5728 17.2419 16.7919 16.9916 16.0339L14.1121 7.3137C13.8335 6.46994 13.0451 5.90002 12.1566 5.90002C11.2689 5.90002 10.4811 6.4688 10.2018 7.31137L7.31318 16.0242C7.06044 16.7866 7.62804 17.5728 8.4312 17.5728ZM10.7236 12.9939L12.119 8.528H12.196L13.5914 12.9939H10.7236Z" fill="#4880EE"/>
</g>
</svg>
