<svg width="32" height="32" viewBox="0 0 32 32" fill="none" xmlns="http://www.w3.org/2000/svg">
<rect x="9.33203" y="12" width="13.3333" height="13.3333" fill="#9C7EEF"/>
<path d="M4.29855 15.9167C4.29855 15.3392 3.8304 14.8711 3.2529 14.8711H3.13693C1.40445 14.8711 0 16.2755 0 18.008V19.7172C0 21.4496 1.40445 22.8541 3.13693 22.8541H3.2529C3.8304 22.8541 4.29855 22.3859 4.29855 21.8084V15.9167Z" fill="#9C7EEF"/>
<path fill-rule="evenodd" clip-rule="evenodd" d="M18.4552 5.21595C18.4552 6.20853 17.7823 7.04396 16.8679 7.29101V7.97839H21.2749C24.1285 7.97839 26.4417 10.2916 26.4417 13.1452V23.6903C26.4417 26.5438 24.1285 28.857 21.2749 28.857H10.7298C7.8763 28.857 5.56306 26.5438 5.56306 23.6903V13.1452C5.56306 10.2916 7.8763 7.97839 10.7298 7.97839H15.0256V7.25999C14.1647 6.97959 13.5425 6.17043 13.5425 5.21595C13.5425 4.02894 14.5048 3.06668 15.6918 3.06668H16.3059C17.4929 3.06668 18.4552 4.02894 18.4552 5.21595ZM19.3627 16.3283C19.3627 15.4377 18.8585 14.7157 18.2364 14.7156C17.6144 14.7156 17.1102 15.4375 17.1102 16.3281C17.1102 17.2187 17.6144 17.9407 18.2364 17.9407C18.8585 17.9408 19.3627 17.2189 19.3627 16.3283ZM15.0052 16.3308C15.0052 15.4414 14.501 14.7204 13.879 14.7203C13.2569 14.7201 12.7527 15.441 12.7527 16.3303C12.7527 17.2197 13.2569 17.9407 13.879 17.9409C14.501 17.941 15.0052 17.2201 15.0052 16.3308ZM13.8479 20.4174C13.5479 20.0425 13.0008 19.9817 12.6258 20.2816C12.2509 20.5816 12.1901 21.1287 12.4901 21.5037C13.9695 23.353 17.318 24.117 19.5385 21.5264C19.851 21.1618 19.8088 20.6129 19.4442 20.3004C19.0796 19.9879 18.5308 20.0302 18.2183 20.3947C16.8329 22.011 14.7724 21.5731 13.8479 20.4174Z" fill="#D9CDF9"/>
<path d="M27.7015 15.9167C27.7015 15.3392 28.1696 14.8711 28.7471 14.8711H28.8631C30.5955 14.8711 32 16.2755 32 18.008V19.7172C32 21.4496 30.5955 22.8541 28.8631 22.8541H28.7471C28.1696 22.8541 27.7015 22.3859 27.7015 21.8084V15.9167Z" fill="#9C7EEF"/>
</svg>
