<svg width="24" height="24" viewBox="0 0 24 24" fill="none" xmlns="http://www.w3.org/2000/svg">
<path d="M20.6425 4.14299C20.6425 3.70906 20.2909 3.35749 19.857 3.35749H4.14299C3.70906 3.35749 3.35749 3.70906 3.35749 4.14299V19.857C3.35749 20.2909 3.70906 20.6425 4.14299 20.6425H19.857C20.2909 20.6425 20.6425 20.2909 20.6425 19.857V4.14299ZM23 19.857C23 21.5927 21.5927 23 19.857 23H4.14299C2.40727 23 1 21.5927 1 19.857V4.14299C1 2.40727 2.40727 1 4.14299 1H19.857C21.5927 1 23 2.40727 23 4.14299V19.857Z" fill="#8D94A0"/>
<path d="M16.9471 6.9C17.5286 6.9 18 7.3714 18 7.95291V16.0112C18 16.5927 17.5286 17.0641 16.9471 17.0641C16.3656 17.0641 15.8942 16.5927 15.8942 16.0112V7.95291C15.8942 7.3714 16.3656 6.9 16.9471 6.9Z" fill="#8D94A0"/>
<path d="M7.51458 16.3279C7.37127 16.767 6.96175 17.0641 6.49982 17.0641C5.76585 17.0641 5.25086 16.3405 5.49128 15.6471L8.09081 8.14882C8.34998 7.40127 9.0543 6.9 9.8455 6.9H9.9098C10.7018 6.9 11.4067 7.40232 11.6652 8.15098L14.2567 15.6558C14.4948 16.3454 13.9826 17.0641 13.2531 17.0641C12.7936 17.0641 12.3863 16.7686 12.2437 16.3318L11.7176 14.7197H8.03942L7.51458 16.3279ZM8.5729 13.0771H11.1841L9.91361 9.18834H9.84341L8.5729 13.0771Z" fill="#8D94A0"/>
</svg>
