<svg width="24" height="24" viewBox="0 0 24 24" fill="none" xmlns="http://www.w3.org/2000/svg">
<g clip-path="url(#clip0_14904_66)">
<path fill-rule="evenodd" clip-rule="evenodd" d="M13.8414 3.91194C13.8414 4.65637 13.3367 5.28294 12.6509 5.46824V5.98377H15.9562C18.0964 5.98377 19.8313 7.7187 19.8313 9.85885V17.7677C19.8313 19.9078 18.0964 21.6428 15.9562 21.6428H8.04737C5.90722 21.6428 4.1723 19.9078 4.1723 17.7677V9.85885C4.1723 7.7187 5.90722 5.98377 8.04737 5.98377H11.2692V5.44497C10.6235 5.23467 10.1569 4.6278 10.1569 3.91194C10.1569 3.02168 10.8786 2.29999 11.7689 2.29999H12.2294C13.1197 2.29999 13.8414 3.02168 13.8414 3.91194ZM14.522 12.2462C14.522 11.5782 14.1438 11.0367 13.6773 11.0367C13.2108 11.0367 12.8326 11.5781 12.8326 12.246C12.8326 12.914 13.2108 13.4555 13.6773 13.4555C14.1438 13.4556 14.522 12.9141 14.522 12.2462ZM11.2539 12.2481C11.2539 11.5811 10.8757 11.0403 10.4092 11.0402C9.94271 11.0401 9.56452 11.5807 9.56452 12.2477C9.56452 12.9147 9.94271 13.4555 10.4092 13.4556C10.8757 13.4557 11.2539 12.9151 11.2539 12.2481ZM3.22391 11.9375C3.22391 11.5044 2.8728 11.1533 2.43968 11.1533H2.35269C1.05334 11.1533 0 12.2066 0 13.506V14.7878C0 16.0872 1.05334 17.1405 2.35269 17.1405H2.43968C2.8728 17.1405 3.22391 16.7894 3.22391 16.3563V11.9375ZM21.5603 11.1533C21.1272 11.1533 20.7761 11.5044 20.7761 11.9375V16.3563C20.7761 16.7894 21.1272 17.1405 21.5603 17.1405H21.6473C22.9467 17.1405 24 16.0872 24 14.7878V13.506C24 12.2066 22.9467 11.1533 21.6473 11.1533H21.5603ZM14.5661 17.2517C14.2849 17.4766 13.8745 17.431 13.6495 17.1498C12.9561 16.2831 11.4108 15.9546 10.3718 17.1668C10.1374 17.4403 9.72573 17.4719 9.4523 17.2376C9.17887 17.0032 9.1472 16.5915 9.38157 16.3181C11.047 14.3751 13.5583 14.9482 14.6679 16.3351C14.8929 16.6163 14.8473 17.0267 14.5661 17.2517Z" fill="#8D94A0"/>
</g>
<defs>
<clipPath id="clip0_14904_66">
<rect width="24" height="24" fill="white"/>
</clipPath>
</defs>
</svg>
