<svg width="24" height="24" viewBox="0 0 24 24" fill="none" xmlns="http://www.w3.org/2000/svg">
<mask id="mask0_10068_32475" style="mask-type:luminance" maskUnits="userSpaceOnUse" x="1" y="1" width="22" height="22">
<path d="M23 1H1V23H23V1Z" fill="white"/>
</mask>
<g mask="url(#mask0_10068_32475)">
<path d="M12 7.1875C12.3471 7.18743 12.693 7.22663 13.0312 7.30438V2.03125C13.0312 1.75775 12.9226 1.49544 12.7292 1.30205C12.5358 1.10865 12.2735 1 12 1C11.7265 1 11.4642 1.10865 11.2708 1.30205C11.0774 1.49544 10.9688 1.75775 10.9688 2.03125V7.30438C11.307 7.22663 11.6529 7.18743 12 7.1875Z" fill="#F5525D"/>
<path d="M12 16.8125C12.3471 16.8126 12.693 16.7734 13.0312 16.6956V21.9687C13.0312 22.2422 12.9226 22.5045 12.7292 22.6979C12.5358 22.8913 12.2735 23 12 23C11.7265 23 11.4642 22.8913 11.2708 22.6979C11.0774 22.5045 10.9688 22.2422 10.9688 21.9687V16.6956C11.307 16.7734 11.6529 16.8126 12 16.8125Z" fill="#F5525D"/>
<path d="M12 16.8125C11.0482 16.8125 10.1177 16.5303 9.32632 16.0014C8.53491 15.4726 7.91808 14.721 7.55383 13.8417C7.18959 12.9623 7.09428 11.9947 7.27997 11.0611C7.46566 10.1276 7.92401 9.27009 8.59705 8.59705C9.27009 7.92401 10.1276 7.46566 11.0611 7.27997C11.9947 7.09428 12.9623 7.18959 13.8417 7.55383C14.721 7.91808 15.4726 8.53491 16.0014 9.32632C16.5303 10.1177 16.8125 11.0482 16.8125 12C16.8125 13.2764 16.3055 14.5004 15.403 15.403C14.5004 16.3055 13.2764 16.8125 12 16.8125ZM12 9.25C11.4561 9.25 10.9244 9.41129 10.4722 9.71346C10.0199 10.0156 9.66747 10.4451 9.45933 10.9476C9.25119 11.4501 9.19673 12.0031 9.30284 12.5365C9.40895 13.0699 9.67086 13.56 10.0555 13.9445C10.4401 14.3291 10.9301 14.5911 11.4635 14.6972C11.997 14.8033 12.5499 14.7488 13.0524 14.5407C13.5549 14.3325 13.9844 13.9801 14.2865 13.5278C14.5887 13.0756 14.75 12.5439 14.75 12C14.75 11.2707 14.4603 10.5712 13.9445 10.0555C13.4288 9.53973 12.7293 9.25 12 9.25Z" fill="#8D94A0"/>
<path d="M4.51318 10.9687C4.73886 9.33627 5.49162 7.8222 6.65694 6.65688C7.82225 5.49157 9.33633 4.7388 10.9688 4.51312V2.45062C8.78796 2.68503 6.75259 3.65728 5.19975 5.20637C3.6469 6.75547 2.66973 8.78848 2.43005 10.9687H4.51318Z" fill="#8D94A0"/>
<path d="M13.0312 4.51312C14.6637 4.7388 16.1778 5.49156 17.3431 6.65688C18.5084 7.82219 19.2612 9.33627 19.4869 10.9687H21.5494C21.315 8.7879 20.3427 6.75253 18.7936 5.19969C17.2445 3.64684 15.2115 2.66967 13.0312 2.42999V4.51312Z" fill="#8D94A0"/>
<path d="M19.4869 13.0312C19.2612 14.6637 18.5084 16.1778 17.3431 17.3431C16.1778 18.5084 14.6637 19.2612 13.0312 19.4869V21.5494C15.2121 21.315 17.2475 20.3427 18.8003 18.7936C20.3532 17.2445 21.3303 15.2115 21.57 13.0312H19.4869Z" fill="#8D94A0"/>
<path d="M10.9688 19.4869C9.33633 19.2612 7.82226 18.5084 6.65694 17.3431C5.49163 16.1778 4.73887 14.6637 4.51318 13.0312H2.45068C2.68509 15.2121 3.65734 17.2475 5.20643 18.8003C6.75553 20.3532 8.78854 21.3303 10.9688 21.57V19.4869Z" fill="#8D94A0"/>
<path d="M7.1875 12C7.18743 11.6529 7.22663 11.307 7.30438 10.9688H2.03125C1.75775 10.9688 1.49544 11.0774 1.30205 11.2708C1.10865 11.4642 1 11.7265 1 12C1 12.2735 1.10865 12.5358 1.30205 12.7292C1.49544 12.9226 1.75775 13.0312 2.03125 13.0312H7.30438C7.22663 12.693 7.18743 12.3471 7.1875 12Z" fill="#F5525D"/>
<path d="M16.8126 12C16.8126 11.6529 16.7734 11.307 16.6957 10.9688H21.9688C22.2423 10.9688 22.5046 11.0774 22.698 11.2708C22.8914 11.4642 23.0001 11.7265 23.0001 12C23.0001 12.2735 22.8914 12.5358 22.698 12.7292C22.5046 12.9226 22.2423 13.0312 21.9688 13.0312H16.6957C16.7734 12.693 16.8126 12.3471 16.8126 12Z" fill="#F5525D"/>
</g>
</svg>
