<svg width="24" height="24" viewBox="0 0 24 24" fill="none" xmlns="http://www.w3.org/2000/svg">
<path fill-rule="evenodd" clip-rule="evenodd" d="M20 7.19999H3.99995C3.68169 7.19999 3.37647 7.07356 3.15142 6.84852C2.92638 6.62347 2.79995 6.31825 2.79995 5.99999C2.79995 5.68173 2.92638 5.3765 3.15142 5.15146C3.37647 4.92642 3.68169 4.79999 3.99995 4.79999H20C20.3182 4.79999 20.6234 4.92642 20.8485 5.15146C21.0735 5.3765 21.2 5.68173 21.2 5.99999C21.2 6.31825 21.0735 6.62347 20.8485 6.84852C20.6234 7.07356 20.3182 7.19999 20 7.19999ZM13.2587 10.6882L20 10.8C20.3182 10.8 20.6234 10.9264 20.8485 11.1515C21.0735 11.3765 21.2 11.6817 21.2 12C21.2 12.3182 21.0735 12.6235 20.8485 12.8485C20.6234 13.0736 20.3182 13.2 20 13.2L13.2587 13.0882C12.9404 13.0882 12.6352 12.9617 12.4102 12.7367C12.1851 12.5117 12.0587 12.2064 12.0587 11.8882C12.0587 11.5699 12.1851 11.2647 12.4102 11.0396C12.6352 10.8146 12.9404 10.6882 13.2587 10.6882ZM8.29581 16.8049L20 16.8C20.1575 16.8 20.3136 16.831 20.4592 16.8913C20.6048 16.9516 20.737 17.04 20.8485 17.1515C20.9599 17.2629 21.0483 17.3952 21.1086 17.5408C21.1689 17.6864 21.2 17.8424 21.2 18C21.2 18.1576 21.1689 18.3136 21.1086 18.4592C21.0483 18.6048 20.9599 18.7371 20.8485 18.8485C20.737 18.9599 20.6048 19.0483 20.4592 19.1086C20.3136 19.169 20.1575 19.2 20 19.2L8.29581 19.2049C8.13823 19.2049 7.98218 19.1738 7.83659 19.1135C7.691 19.0532 7.55871 18.9648 7.44728 18.8534C7.33585 18.742 7.24746 18.6097 7.18716 18.4641C7.12685 18.3185 7.09581 18.1625 7.09581 18.0049C7.09581 17.8473 7.12685 17.6912 7.18716 17.5456C7.24746 17.4001 7.33585 17.2678 7.44728 17.1563C7.55871 17.0449 7.691 16.9565 7.83659 16.8962C7.98218 16.8359 8.13823 16.8049 8.29581 16.8049Z" fill="#8D94A0"/>
</svg>
