<svg width="24" height="24" viewBox="0 0 24 24" fill="none" xmlns="http://www.w3.org/2000/svg">
<path fill-rule="evenodd" clip-rule="evenodd" d="M3.99999 7.19999H20C20.3182 7.19999 20.6235 7.07356 20.8485 6.84852C21.0736 6.62347 21.2 6.31825 21.2 5.99999C21.2 5.68173 21.0736 5.3765 20.8485 5.15146C20.6235 4.92642 20.3182 4.79999 20 4.79999H3.99999C3.68173 4.79999 3.3765 4.92642 3.15146 5.15146C2.92642 5.3765 2.79999 5.68173 2.79999 5.99999C2.79999 6.31825 2.92642 6.62347 3.15146 6.84852C3.3765 7.07356 3.68173 7.19999 3.99999 7.19999ZM10.7412 10.6882L3.99999 10.8C3.68173 10.8 3.3765 10.9264 3.15146 11.1515C2.92642 11.3765 2.79999 11.6817 2.79999 12C2.79999 12.3182 2.92642 12.6235 3.15146 12.8485C3.3765 13.0736 3.68173 13.2 3.99999 13.2L10.7412 13.0882C11.0595 13.0882 11.3647 12.9617 11.5898 12.7367C11.8148 12.5117 11.9412 12.2064 11.9412 11.8882C11.9412 11.5699 11.8148 11.2647 11.5898 11.0396C11.3647 10.8146 11.0595 10.6882 10.7412 10.6882ZM15.7041 16.8049L3.99999 16.8C3.8424 16.8 3.68636 16.831 3.54077 16.8913C3.39518 16.9516 3.26289 17.04 3.15146 17.1515C3.04003 17.2629 2.95164 17.3952 2.89133 17.5408C2.83103 17.6864 2.79999 17.8424 2.79999 18C2.79999 18.1576 2.83103 18.3136 2.89133 18.4592C2.95164 18.6048 3.04003 18.7371 3.15146 18.8485C3.26289 18.9599 3.39518 19.0483 3.54077 19.1086C3.68636 19.169 3.8424 19.2 3.99999 19.2L15.7041 19.2049C15.8617 19.2049 16.0178 19.1738 16.1633 19.1135C16.3089 19.0532 16.4412 18.9648 16.5527 18.8534C16.6641 18.742 16.7525 18.6097 16.8128 18.4641C16.8731 18.3185 16.9041 18.1625 16.9041 18.0049C16.9041 17.8473 16.8731 17.6912 16.8128 17.5456C16.7525 17.4001 16.6641 17.2678 16.5527 17.1563C16.4412 17.0449 16.3089 16.9565 16.1633 16.8962C16.0178 16.8359 15.8617 16.8049 15.7041 16.8049Z" fill="#8D94A0"/>
</svg>
