<svg width="24" height="24" viewBox="0 0 24 24" fill="none" xmlns="http://www.w3.org/2000/svg">
<path fill-rule="evenodd" clip-rule="evenodd" d="M4.00005 7.19999H20C20.3183 7.19999 20.6235 7.07356 20.8486 6.84852C21.0736 6.62347 21.2001 6.31825 21.2001 5.99999C21.2001 5.68173 21.0736 5.3765 20.8486 5.15146C20.6235 4.92642 20.3183 4.79999 20 4.79999H4.00005C3.68179 4.79999 3.37656 4.92642 3.15152 5.15146C2.92648 5.3765 2.80005 5.68173 2.80005 5.99999C2.80005 6.31825 2.92648 6.62347 3.15152 6.84852C3.37656 7.07356 3.68179 7.19999 4.00005 7.19999ZM15.1821 10.6882L8.44082 10.8C8.12256 10.8 7.81734 10.9264 7.59229 11.1515C7.36725 11.3765 7.24082 11.6817 7.24082 12C7.24082 12.3182 7.36725 12.6235 7.59229 12.8485C7.81734 13.0736 8.12256 13.2 8.44082 13.2L15.1821 13.0882C15.5003 13.0882 15.8056 12.9617 16.0306 12.7367C16.2557 12.5117 16.3821 12.2064 16.3821 11.8882C16.3821 11.5699 16.2557 11.2647 16.0306 11.0396C15.8056 10.8146 15.5003 10.6882 15.1821 10.6882ZM17.7862 16.8049L6.08208 16.8C5.92449 16.8 5.76845 16.831 5.62286 16.8913C5.47727 16.9516 5.34498 17.04 5.23355 17.1515C5.12212 17.2629 5.03373 17.3952 4.97342 17.5408C4.91312 17.6864 4.88208 17.8424 4.88208 18C4.88208 18.1576 4.91312 18.3136 4.97342 18.4592C5.03373 18.6048 5.12212 18.7371 5.23355 18.8485C5.34498 18.9599 5.47727 19.0483 5.62286 19.1086C5.76845 19.169 5.92449 19.2 6.08208 19.2L17.7862 19.2049C17.9438 19.2049 18.0998 19.1738 18.2454 19.1135C18.391 19.0532 18.5233 18.9648 18.6347 18.8534C18.7462 18.742 18.8346 18.6097 18.8949 18.4641C18.9552 18.3185 18.9862 18.1625 18.9862 18.0049C18.9862 17.8473 18.9552 17.6912 18.8949 17.5456C18.8346 17.4001 18.7462 17.2678 18.6347 17.1563C18.5233 17.0449 18.391 16.9565 18.2454 16.8962C18.0998 16.8359 17.9438 16.8049 17.7862 16.8049Z" fill="#8D94A0"/>
</svg>
