<svg width="24" height="24" viewBox="0 0 24 24" fill="none" xmlns="http://www.w3.org/2000/svg">
<path d="M5.75585 21C5.3384 21 5 20.6616 5 20.2442V3.75585C5 3.3384 5.3384 3 5.75585 3H12.1602C16.1257 3 18.1395 4.91437 18.1271 7.62431C18.1393 9.70789 16.7861 11.0302 14.9728 11.4601C14.9276 11.4708 14.895 11.511 14.895 11.5575C14.895 11.6104 14.9366 11.6538 14.9893 11.6577C16.9803 11.8018 18.8358 13.4087 18.8481 16.0276C18.8356 18.8867 16.6975 21 12.6326 21H5.75585ZM8.72928 17.5392C8.72928 17.7479 8.89848 17.9171 9.10721 17.9171H11.8867C14.0497 17.9296 14.982 17.0345 14.9696 15.6796C14.982 14.163 13.826 13.0939 11.9862 13.0939H9.1072C8.89848 13.0939 8.72928 13.2631 8.72928 13.4718V17.5392ZM8.72928 10.1552C8.72928 10.3639 8.89848 10.5331 9.10721 10.5331H11.6133C13.1796 10.5456 14.3605 9.66298 14.3481 8.22099C14.3605 6.91575 13.3909 6.03315 11.6878 6.03315H9.10721C8.89848 6.03315 8.72928 6.20235 8.72928 6.41107V10.1552Z" fill="#8D94A0"/>
</svg>
