<svg width="24" height="24" viewBox="0 0 24 24" fill="none" xmlns="http://www.w3.org/2000/svg">
<path d="M3.31586 19.5499C2.54484 19.5499 1.9198 18.9249 1.9198 18.1539V5.39606C1.9198 4.62504 2.54484 4 3.31586 4C4.08688 4 4.71191 4.62504 4.71191 5.39606V10.5937H10.3607V5.4068C10.3607 4.62984 10.9905 4 11.7675 4C12.5444 4 13.1743 4.62984 13.1743 5.4068V18.1431C13.1743 18.9201 12.5444 19.5499 11.7675 19.5499C10.9905 19.5499 10.3607 18.9201 10.3607 18.1431V12.9348H4.71191V18.1539C4.71191 18.9249 4.08688 19.5499 3.31586 19.5499Z" fill="#8D94A0"/>
<path d="M16.3009 19.55C15.7193 19.55 15.2465 19.0812 15.2415 18.4997L15.2413 18.4786C15.2388 18.1904 15.3538 17.9136 15.5599 17.7121L18.6501 14.6892C19.5361 13.7883 20.0152 13.2296 20.0152 12.4264C20.0152 11.5255 19.3786 10.9668 18.5058 10.9738C17.9404 10.9694 17.4988 11.2087 17.2526 11.6316C16.9911 12.0809 16.6123 12.5382 16.0924 12.5382C15.5762 12.5382 15.1411 12.1134 15.267 11.6128C15.6283 10.1759 16.8636 9.29766 18.532 9.29766C20.5665 9.29766 21.9185 10.5338 21.9185 12.2868C21.9185 13.4391 21.3935 14.3819 19.4377 16.2676L18.005 17.7506C17.9979 17.758 17.9938 17.7679 17.9938 17.7782C17.9938 17.8002 18.0117 17.818 18.0336 17.818H21.1838C21.662 17.818 22.0498 18.2057 22.0498 18.684C22.0498 19.1623 21.662 19.55 21.1838 19.55H16.3009Z" fill="#8D94A0"/>
</svg>
