<svg width="24" height="24" viewBox="0 0 24 24" fill="none" xmlns="http://www.w3.org/2000/svg">
<path d="M4.39619 19.5514C3.6251 19.5514 3 18.9263 3 18.1552V5.39619C3 4.6251 3.6251 4 4.39619 4C5.16729 4 5.79238 4.6251 5.79238 5.39619V10.5943H11.4417V5.40693C11.4417 4.62991 12.0716 4 12.8487 4C13.6257 4 14.2556 4.62991 14.2556 5.40693V18.1445C14.2556 18.9215 13.6257 19.5514 12.8487 19.5514C12.0716 19.5514 11.4417 18.9215 11.4417 18.1445V12.9356H5.79238V18.1552C5.79238 18.9263 5.16729 19.5514 4.39619 19.5514Z" fill="#8D94A0"/>
<path d="M19.9404 9.43787C20.5256 9.43787 21 9.91226 21 10.4975V18.4969C21 19.0793 20.5278 19.5515 19.9453 19.5515C19.3629 19.5515 18.8907 19.0793 18.8907 18.4969V11.4789C18.8907 11.4549 18.8712 11.4355 18.8473 11.4355C18.8391 11.4355 18.8311 11.4378 18.8242 11.4421L17.7235 12.1317C17.1982 12.4608 16.5159 12.0831 16.5159 11.4632C16.5159 11.1936 16.6536 10.9427 16.881 10.7978L18.756 9.60373C18.926 9.49541 19.1235 9.43787 19.3251 9.43787H19.9404Z" fill="#8D94A0"/>
</svg>
