<svg width="24" height="24" viewBox="0 0 24 24" fill="none" xmlns="http://www.w3.org/2000/svg">
<path d="M5 20.5472V19.908C5 19.7571 5.03391 19.6594 5.10173 19.6151C5.16955 19.5618 5.28097 19.5352 5.43599 19.5352H7.81938C8.15848 19.5352 8.37163 19.5085 8.45883 19.4552C8.55572 19.402 8.63807 19.2466 8.70589 18.9892L12.5571 5.02416C12.6249 4.7667 12.6201 4.61134 12.5426 4.55807C12.4748 4.49593 12.2568 4.46485 11.8886 4.46485H9.6796C9.49551 4.46485 9.38409 4.43822 9.34534 4.38495C9.31627 4.33168 9.30174 4.22071 9.30174 4.05203V3.47941C9.30174 3.27522 9.33081 3.14649 9.38894 3.09322C9.44707 3.03107 9.58271 3 9.79586 3H18.3703C18.5737 3 18.7094 3.02663 18.7772 3.0799C18.8547 3.12429 18.8935 3.24858 18.8935 3.45277V4.03872C18.8935 4.23403 18.8547 4.35388 18.7772 4.39827C18.7094 4.44266 18.564 4.46485 18.3412 4.46485H16.1031C15.8028 4.46485 15.6332 4.50924 15.5945 4.59802C15.5557 4.67792 15.5121 4.82885 15.4637 5.05079L11.6415 19.0025C11.5737 19.2599 11.5834 19.4153 11.6706 19.4686C11.7578 19.513 11.9758 19.5352 12.3246 19.5352H14.2429C14.553 19.5352 14.737 19.5751 14.7952 19.655C14.8533 19.7349 14.8824 19.9169 14.8824 20.201V20.494C14.8824 20.6893 14.8582 20.8224 14.8097 20.8935C14.7613 20.9645 14.6305 21 14.4173 21H5.55225C5.32941 21 5.18408 20.9734 5.11626 20.9201C5.03875 20.8668 5 20.7425 5 20.5472Z" fill="#8D94A0"/>
</svg>
