<svg width="24" height="24" viewBox="0 0 24 24" fill="none" xmlns="http://www.w3.org/2000/svg">
<path d="M15.2468 4.29705C15.2468 3.58068 15.8276 2.99994 16.544 2.99994C17.2603 2.99994 17.8411 3.58068 17.8411 4.29705V12.0778C17.8312 15.0622 15.5142 17.1062 12.0189 17.1062C8.50383 17.1062 6.20665 15.0622 6.19675 12.0778V4.28715C6.19675 3.57624 6.77306 2.99994 7.48396 2.99994C8.19487 2.99994 8.77118 3.57624 8.77118 4.28715V11.8667C8.78108 13.6228 10.0386 14.8703 12.0189 14.8799C13.9992 14.8703 15.2468 13.6228 15.2468 11.8667V4.29705Z" fill="#8D94A0"/>
<path d="M17.5442 18.8594C18.1353 18.8594 18.6145 19.3386 18.6145 19.9297C18.6145 20.5208 18.1353 20.9999 17.5442 20.9999H6.57027C5.97918 20.9999 5.5 20.5208 5.5 19.9297C5.5 19.3386 5.97918 18.8594 6.57027 18.8594H17.5442Z" fill="#8D94A0"/>
</svg>
