<svg width="24" height="24" viewBox="0 0 24 24" fill="none" xmlns="http://www.w3.org/2000/svg">
<path d="M3.31586 19.5499C2.54484 19.5499 1.9198 18.9249 1.9198 18.1539V5.39606C1.9198 4.62504 2.54484 4 3.31586 4C4.08688 4 4.71191 4.62504 4.71191 5.39606V10.5937H10.3607V5.4068C10.3607 4.62984 10.9905 4 11.7675 4C12.5444 4 13.1743 4.62984 13.1743 5.4068V18.1431C13.1743 18.9201 12.5444 19.5499 11.7675 19.5499C10.9905 19.5499 10.3607 18.9201 10.3607 18.1431V12.9348H4.71191V18.1539C4.71191 18.9249 4.08688 19.5499 3.31586 19.5499Z" fill="#8D94A0"/>
<path d="M18.7734 19.5719C17.071 19.5719 15.7458 18.8381 15.2315 17.6891C14.9906 17.1509 15.4856 16.6461 16.0754 16.6461C16.6365 16.6461 17.0942 17.1575 17.5385 17.5002C17.845 17.7365 18.2828 17.8729 18.7871 17.8765C19.7715 17.8697 20.4756 17.3228 20.4687 16.523C20.4756 15.7164 19.7578 15.149 18.5957 15.1422H18.4385C18.0194 15.1422 17.6797 14.8025 17.6797 14.3834C17.6797 13.9643 18.0194 13.6246 18.4385 13.6246H18.5957C19.5732 13.6246 20.2568 13.0914 20.25 12.3121C20.2568 11.5533 19.6758 11.0338 18.8008 11.0406C18.3146 11.0368 17.877 11.187 17.5782 11.4514C17.1793 11.8045 16.7542 12.2847 16.2215 12.2847C15.6635 12.2847 15.1952 11.8099 15.4119 11.2956C15.8981 10.1416 17.193 9.39998 18.8008 9.39998C20.8652 9.39998 22.2392 10.6236 22.2324 12.189C22.2392 13.2833 21.485 14.0639 20.3987 14.2735C20.376 14.2779 20.3594 14.2976 20.3594 14.3207C20.3594 14.3448 20.3777 14.3651 20.4015 14.3682C21.8308 14.5577 22.6151 15.4344 22.6015 16.6597C22.6152 18.3551 21.0088 19.5719 18.7734 19.5719Z" fill="#8D94A0"/>
</svg>
