<svg width="24" height="24" viewBox="0 0 24 24" fill="none" xmlns="http://www.w3.org/2000/svg">
<path d="M20.6425 4.14299C20.6425 3.70906 20.2909 3.35749 19.857 3.35749H4.14299C3.70906 3.35749 3.35749 3.70906 3.35749 4.14299V19.857C3.35749 20.2909 3.70906 20.6425 4.14299 20.6425H19.857C20.2909 20.6425 20.6425 20.2909 20.6425 19.857V4.14299ZM23 19.857C23 21.5927 21.5927 23 19.857 23H4.14299C2.40727 23 1 21.5927 1 19.857V4.14299C1 2.40727 2.40727 1 4.14299 1H19.857C21.5927 1 23 2.40727 23 4.14299V19.857Z" fill="#8D94A0"/>
<path d="M5 10.2002V6.7002C5 5.76131 5.76131 5 6.7002 5H10.2002C10.8629 5 11.4004 5.53745 11.4004 6.2002C11.4004 6.86294 10.8629 7.40039 10.2002 7.40039H7.40039V10.2002C7.40039 10.8629 6.86294 11.4004 6.2002 11.4004C5.53745 11.4004 5 10.8629 5 10.2002Z" fill="#8D94A0"/>
<path d="M19.4004 14.2002V17.7002C19.4004 18.6391 18.6391 19.4004 17.7002 19.4004H14.2002C13.5375 19.4004 13 18.8629 13 18.2002C13 17.5375 13.5375 17 14.2002 17H17V14.2002C17 13.5375 17.5375 13 18.2002 13C18.8629 13 19.4004 13.5375 19.4004 14.2002Z" fill="#8D94A0"/>
</svg>
