<svg width="24" height="24" viewBox="0 0 24 24" fill="none" xmlns="http://www.w3.org/2000/svg">
<path fill-rule="evenodd" clip-rule="evenodd" d="M12.766 6.60398C12.6115 6.45144 12.4156 6.34766 12.2026 6.30553C11.9896 6.26339 11.7689 6.28476 11.568 6.36698C11.4344 6.42199 11.3128 6.50249 11.21 6.60398L5.504 12.31C5.30213 12.5171 5.18996 12.7954 5.19177 13.0846C5.19358 13.3738 5.30923 13.6507 5.51368 13.8553C5.71813 14.0599 5.99493 14.1757 6.28415 14.1777C6.57337 14.1797 6.85175 14.0677 7.059 13.866L10.888 10.036V21.381C10.888 21.6727 11.0039 21.9525 11.2102 22.1588C11.4165 22.3651 11.6963 22.481 11.988 22.481C12.2797 22.481 12.5595 22.3651 12.7658 22.1588C12.9721 21.9525 13.088 21.6727 13.088 21.381V10.038L16.917 13.867C17.132 14.082 17.413 14.189 17.695 14.189C17.9126 14.189 18.1254 14.1246 18.3063 14.0037C18.4873 13.8828 18.6283 13.711 18.7116 13.51C18.7949 13.3089 18.8167 13.0877 18.7742 12.8743C18.7317 12.6608 18.6269 12.4648 18.473 12.311L12.766 6.60398ZM21.38 2.09998H2.596C2.30426 2.09998 2.02447 2.21587 1.81818 2.42216C1.61189 2.62845 1.496 2.90824 1.496 3.19998C1.496 3.49171 1.61189 3.7715 1.81818 3.97779C2.02447 4.18408 2.30426 4.29998 2.596 4.29998H21.381C21.6727 4.29998 21.9525 4.18408 22.1588 3.97779C22.3651 3.7715 22.481 3.49171 22.481 3.19998C22.481 2.90824 22.3651 2.62845 22.1588 2.42216C21.9525 2.21587 21.6727 2.09998 21.381 2.09998" fill="#8D94A0"/>
</svg>
