<svg width="24" height="24" viewBox="0 0 24 24" fill="none" xmlns="http://www.w3.org/2000/svg">
<path fill-rule="evenodd" clip-rule="evenodd" d="M10.88 20.4661L10.88 6.43012L5.429 11.8811C4.96 12.3501 4.2 12.3501 3.732 11.8811C3.263 11.4121 3.263 10.6531 3.732 10.1841L11.232 2.68412C11.234 2.68112 11.238 2.68012 11.241 2.67712C11.35 2.57012 11.479 2.48412 11.621 2.42512C11.915 2.30312 12.245 2.30312 12.539 2.42512C12.682 2.48412 12.81 2.57012 12.919 2.67712C12.922 2.68012 12.926 2.68112 12.929 2.68412L20.429 10.1841C20.663 10.4181 20.78 10.7251 20.78 11.0321C20.78 11.3401 20.663 11.6471 20.429 11.8811C19.96 12.3501 19.2 12.3501 18.732 11.8811L13.28 6.43012L13.28 20.4661C13.28 21.1291 12.743 21.6661 12.08 21.6661C11.418 21.6661 10.88 21.1291 10.88 20.4661Z" fill="#8D94A0"/>
</svg>
