<svg width="16" height="17" viewBox="0 0 16 17" fill="none" xmlns="http://www.w3.org/2000/svg">
<path fill-rule="evenodd" clip-rule="evenodd" d="M4.11169 3.13555C4.11169 2.73055 3.78336 2.40222 3.37835 2.40222C2.97334 2.40222 2.64502 2.73055 2.64502 3.13555V9.10478C2.64502 10.4303 3.71953 11.5048 5.04502 11.5048L10.851 11.5048L9.01 13.3457C8.72361 13.6321 8.72361 14.0964 9.00999 14.3828C9.29637 14.6692 9.76069 14.6692 10.0471 14.3828L13.1399 11.29C13.1897 11.2402 13.2316 11.1841 13.2647 11.1235C13.2982 11.0624 13.3232 10.9961 13.3382 10.9261C13.3491 10.8756 13.3547 10.8238 13.3547 10.7714C13.3547 10.7191 13.3491 10.6672 13.3383 10.6168C13.3229 10.5452 13.2971 10.4775 13.2625 10.4154C13.2297 10.3563 13.1886 10.3015 13.1399 10.2529L10.0471 7.16004C9.7607 6.87366 9.29638 6.87366 9.01 7.16004C8.72361 7.44642 8.72361 7.91075 9.01 8.19713L10.851 10.0381L5.04502 10.0381C4.52955 10.0381 4.11169 9.62024 4.11169 9.10478V3.13555Z" fill="#575C64"/>
</svg>
