<svg width="24" height="24" viewBox="0 0 24 24" fill="none" xmlns="http://www.w3.org/2000/svg">
<path fill-rule="evenodd" clip-rule="evenodd" d="M13.2803 3.53361L13.2803 17.5696L18.7313 12.1186C19.2003 11.6496 19.9603 11.6496 20.4283 12.1186C20.8973 12.5876 20.8973 13.3466 20.4283 13.8156L12.9283 21.3156C12.9263 21.3186 12.9223 21.3196 12.9193 21.3226C12.8103 21.4296 12.6813 21.5156 12.5393 21.5746C12.2453 21.6966 11.9153 21.6966 11.6213 21.5746C11.4783 21.5156 11.3503 21.4296 11.2413 21.3226C11.2383 21.3196 11.2343 21.3186 11.2313 21.3156L3.73128 13.8156C3.49728 13.5816 3.38028 13.2746 3.38028 12.9676C3.38028 12.6596 3.49728 12.3526 3.73128 12.1186C4.20028 11.6496 4.96028 11.6496 5.42828 12.1186L10.8803 17.5696L10.8803 3.53361C10.8803 2.87061 11.4173 2.33361 12.0803 2.33361C12.7423 2.33361 13.2803 2.87061 13.2803 3.53361Z" fill="#8D94A0"/>
</svg>
