<svg width="24" height="24" viewBox="0 0 24 24" fill="none" xmlns="http://www.w3.org/2000/svg">
<path d="M16.1529 2.76472C16.6118 2.36957 17.3026 2.42291 17.696 2.88388L20.6169 6.30939C21.1278 6.90857 21.1276 7.79259 20.6169 8.39185L17.696 11.8174C17.3026 12.2786 16.6119 12.3319 16.1529 11.9365C15.6943 11.541 15.6411 10.8467 16.0344 10.3854L17.6445 8.49734H13.7956C13.1636 8.49734 12.6509 9.01272 12.6509 9.64796V18.1497C12.6509 20.0002 11.1589 21.5 9.318 21.5H4.09414C3.48965 21.5 3 21.0078 3 20.4002C3.00002 19.7925 3.48966 19.3003 4.09414 19.3003H9.318C9.94996 19.3003 10.4627 18.785 10.4627 18.1497V9.64796C10.4627 7.79744 11.9547 6.29767 13.7956 6.29767H17.7242L16.0344 4.31582C15.6413 3.85449 15.6941 3.1601 16.1529 2.76472Z" fill="#8D94A0"/>
</svg>
