<svg width="24" height="24" viewBox="0 0 24 24" fill="none" xmlns="http://www.w3.org/2000/svg">
<path d="M16.1529 2.76472C16.6118 2.36957 17.3026 2.42291 17.696 2.88388L20.6169 6.30939C21.1278 6.90857 21.1276 7.79259 20.6169 8.39185L17.696 11.8174C17.3026 12.2786 16.6119 12.3319 16.1529 11.9365C15.6943 11.541 15.6411 10.8467 16.0344 10.3854L17.6406 8.50124C14.9746 8.59068 12.8404 10.7488 12.8404 13.3987V14.3989C12.8402 18.3208 9.61554 21.5 5.6372 21.5H4.11551C3.49931 21.4999 3.00018 21.0076 3 20.4002C3 19.7926 3.4992 19.3004 4.11551 19.3003H5.6372C8.38278 19.3003 10.6092 17.1055 10.6094 14.3989V13.3987C10.6094 9.50552 13.7871 6.34586 17.7252 6.29962L16.0344 4.31582C15.6413 3.85449 15.6941 3.1601 16.1529 2.76472Z" fill="#8D94A0"/>
</svg>
