<svg width="24" height="24" viewBox="0 0 24 24" fill="none" xmlns="http://www.w3.org/2000/svg">
<path d="M9.29653 10.8414C9.75998 11.3048 10.3779 11.3048 10.8414 10.8414C11.3048 10.3779 11.2276 9.68274 10.8414 9.29653L6.70762 5.16278L10.2607 5.16278C10.8787 5.16278 11.3421 4.69932 11.3421 4.08139C11.3421 3.77242 11.2649 3.54069 11.0332 3.30897C10.8014 3.07724 10.5697 3 10.2607 3L4.08139 3C3.46345 3 3 3.46345 3 4.08139L3 10.2607C3 10.8787 3.46345 11.3421 4.08139 11.3421C4.69932 11.3421 5.16278 10.8787 5.16278 10.2607L5.16278 6.70762L9.29653 10.8414Z" fill="#8D94A0"/>
<path d="M13.1586 14.7035C12.6952 14.24 12.6952 13.6221 13.1586 13.1586C13.6221 12.6952 14.3173 12.7724 14.7035 13.1586L18.8372 17.2924V13.7393C18.8372 13.1213 19.3007 12.6579 19.9186 12.6579C20.2276 12.6579 20.4593 12.7351 20.691 12.9668C20.9228 13.1986 21 13.4303 21 13.7393L21 19.9186C21 20.5365 20.5365 21 19.9186 21H13.7393C13.1213 21 12.6579 20.5365 12.6579 19.9186C12.6579 19.3007 13.1213 18.8372 13.7393 18.8372H17.2924L13.1586 14.7035Z" fill="#8D94A0"/>
</svg>
