<svg width="24" height="24" viewBox="0 0 24 24" fill="none" xmlns="http://www.w3.org/2000/svg">
<path fill-rule="evenodd" clip-rule="evenodd" d="M3.95099 7.75801H17.393L14.899 10.252C14.7077 10.4613 14.6046 10.7363 14.611 11.0197C14.6174 11.3031 14.7329 11.5732 14.9334 11.7736C15.134 11.974 15.4041 12.0893 15.6875 12.0955C15.9709 12.1018 16.2458 11.9984 16.455 11.807L20.826 7.43501C20.929 7.33334 21.0109 7.2122 21.0667 7.07865C21.1225 6.94509 21.1513 6.80177 21.1513 6.65701C21.1513 6.51225 21.1225 6.36894 21.0667 6.23538C21.0109 6.10182 20.929 5.98069 20.826 5.87901L16.455 1.50901C16.3534 1.40463 16.2321 1.32146 16.0981 1.26435C15.964 1.20723 15.82 1.1773 15.6744 1.1763C15.5287 1.17529 15.3843 1.20323 15.2495 1.25849C15.1147 1.31375 14.9922 1.39523 14.8892 1.4982C14.7862 1.60118 14.7046 1.72359 14.6492 1.85834C14.5939 1.99309 14.5659 2.13749 14.5668 2.28316C14.5677 2.42883 14.5975 2.57287 14.6546 2.70691C14.7116 2.84096 14.7947 2.96234 14.899 3.06401L17.393 5.55801H3.95099C3.65926 5.55801 3.37947 5.67391 3.17318 5.8802C2.96689 6.08649 2.851 6.36628 2.851 6.65801C2.851 6.94975 2.96689 7.22954 3.17318 7.43583C3.37947 7.64212 3.65926 7.75801 3.95099 7.75801ZM20.049 16.241H6.60699L9.1 13.747C9.30173 13.5398 9.41373 13.2614 9.41173 12.9722C9.40973 12.6829 9.29391 12.4061 9.08932 12.2017C8.88474 11.9972 8.60787 11.8816 8.31865 11.8798C8.02942 11.878 7.75112 11.9901 7.54399 12.192L3.17199 16.563C3.06932 16.6649 2.98782 16.7861 2.93221 16.9196C2.87659 17.0532 2.84796 17.1964 2.84796 17.341C2.84796 17.4857 2.87659 17.6289 2.93221 17.7624C2.98782 17.8959 3.06932 18.0171 3.17199 18.119L7.54399 22.491C7.64616 22.5932 7.76746 22.6742 7.90094 22.7295C8.03443 22.7848 8.17751 22.8133 8.32199 22.8133C8.46648 22.8133 8.60956 22.7848 8.74305 22.7295C8.87654 22.6742 8.99783 22.5932 9.1 22.491C9.20216 22.3888 9.28321 22.2676 9.3385 22.1341C9.39379 22.0006 9.42225 21.8575 9.42225 21.713C9.42225 21.5685 9.39379 21.4255 9.3385 21.292C9.28321 21.1585 9.20216 21.0372 9.1 20.935L6.60599 18.441H20.048C20.3397 18.441 20.6195 18.3251 20.8258 18.1188C21.0321 17.9125 21.148 17.6328 21.148 17.341C21.148 17.0493 21.0321 16.7695 20.8258 16.5632C20.6195 16.3569 20.3397 16.241 20.048 16.241" fill="#8D94A0"/>
</svg>
