<svg width="24" height="24" viewBox="0 0 24 24" fill="none" xmlns="http://www.w3.org/2000/svg">
<path fill-rule="evenodd" clip-rule="evenodd" d="M16.2364 3.94614L16.2364 17.3881L13.7424 14.8941C13.5331 14.7029 13.2581 14.5997 12.9747 14.6061C12.6913 14.6125 12.4212 14.728 12.2208 14.9286C12.0204 15.1291 11.9051 15.3992 11.8989 15.6826C11.8926 15.9661 11.996 16.241 12.1874 16.4501L16.5594 20.8211C16.6611 20.9242 16.7822 21.006 16.9158 21.0618C17.0493 21.1177 17.1926 21.1464 17.3374 21.1464C17.4821 21.1464 17.6255 21.1177 17.759 21.0618C17.8926 21.006 18.0137 20.9242 18.1154 20.8211L22.4854 16.4501C22.5898 16.3485 22.6729 16.2272 22.7301 16.0932C22.7872 15.9592 22.8171 15.8152 22.8181 15.6695C22.8191 15.5238 22.7912 15.3794 22.7359 15.2446C22.6807 15.1098 22.5992 14.9874 22.4962 14.8843C22.3932 14.7813 22.2708 14.6997 22.1361 14.6444C22.0013 14.589 21.8569 14.561 21.7112 14.5619C21.5656 14.5628 21.4215 14.5927 21.2875 14.6497C21.1534 14.7067 21.0321 14.7898 20.9304 14.8941L18.4364 17.3881L18.4364 3.94614C18.4364 3.6544 18.3205 3.37461 18.1142 3.16832C17.9079 2.96203 17.6281 2.84614 17.3364 2.84614C17.0446 2.84614 16.7649 2.96203 16.5586 3.16832C16.3523 3.37461 16.2364 3.6544 16.2364 3.94614ZM7.75339 20.0441L7.75339 6.60214L10.2474 9.09514C10.4546 9.29688 10.733 9.40888 11.0222 9.40688C11.3115 9.40488 11.5883 9.28905 11.7927 9.08447C11.9972 8.87989 12.1128 8.60302 12.1146 8.31379C12.1164 8.02457 12.0043 7.74627 11.8024 7.53914L7.43139 3.16714C7.3295 3.06446 7.20831 2.98297 7.07478 2.92735C6.94125 2.87174 6.79803 2.84311 6.65339 2.84311C6.50874 2.84311 6.36552 2.87174 6.23199 2.92735C6.09847 2.98297 5.97727 3.06446 5.87539 3.16714L1.50339 7.53914C1.40122 7.64131 1.32017 7.7626 1.26488 7.89609C1.20959 8.02958 1.18113 8.17265 1.18113 8.31714C1.18113 8.46163 1.20959 8.6047 1.26488 8.73819C1.32017 8.87168 1.40122 8.99297 1.50339 9.09514C1.60556 9.19731 1.72685 9.27835 1.86034 9.33365C1.99383 9.38894 2.1369 9.4174 2.28139 9.4174C2.42587 9.4174 2.56895 9.38894 2.70244 9.33365C2.83593 9.27835 2.95722 9.19731 3.05939 9.09514L5.55339 6.60114L5.55339 20.0431C5.55339 20.3349 5.66928 20.6147 5.87557 20.821C6.08186 21.0272 6.36165 21.1431 6.65339 21.1431C6.94512 21.1431 7.22491 21.0272 7.4312 20.821C7.63749 20.6147 7.75339 20.3349 7.75339 20.0431" fill="#8D94A0"/>
</svg>
