<svg width="24" height="24" viewBox="0 0 24 24" fill="none" xmlns="http://www.w3.org/2000/svg">
<path fill-rule="evenodd" clip-rule="evenodd" d="M6.16765 3.95339C6.16765 3.34588 5.67516 2.85339 5.06765 2.85339C4.46014 2.85339 3.96765 3.34588 3.96765 3.95339V12.9072C3.96765 14.8955 5.57942 16.5072 7.56765 16.5072L16.2766 16.5072L13.5151 19.2686C13.0855 19.6982 13.0855 20.3947 13.5151 20.8243C13.9447 21.2538 14.6412 21.2538 15.0707 20.8243L19.71 16.1851C19.7843 16.1108 19.8468 16.0271 19.8964 15.9367C19.947 15.8447 19.9848 15.7448 20.0075 15.6392C20.0238 15.5635 20.0322 15.4858 20.0322 15.4072C20.0322 15.3287 20.0238 15.2509 20.0075 15.1753C19.9844 15.0679 19.9457 14.9663 19.8938 14.873C19.8446 14.7844 19.783 14.7023 19.71 14.6294L15.0707 9.99012C14.6412 9.56054 13.9447 9.56054 13.5151 9.99012C13.0855 10.4197 13.0855 11.1162 13.5151 11.5458L16.2766 14.3072L7.56765 14.3072C6.79445 14.3072 6.16765 13.6804 6.16765 12.9072V3.95339Z" fill="#8D94A0"/>
</svg>
