<svg width="24" height="24" viewBox="0 0 24 24" fill="none" xmlns="http://www.w3.org/2000/svg">
<path d="M19.0855 19.0841C19.2449 18.9245 19.4026 18.6231 19.4051 18.039C19.4076 17.447 19.2454 16.6645 18.8691 15.7282C18.1185 13.8605 16.6138 11.6202 14.4978 9.50383C12.3819 7.38742 10.1422 5.88234 8.27487 5.13158C7.33881 4.75524 6.55647 4.59293 5.96455 4.59544C5.38068 4.59798 5.07923 4.75571 4.91975 4.91512C4.76028 5.07462 4.6019 5.37645 4.59942 5.96087C4.59692 6.55288 4.75996 7.33483 5.13616 8.271C5.88675 10.1387 7.39078 12.3797 9.50671 14.4961C11.6227 16.6125 13.8631 18.1168 15.7304 18.8676C16.6664 19.2439 17.4481 19.4069 18.04 19.4044C18.6243 19.402 18.9261 19.2436 19.0855 19.0841ZM20.92 20.919C20.1372 21.702 19.0933 21.9946 18.0515 21.9991C17.0172 22.0035 15.8915 21.7292 14.7623 21.2752C12.4991 20.3652 9.97451 18.6338 7.67221 16.331C5.3699 14.0281 3.63889 11.5031 2.72909 9.23934C2.27518 8.10985 2.00094 6.98394 2.00533 5.94941C2.00982 4.90738 2.30244 3.86319 3.08524 3.08021C3.86812 2.29728 4.91197 2.00448 5.9538 2.00005C6.98811 1.99566 8.11376 2.26997 9.243 2.72398C11.5062 3.634 14.0301 5.36616 16.3323 7.66892C18.6346 9.97167 20.3664 12.4962 21.2762 14.7598C21.7301 15.8893 22.0043 17.0152 22 18.0498C21.9955 19.0918 21.7028 20.1359 20.92 20.919Z" fill="#8D94A0"/>
<path d="M19.0803 4.91594C18.9208 4.75652 18.6194 4.59879 18.0354 4.59627C17.4435 4.59376 16.6612 4.75605 15.7251 5.13241C13.8578 5.88317 11.6181 7.38826 9.50216 9.50465C7.38623 11.6211 5.88147 13.8613 5.13089 15.729C4.75462 16.6653 4.59235 17.4478 4.59487 18.0398C4.5974 18.6238 4.75509 18.9254 4.91447 19.0849C5.07394 19.2444 5.37569 19.4028 5.95999 19.4053C6.55187 19.4078 7.33364 19.2447 8.2696 18.8684C10.1369 18.1177 12.3774 16.6133 14.4933 14.4969C16.6092 12.3805 18.1133 10.1395 18.8638 8.27182C19.2401 7.33565 19.4031 6.55371 19.4006 5.9617C19.3981 5.37727 19.2397 5.07545 19.0803 4.91594ZM20.9148 3.08104C21.6976 3.86403 21.9902 4.90819 21.9947 5.95023C21.9991 6.98477 21.7248 8.11067 21.2709 9.24016C20.3611 11.5039 18.6301 14.029 16.3278 16.3318C14.0255 18.6346 11.501 20.366 9.23773 21.276C8.10849 21.73 6.98283 22.0043 5.94853 21.9999C4.90674 21.9954 3.86277 21.7028 3.07997 20.9198C2.29721 20.1367 2.00448 19.0927 2.00005 18.0506C1.99566 17.0161 2.26991 15.8902 2.72382 14.7607C3.63364 12.497 5.36541 9.97251 7.66766 7.66974C9.96989 5.36699 12.4938 3.63484 14.757 2.72481C15.8862 2.27079 17.0119 1.99649 18.0462 2.00088C19.088 2.0053 20.1319 2.29809 20.9148 3.08104Z" fill="#8D94A0"/>
<path d="M13.75 12C13.75 12.9665 12.9665 13.75 12 13.75C11.0335 13.75 10.25 12.9665 10.25 12C10.25 11.0335 11.0335 10.25 12 10.25C12.9665 10.25 13.75 11.0335 13.75 12Z" fill="#8D94A0"/>
</svg>
