<svg width="24" height="24" viewBox="0 0 24 24" fill="none" xmlns="http://www.w3.org/2000/svg">
<path fill-rule="evenodd" clip-rule="evenodd" d="M23.7229 10.94L21.6859 8.16001C21.5745 8.0079 21.4288 7.8842 21.2606 7.79893C21.0924 7.71366 20.9065 7.66922 20.7179 7.66922C20.5294 7.66922 20.3434 7.71366 20.1753 7.79893C20.0071 7.8842 19.8614 8.0079 19.7499 8.16001L17.7129 10.94C17.1329 11.733 17.6989 12.849 18.6809 12.849H19.5609C19.4291 14.0242 19.0228 15.1519 18.3748 16.1412C17.7269 17.1304 16.8555 17.9535 15.8309 18.544C13.5299 19.878 10.5809 19.878 8.27792 18.544C8.0256 18.4009 7.727 18.3633 7.44709 18.4393C7.16717 18.5153 6.92861 18.6988 6.78331 18.9499C6.63802 19.2009 6.59776 19.4992 6.67128 19.7797C6.74481 20.0603 6.92618 20.3005 7.17592 20.448C8.65891 21.3071 10.3421 21.7603 12.0559 21.762C13.769 21.7602 15.4514 21.3073 16.9339 20.449C18.4152 19.5911 19.646 18.3603 20.5039 16.879C21.2128 15.6438 21.6423 14.2682 21.7619 12.849H22.7549C22.9768 12.8491 23.1943 12.7877 23.3834 12.6717C23.5724 12.5556 23.7256 12.3894 23.8259 12.1915C23.9262 11.9936 23.9696 11.7718 23.9515 11.5507C23.9333 11.3296 23.8542 11.1179 23.7229 10.939M5.53992 11.152H4.54792C4.66481 10.1198 4.99223 9.1226 5.50992 8.22201C6.17571 7.0745 7.12992 6.12097 8.27792 5.45601C10.5799 4.12401 13.5289 4.12401 15.8319 5.45601C16.0845 5.60215 16.3849 5.64194 16.6668 5.56665C16.9488 5.49135 17.1893 5.30713 17.3354 5.05451C17.4816 4.80189 17.5213 4.50157 17.4461 4.21961C17.3708 3.93765 17.1865 3.69715 16.9339 3.55101C13.9619 1.83301 10.1469 1.83301 7.17592 3.55101C5.69489 4.40924 4.46415 5.63999 3.60592 7.12101C2.89804 8.35667 2.46869 9.73208 2.34792 11.151H1.24392C1.02207 11.1509 0.804537 11.2123 0.615479 11.3284C0.426422 11.4444 0.273241 11.6107 0.172953 11.8085C0.0726642 12.0064 0.0291937 12.2282 0.0473699 12.4493C0.0655461 12.6704 0.144657 12.8822 0.275916 13.061L2.42392 15.993C2.53536 16.1451 2.68108 16.2688 2.84926 16.3541C3.01744 16.4394 3.20335 16.4838 3.39192 16.4838C3.58048 16.4838 3.76639 16.4394 3.93457 16.3541C4.10275 16.2688 4.24847 16.1451 4.35992 15.993L6.50792 13.061C6.63918 12.8822 6.71829 12.6704 6.73646 12.4493C6.75464 12.2282 6.71117 12.0064 6.61088 11.8085C6.51059 11.6107 6.35741 11.4444 6.16835 11.3284C5.9793 11.2123 5.76176 11.1509 5.53992 11.151" fill="#8D94A0"/>
<path d="M10.3545 14.9631C10.2346 15.3423 9.88284 15.6 9.48519 15.6C8.86068 15.6 8.42105 14.9863 8.62196 14.395L10.5305 8.77799C10.6958 8.29136 11.1527 7.96405 11.6667 7.96405H12.3299C12.8444 7.96405 13.3016 8.29204 13.4666 8.7794L15.3691 14.4016C15.5682 14.99 15.1306 15.6 14.5095 15.6C14.1136 15.6 13.7635 15.3434 13.6441 14.966L13.3278 13.9652H10.6699L10.3545 14.9631ZM11.1024 12.5941H12.8953L12.0305 9.85194H11.9672L11.1024 12.5941Z" fill="#8D94A0"/>
</svg>
