<svg width="24" height="24" viewBox="0 0 24 24" fill="none" xmlns="http://www.w3.org/2000/svg">
<path fill-rule="evenodd" clip-rule="evenodd" d="M6.44898 2C5.09645 2 4 3.09645 4 4.44898V17.5102V19.551C4 20.9036 5.09645 22 6.44898 22C6.50647 22 6.56351 21.998 6.62001 21.9941C6.66452 21.998 6.70958 22 6.7551 22H19.9184C20.3692 22 20.7347 21.6345 20.7347 21.1837V20.7755C20.7347 20.3247 20.3692 19.9592 19.9184 19.9592H8.8641H7.26531C6.81446 19.9592 6.44898 19.5937 6.44898 19.1429C6.44898 18.692 6.81446 18.3265 7.26531 18.3265H8.89796H19.9184C20.3692 18.3265 20.7347 17.961 20.7347 17.5102V2.81633C20.7347 2.36548 20.3692 2 19.9184 2H6.44898ZM9.30612 4.85714C8.85528 4.85714 8.4898 5.22262 8.4898 5.67347V7.30612C8.4898 7.75697 8.85528 8.12245 9.30612 8.12245H16.6531C17.1039 8.12245 17.4694 7.75697 17.4694 7.30612V5.67347C17.4694 5.22262 17.1039 4.85714 16.6531 4.85714H9.30612Z" fill="#C6D8FA"/>
<path d="M19.9184 19.9592H8.86409H7.2653C6.81446 19.9592 6.44897 19.5937 6.44897 19.1429C6.44897 18.692 6.81446 18.3265 7.2653 18.3265H8.89795H19.9184V19.9592Z" fill="#C6D8FA"/>
<path fill-rule="evenodd" clip-rule="evenodd" d="M20 19.9592V19.1429V18.3265H7.2653C6.81446 18.3265 6.44897 18.692 6.44897 19.1429C6.44897 19.5937 6.81446 19.9592 7.2653 19.9592H20Z" fill="#6D99F1"/>
<path d="M9.30607 4.85715C8.85523 4.85715 8.48975 5.22263 8.48975 5.67347V7.30613C8.48975 7.75697 8.85523 8.12245 9.30607 8.12245H16.653C17.1039 8.12245 17.4693 7.75697 17.4693 7.30613V5.67347C17.4693 5.22263 17.1039 4.85715 16.653 4.85715H9.30607Z" fill="#6D99F1"/>
</svg>
