<svg width="24" height="24" viewBox="0 0 24 24" fill="none" xmlns="http://www.w3.org/2000/svg">
<path fill-rule="evenodd" clip-rule="evenodd" d="M6.04895 2C4.69642 2 3.59998 3.09645 3.59998 4.44898V17.5102V19.551C3.59998 20.9036 4.69642 22 6.04895 22C6.10645 22 6.16348 21.998 6.21999 21.9941C6.2645 21.998 6.30956 22 6.35508 22H19.5183C19.9692 22 20.3347 21.6345 20.3347 21.1837V20.7755C20.3347 20.3247 19.9692 19.9592 19.5183 19.9592H8.46407H6.86528C6.41444 19.9592 6.04895 19.5937 6.04895 19.1429C6.04895 18.692 6.41444 18.3265 6.86528 18.3265H8.49793H19.5183C19.9692 18.3265 20.3347 17.961 20.3347 17.5102V2.81633C20.3347 2.36548 19.9692 2 19.5183 2H6.04895ZM8.9061 4.85714C8.45525 4.85714 8.08977 5.22262 8.08977 5.67347V7.30612C8.08977 7.75697 8.45525 8.12245 8.9061 8.12245H16.253C16.7039 8.12245 17.0694 7.75697 17.0694 7.30612V5.67347C17.0694 5.22262 16.7039 4.85714 16.253 4.85714H8.9061Z" fill="#8D94A0"/>
</svg>
