<svg width="24" height="24" viewBox="0 0 24 24" fill="none" xmlns="http://www.w3.org/2000/svg">
<g clip-path="url(#clip0_7873_132369)">
<path fill-rule="evenodd" clip-rule="evenodd" d="M12.6012 0.343725C12.2991 0.219647 11.9604 0.218732 11.6576 0.341175L1.63658 4.39381C1.16434 4.58479 0.855225 5.04323 0.855225 5.55263V18.3737C0.855225 18.8802 1.16091 19.3367 1.62929 19.5295L11.6503 23.6558C11.9573 23.7822 12.302 23.7813 12.6083 23.6533L22.482 19.527C22.9471 19.3326 23.25 18.8778 23.25 18.3737V5.55263C23.25 5.04551 22.9436 4.58865 22.4744 4.39617L12.6012 0.343725ZM16.5058 4.64972L18.6814 5.54228L12.1228 8.18528L10.0515 7.36284L16.5058 4.64972ZM7.99733 9.23707L10.8763 10.3802V20.6335L3.35522 17.5366V7.39389L5.49733 8.24443V11.8158C5.49733 12.5061 6.05697 13.0658 6.74733 13.0658C7.43769 13.0658 7.99733 12.5061 7.99733 11.8158V9.23707ZM5.46565 5.54199L6.73385 6.04554L13.2423 3.30967L12.1226 2.84982L5.46565 5.54199ZM13.3763 20.6228V10.3755L20.75 7.40404V17.5413L13.3763 20.6228Z" fill="#8D94A0"/>
</g>
<defs>
<clipPath id="clip0_7873_132369">
<rect width="24" height="24" fill="white"/>
</clipPath>
</defs>
</svg>
