<svg width="24" height="24" viewBox="0 0 24 24" fill="none" xmlns="http://www.w3.org/2000/svg">
<path d="M11.261 4.1073C11.9236 4.10744 12.4612 4.64484 12.4612 5.3075C12.4611 5.9701 11.9236 6.50755 11.261 6.50769H5.27466C5.10909 6.50782 4.97485 6.64189 4.97485 6.8075V18.7792C4.97492 18.9447 5.10913 19.0798 5.27466 19.08H17.2463C17.412 19.08 17.5471 18.9448 17.5471 18.7792V12.7938C17.5471 12.1313 18.0839 11.594 18.7463 11.5936C19.4091 11.5936 19.9465 12.1311 19.9465 12.7938V18.7792C19.9465 20.2703 18.7375 21.4794 17.2463 21.4794H5.27466C3.78364 21.4792 2.57453 20.2702 2.57446 18.7792V6.8075C2.57446 5.31641 3.7836 4.10743 5.27466 4.1073H11.261ZM18.7551 0.855347C19.4175 0.856404 19.9539 1.39322 19.9534 2.05554L19.9504 4.1073H22.0002C22.6628 4.10746 23.1995 4.64485 23.1995 5.3075C23.1994 5.97008 22.6628 6.50753 22.0002 6.50769H19.9475L19.9446 8.5614C19.9437 9.22414 19.4052 9.76155 18.7424 9.76062C18.0797 9.75969 17.5433 9.22121 17.5442 8.55847L17.5471 6.50769H15.4944C14.8317 6.50769 14.2943 5.97018 14.2942 5.3075C14.2942 4.64475 14.8316 4.1073 15.4944 4.1073H17.55L17.553 2.05261C17.5541 1.39001 18.0925 0.85442 18.7551 0.855347Z" fill="#8D94A0"/>
</svg>
