<svg width="24" height="24" viewBox="0 0 24 24" fill="none" xmlns="http://www.w3.org/2000/svg">
<path fill-rule="evenodd" clip-rule="evenodd" d="M18.9539 2.33766C20.732 2.81411 21.3107 5.04839 19.9876 6.32807C19.8836 6.42865 19.8082 6.55593 19.7708 6.69563L19.2266 8.72652C19.0829 9.26381 19.3771 9.82164 19.9018 10.0064L21.22 10.4708C22.5184 10.9281 23.2461 12.3083 22.8899 13.6379L22.4288 15.3584C22.4145 15.4545 22.3954 15.5513 22.3667 15.6471L21.0815 19.9342C20.6203 21.4725 19.2044 22.5263 17.5985 22.5263L6.24625 22.5287L6.10484 22.5282C6.04328 22.5395 5.9796 22.547 5.91478 22.547L2.4006 22.5466C1.82266 22.5466 1.35365 22.0777 1.35365 21.4998C1.35375 20.9219 1.82268 20.4529 2.40053 20.4528L5.43857 20.453L7.79948 11.6872L7.85321 11.5207L8.33117 9.7369C8.68745 8.40724 10.0077 7.57585 11.3608 7.82906L12.7347 8.08598C13.2814 8.18829 13.8152 7.85233 13.9593 7.31515L14.5035 5.28425C14.5409 5.14456 14.5392 4.99661 14.4995 4.85756C13.9935 3.08773 15.6118 1.44215 17.3899 1.91859L18.9539 2.33766ZM9.80762 12.2748L7.61111 20.4346L9.82459 20.4332L10.7617 16.8415C10.9076 16.2823 11.479 15.9469 12.0381 16.0926C12.5971 16.2385 12.9326 16.8099 12.787 17.369L11.9871 20.4333L14.2539 20.4331L15.1498 16.8515C15.29 16.2912 15.8582 15.9499 16.4186 16.0895C16.9793 16.2297 17.3206 16.7986 17.1804 17.3592L16.4124 20.4332L17.5991 20.4337C18.2805 20.4336 18.8811 19.986 19.0769 19.3334L20.3478 15.092L9.80762 12.2748Z" fill="#8D94A0"/>
<path d="M6.88788 7.64567C6.94365 7.53411 7.03411 7.44365 7.14567 7.38787L9.5358 6.19281C9.96066 5.98038 9.96067 5.37407 9.5358 5.16164L7.14567 3.96657C7.03411 3.91079 6.94365 3.82034 6.88788 3.70878L5.69281 1.31865C5.48038 0.893784 4.87407 0.893783 4.66164 1.31865L3.46657 3.70878C3.41079 3.82034 3.32034 3.91079 3.20878 3.96657L0.81865 5.16163C0.393784 5.37407 0.393783 5.98038 0.81865 6.19281L3.20878 7.38787C3.32034 7.44365 3.41079 7.53411 3.46657 7.64567L4.66164 10.0358C4.87407 10.4607 5.48038 10.4607 5.69281 10.0358L6.88788 7.64567Z" fill="#8D94A0"/>
</svg>
