<svg width="24" height="24" viewBox="0 0 24 24" fill="none" xmlns="http://www.w3.org/2000/svg">
<path d="M6.7087 6.79756C6.7087 7.94684 5.77701 8.87853 4.62773 8.87853C3.47844 8.87853 2.54675 7.94684 2.54675 6.79756C2.54675 5.64827 3.47844 4.71658 4.62773 4.71658C5.77701 4.71658 6.7087 5.64827 6.7087 6.79756Z" fill="#8D94A0"/>
<path d="M6.7087 17.2024C6.7087 18.3517 5.77701 19.2834 4.62773 19.2834C3.47844 19.2834 2.54675 18.3517 2.54675 17.2024C2.54675 16.0531 3.47844 15.1214 4.62773 15.1214C5.77701 15.1214 6.7087 16.0531 6.7087 17.2024Z" fill="#8D94A0"/>
<path d="M19.6976 5.54843C20.3872 5.54843 20.9468 6.10798 20.9468 6.79756C20.9468 7.48713 20.3872 8.04668 19.6976 8.04668H10.2113C9.52175 8.04668 8.96219 7.48713 8.96219 6.79756C8.96219 6.10798 9.52175 5.54843 10.2113 5.54843H19.6976Z" fill="#8D94A0"/>
<path d="M19.6976 15.9533C20.3872 15.9533 20.9468 16.5128 20.9468 17.2024C20.9468 17.892 20.3872 18.4515 19.6976 18.4515H10.2113C9.52175 18.4515 8.96219 17.892 8.96219 17.2024C8.96219 16.5128 9.52175 15.9533 10.2113 15.9533H19.6976Z" fill="#8D94A0"/>
</svg>
