<svg width="24" height="24" viewBox="0 0 24 24" fill="none" xmlns="http://www.w3.org/2000/svg">
<path fill-rule="evenodd" clip-rule="evenodd" d="M16 3H8V5C8 5.55228 7.55228 6 7 6C6.44772 6 6 5.55228 6 5V3H4C2.89543 3 2 3.89543 2 5V8H22V5C22 3.89543 21.1046 3 20 3H18V5C18 5.55228 17.5523 6 17 6C16.4477 6 16 5.55228 16 5V3Z" fill="#8D94A0"/>
<g opacity="0.4">
<path d="M2 8H22V20C22 21.1046 21.1046 22 20 22H4C2.89543 22 2 21.1046 2 20V8Z" fill="#8D94A0"/>
<path d="M6 2C6 1.44772 6.44772 1 7 1C7.55228 1 8 1.44772 8 2V5C8 5.55228 7.55228 6 7 6C6.44772 6 6 5.55228 6 5V2Z" fill="#8D94A0"/>
<path d="M16 2C16 1.44772 16.4477 1 17 1C17.5523 1 18 1.44772 18 2V5C18 5.55228 17.5523 6 17 6C16.4477 6 16 5.55228 16 5V2Z" fill="#8D94A0"/>
</g>
</svg>
