<svg width="24" height="24" viewBox="0 0 24 24" fill="none" xmlns="http://www.w3.org/2000/svg">
<path fill-rule="evenodd" clip-rule="evenodd" d="M17.207 10.415L11.623 15.999C11.4355 16.1865 11.1812 16.2918 10.916 16.2918C10.6508 16.2918 10.3965 16.1865 10.209 15.999L6.793 12.582C6.70016 12.4891 6.62651 12.3789 6.57626 12.2576C6.52602 12.1363 6.50015 12.0063 6.50015 11.875C6.50015 11.7437 6.52602 11.6137 6.57626 11.4924C6.62651 11.3711 6.70016 11.2608 6.793 11.168C6.88585 11.0751 6.99607 11.0015 7.11738 10.9512C7.23868 10.901 7.3687 10.8751 7.5 10.8751C7.6313 10.8751 7.76132 10.901 7.88263 10.9512C8.00394 11.0015 8.11416 11.0751 8.207 11.168L10.916 13.877L15.793 9.00099C15.8858 8.90814 15.9961 8.83449 16.1174 8.78425C16.2387 8.734 16.3687 8.70814 16.5 8.70814C16.6313 8.70814 16.7613 8.734 16.8826 8.78425C17.0039 8.83449 17.1142 8.90814 17.207 9.00099C17.2998 9.09383 17.3735 9.20405 17.4237 9.32536C17.474 9.44667 17.4999 9.57669 17.4999 9.70799C17.4999 9.83929 17.474 9.96931 17.4237 10.0906C17.3735 10.2119 17.2998 10.3221 17.207 10.415ZM19.7 2.79999H18.07V1.79999C18.07 1.53477 17.9646 1.28042 17.7771 1.09288C17.5896 0.905345 17.3352 0.799988 17.07 0.799988C16.8048 0.799988 16.5504 0.905345 16.3629 1.09288C16.1754 1.28042 16.07 1.53477 16.07 1.79999V2.79999H7.93V1.79999C7.93 1.53477 7.82465 1.28042 7.63711 1.09288C7.44957 0.905345 7.19522 0.799988 6.93 0.799988C6.66479 0.799988 6.41043 0.905345 6.2229 1.09288C6.03536 1.28042 5.93 1.53477 5.93 1.79999V2.79999H4.3C3.76957 2.79999 3.26086 3.0107 2.88579 3.38577C2.51072 3.76085 2.3 4.26955 2.3 4.79999V20.2C2.3 20.7304 2.51072 21.2391 2.88579 21.6142C3.26086 21.9893 3.76957 22.2 4.3 22.2H19.7C20.2304 22.2 20.7391 21.9893 21.1142 21.6142C21.4893 21.2391 21.7 20.7304 21.7 20.2V4.79999C21.7 4.26955 21.4893 3.76085 21.1142 3.38577C20.7391 3.0107 20.2304 2.79999 19.7 2.79999Z" fill="#8D94A0"/>
</svg>
