<svg width="24" height="24" viewBox="0 0 24 24" fill="none" xmlns="http://www.w3.org/2000/svg">
<path fill-rule="evenodd" clip-rule="evenodd" d="M11.98 18.28C14.885 18.28 17.24 15.925 17.24 13.02C17.24 10.115 14.885 7.76001 11.98 7.76001C9.07501 7.76001 6.72003 10.115 6.72003 13.02C6.72003 15.925 9.07501 18.28 11.98 18.28ZM12.0001 16.4C13.8557 16.4 15.3601 14.8957 15.3601 13.04C15.3601 11.1843 13.8557 9.68 12.0001 9.68C10.1444 9.68 8.64006 11.1843 8.64006 13.04C8.64006 14.8957 10.1444 16.4 12.0001 16.4Z" fill="#9C7EEF"/>
<circle cx="19.125" cy="8.625" r="1.125" fill="#9C7EEF"/>
<path d="M9.62844 10.6482C10.2574 10.019 11.1103 9.66505 12 9.664C12.8896 9.66505 13.7425 10.019 14.3715 10.6482C15.0005 11.2773 15.3542 12.1303 15.355 13.02C15.3544 13.9097 15.0008 14.7629 14.3718 15.3921C13.7427 16.0213 12.8897 16.3752 12 16.376C11.1102 16.3752 10.2572 16.0213 9.62815 15.3921C8.99911 14.7629 8.6455 13.9097 8.64497 13.02C8.64576 12.1303 8.99946 11.2773 9.62844 10.6482Z" fill="#D9CDF9"/>
<path fill-rule="evenodd" clip-rule="evenodd" d="M17.159 5.136H20.113C20.444 5.13586 20.7718 5.20095 21.0776 5.32753C21.3835 5.45412 21.6614 5.63972 21.8955 5.87373C22.1296 6.10775 22.3153 6.3856 22.4421 6.6914C22.5688 6.99721 22.634 7.32498 22.634 7.656V19.257C22.634 19.588 22.5688 19.9158 22.4421 20.2216C22.3153 20.5274 22.1296 20.8052 21.8955 21.0393C21.6614 21.2733 21.3835 21.4589 21.0776 21.5855C20.7718 21.712 20.444 21.7771 20.113 21.777H3.88697C3.55595 21.7771 3.22815 21.712 2.9223 21.5855C2.61644 21.4589 2.33852 21.2733 2.10441 21.0393C1.8703 20.8052 1.68459 20.5274 1.55789 20.2216C1.43118 19.9158 1.36597 19.588 1.36597 19.257V7.656C1.36597 7.32498 1.43118 6.99721 1.55789 6.6914C1.68459 6.3856 1.8703 6.10775 2.10441 5.87373C2.33852 5.63972 2.61644 5.45412 2.9223 5.32753C3.22815 5.20095 3.55595 5.13586 3.88697 5.136H6.84097L7.87697 3.007C8.04943 2.65312 8.31789 2.35484 8.65172 2.1462C8.98555 1.93756 9.3713 1.82695 9.76497 1.827H14.178C14.564 1.82695 14.9427 1.93332 15.2722 2.13444C15.6017 2.33556 15.8695 2.62363 16.046 2.967L17.159 5.136ZM8.29224 16.7287C9.27571 17.7122 10.6091 18.2654 12 18.267C13.3908 18.2654 14.7242 17.7122 15.7077 16.7287C16.6912 15.7453 17.2444 14.4118 17.246 13.021C17.2446 11.63 16.6915 10.2963 15.708 9.31262C14.7245 8.32893 13.391 7.77558 12 7.774C10.609 7.77558 9.27539 8.32893 8.29189 9.31262C7.30839 10.2963 6.75529 11.63 6.75397 13.021C6.75556 14.4118 7.30877 15.7453 8.29224 16.7287ZM19.125 9.74999C19.7463 9.74999 20.25 9.24631 20.25 8.62499C20.25 8.00367 19.7463 7.49999 19.125 7.49999C18.5037 7.49999 18 8.00367 18 8.62499C18 9.24631 18.5037 9.74999 19.125 9.74999Z" fill="#D9CDF9"/>
</svg>
