<svg width="24" height="24" viewBox="0 0 24 24" fill="none" xmlns="http://www.w3.org/2000/svg">
<path d="M14.6701 1.99999H3.82008C3.48136 1.99865 3.14575 2.06455 2.83269 2.19386C2.51963 2.32317 2.23534 2.51332 1.9963 2.75329C1.75725 2.99327 1.56821 3.27829 1.44011 3.59185C1.31202 3.90542 1.24743 4.24128 1.25008 4.57999V17.58C1.25008 18.2589 1.51979 18.9101 1.99988 19.3902C2.47998 19.8703 3.13112 20.14 3.81008 20.14H14.6701C15.0088 20.1426 15.3446 20.078 15.6582 19.9499C15.9718 19.8219 16.2568 19.6328 16.4968 19.3938C16.7367 19.1547 16.9269 18.8704 17.0562 18.5574C17.1855 18.2443 17.2514 17.9087 17.2501 17.57V4.56999C17.2514 4.23127 17.1855 3.89566 17.0562 3.5826C16.9269 3.26954 16.7367 2.98525 16.4968 2.7462C16.2568 2.50716 15.9718 2.31812 15.6582 2.19002C15.3446 2.06193 15.0088 1.99734 14.6701 1.99999ZM5.74008 9.12999C5.74508 8.91708 5.7928 8.70734 5.88041 8.51323C5.96801 8.31912 6.09373 8.14458 6.25008 7.99999C6.46846 7.78236 6.74644 7.63432 7.0489 7.57457C7.35136 7.51481 7.66475 7.54602 7.94948 7.66425C8.23422 7.78249 8.47754 7.98244 8.64872 8.23886C8.81989 8.49528 8.91125 8.79668 8.91125 9.10499C8.91125 9.41329 8.81989 9.71469 8.64872 9.97111C8.47754 10.2275 8.23422 10.4275 7.94948 10.5457C7.66475 10.664 7.35136 10.6952 7.0489 10.6354C6.74644 10.5757 6.46846 10.4276 6.25008 10.21C5.94619 9.92994 5.76327 9.54258 5.74008 9.12999ZM7.07008 13.94C7.00671 13.9664 6.93873 13.98 6.87008 13.98C6.80142 13.98 6.73345 13.9664 6.67008 13.94C6.60297 13.9118 6.54187 13.8711 6.49008 13.82C6.44548 13.7689 6.40843 13.7116 6.38008 13.65C6.36508 13.5842 6.36508 13.5158 6.38008 13.45C6.3658 13.3807 6.3658 13.3093 6.38008 13.24C6.4109 13.1797 6.44775 13.1228 6.49008 13.07L11.2501 8.32999C11.3518 8.23904 11.4836 8.18915 11.6201 8.18999C11.7553 8.19884 11.8829 8.25556 11.9801 8.34999C12.076 8.44728 12.1297 8.57839 12.1297 8.71499C12.1297 8.85158 12.076 8.9827 11.9801 9.07999L7.25008 13.82C7.19829 13.8711 7.13719 13.9118 7.07008 13.94ZM12.2901 14.12C12.1451 14.2654 11.9729 14.3808 11.7833 14.4595C11.5937 14.5383 11.3904 14.5788 11.1851 14.5788C10.9798 14.5788 10.7765 14.5383 10.5868 14.4595C10.3972 14.3808 10.225 14.2654 10.0801 14.12C9.93444 13.9726 9.81963 13.7976 9.74237 13.6053C9.6651 13.413 9.62693 13.2072 9.63008 13C9.61285 12.7853 9.64026 12.5694 9.71059 12.3658C9.78092 12.1622 9.89264 11.9754 10.0387 11.8171C10.1848 11.6589 10.3621 11.5326 10.5594 11.4462C10.7567 11.3598 10.9697 11.3152 11.1851 11.3152C11.4005 11.3152 11.6135 11.3598 11.8108 11.4462C12.0081 11.5326 12.1854 11.6589 12.3314 11.8171C12.4775 11.9754 12.5892 12.1622 12.6596 12.3658C12.7299 12.5694 12.7573 12.7853 12.7401 13C12.738 13.21 12.6936 13.4175 12.6094 13.61C12.5252 13.8024 12.403 13.9759 12.2501 14.12H12.2901ZM11.5301 12.67C11.6189 12.765 11.6688 12.8899 11.6701 13.02C11.6702 13.0831 11.6579 13.1456 11.6339 13.2039C11.6099 13.2623 11.5746 13.3153 11.5301 13.36C11.4874 13.4078 11.4349 13.4459 11.3763 13.4717C11.3176 13.4976 11.2542 13.5106 11.1901 13.51C11.1282 13.5292 11.062 13.5292 11.0001 13.51C10.9382 13.4864 10.8807 13.4526 10.8301 13.41C10.7843 13.3597 10.7472 13.3023 10.7201 13.24C10.7052 13.1775 10.7052 13.1124 10.7201 13.05C10.706 12.9841 10.706 12.9159 10.7201 12.85C10.7473 12.7908 10.7845 12.7366 10.8301 12.69L11.0001 12.58C11.063 12.5704 11.1271 12.5704 11.1901 12.58C11.3104 12.5704 11.4303 12.6022 11.5301 12.67ZM7.31008 9.60999C7.18388 9.60571 7.06355 9.55566 6.97154 9.46917C6.87954 9.38269 6.82215 9.26568 6.81008 9.13999C6.79508 9.07416 6.79508 9.00581 6.81008 8.93999C6.83364 8.87811 6.86744 8.82064 6.91008 8.76999C6.95865 8.72211 7.0165 8.68468 7.08008 8.65999C7.13993 8.63353 7.20464 8.61987 7.27008 8.61987C7.33551 8.61987 7.40023 8.63353 7.46008 8.65999C7.52365 8.68468 7.58151 8.72211 7.63008 8.76999C7.67271 8.82064 7.70652 8.87811 7.73008 8.93999C7.74425 9.00253 7.74425 9.06745 7.73008 9.12999C7.71801 9.25568 7.66062 9.37269 7.56861 9.45917C7.47661 9.54566 7.35628 9.59571 7.23008 9.59999L7.31008 9.60999Z" fill="#8D94A0"/>
<path d="M22.6701 7.89L19.8801 20C19.7229 20.659 19.3129 21.2298 18.7385 21.589C18.1641 21.9483 17.4714 22.0671 16.8101 21.92L11.2501 20.64C10.859 20.5464 10.4957 20.3614 10.1901 20.1H14.6701C15.0083 20.104 15.3439 20.0406 15.6574 19.9136C15.971 19.7866 16.2561 19.5986 16.4962 19.3603C16.7363 19.1221 16.9266 18.8384 17.056 18.5259C17.1855 18.2134 17.2514 17.8783 17.2501 17.54V4.54C17.2403 4.35643 17.2067 4.1749 17.1501 4L20.7601 4.83C21.4178 4.98473 21.9878 5.39324 22.3455 5.96646C22.7033 6.53969 22.82 7.23112 22.6701 7.89Z" fill="#8D94A0" fill-opacity="0.6"/>
</svg>
