<svg width="24" height="24" viewBox="0 0 24 24" fill="none" xmlns="http://www.w3.org/2000/svg">
<path fill-rule="evenodd" clip-rule="evenodd" d="M7.24771 5.9C7.39155 5.37282 7.59983 4.8318 7.8913 4.32579C8.6169 3.06606 9.88476 2 11.8712 2C13.8576 2 15.1255 3.06606 15.8511 4.32579C16.1425 4.8318 16.3508 5.37282 16.4946 5.9H18.9317C19.4598 5.9 19.8968 6.31059 19.9298 6.83762L20.7384 19.7752C20.8103 20.9266 19.8959 21.9 18.7423 21.9H5.00008C3.84644 21.9 2.93201 20.9266 3.00397 19.7752L3.81258 6.83762C3.84552 6.31059 4.28257 5.9 4.81063 5.9H7.24771ZM9.13634 5.9C9.22303 5.66737 9.32722 5.43921 9.45106 5.22421C9.92545 4.4006 10.6576 3.8 11.8712 3.8C13.0848 3.8 13.8169 4.4006 14.2913 5.22421C14.4151 5.43921 14.5193 5.66737 14.606 5.9H9.13634Z" fill="#8D94A0"/>
</svg>
