<svg width="24" height="24" viewBox="0 0 24 24" fill="none" xmlns="http://www.w3.org/2000/svg">
<rect x="6.6369" y="5.26321" width="10.7262" height="13.4736" fill="#9C7EEF"/>
<path fill-rule="evenodd" clip-rule="evenodd" d="M12 0.921997C18.065 0.921997 23 5.407 23 10.922C23 16.436 18.065 20.922 12 20.922C10.795 20.922 9.491 20.801 9.047 20.756L5.479 22.674C5.3674 22.7339 5.24162 22.7624 5.11508 22.7565C4.98855 22.7506 4.86599 22.7104 4.76048 22.6403C4.65497 22.5702 4.57046 22.4728 4.51596 22.3585C4.46146 22.2441 4.43901 22.1171 4.451 21.991L4.778 18.568C1.999 16.494 1 13.28 1 10.922C1 5.407 5.935 0.921997 12 0.921997ZM12.072 13.972C11.7541 13.9723 11.4493 14.0987 11.2245 14.3235C10.9997 14.5483 10.8733 14.8531 10.873 15.171C10.8726 15.4085 10.9427 15.6407 11.0743 15.8383C11.206 16.036 11.3933 16.1901 11.6126 16.2812C11.8319 16.3723 12.0733 16.3963 12.3062 16.3501C12.5392 16.304 12.7532 16.1897 12.9212 16.0219C13.0892 15.854 13.2036 15.6401 13.2499 15.4072C13.2963 15.1743 13.2725 14.9329 13.1816 14.7135C13.0906 14.4942 12.9367 14.3067 12.7392 14.1749C12.5417 14.0431 12.3095 13.9728 12.072 13.973V13.972ZM12.057 5.5C11.1996 5.50106 10.3776 5.84212 9.77139 6.44838C9.16512 7.05465 8.82406 7.87661 8.823 8.734C8.83537 8.93419 8.92362 9.12214 9.06976 9.25952C9.21589 9.39691 9.40892 9.4734 9.6095 9.4734C9.81008 9.4734 10.0031 9.39691 10.1492 9.25952C10.2954 9.12214 10.3836 8.93419 10.396 8.734C10.396 7.818 11.141 7.073 12.057 7.073C12.621 7.073 13.193 7.333 13.514 7.735C13.759 8.043 13.835 8.41 13.738 8.826C13.629 9.306 13.348 9.505 12.814 9.846C12.164 10.263 11.271 10.834 11.271 12.281C11.2783 12.4847 11.3643 12.6777 11.511 12.8193C11.6577 12.9608 11.8536 13.0399 12.0575 13.0399C12.2614 13.0399 12.4573 12.9608 12.604 12.8193C12.7507 12.6777 12.8367 12.4847 12.844 12.281C12.844 11.716 13.081 11.542 13.664 11.17C14.234 10.805 15.014 10.306 15.271 9.178C15.474 8.298 15.287 7.438 14.743 6.754C14.127 5.981 13.098 5.5 12.057 5.5Z" fill="#D9CDF9"/>
</svg>
