<svg width="24" height="24" viewBox="0 0 24 24" fill="none" xmlns="http://www.w3.org/2000/svg">
<path d="M6.88788 7.64567C6.94365 7.53411 7.03411 7.44365 7.14567 7.38787L9.5358 6.19281C9.96066 5.98038 9.96067 5.37407 9.5358 5.16164L7.14567 3.96657C7.03411 3.91079 6.94365 3.82034 6.88788 3.70878L5.69281 1.31865C5.48038 0.893784 4.87407 0.893783 4.66164 1.31865L3.46657 3.70878C3.41079 3.82034 3.32034 3.91079 3.20878 3.96657L0.81865 5.16163C0.393784 5.37407 0.393783 5.98038 0.81865 6.19281L3.20878 7.38787C3.32034 7.44365 3.41079 7.53411 3.46657 7.64567L4.66164 10.0358C4.87407 10.4607 5.48038 10.4607 5.69281 10.0358L6.88788 7.64567Z" fill="#8D94A0"/>
<path fill-rule="evenodd" clip-rule="evenodd" d="M14.3008 4.92871C19.2583 4.92871 23.292 8.59545 23.292 13.1025C23.2919 17.6095 19.2582 21.2764 14.3008 21.2764C13.3157 21.2764 12.2496 21.177 11.8867 21.1396L8.9707 22.709C8.87974 22.7582 8.77715 22.7819 8.67383 22.7773C8.57028 22.7727 8.46919 22.7399 8.38281 22.6826C8.29664 22.6254 8.22807 22.5455 8.18359 22.4521C8.13907 22.3585 8.12081 22.2545 8.13086 22.1514L8.39844 19.3516C6.12585 17.6569 5.30963 15.0318 5.30957 13.1025C5.30957 12.8481 5.32348 12.5962 5.34863 12.3477C6.20453 12.292 7.03633 11.8205 7.48145 10.9307L8.46387 8.96387L10.4307 7.98145C11.529 7.43203 11.99 6.29392 11.8174 5.24805C12.6066 5.04152 13.4395 4.92871 14.3008 4.92871ZM10.1807 11.874C10.0063 11.8695 9.83237 11.9002 9.66992 11.9639C9.50759 12.0275 9.35928 12.1225 9.23438 12.2441C9.10941 12.3659 9.01023 12.5121 8.94238 12.6729C8.87459 12.8335 8.8399 13.0063 8.83984 13.1807C8.83981 13.3551 8.87466 13.5277 8.94238 13.6885C9.01012 13.8492 9.10952 13.9944 9.23438 14.1162C9.35917 14.2379 9.50668 14.3337 9.66895 14.3975C9.83136 14.4612 10.0053 14.4917 10.1797 14.4873C10.5203 14.4787 10.844 14.3376 11.082 14.0938C11.32 13.8498 11.4539 13.5225 11.4541 13.1816C11.4542 12.8407 11.3209 12.5127 11.083 12.2686C10.8452 12.0245 10.5213 11.8829 10.1807 11.874ZM14.3574 11.8721C14.183 11.8676 14.0091 11.8983 13.8467 11.9619C13.6842 12.0256 13.5361 12.1214 13.4111 12.2432C13.2861 12.365 13.187 12.5111 13.1191 12.6719C13.0513 12.8326 13.0157 13.0052 13.0156 13.1797C13.0156 13.3541 13.0505 13.5268 13.1182 13.6875C13.1859 13.8482 13.2853 13.9944 13.4102 14.1162C13.5351 14.2381 13.6842 14.3337 13.8467 14.3975C14.009 14.4611 14.1822 14.4916 14.3564 14.4873C14.6975 14.4787 15.0225 14.3379 15.2607 14.0938C15.4989 13.8496 15.6317 13.5217 15.6318 13.1807C15.6319 12.8395 15.4988 12.5119 15.2607 12.2676C15.0227 12.0232 14.6984 11.8809 14.3574 11.8721ZM18.5342 11.874C18.3598 11.8695 18.1859 11.9003 18.0234 11.9639C17.8611 12.0275 17.7128 12.1225 17.5879 12.2441C17.4629 12.3659 17.3637 12.5121 17.2959 12.6729C17.2281 12.8335 17.1934 13.0063 17.1934 13.1807C17.1933 13.3551 17.2282 13.5277 17.2959 13.6885C17.3636 13.8492 17.4631 13.9944 17.5879 14.1162C17.7128 14.238 17.861 14.3337 18.0234 14.3975C18.1857 14.4611 18.3589 14.4917 18.5332 14.4873C18.874 14.4787 19.1985 14.3378 19.4365 14.0938C19.6744 13.8498 19.8074 13.5224 19.8076 13.1816C19.8077 12.8407 19.6744 12.5127 19.4365 12.2686C19.1987 12.0245 18.8749 11.8828 18.5342 11.874Z" fill="#8D94A0"/>
</svg>
