<svg width="24" height="24" viewBox="0 0 24 24" fill="none" xmlns="http://www.w3.org/2000/svg">
<path fill-rule="evenodd" clip-rule="evenodd" d="M20.2212 3.37047C20.2213 3.54773 20.1863 3.72327 20.1184 3.88698C20.0504 4.0507 19.9508 4.19938 19.8252 4.32447L13.0752 11.0745C12.9498 11.1999 12.801 11.2994 12.6372 11.3672C12.4733 11.4351 12.2978 11.47 12.1204 11.47C11.9431 11.47 11.7675 11.4351 11.6037 11.3672C11.4399 11.2994 11.2911 11.1999 11.1657 11.0745L4.41569 4.32447C4.28597 4.20009 4.18238 4.05106 4.11101 3.88612C4.03965 3.72118 4.00193 3.54365 4.00007 3.36394C3.99822 3.18423 4.03226 3.00596 4.10021 2.83959C4.16817 2.67321 4.26865 2.52207 4.39578 2.39504C4.52291 2.26801 4.67413 2.16764 4.84056 2.09982C5.00699 2.03201 5.18529 1.9981 5.36499 2.00009C5.5447 2.00209 5.7222 2.03995 5.88708 2.11145C6.05197 2.18295 6.20092 2.28665 6.32519 2.41647L12.1212 8.21097L17.9157 2.41647C18.1044 2.2274 18.345 2.09856 18.607 2.04627C18.8689 1.99398 19.1405 2.02059 19.3874 2.12274C19.6342 2.22488 19.8452 2.39796 19.9936 2.62007C20.1421 2.84218 20.2213 3.10333 20.2212 3.37047Z" fill="#8D94A0"/>
<path opacity="0.6" fill-rule="evenodd" clip-rule="evenodd" d="M20.2212 13.3705C20.2213 13.5477 20.1863 13.7233 20.1184 13.887C20.0504 14.0507 19.9508 14.1994 19.8252 14.3245L13.0752 21.0745C12.9498 21.1999 12.801 21.2994 12.6372 21.3672C12.4733 21.4351 12.2978 21.47 12.1204 21.47C11.9431 21.47 11.7675 21.4351 11.6037 21.3672C11.4399 21.2994 11.2911 21.1999 11.1657 21.0745L4.41569 14.3245C4.28597 14.2001 4.18238 14.0511 4.11101 13.8861C4.03965 13.7212 4.00193 13.5437 4.00007 13.3639C3.99822 13.1842 4.03226 13.006 4.10021 12.8396C4.16817 12.6732 4.26865 12.5221 4.39578 12.395C4.52291 12.268 4.67413 12.1676 4.84056 12.0998C5.00699 12.032 5.18529 11.9981 5.36499 12.0001C5.5447 12.0021 5.7222 12.0399 5.88708 12.1114C6.05197 12.1829 6.20092 12.2866 6.32519 12.4165L12.1212 18.211L17.9157 12.4165C18.1044 12.2274 18.345 12.0986 18.607 12.0463C18.8689 11.994 19.1405 12.0206 19.3874 12.1227C19.6342 12.2249 19.8452 12.398 19.9936 12.6201C20.1421 12.8422 20.2213 13.1033 20.2212 13.3705Z" fill="#8D94A0"/>
</svg>
