<svg width="24" height="24" viewBox="0 0 24 24" fill="none" xmlns="http://www.w3.org/2000/svg">
<path fill-rule="evenodd" clip-rule="evenodd" d="M4 20.0996C3.99991 19.9223 4.03485 19.7468 4.10281 19.583C4.17077 19.4193 4.2704 19.2707 4.396 19.1456L11.146 12.3956C11.2714 12.2702 11.4202 12.1707 11.584 12.1028C11.7478 12.0349 11.9234 12 12.1007 12C12.2781 12 12.4537 12.0349 12.6175 12.1028C12.7813 12.1707 12.9301 12.2702 13.0555 12.3956L19.8055 19.1456C19.9352 19.2699 20.0388 19.419 20.1102 19.5839C20.1815 19.7489 20.2193 19.9264 20.2211 20.1061C20.223 20.2858 20.1889 20.4641 20.121 20.6304C20.053 20.7968 19.9525 20.948 19.8254 21.075C19.6983 21.202 19.5471 21.3024 19.3806 21.3702C19.2142 21.438 19.0359 21.4719 18.8562 21.4699C18.6765 21.4679 18.499 21.4301 18.3341 21.3586C18.1692 21.2871 18.0203 21.1834 17.896 21.0536L12.1 15.2591L6.3055 21.0536C6.11678 21.2426 5.87621 21.3715 5.61424 21.4238C5.35226 21.476 5.08067 21.4494 4.83382 21.3473C4.58698 21.2452 4.37599 21.0721 4.22756 20.85C4.07913 20.6279 3.99994 20.3667 4 20.0996Z" fill="#8D94A0"/>
<path opacity="0.6" fill-rule="evenodd" clip-rule="evenodd" d="M4 10.0996C3.99991 9.9223 4.03485 9.74677 4.10281 9.58305C4.17077 9.41933 4.2704 9.27065 4.396 9.14556L11.146 2.39556C11.2714 2.27016 11.4202 2.17068 11.584 2.10281C11.7478 2.03493 11.9234 2 12.1007 2C12.2781 2 12.4537 2.03493 12.6175 2.10281C12.7813 2.17068 12.9301 2.27016 13.0555 2.39556L19.8055 9.14556C19.9352 9.26994 20.0388 9.41897 20.1102 9.58391C20.1815 9.74885 20.2193 9.92638 20.2211 10.1061C20.223 10.2858 20.1889 10.4641 20.121 10.6304C20.053 10.7968 19.9525 10.948 19.8254 11.075C19.6983 11.202 19.5471 11.3024 19.3806 11.3702C19.2142 11.438 19.0359 11.4719 18.8562 11.4699C18.6765 11.4679 18.499 11.4301 18.3341 11.3586C18.1692 11.2871 18.0203 11.1834 17.896 11.0536L12.1 5.25906L6.3055 11.0536C6.11678 11.2426 5.87621 11.3715 5.61424 11.4238C5.35226 11.476 5.08067 11.4494 4.83382 11.3473C4.58698 11.2452 4.37599 11.0721 4.22756 10.85C4.07913 10.6279 3.99994 10.3667 4 10.0996Z" fill="#8D94A0"/>
</svg>
