<svg width="24" height="24" viewBox="0 0 24 24" fill="none" xmlns="http://www.w3.org/2000/svg">
<path d="M8.40005 21.6C6.50005 21.6 4.50005 20.9 3.10005 19.4C0.200049 16.5 0.200049 11.7 3.10005 8.69999L7.60005 4.19999C8.00005 3.79999 8.70005 3.79999 9.20005 4.19999C9.60005 4.59999 9.60005 5.29999 9.20005 5.79999L4.70005 10.3C2.60005 12.4 2.60005 15.8 4.70005 17.8C6.80005 19.9 10.2 19.9 12.2 17.8L20 9.99999C21.2001 8.79999 21.2001 6.69999 20 5.49999C18.8 4.29999 16.7 4.29999 15.5 5.49999L8.40005 12.6C8.00005 13 8.00005 13.7 8.40005 14.1C8.80005 14.5 9.50005 14.5 9.90005 14.1L14.7 9.29999C15.1 8.89999 15.8 8.89999 16.3 9.29999C16.7 9.69999 16.7 10.4 16.3 10.9L11.5 15.7C10.1 17 8.00005 17 6.80005 15.7C5.50005 14.4 5.50005 12.4 6.80005 11.1L13.9 3.99999C16 1.89999 19.4 1.89999 21.5 3.99999C23.6 6.09999 23.6 9.49999 21.5 11.6L13.7 19.4C12.3 20.8 10.4 21.6 8.40005 21.6Z"  />
</svg>
