<svg width="24" height="24" viewBox="0 0 24 24" fill="none" xmlns="http://www.w3.org/2000/svg">
<path fill-rule="evenodd" clip-rule="evenodd" d="M13.6951 12L19.3461 6.349C19.4576 6.23757 19.5461 6.10527 19.6064 5.95966C19.6668 5.81405 19.6979 5.65798 19.6979 5.50035C19.698 5.34272 19.667 5.18663 19.6067 5.04098C19.5464 4.89534 19.458 4.76299 19.3466 4.6515C19.2352 4.54 19.1029 4.45155 18.9573 4.39119C18.8117 4.33082 18.6556 4.29973 18.498 4.29968C18.3403 4.29964 18.1843 4.33064 18.0386 4.39092C17.893 4.45119 17.7606 4.53957 17.6491 4.651L11.9981 10.303L6.34612 4.651C6.11848 4.43837 5.81713 4.32251 5.50568 4.32787C5.19423 4.33323 4.89704 4.45938 4.67685 4.67971C4.45665 4.90003 4.33067 5.19729 4.3255 5.50875C4.32032 5.8202 4.43636 6.12148 4.64912 6.349L10.3011 12L4.64912 17.651C4.48208 17.8192 4.3685 18.033 4.32267 18.2656C4.27684 18.4982 4.3008 18.7391 4.39154 18.9581C4.48228 19.1771 4.63575 19.3644 4.83264 19.4964C5.02954 19.6284 5.26107 19.6992 5.49812 19.7C5.80512 19.7 6.11212 19.583 6.34612 19.349L11.9981 13.697L17.6491 19.349C17.7604 19.4607 17.8927 19.5493 18.0383 19.6097C18.1839 19.6702 18.34 19.7013 18.4976 19.7013C18.6553 19.7013 18.8114 19.6702 18.957 19.6097C19.1026 19.5493 19.2348 19.4607 19.3461 19.349C19.4577 19.2375 19.5462 19.1052 19.6066 18.9595C19.667 18.8138 19.6981 18.6577 19.6981 18.5C19.6981 18.3423 19.667 18.1861 19.6066 18.0405C19.5462 17.8948 19.4577 17.7624 19.3461 17.651L13.6951 12Z" fill="#8D94A0"/>
</svg>
