<svg width="24" height="24" viewBox="0 0 24 24" fill="none" xmlns="http://www.w3.org/2000/svg">
<path fill-rule="evenodd" clip-rule="evenodd" d="M7.08227 18.8466C6.93252 18.8467 6.78424 18.8172 6.64593 18.7598C6.50763 18.7023 6.38203 18.6182 6.27635 18.5121L0.574149 12.8099C0.46821 12.704 0.384173 12.5782 0.326837 12.4398C0.269501 12.3014 0.23999 12.1531 0.23999 12.0033C0.23999 11.8535 0.269501 11.7052 0.326837 11.5668C0.384173 11.4284 0.46821 11.3027 0.574149 11.1968L6.27635 5.49457C6.38143 5.38498 6.50732 5.29748 6.64666 5.23719C6.786 5.1769 6.93597 5.14503 7.08778 5.14347C7.23959 5.1419 7.39019 5.17066 7.53074 5.22807C7.67129 5.28547 7.79897 5.37036 7.90628 5.47775C8.01359 5.58515 8.09838 5.71289 8.15567 5.85349C8.21296 5.99408 8.24161 6.1447 8.23992 6.29651C8.23823 6.44832 8.20625 6.59827 8.14585 6.73756C8.08545 6.87685 7.99785 7.00268 7.88818 7.10766L2.99315 12.004L7.88818 16.899C8.0479 17.0584 8.15674 17.2616 8.20091 17.4829C8.24508 17.7042 8.2226 17.9337 8.13632 18.1422C8.05003 18.3507 7.90382 18.529 7.71619 18.6544C7.52855 18.7798 7.30794 18.8467 7.08227 18.8466Z" fill="#8D94A0"/>
<path d="M12.5373 5.71557C12.6945 5.12875 13.2977 4.78051 13.8845 4.93775C14.4713 5.09498 14.8195 5.69816 14.6623 6.28497L11.4497 18.2744C11.2925 18.8613 10.6893 19.2095 10.1025 19.0523C9.5157 18.895 9.16745 18.2919 9.32469 17.705L12.5373 5.71557Z" fill="#8D94A0"/>
<path fill-rule="evenodd" clip-rule="evenodd" d="M16.9047 18.8466C17.0545 18.8467 17.2028 18.8172 17.3411 18.7598C17.4794 18.7023 17.605 18.6182 17.7106 18.5121L23.4128 12.8099C23.5188 12.704 23.6028 12.5782 23.6602 12.4398C23.7175 12.3014 23.747 12.1531 23.747 12.0033C23.747 11.8535 23.7175 11.7052 23.6602 11.5668C23.6028 11.4284 23.5188 11.3027 23.4128 11.1968L17.7106 5.49457C17.6056 5.38498 17.4797 5.29748 17.3403 5.23719C17.201 5.1769 17.051 5.14503 16.8992 5.14347C16.7474 5.1419 16.5968 5.17066 16.4562 5.22807C16.3157 5.28547 16.188 5.37036 16.0807 5.47775C15.9734 5.58515 15.8886 5.71289 15.8313 5.85349C15.774 5.99408 15.7454 6.1447 15.7471 6.29651C15.7488 6.44832 15.7807 6.59827 15.8411 6.73756C15.9015 6.87685 15.9891 7.00268 16.0988 7.10766L20.9938 12.004L16.0988 16.899C15.9391 17.0584 15.8302 17.2616 15.7861 17.4829C15.7419 17.7042 15.7644 17.9337 15.8507 18.1422C15.937 18.3507 16.0832 18.529 16.2708 18.6544C16.4584 18.7798 16.6791 18.8467 16.9047 18.8466Z" fill="#8D94A0"/>
</svg>
