<svg width="24" height="24" viewBox="0 0 24 24" fill="none" xmlns="http://www.w3.org/2000/svg">
<path d="M1.57863 2.22071C2.1697 1.81217 2.96255 1.98698 3.34934 2.61133L9.70176 11.2599C9.98002 11.7093 9.98002 12.2907 9.70176 12.7401L3.34934 21.3887C2.96255 22.013 2.1697 22.1878 1.57863 21.7793C0.987677 21.3706 0.822213 20.533 1.2089 19.9085L7.10166 12L1.2089 4.09147C0.822213 3.46701 0.987677 2.62936 1.57863 2.22071ZM21.7209 19.2973C22.4273 19.2973 23 19.9023 23 20.6486C23 21.3949 22.4273 21.9999 21.7209 21.9999H9.65074C8.94446 21.9998 8.37168 21.3948 8.37168 20.6486C8.37168 19.9024 8.94446 19.2974 9.65074 19.2973H21.7209Z" fill="#8D94A0"/>
</svg>
