<svg width="24" height="24" viewBox="0 0 24 24" fill="none" xmlns="http://www.w3.org/2000/svg">
<g clip-path="url(#clip0_19290_16508)">
<path fill-rule="evenodd" clip-rule="evenodd" d="M5.77759 0.799103C6.44011 0.799367 6.97778 1.33672 6.97778 1.9993V4.5784H16.7219C18.2131 4.5784 19.4221 5.78743 19.4221 7.27859V17.0218H22.0002C22.6627 17.022 23.2003 17.5595 23.2004 18.222C23.2004 18.8845 22.6628 19.4219 22.0002 19.4221H19.4221V22.0013C19.4219 22.6638 18.8845 23.2014 18.2219 23.2014C17.5593 23.2014 17.022 22.6638 17.0217 22.0013V19.4221H7.27759C5.78642 19.4221 4.57739 18.2131 4.57739 16.722V6.97879H1.99927C1.33673 6.97879 0.799398 6.44106 0.799072 5.77859C0.799072 5.11585 1.33652 4.5784 1.99927 4.5784H4.57739V1.9993C4.57739 1.33656 5.11485 0.799103 5.77759 0.799103ZM6.97778 16.722C6.97778 16.8876 7.1119 17.0218 7.27759 17.0218H17.0217V7.27859C17.0217 7.11291 16.8876 6.97879 16.7219 6.97879H6.97778V16.722Z" fill="#8D94A0"/>
</g>
<defs>
<clipPath id="clip0_19290_16508">
<rect width="24" height="24" fill="white"/>
</clipPath>
</defs>
</svg>
