<svg width="24" height="24" viewBox="0 0 24 24" fill="none" xmlns="http://www.w3.org/2000/svg">
<path fill-rule="evenodd" clip-rule="evenodd" d="M1 3.7551C1 1.68122 2.68122 0 4.7551 0C6.44799 0 7.87923 1.12024 8.34797 2.65985H17.2722C20.0373 2.65985 22.279 4.90147 22.279 7.66665C22.279 10.4318 20.0373 12.6735 17.2722 12.6735H7.67578C7.60662 12.6735 7.53876 12.6678 7.47265 12.6571L6.42404 12.6735C5.04145 12.6735 3.92064 13.7943 3.92064 15.1769C3.92064 16.5595 5.04145 17.6803 6.42404 17.6803H14.6919C15.2852 16.3876 16.591 15.4898 18.1065 15.4898C20.1804 15.4898 21.8616 17.171 21.8616 19.2449C21.8616 21.3188 20.1804 23 18.1065 23C16.3568 23 14.8866 21.8033 14.4697 20.1837H6.42404C3.65886 20.1837 1.41724 17.9421 1.41724 15.1769C1.41724 12.4117 3.65886 10.1701 6.42404 10.1701H7.66773L7.67578 10.1701H17.2722C18.6547 10.1701 19.7756 9.04924 19.7756 7.66665C19.7756 6.28406 18.6547 5.16325 17.2722 5.16325H8.23725C7.6802 6.53942 6.33102 7.5102 4.7551 7.5102C2.68122 7.5102 1 5.82899 1 3.7551Z" fill="#8D94A0" fill-opacity="0.6"/>
<rect x="1" width="7.5102" height="7.5102" rx="3.7551" fill="#8D94A0"/>
<rect x="14.35" y="15.5" width="7.5102" height="7.5102" rx="3.7551" fill="#8D94A0"/>
</svg>
