<svg width="24" height="24" viewBox="0 0 24 24" fill="none" xmlns="http://www.w3.org/2000/svg">
<path d="M9.86038 1.88612C11.0419 0.704628 12.9581 0.704627 14.1396 1.88612L22.1139 9.86038C23.2954 11.0419 23.2954 12.9581 22.1139 14.1396L14.1396 22.1139C12.9581 23.2954 11.0419 23.2954 9.86038 22.1139L1.88612 14.1396C0.704628 12.9581 0.704627 11.0419 1.88612 9.86038L9.86038 1.88612ZM12.6214 3.40434C12.2784 3.06133 11.7216 3.06133 11.3786 3.40434L3.40434 11.3786C3.06133 11.7216 3.06133 12.2784 3.40434 12.6214L11.3786 20.5957C11.7216 20.9387 12.2784 20.9387 12.6214 20.5957L20.5957 12.6214C20.9387 12.2784 20.9387 11.7216 20.5957 11.3786L12.6214 3.40434Z" fill="#8D94A0"/>
</svg>
