<svg width="24" height="24" viewBox="0 0 24 24" fill="none" xmlns="http://www.w3.org/2000/svg">
<path d="M20.1974 12.5465C20.4993 12.2447 20.4993 11.7553 20.1974 11.4535L12.5465 3.80257C12.2447 3.50075 11.7553 3.50075 11.4535 3.80257L3.80257 11.4535C3.50075 11.7553 3.50075 12.2447 3.80257 12.5465L11.4535 20.1974C11.7553 20.4993 12.2447 20.4993 12.5465 20.1974L20.1974 12.5465ZM14.3681 22.0191C13.0603 23.327 10.9397 23.327 9.63185 22.0191L1.98092 14.3681C0.673028 13.0603 0.673027 10.9397 1.98092 9.63185L9.63185 1.98092C10.9397 0.673028 13.0603 0.673027 14.3681 1.98092L22.0191 9.63185C23.327 10.9397 23.327 13.0603 22.0191 14.3681L14.3681 22.0191Z" fill="#8D94A0"/>
</svg>
