<svg width="24" height="24" viewBox="0 0 24 24" fill="none" xmlns="http://www.w3.org/2000/svg">
<path fill-rule="evenodd" clip-rule="evenodd" d="M11.9783 4.61321C11.7162 4.98004 11.562 5.42925 11.562 5.91447C11.562 6.05897 11.5757 6.20027 11.6018 6.33715C11.4413 6.32578 11.2789 6.31998 11.115 6.31998C10.8139 6.31998 10.5183 6.33953 10.2292 6.37725L10.116 5.5096L10.0028 4.64195C10.3668 4.59447 10.738 4.56998 11.115 4.56998C11.4064 4.56998 11.6944 4.58462 11.9783 4.61321ZM18.6904 14.0839L19.558 14.1971C19.6055 13.8331 19.63 13.4619 19.63 13.085C19.63 12.708 19.6055 12.3368 19.558 11.9728L18.6904 12.086L17.8227 12.1992C17.8604 12.4883 17.88 12.7839 17.88 13.085C17.88 13.386 17.8604 13.6816 17.8227 13.9708L18.6904 14.0839ZM8.19071 6.02436L7.85554 5.2161C7.16329 5.50316 6.51711 5.87892 5.93118 6.32918L6.46434 7.02299L6.9975 7.71679C7.46356 7.35864 7.97686 7.06029 8.52588 6.83262L8.19071 6.02436ZM5.05298 8.43434L4.35918 7.90118C3.90891 8.48711 3.53316 9.13329 3.2461 9.82554L4.05436 10.1607L4.86262 10.4959C5.09029 9.94686 5.38864 9.43357 5.74679 8.9675L5.05298 8.43434ZM2.59998 13.085C2.59998 12.708 2.62447 12.3368 2.67195 11.9728L3.5396 12.086L4.40725 12.1992C4.36953 12.4883 4.34998 12.7839 4.34998 13.085C4.34998 13.386 4.36953 13.6816 4.40725 13.9708L3.5396 14.0839L2.67195 14.1971C2.62447 13.8331 2.59998 13.4619 2.59998 13.085ZM4.05436 16.0092L3.2461 16.3444C3.53316 17.0367 3.90891 17.6828 4.35918 18.2688L5.05298 17.7356L5.74679 17.2025C5.38864 16.7364 5.09029 16.2231 4.86262 15.6741L4.05436 16.0092ZM6.46434 19.147L5.93118 19.8408C6.51711 20.291 7.16329 20.6668 7.85554 20.9539L8.19071 20.1456L8.52588 19.3373C7.97686 19.1097 7.46356 18.8113 6.9975 18.4532L6.46434 19.147ZM10.116 20.6604L10.0028 21.528C10.3668 21.5755 10.738 21.6 11.115 21.6C11.4919 21.6 11.8631 21.5755 12.2271 21.528L12.1139 20.6604L12.0008 19.7927C11.7116 19.8304 11.416 19.85 11.115 19.85C10.8139 19.85 10.5183 19.8304 10.2292 19.7927L10.116 20.6604ZM14.0392 20.1456L14.3744 20.9539C15.0667 20.6668 15.7128 20.291 16.2988 19.8408L15.7656 19.147L15.2325 18.4532C14.7664 18.8113 14.2531 19.1097 13.7041 19.3373L14.0392 20.1456ZM17.177 17.7356L17.8708 18.2688C18.321 17.6828 18.6968 17.0367 18.9839 16.3444L18.1756 16.0092L17.3673 15.6741C17.1397 16.2231 16.8413 16.7364 16.4832 17.2025L17.177 17.7356Z" fill="#8D94A0"/>
<path fill-rule="evenodd" clip-rule="evenodd" d="M18.0562 2.54107C18.0562 2.02134 17.6348 1.60001 17.1151 1.60001C16.5954 1.60001 16.174 2.02133 16.174 2.54107V5.02206H13.8356C13.3317 5.02206 12.9231 5.43062 12.9231 5.93461C12.9231 6.43859 13.3317 6.84715 13.8356 6.84715H16.174V9.21407C16.174 9.73381 16.5954 10.1551 17.1151 10.1551C17.6348 10.1551 18.0562 9.73381 18.0562 9.21407V6.84715H20.5657C21.0697 6.84715 21.4782 6.43859 21.4782 5.93461C21.4782 5.43062 21.0697 5.02206 20.5657 5.02206H18.0562V2.54107Z" fill="#8D94A0"/>
<path fill-rule="evenodd" clip-rule="evenodd" d="M14.4197 11.3816C14.4197 12.2043 13.9163 12.8713 13.2952 12.8713C12.6741 12.8713 12.1706 12.2043 12.1706 11.3816C12.1706 10.5589 12.6741 9.89191 13.2952 9.89191C13.9163 9.89191 14.4197 10.5589 14.4197 11.3816ZM10.171 11.3816C10.171 12.2044 9.66753 12.8713 9.04644 12.8713C8.42536 12.8713 7.92188 12.2044 7.92188 11.3816C7.92188 10.5589 8.42536 9.89194 9.04644 9.89194C9.66753 9.89194 10.171 10.5589 10.171 11.3816ZM14.124 16.0573C14.4534 15.8063 14.517 15.3359 14.266 15.0065C14.0151 14.6771 13.5447 14.6135 13.2153 14.8645C11.4962 16.1745 9.78804 15.4209 9.15452 14.8874C8.83781 14.6206 8.36485 14.6612 8.09814 14.9779C7.83143 15.2947 7.87197 15.7677 8.18869 16.0344C9.1379 16.8338 11.6448 17.9464 14.124 16.0573Z" fill="#8D94A0"/>
</svg>
