<svg width="24" height="24" viewBox="0 0 24 24" fill="none" xmlns="http://www.w3.org/2000/svg">
<path fill-rule="evenodd" clip-rule="evenodd" d="M11.9806 4.60903C11.7185 4.97596 11.5642 5.42526 11.5642 5.9106C11.5642 7.14846 12.5677 8.15194 13.8056 8.15194H14.9262V9.27262C14.9262 10.5105 15.9297 11.514 17.1676 11.514C18.0394 11.514 18.7949 11.0162 19.1655 10.2895C19.4692 11.1645 19.6342 12.1045 19.6342 13.0829C19.6342 17.7868 15.821 21.6 11.1171 21.6C6.41322 21.6 2.59998 17.7868 2.59998 13.0829C2.59998 8.37904 6.41322 4.5658 11.1171 4.5658C11.4086 4.5658 11.6967 4.58044 11.9806 4.60903ZM14.4226 11.3791C14.4226 12.202 13.919 12.8691 13.2978 12.8691C12.6766 12.8691 12.173 12.202 12.173 11.3791C12.173 10.5561 12.6766 9.88899 13.2978 9.88899C13.919 9.88899 14.4226 10.5561 14.4226 11.3791ZM10.1729 11.3791C10.1729 12.202 9.66925 12.8691 9.04802 12.8691C8.42678 12.8691 7.92317 12.202 7.92317 11.3791C7.92317 10.5561 8.42678 9.88902 9.04802 9.88902C9.66925 9.88902 10.1729 10.5561 10.1729 11.3791ZM14.1269 16.0559C14.4563 15.8049 14.5199 15.3343 14.2689 15.0048C14.0179 14.6754 13.5474 14.6118 13.2179 14.8628C11.4983 16.1731 9.78979 15.4194 9.15612 14.8857C8.83933 14.6189 8.36625 14.6594 8.09948 14.9763C7.83271 15.2931 7.87325 15.7662 8.19005 16.033C9.13949 16.8326 11.647 17.9455 14.1269 16.0559Z" fill="#8D94A0"/>
<path fill-rule="evenodd" clip-rule="evenodd" d="M18.0563 2.54107C18.0563 2.02134 17.635 1.60001 17.1152 1.60001C16.5955 1.60001 16.1742 2.02133 16.1742 2.54107V5.02206H13.8358C13.3318 5.02206 12.9232 5.43062 12.9232 5.93461C12.9232 6.43859 13.3318 6.84715 13.8358 6.84715H16.1742V9.21407C16.1742 9.73381 16.5955 10.1551 17.1152 10.1551C17.635 10.1551 18.0563 9.73381 18.0563 9.21407V6.84715H20.5658C21.0698 6.84715 21.4783 6.43859 21.4783 5.93461C21.4783 5.43062 21.0698 5.02206 20.5658 5.02206H18.0563V2.54107Z" fill="#8D94A0"/>
</svg>
