<svg width="24" height="24" viewBox="0 0 24 24" fill="none" xmlns="http://www.w3.org/2000/svg">
<path fill-rule="evenodd" clip-rule="evenodd" d="M20.0033 6.79248C20.0033 8.82054 18.7622 10.4646 17.2312 10.4646C15.7002 10.4646 14.4591 8.82054 14.4591 6.79248C14.4591 4.76443 15.7002 3.12036 17.2312 3.12036C18.7622 3.12036 20.0033 4.76443 20.0033 6.79248ZM9.52939 6.79256C9.52939 8.82062 8.28829 10.4647 6.75731 10.4647C5.22633 10.4647 3.98523 8.82062 3.98523 6.79256C3.98523 4.7645 5.22633 3.12044 6.75731 3.12044C8.28829 3.12044 9.52939 4.7645 9.52939 6.79256ZM19.2737 18.3182C20.0856 17.6996 20.2423 16.5399 19.6237 15.7279C19.0052 14.916 17.8456 14.7593 17.0337 15.3779C12.796 18.607 8.58538 16.7495 7.02375 15.4343C6.24304 14.7768 5.0772 14.8767 4.41976 15.6575C3.76232 16.4383 3.86225 17.6043 4.64296 18.2618C6.98277 20.2324 13.1624 22.975 19.2737 18.3182Z" fill="#8D94A0"/>
</svg>
