<svg width="24" height="24" viewBox="0 0 24 24" fill="none" xmlns="http://www.w3.org/2000/svg">
<path fill-rule="evenodd" clip-rule="evenodd" d="M5.65723 4.28572C5.65723 2.6762 6.962 1.37143 8.57151 1.37143H18.0001C19.6096 1.37143 20.9144 2.6762 20.9144 4.28572V19.7143C20.9144 21.3238 19.6096 22.6286 18.0001 22.6286H8.57151C6.962 22.6286 5.65723 21.3238 5.65723 19.7143V17.5714C5.65723 16.9087 6.19448 16.3714 6.85723 16.3714C7.51997 16.3714 8.05723 16.9087 8.05723 17.5714V19.7143C8.05723 19.9983 8.28748 20.2286 8.57151 20.2286H18.0001C18.2841 20.2286 18.5144 19.9983 18.5144 19.7143V4.28572C18.5144 4.00168 18.2841 3.77143 18.0001 3.77143H8.57151C8.28748 3.77143 8.05723 4.00168 8.05723 4.28572V6.42857C8.05723 7.09131 7.51997 7.62857 6.85723 7.62857C6.19448 7.62857 5.65723 7.09131 5.65723 6.42857V4.28572ZM2.22852 12.4286C2.22852 11.7658 2.76577 11.2286 3.42852 11.2286H10.2481L9.37461 10.2095C8.9433 9.70633 9.00157 8.94877 9.50477 8.51746C10.008 8.08615 10.7655 8.14443 11.1968 8.64762L13.7683 11.6476C14.1534 12.097 14.1534 12.7601 13.7683 13.2095L11.1968 16.2095C10.7655 16.7127 10.008 16.771 9.50477 16.3397C9.00157 15.9084 8.9433 15.1508 9.37461 14.6476L10.2481 13.6286H3.42852C2.76577 13.6286 2.22852 13.0913 2.22852 12.4286Z" fill="#8D94A0"/>
</svg>
