<svg width="24" height="24" viewBox="0 0 24 24" fill="none" xmlns="http://www.w3.org/2000/svg">
<path fill-rule="evenodd" clip-rule="evenodd" d="M5.95341 4.32554C5.05436 4.32554 4.32554 5.05436 4.32554 5.95341V18.0466C4.32554 18.9456 5.05436 19.6745 5.95341 19.6745H18.0466C18.9456 19.6745 19.6745 18.9456 19.6745 18.0466V12C19.6745 11.3578 20.1951 10.8372 20.8372 10.8372C21.4794 10.8372 22 11.3578 22 12V18.0466C22 20.23 20.23 22 18.0466 22H5.95341C3.77 22 2 20.23 2 18.0466V5.95341C2 3.77 3.77 2 5.95341 2H12C12.6422 2 13.1628 2.52059 13.1628 3.16277C13.1628 3.80495 12.6422 4.32554 12 4.32554H5.95341Z" fill="#8D94A0"/>
<path fill-rule="evenodd" clip-rule="evenodd" d="M13.3078 10.6821C13.7219 11.0963 14.3934 11.0963 14.8075 10.6821L20.4761 5.01351C20.8902 4.59937 20.8902 3.92792 20.4761 3.51378C20.062 3.09965 19.3905 3.09965 18.9764 3.51378L13.3078 9.18239C12.8936 9.59653 12.8936 10.268 13.3078 10.6821Z" fill="#8D94A0"/>
<path fill-rule="evenodd" clip-rule="evenodd" d="M15.2402 3.16277C15.2402 2.52059 15.7608 2 16.4029 2H20.8215C21.4637 2 21.9843 2.52059 21.9843 3.16277V7.58138C21.9843 8.22356 21.4637 8.74415 20.8215 8.74415C20.1794 8.74415 19.6588 8.22356 19.6588 7.58138V4.32554H16.4029C15.7608 4.32554 15.2402 3.80495 15.2402 3.16277Z" fill="#8D94A0"/>
</svg>
