<svg width="24" height="24" viewBox="0 0 24 24" fill="none" xmlns="http://www.w3.org/2000/svg">
<path d="M6.87598 3.19635C3.81944 3.43262 1.38867 7.28373 1.38867 12.0001L1.39648 12.4532C1.55128 17.1111 4.07861 20.8154 7.17383 20.8155L7.47168 20.8038C9.36473 20.6575 11.016 19.1238 12 16.8575C13.0353 19.242 14.8094 20.8154 16.8262 20.8155L17.124 20.8038C20.0821 20.5752 22.4537 16.9608 22.6035 12.4532L22.6113 12.0001C22.6113 7.13147 20.0212 3.18463 16.8262 3.18463L16.5283 3.19635C14.6359 3.34267 12.9852 4.87553 12.001 7.14069C10.9655 4.75692 9.19028 3.18466 7.17383 3.18463L6.87598 3.19635ZM16.8262 5.18463C17.5321 5.18463 18.43 5.6222 19.2451 6.86432C20.0489 8.08943 20.6113 9.89952 20.6113 12.0001C20.6113 14.1006 20.049 15.9107 19.2451 17.1358C18.43 18.3779 17.5321 18.8155 16.8262 18.8155C16.1203 18.8154 15.2223 18.3779 14.4072 17.1358C14.2624 16.9151 14.1263 16.675 13.999 16.418C14.3953 16.727 14.8511 16.9044 15.3369 16.9044C16.8581 16.9041 18.0917 15.1776 18.0918 13.0479C18.0918 10.9181 16.8582 9.19079 15.3369 9.19049C14.4179 9.19049 13.6069 9.82265 13.1064 10.7911C13.2747 9.20708 13.7623 7.84729 14.4072 6.86432C15.2223 5.62226 16.1203 5.18468 16.8262 5.18463ZM7.17383 5.18463C7.87973 5.18466 8.77766 5.62224 9.59277 6.86432C10.3966 8.08943 10.959 9.89954 10.959 12.0001C10.959 14.1006 10.3966 15.9107 9.59277 17.1358C8.77766 18.3779 7.87973 18.8155 7.17383 18.8155C6.46794 18.8155 5.56999 18.3778 4.75488 17.1358C4.64978 16.9756 4.55023 16.8046 4.4541 16.6251C4.7718 16.8042 5.11797 16.9043 5.48145 16.9044C7.00281 16.9044 8.2362 15.1778 8.23633 13.0479C8.23633 10.9179 7.00288 9.19049 5.48145 9.19049C4.70693 9.19057 4.00926 9.63999 3.50879 10.3604C3.71396 8.96055 4.16919 7.75698 4.75488 6.86432C5.57 5.62224 6.46793 5.18465 7.17383 5.18463Z" fill="#8D94A0"/>
</svg>
