<svg width="24" height="24" viewBox="0 0 24 24" fill="none" xmlns="http://www.w3.org/2000/svg">
<path fill-rule="evenodd" clip-rule="evenodd" d="M12 0.97998C5.925 0.97998 1 5.90398 1 11.98C1 18.055 5.925 22.98 12 22.98C18.075 22.98 23 18.055 23 11.98C23 5.90398 18.075 0.97998 12 0.97998ZM10.8212 10C10.8212 10.9389 10.2466 11.7 9.53782 11.7C8.82901 11.7 8.25441 10.9389 8.25441 10C8.25441 9.06113 8.82901 8.3 9.53782 8.3C10.2466 8.3 10.8212 9.06113 10.8212 10ZM15.6701 10.0002C15.6701 10.9391 15.0955 11.7002 14.3867 11.7002C13.6779 11.7002 13.1033 10.9391 13.1033 10.0002C13.1033 9.06132 13.6779 8.3002 14.3867 8.3002C15.0955 8.3002 15.6701 9.06132 15.6701 10.0002ZM15.3326 15.3365C15.7085 15.0501 15.781 14.5132 15.4947 14.1373C15.2083 13.7614 14.6714 13.6889 14.2956 13.9753C12.3336 15.4702 10.3842 14.6103 9.66116 14.0014C9.29971 13.697 8.75995 13.7433 8.45557 14.1047C8.15119 14.4662 8.19746 15.006 8.55891 15.3104C9.64219 16.2227 12.5032 17.4924 15.3326 15.3365Z" fill="#8D94A0"/>
</svg>
