<svg width="24" height="24" viewBox="0 0 24 24" fill="none" xmlns="http://www.w3.org/2000/svg">
<path fill-rule="evenodd" clip-rule="evenodd" d="M12 0.97998C5.925 0.97998 1 5.90398 1 11.98C1 18.055 5.925 22.98 12 22.98C18.075 22.98 23 18.055 23 11.98C23 5.90398 18.075 0.97998 12 0.97998ZM10.8212 10C10.8212 10.9389 10.2466 11.7 9.53782 11.7C8.82901 11.7 8.25441 10.9389 8.25441 10C8.25441 9.06113 8.82901 8.3 9.53782 8.3C10.2466 8.3 10.8212 9.06113 10.8212 10ZM15.6701 10.0002C15.6701 10.9391 15.0955 11.7002 14.3867 11.7002C13.6779 11.7002 13.1033 10.9391 13.1033 10.0002C13.1033 9.06132 13.6779 8.3002 14.3867 8.3002C15.0955 8.3002 15.6701 9.06132 15.6701 10.0002ZM8.59151 14.9852C8.21564 15.2716 8.14309 15.8085 8.42947 16.1844C8.71585 16.5603 9.25271 16.6329 9.62858 16.3465C11.5906 14.8515 13.54 15.7115 14.263 16.3204C14.6244 16.6248 15.1642 16.5785 15.4686 16.217C15.7729 15.8555 15.7267 15.3158 15.3652 15.0114C14.2819 14.0991 11.4209 12.8294 8.59151 14.9852Z" fill="#8D94A0"/>
</svg>
