<svg width="24" height="24" viewBox="0 0 24 24" fill="none" xmlns="http://www.w3.org/2000/svg">
<path fill-rule="evenodd" clip-rule="evenodd" d="M9 9V15H15V9H9ZM8.5 7C7.67157 7 7 7.67157 7 8.5V15.5C7 16.3284 7.67157 17 8.5 17H15.5C16.3284 17 17 16.3284 17 15.5V8.5C17 7.67157 16.3284 7 15.5 7H8.5Z" fill="#8D94A0"/>
<path fill-rule="evenodd" clip-rule="evenodd" d="M2 4C2 2.89543 2.89543 2 4 2H8C8.55228 2 9 2.44772 9 3C9 3.55228 8.55228 4 8 4H4V8C4 8.55228 3.55228 9 3 9C2.44772 9 2 8.55228 2 8V4Z" fill="#8D94A0"/>
<path fill-rule="evenodd" clip-rule="evenodd" d="M2 20C2 21.1046 2.89543 22 4 22H8C8.55228 22 9 21.5523 9 21C9 20.4477 8.55228 20 8 20H4V16C4 15.4477 3.55228 15 3 15C2.44772 15 2 15.4477 2 16V20Z" fill="#8D94A0"/>
<path fill-rule="evenodd" clip-rule="evenodd" d="M22 4C22 2.89543 21.1046 2 20 2H16C15.4477 2 15 2.44772 15 3C15 3.55228 15.4477 4 16 4H20V8C20 8.55228 20.4477 9 21 9C21.5523 9 22 8.55228 22 8V4Z" fill="#8D94A0"/>
<path fill-rule="evenodd" clip-rule="evenodd" d="M22 20C22 21.1046 21.1046 22 20 22H16C15.4477 22 15 21.5523 15 21C15 20.4477 15.4477 20 16 20H20V16C20 15.4477 20.4477 15 21 15C21.5523 15 22 15.4477 22 16V20Z" fill="#8D94A0"/>
</svg>
