<svg width="24" height="24" viewBox="0 0 24 24" fill="none" xmlns="http://www.w3.org/2000/svg">
<path d="M10.3733 2.84712C10.3517 3.13388 10.1532 5.01968 8.59999 6.60074C8.45587 6.74595 8.30055 6.87989 8.13542 7.00135C7.90834 7.16999 7.51917 7.46317 7.11397 7.78846C6.57703 8.21903 4.14844 10.4875 4.01019 13.6479C4.01019 13.6479 3.42384 20.8598 11.1465 21.9238C11.1465 21.9238 13.6457 22.4554 16.369 20.7104C16.4305 20.6706 16.4925 20.6321 16.5558 20.5948C16.9943 20.338 19.3159 18.8285 19.9239 15.4027C19.9239 15.4027 20.3573 12.6305 19.1555 10.4614C19.1222 10.4014 19.0836 10.3445 19.052 10.2837C18.9081 10.0107 18.4019 9.10757 17.6864 8.42319C17.5838 8.32256 17.4521 8.25599 17.3094 8.23273C17.2136 8.2168 17.1152 8.22584 17.024 8.25894C16.9328 8.29204 16.8519 8.34806 16.7894 8.42148C16.7711 8.44147 16.7546 8.46294 16.74 8.48568C16.613 8.67614 15.9785 9.6246 15.6947 9.97514C15.6947 9.97514 15.5365 10.1703 15.5759 9.89682C15.5759 9.89682 16.0903 7.31979 14.3109 4.74276C14.3109 4.74276 13.2037 3.02431 11.5036 2.1653C11.5036 2.1653 11.0702 1.89224 10.7131 2.04803C10.7131 2.04803 10.4661 2.15289 10.3889 2.70716C10.3811 2.7551 10.3768 2.80004 10.3733 2.84712Z" fill="#D1D5DB"/>
<rect x="13" y="13" width="11" height="11" rx="5.5" fill="white"/>
<path fill-rule="evenodd" clip-rule="evenodd" d="M18.5833 20.7158C18.4507 20.7158 18.3235 20.6632 18.2298 20.5694C18.136 20.4756 18.0833 20.3484 18.0833 20.2158C18.0833 20.0832 18.136 19.956 18.2298 19.8623C18.3235 19.7685 18.4507 19.7158 18.5833 19.7158C18.7159 19.7158 18.8431 19.7685 18.9369 19.8623C19.0307 19.956 19.0833 20.0832 19.0833 20.2158C19.0833 20.3484 19.0307 20.4756 18.9369 20.5694C18.8431 20.6632 18.7159 20.7158 18.5833 20.7158ZM18.1667 16.6179C18.1667 16.5074 18.2106 16.4014 18.2887 16.3233C18.3668 16.2451 18.4728 16.2012 18.5833 16.2012C18.6938 16.2012 18.7998 16.2451 18.878 16.3233C18.9561 16.4014 19 16.5074 19 16.6179V18.7012C19 18.8118 18.9561 18.9177 18.878 18.9959C18.7998 19.074 18.6938 19.1179 18.5833 19.1179C18.4728 19.1179 18.3668 19.074 18.2887 18.9959C18.2106 18.9177 18.1667 18.8118 18.1667 18.7012V16.6179ZM18.5833 14C16.0521 14 14 16.0521 14 18.5833C14 21.115 16.0521 23.1667 18.5833 23.1667C21.1146 23.1667 23.1667 21.115 23.1667 18.5833C23.1667 16.0521 21.1146 14 18.5833 14Z" fill="#F5525D"/>
</svg>
