<svg width="24" height="24" viewBox="0 0 24 24" fill="none" xmlns="http://www.w3.org/2000/svg">
<path d="M10.3733 2.84712C10.3517 3.13388 10.1532 5.01968 8.59999 6.60074C8.45587 6.74595 8.30055 6.87989 8.13542 7.00135C7.90834 7.16999 7.51917 7.46317 7.11397 7.78846C6.57703 8.21903 4.14844 10.4875 4.01019 13.6479C4.01019 13.6479 3.42384 20.8598 11.1465 21.9238C11.1465 21.9238 13.6457 22.4554 16.369 20.7104C16.4305 20.6706 16.4925 20.6321 16.5558 20.5948C16.9943 20.338 19.3159 18.8285 19.9239 15.4027C19.9239 15.4027 20.3573 12.6305 19.1555 10.4614C19.1222 10.4014 19.0836 10.3445 19.052 10.2837C18.9081 10.0107 18.4019 9.10757 17.6864 8.42319C17.5838 8.32256 17.4521 8.25599 17.3094 8.23273C17.2136 8.2168 17.1152 8.22584 17.024 8.25894C16.9328 8.29204 16.8519 8.34806 16.7894 8.42148C16.7711 8.44147 16.7546 8.46294 16.74 8.48568C16.613 8.67614 15.9785 9.6246 15.6947 9.97514C15.6947 9.97514 15.5365 10.1703 15.5759 9.89682C15.5759 9.89682 16.0903 7.31979 14.3109 4.74276C14.3109 4.74276 13.2037 3.02431 11.5036 2.1653C11.5036 2.1653 11.0702 1.89224 10.7131 2.04803C10.7131 2.04803 10.4661 2.15289 10.3889 2.70716C10.3811 2.7551 10.3768 2.80004 10.3733 2.84712Z" fill="#8D94A0"/>
</svg>
