<svg width="24" height="24" viewBox="0 0 24 24" fill="none" xmlns="http://www.w3.org/2000/svg">
<path d="M5.61133 0.74707C6.32808 0.746982 6.84844 1.33012 6.84961 2.04688V2.66797L7.31836 2.71191C9.95672 2.95544 11.3848 3.4388 13.6777 4.88574C15.9708 6.33275 17.3319 7.50958 19.7158 8.08203L21.3008 8.40625C21.7599 8.4931 21.951 9.01405 21.3965 9.44824C21.3965 9.44824 20.2858 10.5994 18.8008 11.2871C17.3158 11.9748 16.0058 12.4721 13.6777 12.2988C11.3499 12.1256 10.0988 12.2761 8.7207 12.8896L6.86719 13.7236L6.88086 21.9668C6.88197 22.6763 6.33057 23.2521 5.62109 23.2529C4.90787 23.2536 4.30198 22.6751 4.30078 21.9619L4.26953 2.02734C4.26859 1.31976 4.90371 0.747217 5.61133 0.74707Z" fill="#8D94A0"/>
</svg>
