<svg width="24" height="24" viewBox="0 0 24 24" fill="none" xmlns="http://www.w3.org/2000/svg">
<path fill-rule="evenodd" clip-rule="evenodd" d="M15.4552 1C16.0074 1.00004 16.4552 1.44774 16.4552 2C16.4552 2.55226 16.0074 2.99996 15.4552 3H15.1202V8.15332C15.1202 8.30937 15.1602 8.46341 15.2364 8.59961L20.8663 18.665C21.9521 20.6067 20.548 22.9999 18.3233 23H5.71687C3.49215 22.9999 2.08887 20.6067 3.17488 18.665L8.80476 8.59961C8.88092 8.46343 8.92097 8.30935 8.92097 8.15332V3H8.45515C7.90287 3 7.45515 2.55228 7.45515 2C7.45515 1.44772 7.90287 1 8.45515 1H15.4552ZM10.921 8.15332C10.921 8.65112 10.7928 9.14072 10.5499 9.5752L8.57136 13.1123H15.4688L13.4903 9.5752C13.2474 9.14076 13.1202 8.65105 13.1202 8.15332V3H10.921V8.15332Z" fill="#8D94A0"/>
</svg>
