<svg width="24" height="24" viewBox="0 0 24 24" fill="none" xmlns="http://www.w3.org/2000/svg">
<path fill-rule="evenodd" clip-rule="evenodd" d="M10.061 3.181C9.66599 2.78621 9.13047 2.5643 8.572 2.564H4.106C3.54745 2.564 3.01178 2.78588 2.61683 3.18083C2.22188 3.57578 2 4.11145 2 4.67V5.647H12.527L10.061 3.181ZM19.895 6.647H2V19.331C2 20.494 2.943 21.436 4.106 21.436H19.895C20.1715 21.4361 20.4453 21.3818 20.7007 21.276C20.9562 21.1703 21.1883 21.0152 21.3838 20.8197C21.5792 20.6243 21.7343 20.3921 21.84 20.1367C21.9458 19.8813 22.0001 19.6075 22 19.331V8.752C22.0001 8.47553 21.9458 8.20174 21.84 7.94629C21.7343 7.69084 21.5792 7.45874 21.3838 7.26324C21.1883 7.06775 20.9562 6.9127 20.7007 6.80696C20.4453 6.70122 20.1715 6.64686 19.895 6.647Z" fill="#8D94A0"/>
</svg>
