<svg width="24" height="24" viewBox="0 0 24 24" fill="none" xmlns="http://www.w3.org/2000/svg">
<path d="M2 6.3C2 5.63726 2.53726 5.1 3.2 5.1H20.8C21.4627 5.1 22 5.63726 22 6.3C22 6.96274 21.4627 7.5 20.8 7.5H3.2C2.53726 7.5 2 6.96274 2 6.3Z" fill="#8D94A0"/>
<path d="M2 17.7C2 17.0373 2.53726 16.5 3.2 16.5H20.8C21.4627 16.5 22 17.0373 22 17.7C22 18.3628 21.4627 18.9 20.8 18.9H3.2C2.53726 18.9 2 18.3628 2 17.7Z" fill="#8D94A0"/>
<path d="M17.7 2C18.3627 2 18.9 2.53726 18.9 3.2V20.8C18.9 21.4627 18.3627 22 17.7 22C17.0373 22 16.5 21.4627 16.5 20.8V3.2C16.5 2.53726 17.0373 2 17.7 2Z" fill="#8D94A0"/>
<path d="M6.3 2C6.96274 2 7.5 2.53726 7.5 3.2V20.8C7.5 21.4627 6.96274 22 6.3 22C5.63726 22 5.1 21.4627 5.1 20.8V3.2C5.1 2.53726 5.63726 2 6.3 2Z" fill="#8D94A0"/>
</svg>
