<svg width="24" height="24" viewBox="0 0 24 24" fill="none" xmlns="http://www.w3.org/2000/svg">
<path fill-rule="evenodd" clip-rule="evenodd" d="M6 15.5C7.65685 15.5 9 14.1569 9 12.5C9 10.8431 7.65685 9.5 6 9.5C4.34315 9.5 3 10.8431 3 12.5C3 14.1569 4.34315 15.5 6 15.5ZM6 18C9.03757 18 11.5 15.5376 11.5 12.5C11.5 12.1769 11.4721 11.8604 11.4187 11.5526C11.5975 11.5192 11.7922 11.5 11.9999 11.5C12.2078 11.5 12.4025 11.5192 12.5813 11.5526C12.5279 11.8604 12.5 12.1769 12.5 12.5C12.5 15.5376 14.9624 18 18 18C21.0376 18 23.5 15.5376 23.5 12.5C23.5 9.46243 21.0376 7 18 7C16.1892 7 14.5828 7.87509 13.5806 9.22544C13.0829 9.07715 12.5473 9 11.9999 9C11.4527 9 10.917 9.07714 10.4194 9.22542C9.41719 7.87508 7.81079 7 6 7C2.96243 7 0.5 9.46243 0.5 12.5C0.5 15.5376 2.96243 18 6 18ZM18 15.5C19.6569 15.5 21 14.1569 21 12.5C21 10.8431 19.6569 9.5 18 9.5C16.3431 9.5 15 10.8431 15 12.5C15 14.1569 16.3431 15.5 18 15.5Z" fill="#8D94A0"/>
</svg>
