<svg width="24" height="24" viewBox="0 0 24 24" fill="none" xmlns="http://www.w3.org/2000/svg">
<path fill-rule="evenodd" clip-rule="evenodd" d="M12 1.5C17.799 1.5 22.5 6.20101 22.5 12C22.5 17.799 17.799 22.5 12 22.5C6.20101 22.5 1.5 17.799 1.5 12C1.5 6.20101 6.20101 1.5 12 1.5ZM9.02441 13C9.13567 15.2467 9.61518 17.1882 10.2705 18.5645C11.0923 20.2902 11.8365 20.5 12 20.5C12.1635 20.5 12.9077 20.2902 13.7295 18.5645C14.3848 17.1882 14.8643 15.2467 14.9756 13H9.02441ZM3.56055 13C3.92097 16.0746 5.9202 18.6473 8.66309 19.8193C7.75317 18.1057 7.14402 15.7019 7.02246 13H3.56055ZM16.9775 13C16.856 15.7021 16.246 18.1057 15.3359 19.8193C18.0792 18.6475 20.079 16.0749 20.4395 13H16.9775ZM8.66309 4.17969C5.92002 5.35166 3.92098 7.92527 3.56055 11H7.02246C7.14404 8.29769 7.75294 5.89338 8.66309 4.17969ZM12 3.5C11.8365 3.5 11.0923 3.70976 10.2705 5.43555C9.61518 6.81179 9.13567 8.75327 9.02441 11H14.9756C14.8643 8.75327 14.3848 6.81179 13.7295 5.43555C12.9077 3.70976 12.1635 3.5 12 3.5ZM15.3359 4.17969C16.2462 5.89341 16.856 8.29748 16.9775 11H20.4395C20.079 7.92496 18.0794 5.3515 15.3359 4.17969Z" fill="#8D94A0"/>
</svg>
