<svg width="24" height="24" viewBox="0 0 24 24" fill="none" xmlns="http://www.w3.org/2000/svg">
<path d="M9.11071 4.77791C9.11071 4.47107 8.86197 4.22233 8.55514 4.22233H4.77791C4.47108 4.22233 4.22234 4.47107 4.22234 4.77791V8.5552C4.22234 8.86204 4.47108 9.11078 4.77791 9.11078H8.55514C8.86197 9.11078 9.11071 8.86204 9.11071 8.5552V4.77791ZM11.333 8.5552C11.333 10.0894 10.0893 11.3331 8.55514 11.3331H4.77791C3.24375 11.3331 2.00007 10.0894 2.00007 8.5552V4.77791C2.00007 3.24372 3.24375 2.00001 4.77791 2.00001H8.55514C10.0893 2.00001 11.333 3.24372 11.333 4.77791V8.5552Z" fill="#8D94A0"/>
<path d="M19.7777 4.7779C19.7777 4.47106 19.529 4.22232 19.2222 4.22232H15.4449C15.1381 4.22232 14.8894 4.47106 14.8894 4.7779V8.55519C14.8894 8.86203 15.1381 9.11077 15.4449 9.11077H19.2222C19.529 9.11077 19.7777 8.86203 19.7777 8.55519V4.7779ZM22 8.55519C22 10.0894 20.7563 11.3331 19.2222 11.3331H15.4449C13.9108 11.3331 12.6671 10.0894 12.6671 8.55519V4.7779C12.6671 3.24371 13.9108 2 15.4449 2H19.2222C20.7563 2 22 3.24371 22 4.7779V8.55519Z" fill="#8D94A0"/>
<path d="M9.11064 15.4448C9.11064 15.138 8.8619 14.8892 8.55507 14.8892H4.77785C4.47101 14.8892 4.22228 15.138 4.22228 15.4448V19.2221C4.22228 19.5289 4.47102 19.7777 4.77785 19.7777H8.55507C8.86191 19.7777 9.11064 19.5289 9.11064 19.2221V15.4448ZM11.3329 19.2221C11.3329 20.7563 10.0892 22 8.55507 22H4.77785C3.24368 22 2 20.7563 2 19.2221V15.4448C2 13.9106 3.24369 12.6669 4.77785 12.6669H8.55507C10.0892 12.6669 11.3329 13.9106 11.3329 15.4448V19.2221Z" fill="#8D94A0"/>
<path d="M19.7777 15.4448C19.7777 15.138 19.529 14.8892 19.2222 14.8892H15.4449C15.1381 14.8892 14.8894 15.138 14.8894 15.4448V19.2221C14.8894 19.5289 15.1381 19.7777 15.4449 19.7777H19.2222C19.529 19.7777 19.7777 19.5289 19.7777 19.2221V15.4448ZM22 19.2221C22 20.7563 20.7563 22 19.2222 22H15.4449C13.9108 22 12.6671 20.7563 12.6671 19.2221V15.4448C12.6671 13.9106 13.9108 12.6669 15.4449 12.6669H19.2222C20.7563 12.6669 22 13.9106 22 15.4448V19.2221Z" fill="#8D94A0"/>
</svg>
