<svg width="24" height="24" viewBox="0 0 24 24" fill="none" xmlns="http://www.w3.org/2000/svg">
<g clip-path="url(#clip0_20521_116)">
<path d="M4.5 18.5C5.05228 18.5 5.5 18.9477 5.5 19.5V20.0996H18.5V19.5C18.5 18.9477 18.9477 18.5 19.5 18.5H20.0996V5.5H19.5L19.3975 5.49512C18.927 5.44722 18.5528 5.07297 18.5049 4.60254L18.5 4.5V3.90039H5.5V4.5C5.5 5.01768 5.10667 5.44379 4.60254 5.49512L4.5 5.5H3.90039V18.5H4.5ZM1.7002 22.2998H4.2998V19.7002H1.7002V22.2998ZM19.7002 22.2998H22.2998V19.7002H19.7002V22.2998ZM1.7002 4.2998H4.2998V1.7002H1.7002V4.2998ZM19.7002 4.2998H22.2998V1.7002H19.7002V4.2998ZM21.9004 18.5H22.5C23.0523 18.5 23.5 18.9477 23.5 19.5V22.5C23.5 23.0177 23.1067 23.4438 22.6025 23.4951L22.5 23.5H19.5L19.3975 23.4951C18.927 23.4472 18.5528 23.073 18.5049 22.6025L18.5 22.5V21.9004H5.5V22.5C5.5 23.0177 5.10667 23.4438 4.60254 23.4951L4.5 23.5H1.5L1.39746 23.4951C0.927034 23.4472 0.552783 23.073 0.504883 22.6025L0.5 22.5V19.5C0.5 18.9477 0.947715 18.5 1.5 18.5H2.09961V5.5H1.5L1.39746 5.49512C0.927034 5.44722 0.552783 5.07297 0.504883 4.60254L0.5 4.5V1.5C0.5 0.947715 0.947715 0.5 1.5 0.5H4.5C5.05228 0.5 5.5 0.947715 5.5 1.5V2.09961H18.5V1.5C18.5 0.947715 18.9477 0.5 19.5 0.5H22.5C23.0523 0.5 23.5 0.947715 23.5 1.5V4.5C23.5 5.01768 23.1067 5.44379 22.6025 5.49512L22.5 5.5H21.9004V18.5Z" fill="#8D94A0"/>
<path d="M9.72489 6.5C9.24777 6.5 8.86099 6.85181 8.86099 7.2858V8.02454H14.9661C15.4432 8.02454 15.83 8.37636 15.83 8.81034V15.3402H16.6361C17.1132 15.3402 17.5 14.9884 17.5 14.5544V7.2858C17.5 6.85181 17.1132 6.5 16.6361 6.5H9.72489Z" fill="#8D94A0"/>
<path d="M6.5 9.44557C6.5 9.01158 6.88678 8.65977 7.3639 8.65977H14.2751C14.7522 8.65977 15.139 9.01158 15.139 9.44557V16.7142C15.139 17.1482 14.7522 17.5 14.2751 17.5H7.3639C6.88678 17.5 6.5 17.1482 6.5 16.7142V9.44557Z" fill="#8D94A0"/>
</g>
<defs>
<clipPath id="clip0_20521_116">
<rect width="24" height="24" fill="white"/>
</clipPath>
</defs>
</svg>
