<svg width="24" height="24" viewBox="0 0 24 24" fill="none" xmlns="http://www.w3.org/2000/svg">
<path fill-rule="evenodd" clip-rule="evenodd" d="M11.9995 2.38787C11.8257 2.37934 11.6507 2.37502 11.4746 2.37502C5.96558 2.37502 2.54961 6.05003 1.4996 11.8251C0.866583 15.3067 1.16646 18.7884 5.35901 20.3797C5.542 20.4491 5.69047 20.2197 5.56547 20.0691C4.3432 18.5963 3.60834 16.7045 3.60834 14.6411C3.60834 9.94324 7.41628 9.46251 12.1134 9.46251C16.8105 9.46251 20.6184 9.94324 20.6184 14.6411C20.6184 16.6439 19.9261 18.4851 18.7677 19.9383C18.6447 20.0926 18.7997 20.3198 18.9811 20.2425C22.8488 18.5947 23.1151 15.2099 22.4996 11.825C21.4496 6.05002 18.0337 2.375 12.5246 2.375C12.3485 2.375 12.1734 2.37933 11.9995 2.38787ZM5.05663 14.9844C5.05663 11.4073 8.23732 11.0413 12.1607 11.0413C16.0841 11.0413 19.2648 11.4073 19.2648 14.9844C19.2648 18.561 16.0841 21.4605 12.1607 21.4605C8.23732 21.4605 5.05663 18.561 5.05663 14.9844Z" fill="#8D94A0"/>
</svg>
