<svg width="24" height="24" viewBox="0 0 24 24" fill="none" xmlns="http://www.w3.org/2000/svg">
<path d="M6.92594 5.87196C6.92594 4.3943 8.12027 3.19636 9.59347 3.19636C9.92783 3.19639 10.2468 3.26056 10.5417 3.37327C10.9978 2.55443 11.8698 2.00011 12.8713 2C13.8849 2 14.767 2.56717 15.2184 3.40217C15.4648 3.32139 15.7275 3.27609 16.0008 3.27606C17.0306 3.27606 17.9148 3.89693 18.3051 4.78508C18.5205 4.72493 18.7473 4.69049 18.9818 4.69049C20.3725 4.69065 21.5 5.82219 21.5 7.2172V15.2887C21.4998 18.9951 18.5042 22 14.8089 22H13.617C11.6898 22 9.69614 21.4739 8.12655 20.1468C6.59022 18.8477 4.65735 16.9178 2.88666 14.3183C2.26472 13.4052 2.41837 12.207 3.16607 11.457C3.9794 10.6412 5.27133 10.5606 6.17938 11.2687L6.92594 11.8511V5.87196ZM8.98225 13.0492C8.98225 13.8647 8.32308 14.5258 7.51009 14.5258C7.18276 14.5258 6.86474 14.4165 6.60636 14.2149L4.91765 12.8977C4.82824 12.828 4.70087 12.8358 4.62077 12.9161C4.54047 12.9967 4.54551 13.0974 4.5841 13.1543C6.23067 15.5717 8.02927 17.3664 9.45202 18.5695C10.5603 19.5066 12.0418 19.9366 13.617 19.9366H14.8089C17.3684 19.9366 19.4435 17.8559 19.4437 15.2887V7.2172C19.4437 6.96139 19.2368 6.75405 18.9818 6.7539C18.7266 6.7539 18.5199 6.96129 18.5199 7.2172V10.8045L18.5146 10.9096C18.462 11.4297 18.0237 11.8353 17.4913 11.8353C16.9235 11.8353 16.4628 11.374 16.4627 10.8045V5.80189C16.4625 5.54617 16.2558 5.33859 16.0008 5.33859C15.7459 5.33875 15.5391 5.54627 15.5389 5.80189V10.8045L15.5336 10.9096C15.481 11.4296 15.0434 11.8352 14.5112 11.8353C13.9434 11.8353 13.4827 11.374 13.4826 10.8045V4.6756C13.4824 4.33728 13.2087 4.06341 12.8713 4.06341C12.5341 4.06357 12.2612 4.33737 12.261 4.6756V10.8045L12.2558 10.9096C12.2032 11.4297 11.7648 11.8353 11.2324 11.8353C10.6646 11.8353 10.204 11.374 10.2038 10.8045V5.87196L10.1916 5.74847C10.1347 5.46917 9.88869 5.25903 9.59347 5.25889C9.25603 5.25889 8.98225 5.5335 8.98225 5.87196V13.0492Z" fill="#8D94A0"/>
</svg>
