<svg width="24" height="24" viewBox="0 0 24 24" fill="none" xmlns="http://www.w3.org/2000/svg">
<path fill-rule="evenodd" clip-rule="evenodd" d="M23.255 14.251C23.255 11.99 21.695 10.102 19.6 9.56399V8.89999C19.6 4.70899 16.191 1.29999 12 1.29999C7.81 1.29999 4.401 4.70899 4.401 8.89999V9.56399C2.305 10.102 0.744995 11.99 0.744995 14.251C0.746319 15.5384 1.25839 16.7727 2.16881 17.6829C3.07923 18.5931 4.3136 19.1049 5.601 19.106C5.91925 19.106 6.22448 18.9796 6.44952 18.7545C6.67457 18.5295 6.801 18.2242 6.801 17.906V8.89999C6.801 6.03299 9.133 3.69999 12 3.69999C14.867 3.69999 17.2 6.03299 17.2 8.89999V17.409L14.66 19.949C14.5488 20.0606 14.4166 20.1491 14.2711 20.2093C14.1256 20.2695 13.9695 20.3004 13.812 20.3H11.889C11.5707 20.3 11.2655 20.4264 11.0405 20.6515C10.8154 20.8765 10.689 21.1817 10.689 21.5C10.689 21.8182 10.8154 22.1235 11.0405 22.3485C11.2655 22.5736 11.5707 22.7 11.889 22.7H13.812C14.774 22.7 15.678 22.326 16.358 21.646L18.953 19.05C21.367 18.772 23.255 16.739 23.255 14.251Z" fill="#8D94A0"/>
</svg>
