<svg width="20" height="20" viewBox="0 0 20 20" fill="none" xmlns="http://www.w3.org/2000/svg">
<g id="ic/infinite">
<path id="Vector" d="M17.8016 6.97206C16.9543 6.19726 15.8404 5.79879 14.6793 5.83569C12.6711 5.9021 11.4316 7.1713 9.996 8.63974C9.996 8.63974 9.99599 8.63974 9.98815 8.64712C9.98815 8.64712 9.98815 8.64712 9.98031 8.63974C8.5447 7.1713 7.31307 5.9021 5.29695 5.83569C4.15945 5.79879 3.04549 6.19726 2.19825 6.97206C1.32748 7.75425 0.833252 8.86111 0.833252 9.99749C0.833252 11.1634 1.31179 12.2407 2.18256 13.0303C2.99058 13.7608 4.04178 14.1667 5.15574 14.1667C5.21066 14.1667 5.25773 14.1667 5.31264 14.1667C7.32091 14.1003 8.56039 12.8311 9.996 11.3626C9.996 11.3626 9.996 11.3626 9.996 11.3552C9.996 11.3552 9.996 11.3552 10.0038 11.3626C11.4394 12.8311 12.6711 14.1003 14.6872 14.1667C14.7421 14.1667 14.7892 14.1667 14.8441 14.1667C15.9581 14.1667 17.0093 13.7682 17.8173 13.0303C18.688 12.2407 19.1666 11.1634 19.1666 9.99749C19.1666 8.86111 18.6724 7.75425 17.8016 6.97206ZM5.24204 12.3219C4.60661 12.344 4.00256 12.1227 3.54756 11.7094C3.06118 11.2667 2.79446 10.6616 2.79446 9.99749C2.79446 9.34813 3.06902 8.74304 3.5554 8.29292C3.99471 7.89445 4.56738 7.67308 5.15574 7.67308C5.18712 7.67308 5.21066 7.67308 5.24204 7.67308C6.37954 7.70997 7.16402 8.45526 8.55255 9.87942C8.58393 9.91632 8.62315 9.95321 8.65453 9.98273L8.64669 9.99749L8.65453 10.0049C8.62315 10.0418 8.58393 10.0787 8.55255 10.1082C7.16402 11.5397 6.37954 12.285 5.24204 12.3219ZM16.4523 11.7094C15.9894 12.13 15.3775 12.344 14.7578 12.3219C13.6203 12.285 12.8358 11.5397 11.4473 10.1156C11.4159 10.0787 11.3767 10.0418 11.3453 10.0122L11.3531 9.99749H11.3453C11.3767 9.96059 11.4159 9.9237 11.4473 9.89418C12.8358 8.47002 13.6203 7.72473 14.7578 7.68784C15.3775 7.68046 15.9816 7.88707 16.4444 8.30768C16.9387 8.75042 17.2054 9.35551 17.2054 10.0122C17.2054 10.6616 16.9387 11.2667 16.4523 11.7094Z" fill="#7A828D"/>
</g>
</svg>
