<svg width="24" height="24" viewBox="0 0 24 24" fill="none" xmlns="http://www.w3.org/2000/svg">
<path d="M16.7865 2.00221C17.6519 1.97669 18.2178 2.16813 18.8396 2.79011C19.215 3.17514 19.6186 3.56544 19.9851 3.95724C20.8577 4.90254 21.97 5.50427 21.9994 6.92886C22.0306 8.44334 20.8837 9.11556 19.9307 10.0792C19.537 10.4773 19.1355 10.9132 18.745 11.3262L18.2896 10.8761C17.4696 9.97192 16.8923 9.46915 16.0553 8.63975L12.6443 5.22931C13.0251 4.91905 13.645 4.30467 13.996 3.9546C14.9356 3.01736 15.3833 2.14074 16.7865 2.00221Z" fill="#8D94A0"/>
<path d="M11.3468 5.84952C11.5008 5.86202 12.8029 7.32365 13.0362 7.56046L16.4396 10.9716C16.9994 11.5291 17.5626 12.017 18.1359 12.6015C17.9816 13.0923 17.8402 13.7243 17.7071 14.2314C17.4237 15.3285 17.1184 16.4199 16.7911 17.5048C16.6756 17.8769 16.5531 18.3447 16.38 18.6874C16.2785 18.7947 15.9695 18.9194 15.8234 18.955C13.7348 19.4614 11.6723 20.0173 9.6007 20.5819C7.75211 21.0858 5.86056 21.4732 4.00988 21.9765C3.86373 22.0161 3.65845 22.006 3.52257 21.9335C3.26557 21.6635 3.42346 21.5165 3.63976 21.3114C3.86991 21.0933 4.11728 20.8828 4.33995 20.6581L7.62023 17.3749C8.04542 16.9453 8.42909 16.4864 8.8712 16.0458C8.95505 15.9628 9.55547 15.3301 9.60851 15.3358C10.3426 15.416 10.9694 15.4167 11.4523 14.748C11.7022 14.3982 11.8007 13.9624 11.7257 13.539C11.6555 13.1139 11.415 12.7355 11.0597 12.4921C10.7091 12.2527 10.2878 12.1536 9.86925 12.2362C9.45566 12.3223 9.0936 12.5699 8.86242 12.9237C8.54539 13.4042 8.55804 13.8405 8.66124 14.37C7.96832 15.1031 7.30006 15.6622 6.61827 16.3388L3.25011 19.7021C2.95642 19.9955 2.5492 20.7137 2.14562 20.5546C1.96204 20.3658 1.98512 20.0794 2.03722 19.8378C2.19518 19.1057 2.42157 18.3841 2.60167 17.6591L4.09581 11.8769C4.27523 11.1875 4.95246 8.12796 5.2257 7.63175C5.57106 7.43623 6.27169 7.24893 6.67296 7.12198C8.20646 6.63674 9.80477 6.28414 11.3468 5.84952Z" fill="#8D94A0"/>
</svg>
