<svg width="24" height="24" viewBox="0 0 24 24" fill="none" xmlns="http://www.w3.org/2000/svg">
<path d="M18.2118 3.51672C19.0358 3.49244 19.5746 3.67461 20.1666 4.26646C20.524 4.63285 20.9084 5.00424 21.2573 5.37706C22.0881 6.27659 23.1472 6.84917 23.1752 8.20476C23.2049 9.6459 22.1129 10.2856 21.2055 11.2025C20.8307 11.5813 20.4483 11.9961 20.0765 12.3891L19.6429 11.9608C18.8622 11.1004 18.3125 10.622 17.5156 9.8328L14.2678 6.58753C14.6304 6.29229 15.2206 5.70767 15.5548 5.37455C16.4495 4.4827 16.8757 3.64854 18.2118 3.51672Z" fill="#8D94A0"/>
<path d="M6.88787 7.64567C6.94365 7.53411 7.03411 7.44365 7.14567 7.38787L9.5358 6.19281C9.96066 5.98038 9.96067 5.37407 9.5358 5.16164L7.14567 3.96657C7.03411 3.91079 6.94365 3.82034 6.88787 3.70878L5.69281 1.31865C5.48038 0.893784 4.87407 0.893783 4.66164 1.31865L3.46657 3.70878C3.41079 3.82034 3.32034 3.91079 3.20878 3.96657L0.81865 5.16164C0.393784 5.37407 0.393783 5.98038 0.81865 6.19281L3.20878 7.38787C3.32034 7.44365 3.41079 7.53411 3.46657 7.64567L4.66164 10.0358C4.87407 10.4607 5.48038 10.4607 5.69281 10.0358L6.88787 7.64567Z" fill="#8D94A0"/>
<path d="M13.0326 7.17773C13.1805 7.19135 14.419 8.58046 14.641 8.80566L17.8813 12.0518C18.4143 12.5823 18.9506 13.0463 19.4965 13.6025C19.3496 14.0695 19.2149 14.6708 19.0883 15.1533C18.8185 16.1973 18.5278 17.2362 18.2162 18.2686C18.1063 18.6226 17.9894 19.0675 17.8246 19.3936C17.728 19.4958 17.4334 19.6147 17.2943 19.6484C15.3057 20.1303 13.342 20.659 11.3695 21.1963C9.60953 21.6757 7.80926 22.0455 6.04727 22.5244C5.90815 22.5622 5.71188 22.5523 5.58242 22.4834C5.33788 22.2266 5.488 22.0865 5.69375 21.8916C5.913 21.6839 6.14861 21.4825 6.36074 21.2686L9.48379 18.1445C9.88865 17.7358 10.2542 17.2991 10.6752 16.8799C10.7553 16.8006 11.3269 16.1986 11.3773 16.2041C12.0762 16.2803 12.6725 16.2815 13.1322 15.6455C13.3703 15.3126 13.4645 14.8972 13.393 14.4941C13.3261 14.0899 13.0972 13.7306 12.7592 13.499C12.4254 13.2712 12.0239 13.1772 11.6254 13.2559C11.2317 13.3378 10.8865 13.5725 10.6664 13.9092C10.3646 14.3663 10.3778 14.7814 10.476 15.2852C9.81614 15.9828 9.17891 16.5143 8.52969 17.1582L5.32266 20.3594C5.04302 20.6386 4.65614 21.3223 4.27188 21.1709C4.09671 20.9912 4.1187 20.7183 4.16836 20.4883C4.31876 19.7917 4.53399 19.1049 4.70547 18.415L6.12832 12.9131C6.17039 12.7515 6.23979 12.4528 6.32656 12.0879C6.79971 11.855 7.21205 11.47 7.48184 10.9307L8.46426 8.96387L10.4311 7.98145C10.5557 7.91907 10.6714 7.84804 10.7797 7.77148C11.5343 7.57604 12.2904 7.38679 13.0326 7.17773Z" fill="#8D94A0"/>
</svg>
