<svg width="24" height="24" viewBox="0 0 24 24" fill="none" xmlns="http://www.w3.org/2000/svg">
<path d="M6.81099 16.2079V14.5218H8.60977V16.2079C8.60977 16.8453 9.12749 17.362 9.76613 17.362H11.4555V19.1572H9.76613C8.13405 19.1572 6.81099 17.8368 6.81099 16.2079ZM16.5949 17.362V19.1572H13.2161V17.362H16.5949ZM21.2012 16.2079V14.5218H23V16.2079C23 17.8368 21.6769 19.1572 20.0449 19.1572H18.3555V17.362H20.0449C20.6835 17.362 21.2012 16.8453 21.2012 16.2079ZM8.60977 9.39257V12.7647H6.81099V9.39257H8.60977ZM23 9.39257V12.7647H21.2012V9.39257H23ZM21.2012 5.94934C21.2012 5.31195 20.6835 4.79525 20.0449 4.79525H18.3555V3H20.0449C21.6769 3 23 4.32046 23 5.94934V7.63539H21.2012V5.94934ZM16.5949 3V4.79525H13.2161V3H16.5949Z" fill="#8D94A0"/>
<path d="M4.78773 9.0794L4.53421 9.08047C3.55643 9.08456 2.76747 9.87892 2.77142 10.8548L2.81009 20.4727L2.81976 20.6528C2.90775 21.4843 3.57363 22.1436 4.40745 22.2246L4.58792 22.2331L14.2247 22.1935L14.4052 22.1838C15.0335 22.1176 15.5636 21.7238 15.821 21.1771H17.6784C17.3346 22.7627 15.9247 23.9543 14.2323 23.9614L4.59544 24C2.63979 24.0079 1.04796 22.432 1.03978 20.4802L1.00003 10.8623C0.992106 8.91034 2.57195 7.32154 4.52777 7.31363L4.78773 7.31256V9.0794Z" fill="#8D94A0"/>
<path fill-rule="evenodd" clip-rule="evenodd" d="M17.178 8.96725C17.178 9.23189 17.1258 9.49395 17.0244 9.73846C16.9229 9.98297 16.7742 10.2051 16.5867 10.3923C16.3992 10.5794 16.1767 10.7279 15.9317 10.8292C15.6867 10.9305 15.4242 10.9827 15.159 10.9827C14.6235 10.9827 14.1099 10.7705 13.7312 10.3926C13.3525 10.0147 13.1397 9.50213 13.1396 8.96766C13.1396 8.70302 13.1918 8.44096 13.2932 8.19645C13.3947 7.95194 13.5434 7.72977 13.7309 7.54262C14.1095 7.16466 14.6231 6.95229 15.1586 6.95223C15.6941 6.95218 16.2077 7.16444 16.5864 7.54233C16.9651 7.92022 17.1779 8.43278 17.178 8.96725ZM15.1588 11.5992C12.2511 11.5992 11.12 13.446 11.12 14.3052C11.12 15.164 13.5278 15.3929 15.1588 15.3929C16.7898 15.3929 19.1976 15.164 19.1976 14.3052C19.1976 13.446 18.0665 11.5992 15.1588 11.5992Z" fill="#8D94A0"/>
<path d="M9.47961 5.68343C9.5274 5.58803 9.60491 5.51067 9.70051 5.46296L11.7486 4.44093C12.1126 4.25926 12.1126 3.74074 11.7486 3.55907L9.70051 2.53704C9.60491 2.48933 9.5274 2.41197 9.47961 2.31657L8.45557 0.272512C8.27354 -0.0908371 7.754 -0.0908377 7.57196 0.272512L6.54793 2.31657C6.50013 2.41197 6.42262 2.48933 6.32702 2.53704L4.27895 3.55907C3.91488 3.74074 3.91488 4.25926 4.27895 4.44093L6.32702 5.46296C6.42262 5.51067 6.50013 5.58803 6.54793 5.68343L7.57196 7.72749C7.754 8.09084 8.27353 8.09084 8.45557 7.72749L9.47961 5.68343Z" fill="#8D94A0"/>
</svg>
