<svg width="24" height="24" viewBox="0 0 24 24" fill="none" xmlns="http://www.w3.org/2000/svg">
<path d="M6.79959 14.7079V13.0218H8.59483V14.7079C8.59483 15.3453 9.11154 15.862 9.74892 15.862H11.435V17.6572H9.74892C8.12005 17.6572 6.79959 16.3368 6.79959 14.7079ZM16.5643 15.862V17.6572H13.1922V15.862H16.5643ZM21.1616 14.7079V13.0218H22.9568V14.7079C22.9568 16.3368 21.6364 17.6572 20.0075 17.6572H18.3214V15.862H20.0075C20.6449 15.862 21.1616 15.3453 21.1616 14.7079ZM8.59483 7.89257V11.2647H6.79959V7.89257H8.59483ZM22.9568 7.89257V11.2647H21.1616V7.89257H22.9568ZM6.79959 4.44934C6.79959 2.82046 8.12005 1.5 9.74892 1.5H11.435V3.29525H9.74892C9.11154 3.29525 8.59483 3.81195 8.59483 4.44934V6.13539H6.79959V4.44934ZM21.1616 4.44934C21.1616 3.81195 20.6449 3.29525 20.0075 3.29525H18.3214V1.5H20.0075C21.6364 1.5 22.9568 2.82046 22.9568 4.44934V6.13539H21.1616V4.44934ZM16.5643 1.5V3.29525H13.1922V1.5H16.5643Z" fill="#8D94A0"/>
<path d="M4.78029 7.5794L4.52728 7.58047C3.55141 7.58456 2.764 8.37892 2.76794 9.35481L2.80654 18.9727L2.81619 19.1528C2.904 19.9843 3.56858 20.6436 4.40077 20.7246L4.58088 20.7331L14.1988 20.6935L14.3789 20.6838C15.0059 20.6176 15.535 20.2238 15.7919 19.6771H17.6456C17.3026 21.2627 15.8954 22.4543 14.2063 22.4614L4.58839 22.5C2.63657 22.5079 1.04787 20.932 1.0397 18.9802L1.00003 9.36232C0.992122 7.41034 2.56887 5.82154 4.52084 5.81363L4.78029 5.81256V7.5794Z" fill="#8D94A0"/>
<path fill-rule="evenodd" clip-rule="evenodd" d="M17.1462 7.46725C17.1463 7.73189 17.0942 7.99395 16.9929 8.23846C16.8917 8.48297 16.7432 8.70514 16.5561 8.89229C16.369 9.07944 16.1469 9.2279 15.9024 9.3292C15.6579 9.4305 15.3959 9.48266 15.1312 9.48268C14.5967 9.48274 14.0841 9.27047 13.7062 8.89258C13.3282 8.51469 13.1158 8.00213 13.1158 7.46766C13.1158 7.20302 13.1679 6.94096 13.2691 6.69645C13.3704 6.45194 13.5188 6.22977 13.7059 6.04262C14.0838 5.66466 14.5963 5.45229 15.1308 5.45223C15.6653 5.45218 16.1779 5.66444 16.5558 6.04233C16.9338 6.42022 17.1462 6.93278 17.1462 7.46725ZM15.131 10.0992C12.229 10.0992 11.1001 11.946 11.1001 12.8052C11.1001 13.664 13.5032 13.8929 15.131 13.8929C16.7588 13.8929 19.1619 13.664 19.1619 12.8052C19.1619 11.946 18.033 10.0992 15.131 10.0992Z" fill="#8D94A0"/>
</svg>
