<svg width="24" height="24" viewBox="0 0 24 24" fill="none" xmlns="http://www.w3.org/2000/svg">
<path d="M1 12C1 5.92487 5.92487 1 12 1C18.0751 1 23 5.92487 23 12C23 18.0751 18.0751 23 12 23C5.92487 23 1 18.0751 1 12Z" fill="#FFEB2E"/>
<path fill-rule="evenodd" clip-rule="evenodd" d="M12.0011 6.9084C8.92717 6.9084 6.43544 8.8782 6.43544 11.3084C6.43544 12.8901 7.49122 14.2763 9.07578 15.0518C8.95938 15.4865 8.6543 16.6265 8.59303 16.8703C8.51771 17.173 8.70409 17.1689 8.82611 17.0874C8.92178 17.0237 10.3513 16.052 10.968 15.6326C11.3027 15.6821 11.648 15.7085 12.0011 15.7085C15.075 15.7085 17.5668 13.7382 17.5668 11.3084C17.5668 8.8782 15.075 6.9084 12.0011 6.9084Z" fill="#391B1B"/>
</svg>
