<svg width="24" height="24" viewBox="0 0 24 24" fill="none" xmlns="http://www.w3.org/2000/svg">
<path fill-rule="evenodd" clip-rule="evenodd" d="M1 12C1 5.925 5.925 1 12 1C18.075 1 23 5.925 23 12C23 18.075 18.075 23 12 23C5.925 23 1 18.075 1 12ZM13.9016 17.1786V6.82152C13.9016 6.25738 14.3589 5.80005 14.923 5.80005C15.4872 5.80005 15.9445 6.25738 15.9445 6.82152V10.4124H16.7065C17.2001 10.4124 17.6003 10.8126 17.6003 11.3062C17.6003 11.7999 17.2001 12.2 16.7065 12.2H15.9445V17.1786C15.9445 17.7427 15.4872 18.2 14.923 18.2C14.3589 18.2 13.9016 17.7427 13.9016 17.1786ZM12.7843 8.24751C12.5429 11.2904 11.2096 13.9429 8.02242 15.7757C7.58925 16.0247 7.05006 15.885 6.76733 15.4887C6.41469 14.9945 6.59061 14.3188 7.09235 14.0133C9.23352 12.7095 10.4183 11.0356 10.736 8.80357H7.75495C7.26495 8.80357 6.86773 8.40635 6.86773 7.91635C6.86773 7.42635 7.26495 7.02912 7.75495 7.02912H11.6219C12.2817 7.02912 12.8382 7.5689 12.7843 8.24751Z" fill="#8D94A0"/>
<path d="M13.9016 6.82152V17.1786C13.9016 17.7427 14.3589 18.2 14.923 18.2C15.4872 18.2 15.9445 17.7427 15.9445 17.1786V12.2H16.7065C17.2001 12.2 17.6003 11.7999 17.6003 11.3062C17.6003 10.8126 17.2001 10.4124 16.7065 10.4124H15.9445V6.82152C15.9445 6.25738 15.4872 5.80005 14.923 5.80005C14.3589 5.80005 13.9016 6.25738 13.9016 6.82152Z" fill="white"/>
<path d="M8.02242 15.7757C11.2096 13.9429 12.5429 11.2904 12.7843 8.24751C12.8382 7.5689 12.2817 7.02912 11.6219 7.02912H7.75495C7.26495 7.02912 6.86773 7.42635 6.86773 7.91635C6.86773 8.40635 7.26495 8.80357 7.75495 8.80357H10.736C10.4183 11.0356 9.23352 12.7095 7.09235 14.0133C6.59061 14.3188 6.41469 14.9945 6.76733 15.4887C7.05006 15.885 7.58925 16.0247 8.02242 15.7757Z" fill="white"/>
</svg>
