<svg width="24" height="24" viewBox="0 0 24 24" fill="none" xmlns="http://www.w3.org/2000/svg">
<path fill-rule="evenodd" clip-rule="evenodd" d="M23 16.5C23 18.433 21.433 20 19.5 20H4.5C2.567 20 1 18.433 1 16.5V7.5C1 5.567 2.56701 4 4.5 4H19.5C21.433 4 23 5.567 23 7.5V16.5ZM20.5 7.5C20.5 6.94772 20.0523 6.5 19.5 6.5H4.5L4.39746 6.50488C3.92703 6.55278 3.55278 6.92703 3.50488 7.39746L3.5 7.5V16.5L3.50488 16.6025C3.55622 17.1067 3.98232 17.5 4.5 17.5H19.5C20.0523 17.5 20.5 17.0523 20.5 16.5V7.5Z" fill="#8D94A0"/>
<path d="M18.7915 11.3676C19.1488 11.7251 19.1488 12.2749 18.7915 12.6323L16.3882 15.0356C16.3105 15.1133 16.2212 15.1838 16.1109 15.2329C15.9992 15.2825 15.8813 15.3031 15.7564 15.3032C15.6313 15.3032 15.5127 15.2826 15.4009 15.2329C15.2906 15.1838 15.2013 15.1133 15.1236 15.0356C14.7661 14.6782 14.7662 14.1284 15.1236 13.771L15.9937 12.9008H8.00637L8.87649 13.771C9.23384 14.1284 9.23386 14.6782 8.87649 15.0356C8.79882 15.1133 8.70946 15.1838 8.59915 15.2329C8.48745 15.2825 8.36959 15.3031 8.24466 15.3032C8.11953 15.3032 8.00103 15.2826 7.88919 15.2329C7.77884 15.1838 7.68954 15.1133 7.61184 15.0356L5.20852 12.6323C4.85131 12.2749 4.85129 11.725 5.20852 11.3676L7.61184 8.96432C7.96925 8.60706 8.51906 8.6071 8.87649 8.96432C9.23388 9.32178 9.2339 9.87251 8.87649 10.2299L8.00637 11.0991H15.9937L15.1236 10.2299C14.7661 9.87248 14.7661 9.32179 15.1236 8.96432C15.481 8.60706 16.0308 8.60706 16.3882 8.96432L18.7915 11.3676Z" fill="#8D94A0"/>
</svg>
