<svg width="24" height="24" viewBox="0 0 24 24" fill="none" xmlns="http://www.w3.org/2000/svg">
<path d="M4.63278 18.0849C5.0871 17.6287 5.81686 17.6361 6.26276 18.101C6.95428 18.822 7.87176 19.3994 9.09609 19.6668C9.7187 19.8027 10.1159 20.4294 9.98312 21.0666C9.85015 21.7036 9.23788 22.1092 8.61543 21.9733C6.92785 21.6049 5.61136 20.7887 4.61815 19.7532C4.17222 19.2882 4.17849 18.5413 4.63278 18.0849ZM15.4235 18.7301C15.99 18.433 16.6843 18.662 16.9747 19.2416C17.2651 19.8215 17.0414 20.5332 16.4749 20.8304C15.9655 21.0976 15.4793 21.3031 15.0453 21.4468L15.0363 21.4491L15.0284 21.4526C14.3122 21.6772 13.628 21.8465 12.9752 21.9664C12.3486 22.0815 11.7492 21.6549 11.6367 21.0136C11.5246 20.3726 11.9415 19.7602 12.5677 19.6449C13.1211 19.5433 13.7137 19.3952 14.3474 19.1967C14.6505 19.0955 15.0185 18.9425 15.4235 18.7301ZM19.0718 15.2887C19.3604 14.7081 20.0545 14.4763 20.6219 14.7714C21.1893 15.0668 21.4159 15.7771 21.1273 16.3579C20.8387 16.9387 20.4761 17.4922 20.0377 18.0008C19.6928 18.4008 19.3317 18.7648 18.9649 19.0942C18.4864 19.5238 17.7582 19.4754 17.3383 18.9859C16.9186 18.4963 16.9661 17.7508 17.4441 17.321C17.7417 17.0538 18.0327 16.7597 18.3086 16.4397C18.6147 16.0845 18.8687 15.6973 19.0718 15.2887ZM3.30898 10.5558C3.9426 10.6189 4.40635 11.1965 4.34461 11.845C4.29883 12.326 4.29096 12.837 4.32997 13.3796L4.3311 13.3888L4.33223 13.3992C4.36086 13.9098 4.45176 14.504 4.62603 15.1216C4.80266 15.7476 4.44967 16.4017 3.83805 16.5825C3.22655 16.763 2.58729 16.4019 2.41069 15.776C2.18834 14.9879 2.06861 14.2193 2.03022 13.534L2.03134 13.5329C1.98451 12.8668 1.99221 12.2278 2.05048 11.6157C2.11226 10.9673 2.67547 10.4927 3.30898 10.5558ZM19.5818 8.23883C20.1503 7.94583 20.8432 8.18012 21.1296 8.7619C21.7035 9.92835 21.999 11.2402 22.0009 12.557C22.0017 13.2084 21.4869 13.7369 20.8504 13.7379C20.2139 13.7389 19.6965 13.2119 19.6955 12.5605C19.6941 11.5975 19.4773 10.6493 19.0707 9.823C18.7846 9.24116 19.0134 8.53189 19.5818 8.23883ZM9.39327 6.9784C9.84218 6.5164 10.5719 6.51434 11.0233 6.9738C11.4742 7.43329 11.4765 8.18022 11.0278 8.64208C10.6278 9.05365 10.2576 9.56562 9.94485 10.1997C9.65804 10.7813 8.9653 11.015 8.39705 10.7217C7.82884 10.4281 7.60049 9.7191 7.88711 9.13749C8.30555 8.28904 8.81639 7.57212 9.39327 6.9784ZM5.48267 4.82739C5.95602 4.39202 6.68481 4.43187 7.1104 4.9161C7.53594 5.40064 7.49707 6.14648 7.02372 6.58207C6.30544 7.2429 5.66038 8.03642 5.17986 8.96928C4.88301 9.54568 4.18509 9.76737 3.62192 9.46354C3.0589 9.15965 2.84331 8.44533 3.14013 7.869C3.76685 6.65224 4.59484 5.64419 5.48267 4.82739ZM14.093 4.7525C15.0157 4.67291 15.9161 4.76489 16.7169 4.99214C17.3752 5.17897 17.9806 5.45588 18.5281 5.80554C19.068 6.15036 19.2328 6.87731 18.8962 7.43004C18.5593 7.98285 17.848 8.15168 17.3079 7.80678C16.9467 7.57616 16.5439 7.39237 16.1001 7.26644C15.5667 7.11516 14.9414 7.04751 14.2866 7.10399C13.6526 7.15842 13.0953 6.67675 13.0416 6.0279C12.9881 5.37878 13.4588 4.80744 14.093 4.7525ZM10.3535 2.0427C10.9668 1.86868 11.6015 2.23663 11.7718 2.86416C11.9419 3.49205 11.5827 4.14292 10.9692 4.31699C10.5716 4.42984 10.0905 4.60869 9.56888 4.8608C8.99326 5.1389 8.3064 4.88652 8.03458 4.29741C7.76273 3.70823 8.00938 3.00529 8.58503 2.72706C9.21659 2.42183 9.82038 2.19396 10.3535 2.0427Z" fill="#8D94A0"/>
</svg>
