<svg width="24" height="24" viewBox="0 0 24 24" fill="none" xmlns="http://www.w3.org/2000/svg">
<path fill-rule="evenodd" clip-rule="evenodd" d="M5.06394 1C3.92406 1 3 1.92406 3 3.06394V17.9218C3 18.7335 3.47578 19.4699 4.21579 19.8034L10.9004 22.8165C11.4249 23.0529 12.0242 23.0597 12.5539 22.8352L19.7415 19.7888C20.5044 19.4654 21 18.7171 21 17.8885V3.06394C21 1.92406 20.0759 1 18.9361 1H5.06394ZM7.67409 14.3311C7.70437 14.6005 7.92532 14.8037 8.18794 14.8037H15.8112C16.0738 14.8037 16.2948 14.6005 16.3251 14.3311L16.9793 8.51119C17.038 7.98911 16.4079 7.70259 16.0745 8.09977L14.1355 10.4099L12.7017 7.26374C12.4221 6.65033 11.577 6.65033 11.2975 7.26374L9.86361 10.4099L7.92464 8.09977C7.59127 7.70259 6.96118 7.98911 7.01986 8.51119L7.67409 14.3311Z" fill="#8D94A0"/>
</svg>
