<svg width="24" height="24" viewBox="0 0 24 24" fill="none" xmlns="http://www.w3.org/2000/svg">
<path d="M22.2564 10.6957H1.80446C1.36017 10.6957 1 10.3355 1 9.89126C1 9.66142 1.09831 9.44256 1.27012 9.2899L10.6959 0.914845C11.472 0.225252 12.6423 0.228789 13.4142 0.923057L22.7167 9.28962C22.8867 9.44257 22.9838 9.66053 22.9838 9.88924C22.9838 10.3346 22.7018 10.6957 22.2564 10.6957Z" fill="#FFE8A1"/>
<path d="M1.00787 11.0393C1.00787 9.91304 0.847576 9 1.97388 9H22.029C23.1553 9 22.9917 9.91304 22.9917 11.0393V21.5498C22.9917 22.6761 23.0769 23.5891 21.9506 23.5891H1.97386C0.847554 23.5891 1.00787 22.6761 1.00787 21.5498V11.0393Z" fill="#FCDDDD"/>
<path d="M1.97386 23.5891H22.1074C22.734 23.5891 22.9917 23.0811 22.9917 22.4545C22.9917 22.2594 22.9414 22.0675 22.8455 21.8975L17.9639 13.2357C17.6024 12.5944 16.9234 12.1976 16.1872 12.1976L8.24459 12.1976C7.52748 12.1976 6.86306 12.5742 6.49475 13.1896L1.14501 22.127C1.05527 22.2769 1.00787 22.4484 1.00787 22.6231C1.00787 23.1566 1.16476 23.5891 1.97386 23.5891Z" fill="#FDE2E2"/>
<path d="M2 3.19999C2 2.97908 2.17909 2.8 2.4 2.8H21.6C21.8209 2.8 22 2.97908 22 3.2V18.6C22 18.8209 21.8209 19 21.6 19H2.4C2.17909 19 2 18.8209 2 18.6V3.19999Z" fill="#FFF9E8"/>
<path fill-rule="evenodd" clip-rule="evenodd" d="M9.16076 10.6566C8.96786 10.6566 8.80558 10.5078 8.78334 10.3106L8.30281 6.05001C8.25971 5.66781 8.72251 5.45807 8.96736 5.74883L10.3915 7.44001L11.4447 5.13679C11.65 4.68773 12.2707 4.68773 12.4761 5.13679L13.5292 7.44002L14.9534 5.74883C15.1982 5.45807 15.661 5.66781 15.6179 6.05001L15.1374 10.3106C15.1152 10.5078 14.9529 10.6566 14.76 10.6566H9.16076Z" fill="#FFCD39"/>
<path d="M22.9917 21.5498V11.0393C22.9917 9.91304 23.1553 9 22.029 9H21.3964C21.2725 9 21.1556 9.05739 21.0799 9.15542L17.8 13.4H6.6L3.12003 9.1467C3.04406 9.05385 2.93042 9 2.81045 9H1.97388C0.847576 9 1.00787 9.91304 1.00787 11.0393V21.5498C1.00787 22.6761 0.847554 23.5891 1.97386 23.5891H21.9506C23.0769 23.5891 22.9917 22.6761 22.9917 21.5498Z" fill="#FFE8A1"/>
<path d="M1.96599 23.5915H22.0996C22.7262 23.5915 22.9838 23.0835 22.9838 22.4569C22.9838 22.2618 22.9335 22.0699 22.8377 21.8999L17.956 13.2381C17.5945 12.5967 16.9155 12.2 16.1794 12.2L8.23672 12.2C7.5196 12.2 6.85519 12.5766 6.48688 13.1919L1.13714 22.1294C1.0474 22.2793 1 22.4508 1 22.6255C1 23.159 1.15689 23.5915 1.96599 23.5915Z" fill="#FFEFC0"/>
</svg>
