<svg width="24" height="24" viewBox="0 0 24 24" fill="none" xmlns="http://www.w3.org/2000/svg">
<path d="M1.00787 7.03934C1.00787 5.91304 0.847576 5 1.97388 5H22.029C23.1553 5 22.9917 5.91304 22.9917 7.03934V17.5498C22.9917 18.6761 23.0769 19.5891 21.9506 19.5891H1.97386C0.847554 19.5891 1.00787 18.6761 1.00787 17.5498V7.03934Z" fill="#FFD5D5"/>
<path d="M1.97386 19.5891H22.1074C22.734 19.5891 22.9917 19.0811 22.9917 18.4545C22.9917 18.2594 22.9414 18.0675 22.8455 17.8975L17.9639 9.23568C17.6024 8.59436 16.9234 8.19761 16.1872 8.19761L8.24459 8.19761C7.52748 8.19761 6.86306 8.57425 6.49475 9.18956L1.14501 18.127C1.05527 18.2769 1.00787 18.4484 1.00787 18.6231C1.00787 19.1566 1.16476 19.5891 1.97386 19.5891Z" fill="#FDE2E2"/>
<path d="M22.2643 5H1.81233C1.36804 5 1.00787 5.36016 1.00787 5.80445C1.00787 6.03429 1.10618 6.25315 1.278 6.40581L10.7038 14.7809C11.4799 15.4705 12.6502 15.4669 13.4221 14.7727L22.7245 6.40609C22.8946 6.25314 22.9917 6.03518 22.9917 5.80647C22.9917 5.36107 22.7097 5 22.2643 5Z" fill="#FFEBEB"/>
<path fill-rule="evenodd" clip-rule="evenodd" d="M11.6286 16.4118C11.8542 16.5608 12.1451 16.5608 12.3703 16.4118C13.0865 15.9391 14.6459 14.8091 15.3178 13.5446C16.2033 11.8765 15.1634 10.2128 13.7885 10.2128C13.0049 10.2128 12.5335 10.6222 12.2727 10.974C12.2414 11.0171 12.2003 11.0522 12.1529 11.0764C12.1054 11.1005 12.0529 11.1132 11.9996 11.1132C11.9464 11.1132 11.8938 11.1005 11.8464 11.0764C11.7989 11.0522 11.7578 11.0171 11.7265 10.974C11.4658 10.6222 10.9944 10.2128 10.2108 10.2128C8.83588 10.2128 7.79592 11.8765 8.6818 13.5446C9.35298 14.8091 10.9131 15.9391 11.6286 16.4118Z" fill="#FF5678"/>
</svg>
