<svg width="24" height="24" viewBox="0 0 24 24" fill="none" xmlns="http://www.w3.org/2000/svg">
<path d="M1.00787 7.03934C1.00787 5.91304 0.847576 5 1.97388 5H22.029C23.1553 5 22.9917 5.91304 22.9917 7.03934V17.5498C22.9917 18.6761 23.0769 19.5891 21.9506 19.5891H1.97386C0.847554 19.5891 1.00787 18.6761 1.00787 17.5498V7.03934Z" fill="#FFE8A1"/>
<path d="M1.97386 19.5891H22.1074C22.734 19.5891 22.9917 19.0811 22.9917 18.4545C22.9917 18.2594 22.9414 18.0675 22.8455 17.8975L17.9639 9.23568C17.6024 8.59436 16.9234 8.19761 16.1872 8.19761L8.24459 8.19761C7.52748 8.19761 6.86306 8.57425 6.49475 9.18956L1.14501 18.127C1.05527 18.2769 1.00787 18.4484 1.00787 18.6231C1.00787 19.1566 1.16476 19.5891 1.97386 19.5891Z" fill="#FFEFC0"/>
<path d="M22.2643 5H1.81233C1.36804 5 1.00787 5.36016 1.00787 5.80445C1.00787 6.03429 1.10618 6.25315 1.278 6.40581L10.7038 14.7809C11.4799 15.4705 12.6502 15.4669 13.4221 14.7727L22.7245 6.40609C22.8946 6.25314 22.9917 6.03518 22.9917 5.80647C22.9917 5.36107 22.7097 5 22.2643 5Z" fill="#FFF5D8"/>
<path fill-rule="evenodd" clip-rule="evenodd" d="M9.17875 15.9288C8.98586 15.9288 8.82357 15.78 8.80133 15.5828L8.32081 11.3222C8.2777 10.94 8.7405 10.7303 8.98535 11.021L10.4095 12.7122L11.4627 10.409C11.668 9.95994 12.2887 9.95994 12.494 10.409L13.5472 12.7122L14.9714 11.021C15.2162 10.7303 15.679 10.94 15.6359 11.3222L15.1554 15.5828C15.1332 15.78 14.9709 15.9288 14.778 15.9288H9.17875Z" fill="#FFC107"/>
</svg>
