<svg width="65" height="64" viewBox="0 0 65 64" fill="none" xmlns="http://www.w3.org/2000/svg">
<path d="M3.43799 18.7717C3.43799 15.7683 3.01053 13.3335 6.01401 13.3335H59.4943C62.4978 13.3335 62.0616 15.7683 62.0616 18.7717V46.7995C62.0616 49.803 62.2886 52.2378 59.2851 52.2378H6.01396C3.01047 52.2378 3.43799 49.803 3.43799 46.7995V18.7717Z" fill="#FCDDDD"/>
<path d="M6.01396 52.2378H59.7035C61.3744 52.2378 62.0616 50.8832 62.0616 49.2123C62.0616 48.6918 61.9273 48.1802 61.6718 47.7268L48.6539 24.6286C47.6901 22.9185 45.8794 21.8605 43.9163 21.8605L22.7359 21.8605C20.8236 21.8605 19.0518 22.8648 18.0697 24.5056L3.80369 48.3388C3.56437 48.7386 3.43799 49.1959 3.43799 49.6618C3.43799 51.0845 3.85636 52.2378 6.01396 52.2378Z" fill="#FDE2E2"/>
<path d="M60.1218 13.3335H5.58321C4.39843 13.3335 3.43799 14.2939 3.43799 15.4787C3.43799 16.0916 3.70014 16.6752 4.15831 17.0823L29.2937 39.4158C31.3633 41.2547 34.4842 41.2453 36.5426 39.3939L61.3491 17.0831C61.8026 16.6752 62.0616 16.094 62.0616 15.4841C62.0616 14.2963 61.3096 13.3335 60.1218 13.3335Z" fill="#FEE5E5"/>
<path fill-rule="evenodd" clip-rule="evenodd" d="M31.76 43.7651C32.3615 44.1624 33.1372 44.1624 33.7377 43.7651C35.6476 42.5044 39.8061 39.491 41.5977 36.1191C43.9592 31.6708 41.186 27.2342 37.5196 27.2342C35.43 27.2342 34.173 28.326 33.4776 29.2642C33.3941 29.3791 33.2846 29.4727 33.158 29.5371C33.0314 29.6016 32.8914 29.6352 32.7493 29.6352C32.6073 29.6352 32.4672 29.6016 32.3406 29.5371C32.2141 29.4727 32.1045 29.3791 32.021 29.2642C31.3257 28.326 30.0686 27.2342 27.979 27.2342C24.3127 27.2342 21.5394 31.6708 23.9018 36.1191C25.6916 39.491 29.8519 42.5044 31.76 43.7651Z" fill="#FF5678"/>
</svg>
