<svg width="24" height="24" viewBox="0 0 24 24" fill="none" xmlns="http://www.w3.org/2000/svg">
<path d="M22.2564 10.6957H1.80446C1.36017 10.6957 1 10.3356 1 9.89129C1 9.66145 1.09831 9.44259 1.27012 9.28993L10.6959 0.914876C11.472 0.225283 12.6423 0.228819 13.4142 0.923088L22.7167 9.28965C22.8867 9.4426 22.9838 9.66056 22.9838 9.88927C22.9838 10.3347 22.7018 10.6957 22.2564 10.6957Z" fill="#FFD5D5"/>
<path d="M1.00787 11.0394C1.00787 9.91307 0.847576 9.00003 1.97388 9.00003H22.029C23.1553 9.00003 22.9917 9.91307 22.9917 11.0394V21.5498C22.9917 22.6761 23.0769 23.5891 21.9506 23.5891H1.97386C0.847554 23.5891 1.00787 22.6761 1.00787 21.5498V11.0394Z" fill="#FCDDDD"/>
<path d="M1.97386 23.5891H22.1074C22.734 23.5891 22.9917 23.0812 22.9917 22.4546C22.9917 22.2594 22.9414 22.0675 22.8455 21.8975L17.9639 13.2357C17.6024 12.5944 16.9234 12.1976 16.1872 12.1976L8.24459 12.1976C7.52748 12.1976 6.86306 12.5743 6.49475 13.1896L1.14501 22.127C1.05527 22.2769 1.00787 22.4484 1.00787 22.6231C1.00787 23.1566 1.16476 23.5891 1.97386 23.5891Z" fill="#FDE2E2"/>
<path d="M2 3.20003C2 2.97911 2.17909 2.80003 2.4 2.80003H21.6C21.8209 2.80003 22 2.97911 22 3.20003V18.6C22 18.8209 21.8209 19 21.6 19H2.4C2.17909 19 2 18.8209 2 18.6V3.20003Z" fill="#FFF7F7"/>
<path fill-rule="evenodd" clip-rule="evenodd" d="M11.6753 10.7991C11.9008 10.9481 12.1917 10.9481 12.4169 10.7991C13.1331 10.3264 14.6925 9.19633 15.3644 7.93186C16.2499 6.26374 15.21 4.60002 13.8351 4.60002C13.0515 4.60002 12.5801 5.00944 12.3194 5.36128C12.288 5.40437 12.247 5.43944 12.1995 5.46362C12.152 5.4878 12.0995 5.50041 12.0462 5.50041C11.993 5.50041 11.9405 5.4878 11.893 5.46362C11.8455 5.43944 11.8045 5.40437 11.7731 5.36128C11.5124 5.00944 11.041 4.60002 10.2574 4.60002C8.8825 4.60002 7.84254 6.26374 8.72842 7.93186C9.3996 9.19633 10.9597 10.3264 11.6753 10.7991Z" fill="#FF5678"/>
<path d="M22.9917 21.5498V11.0394C22.9917 9.91307 23.1553 9.00003 22.029 9.00003H21.3964C21.2725 9.00003 21.1556 9.05742 21.0799 9.15545L17.8 13.4H6.6L3.12003 9.14673C3.04406 9.05388 2.93042 9.00003 2.81045 9.00003H1.97388C0.847576 9.00003 1.00787 9.91307 1.00787 11.0394V21.5498C1.00787 22.6761 0.847554 23.5891 1.97386 23.5891H21.9506C23.0769 23.5891 22.9917 22.6761 22.9917 21.5498Z" fill="#FFD5D5"/>
<path d="M1.96599 23.5915H22.0996C22.7262 23.5915 22.9838 23.0836 22.9838 22.4569C22.9838 22.2618 22.9335 22.0699 22.8377 21.8999L17.956 13.2381C17.5945 12.5968 16.9155 12.2 16.1794 12.2L8.23672 12.2C7.5196 12.2 6.85519 12.5767 6.48688 13.192L1.13714 22.1294C1.0474 22.2793 1 22.4508 1 22.6255C1 23.159 1.15689 23.5915 1.96599 23.5915Z" fill="#FFDFDF"/>
</svg>
