<svg width="65" height="64" viewBox="0 0 65 64" fill="none" xmlns="http://www.w3.org/2000/svg">
<path d="M2.93799 18.7717C2.93799 15.7683 2.51053 13.3335 5.51401 13.3335H58.9943C61.9978 13.3335 61.5616 15.7683 61.5616 18.7717V46.7995C61.5616 49.803 61.7886 52.2378 58.7851 52.2378H5.51396C2.51047 52.2378 2.93799 49.803 2.93799 46.7995V18.7717Z" fill="#FFF99D"/>
<path d="M5.51396 52.2378H59.2035C60.8744 52.2378 61.5616 50.8832 61.5616 49.2123C61.5616 48.6918 61.4273 48.1802 61.1718 47.7268L48.1539 24.6286C47.1901 22.9185 45.3794 21.8605 43.4163 21.8605L22.2359 21.8605C20.3236 21.8605 18.5518 22.8648 17.5697 24.5056L3.30369 48.3388C3.06437 48.7386 2.93799 49.1959 2.93799 49.6618C2.93799 51.0845 3.35636 52.2378 5.51396 52.2378Z" fill="#FFFF9E"/>
<path d="M59.6218 13.3335H5.08321C3.89843 13.3335 2.93799 14.2939 2.93799 15.4787C2.93799 16.0916 3.20014 16.6752 3.65831 17.0823L28.7937 39.4158C30.8633 41.2547 33.9842 41.2453 36.0426 39.3939L60.8491 17.0831C61.3026 16.6752 61.5616 16.094 61.5616 15.4841C61.5616 14.2963 60.8096 13.3335 59.6218 13.3335Z" fill="#FFFFA6"/>
<path fill-rule="evenodd" clip-rule="evenodd" d="M24.727 42.4769C24.2126 42.4769 23.7798 42.0803 23.7205 41.5544L22.4391 30.1928C22.3242 29.1736 23.5583 28.6142 24.2113 29.3896L28.009 33.8994L30.8175 27.7575C31.365 26.56 33.0202 26.56 33.5678 27.7575L36.3762 33.8994L40.174 29.3896C40.8269 28.6142 42.0611 29.1736 41.9461 30.1928L40.6647 41.5544C40.6054 42.0803 40.1726 42.4769 39.6583 42.4769H24.727Z" fill="#FFCD39"/>
</svg>
