<svg width="24" height="24" viewBox="0 0 24 24" fill="none" xmlns="http://www.w3.org/2000/svg">
<path d="M18.5436 5.98197C18.9783 5.42317 19.7836 5.32294 20.3425 5.75761C20.9013 6.19232 21.0025 6.99761 20.5678 7.55649L16.4993 12.7869C16.263 13.0907 15.9026 13.2725 15.5178 13.2816C15.1329 13.2908 14.7647 13.1262 14.5142 12.8339L12.1013 10.0204L8.9823 14.4786C8.57629 15.0586 7.7765 15.2 7.19645 14.7941C6.61641 14.388 6.47496 13.5883 6.88094 13.0082L10.9495 7.19692L11.0416 7.08073C11.269 6.82461 11.5909 6.66806 11.937 6.65104C12.3328 6.63165 12.7158 6.79691 12.9737 7.09776L15.4386 9.97336L18.5436 5.98197Z" fill="#8D94A0"/>
<path d="M2 3.28205C2 2.57399 2.57399 2 3.28205 2C3.99011 2 4.5641 2.57399 4.5641 3.28205V19.4359H20.7179C21.426 19.4359 22 20.0099 22 20.7179C22 21.426 21.426 22 20.7179 22H3.28205C2.57399 22 2 21.426 2 20.7179V3.28205Z" fill="#8D94A0"/>
</svg>
