<svg width="24" height="24" viewBox="0 0 24 24" fill="none" xmlns="http://www.w3.org/2000/svg">
<path fill-rule="evenodd" clip-rule="evenodd" d="M21.316 2.68399C20.1728 1.54341 18.6239 0.902863 17.009 0.902863C15.3941 0.902863 13.8452 1.54341 12.702 2.68399L10.649 4.73599C10.455 4.94479 10.3495 5.22067 10.3548 5.50563C10.36 5.79059 10.4755 6.06241 10.677 6.26394C10.8786 6.46547 11.1504 6.581 11.4354 6.58623C11.7203 6.59147 11.9962 6.48599 12.205 6.29199L14.258 4.23999C14.9882 3.51148 15.9775 3.10235 17.009 3.10235C18.0405 3.10235 19.0298 3.51148 19.76 4.23999C20.1225 4.60038 20.4099 5.02908 20.6056 5.5013C20.8013 5.97351 20.9013 6.47984 20.9 6.99099C20.9014 7.50215 20.8013 8.0085 20.6056 8.48072C20.41 8.95294 20.1225 9.38164 19.76 9.74199L16.159 13.343C14.69 14.813 12.127 14.813 10.657 13.343C10.4137 13.1004 10.2035 12.8267 10.032 12.529C9.88665 12.276 9.64676 12.0911 9.36508 12.0149C9.0834 11.9388 8.78301 11.9777 8.52999 12.123C8.27698 12.2683 8.09206 12.5082 8.01592 12.7899C7.93978 13.0716 7.97865 13.372 8.12399 13.625C8.39099 14.088 8.71899 14.517 9.10099 14.899C9.66538 15.4662 10.3366 15.916 11.0759 16.2222C11.8152 16.5284 12.6078 16.685 13.408 16.683C14.2082 16.6851 15.0009 16.5286 15.7402 16.2223C16.4795 15.9161 17.1507 15.4663 17.715 14.899L21.316 11.299C21.8835 10.7344 22.3333 10.0628 22.6396 9.32318C22.9458 8.58354 23.1023 7.79051 23.1 6.98999C23.1021 6.1898 22.9456 5.39712 22.6393 4.65782C22.3331 3.91853 21.8833 3.24731 21.316 2.68299" fill="#8D94A0"/>
<path fill-rule="evenodd" clip-rule="evenodd" d="M11.795 17.708L9.742 19.761C9.01155 20.489 8.0223 20.8978 6.991 20.8978C5.9597 20.8978 4.97045 20.489 4.24 19.761C3.87773 19.4004 3.59047 18.9717 3.39481 18.4995C3.19914 18.0274 3.09894 17.5211 3.1 17.01C3.1 15.971 3.505 14.994 4.24 14.26L7.841 10.658C8.26396 10.2359 8.77836 9.91682 9.34439 9.72538C9.91043 9.53394 10.5129 9.4753 11.1052 9.55399C11.6976 9.63268 12.2638 9.8466 12.7603 10.1792C13.2567 10.5118 13.6699 10.9541 13.968 11.472C14.04 11.5973 14.1359 11.7072 14.2503 11.7954C14.3648 11.8836 14.4954 11.9484 14.6349 11.9861C14.7744 12.0238 14.9199 12.0336 15.0632 12.0151C15.2065 11.9965 15.3447 11.95 15.47 11.878C15.5953 11.806 15.7052 11.7101 15.7934 11.5957C15.8816 11.4812 15.9464 11.3505 15.9841 11.2111C16.0218 11.0716 16.0316 10.9261 16.0131 10.7828C15.9945 10.6395 15.948 10.5013 15.876 10.376C15.4091 9.56565 14.7621 8.87354 13.985 8.35317C13.2079 7.83279 12.3216 7.49809 11.3945 7.37494C10.4674 7.2518 9.52446 7.3435 8.63848 7.64297C7.7525 7.94243 6.94725 8.44164 6.285 9.10199L2.684 12.703C2.11675 13.2674 1.66702 13.9386 1.3608 14.6779C1.05459 15.4172 0.897968 16.2098 0.899998 17.01C0.899998 18.637 1.534 20.167 2.684 21.317C3.24903 21.8832 3.92045 22.332 4.65962 22.6376C5.3988 22.9433 6.19112 23.0998 6.991 23.098C8.551 23.098 10.11 22.504 11.298 21.318L13.351 19.265C13.545 19.0562 13.6505 18.7803 13.6452 18.4954C13.64 18.2104 13.5245 17.9386 13.3229 17.737C13.1214 17.5355 12.8496 17.42 12.5646 17.4147C12.2797 17.4095 12.0038 17.515 11.795 17.709" fill="#8D94A0"/>
</svg>
