<svg width="24" height="24" viewBox="0 0 24 24" fill="none" xmlns="http://www.w3.org/2000/svg">
<path fill-rule="evenodd" clip-rule="evenodd" d="M12.9 14.755V16.954C12.9 17.1927 12.8052 17.4216 12.6364 17.5904C12.4676 17.7592 12.2387 17.854 12 17.854C11.7613 17.854 11.5324 17.7592 11.3636 17.5904C11.1948 17.4216 11.1 17.1927 11.1 16.954V14.755C10.827 14.5982 10.6002 14.3724 10.4422 14.1001C10.2842 13.8278 10.2007 13.5188 10.2 13.204C10.2111 12.7341 10.4055 12.2872 10.7418 11.9587C11.0781 11.6303 11.5295 11.4464 11.9995 11.4464C12.4695 11.4464 12.9209 11.6303 13.2572 11.9587C13.5935 12.2872 13.7879 12.7341 13.799 13.204C13.799 13.869 13.435 14.443 12.9 14.755ZM8.82 7.179C8.82106 6.33603 9.15647 5.5279 9.75263 4.93192C10.3488 4.33595 11.157 4.00079 12 4C12.8429 4.00079 13.651 4.33598 14.247 4.93198C14.843 5.52799 15.1782 6.33612 15.179 7.179H8.82ZM18.599 7.179H17.179C17.1777 5.80585 16.6316 4.48932 15.6606 3.51836C14.6897 2.54739 13.3731 2.00132 12 2C10.6268 2.00132 9.31012 2.54736 8.339 3.51829C7.36788 4.48923 6.82159 5.80576 6.82 7.179H5.4C4.76348 7.179 4.15303 7.43186 3.70294 7.88194C3.25286 8.33203 3 8.94248 3 9.579V19.779C3 20.4155 3.25286 21.026 3.70294 21.4761C4.15303 21.9261 4.76348 22.179 5.4 22.179H18.599C18.9143 22.1791 19.2265 22.1172 19.5177 21.9966C19.809 21.876 20.0737 21.6993 20.2967 21.4764C20.5197 21.2535 20.6965 20.9889 20.8172 20.6977C20.9379 20.4064 21 20.0943 21 19.779V9.579C21 9.26374 20.9379 8.95157 20.8172 8.66033C20.6965 8.36908 20.5197 8.10446 20.2967 7.88159C20.0737 7.65872 19.809 7.48195 19.5177 7.3614C19.2265 7.24085 18.9143 7.17887 18.599 7.179Z" fill="#8D94A0"/>
</svg>
