<svg width="24" height="24" viewBox="0 0 24 24" fill="none" xmlns="http://www.w3.org/2000/svg">
<path fill-rule="evenodd" clip-rule="evenodd" d="M3.61805 4.01822C3.47161 3.97696 3.31429 4.00664 3.19294 4.09844C3.07159 4.19024 3.00019 4.33357 3 4.48576V17.8439C3.00041 18.1044 3.17273 18.3333 3.42288 18.4056L10.771 20.4933C10.9173 20.536 11.0751 20.5071 11.1968 20.4154C11.3185 20.3237 11.3897 20.1799 11.3891 20.0275V6.66074C11.389 6.40052 11.2164 6.1719 10.9662 6.10073L3.61805 4.01822Z" fill="#835EEB"/>
<path fill-rule="evenodd" clip-rule="evenodd" d="M13.027 6.09939C12.7795 6.17295 12.6101 6.40054 12.611 6.65839V13.9749C12.6112 14.1268 12.6826 14.2699 12.8039 14.3615C12.9253 14.4531 13.0826 14.4828 13.229 14.4416L20.5754 12.3629C20.8263 12.2925 20.9998 12.0641 21 11.8039V4.48737C21.0006 4.33345 20.9281 4.18837 20.8045 4.09634C20.6809 4.00431 20.521 3.97624 20.3734 4.02068L13.027 6.09939Z" fill="#835EEB"/>
<path fill-rule="evenodd" clip-rule="evenodd" d="M13.2222 20.496L20.5686 18.3998C20.8221 18.3301 20.9985 18.0987 21 17.8339V14.0469C20.9998 13.8936 20.9284 13.7492 20.8071 13.6567C20.6857 13.5643 20.5284 13.5343 20.382 13.5759L13.027 15.6739C12.7795 15.7481 12.6101 15.9778 12.611 16.238V20.0336C12.6137 20.1841 12.6851 20.3249 12.8045 20.4153C12.9239 20.5056 13.078 20.5354 13.2222 20.496Z" fill="#CDBEF7"/>
</svg>
