<svg width="24" height="24" viewBox="0 0 24 24" fill="none" xmlns="http://www.w3.org/2000/svg">
<path fill-rule="evenodd" clip-rule="evenodd" d="M14.9443 4.50193C14.286 5.28629 13.1682 5.87456 12.2864 5.87456C12.187 5.87456 12.0876 5.8623 12.0255 5.85005C12.0131 5.80102 11.9883 5.65396 11.9883 5.50689C11.9883 4.50193 12.5099 3.52149 13.0564 2.89645C13.7643 2.07533 14.9567 1.46255 15.9254 1.42578C15.9503 1.53608 15.9627 1.67089 15.9627 1.8057C15.9627 2.79841 15.5404 3.79111 14.9443 4.50193ZM10.6243 20.3376C10.1816 20.5252 9.7622 20.7029 9.19309 20.7029C7.97592 20.7029 7.11894 19.5999 6.16259 18.2518C5.03237 16.6586 4.11328 14.1952 4.11328 11.8667C4.11328 8.11646 6.58487 6.13105 9.0192 6.13105C9.73213 6.13105 10.3833 6.38988 10.9599 6.61905C11.418 6.8011 11.8289 6.96443 12.1863 6.96443C12.5091 6.96443 12.9062 6.80936 13.3673 6.62923C14.0062 6.37967 14.7683 6.08203 15.6267 6.08203C16.1856 6.08203 18.1852 6.13105 19.4893 7.9939C19.4818 7.99969 19.4657 8.01018 19.4422 8.02545C19.1183 8.23647 17.3903 9.36207 17.3903 11.6706C17.3903 14.5261 19.924 15.5433 19.9985 15.5678C19.9861 15.6291 19.5887 16.9527 18.6696 18.3008C17.8374 19.4774 16.9556 20.6784 15.6267 20.6784C14.984 20.6784 14.5708 20.4979 14.144 20.3114C13.6883 20.1122 13.2172 19.9063 12.4347 19.9063C11.6418 19.9063 11.1186 20.1281 10.6243 20.3376Z" fill="black"/>
</svg>
