<svg width="24" height="24" viewBox="0 0 24 24" fill="none" xmlns="http://www.w3.org/2000/svg">
<g clip-path="url(#clip0_18424_2394)">
<path d="M14.7909 10.9497L12.6696 8.82843L15.1445 6.35355C15.3398 6.15829 15.6563 6.15829 15.8516 6.35355L17.2658 7.76777C17.4611 7.96303 17.4611 8.27961 17.2658 8.47487L14.7909 10.9497Z" fill="#8D94A0"/>
<path d="M12.3161 9.18198L14.4374 11.3033L3.47724 22.2635C3.28198 22.4587 2.96539 22.4587 2.77013 22.2635L1.35592 20.8492C1.16066 20.654 1.16066 20.3374 1.35592 20.1421L12.3161 9.18198Z" fill="#8D94A0"/>
<path d="M10.1369 5.86963C10.1872 5.7689 10.2689 5.68722 10.3696 5.63686L11.7123 4.96553C12.0959 4.77372 12.0959 4.22628 11.7123 4.03447L10.3696 3.36314C10.2689 3.31278 10.1872 3.2311 10.1369 3.13037L9.46554 1.78771C9.27373 1.4041 8.72629 1.4041 8.53448 1.78771L7.86315 3.13037C7.81278 3.2311 7.73111 3.31278 7.63038 3.36314L6.28772 4.03447C5.9041 4.22628 5.9041 4.77372 6.28772 4.96553L7.63038 5.63686C7.73111 5.68722 7.81278 5.7689 7.86315 5.86962L8.53448 7.21229C8.72629 7.5959 9.27373 7.5959 9.46554 7.21229L10.1369 5.86963Z" fill="#8D94A0"/>
<path d="M21.4474 14.1414C21.4894 14.0574 21.5574 13.9894 21.6414 13.9474L22.7602 13.3879C23.0799 13.2281 23.0799 12.7719 22.7602 12.6121L21.6414 12.0526C21.5574 12.0106 21.4894 11.9426 21.4474 11.8586L20.8879 10.7398C20.7281 10.4201 20.2719 10.4201 20.1121 10.7398L19.5526 11.8586C19.5107 11.9426 19.4426 12.0106 19.3587 12.0526L18.2398 12.6121C17.9201 12.7719 17.9201 13.2281 18.2398 13.3879L19.3587 13.9474C19.4426 13.9894 19.5107 14.0574 19.5526 14.1414L20.1121 15.2602C20.2719 15.5799 20.7281 15.5799 20.8879 15.2602L21.4474 14.1414Z" fill="#8D94A0"/>
<path d="M22.1369 4.36963C22.1872 4.2689 22.2689 4.18722 22.3696 4.13686L23.7123 3.46553C24.0959 3.27372 24.0959 2.72628 23.7123 2.53447L22.3696 1.86314C22.2689 1.81278 22.1872 1.7311 22.1369 1.63037L21.4655 0.287713C21.2737 -0.0959041 20.7263 -0.0959046 20.5345 0.287713L19.8631 1.63037C19.8128 1.7311 19.7311 1.81278 19.6304 1.86314L18.2877 2.53447C17.9041 2.72628 17.9041 3.27372 18.2877 3.46553L19.6304 4.13686C19.7311 4.18722 19.8128 4.2689 19.8631 4.36962L20.5345 5.71229C20.7263 6.0959 21.2737 6.0959 21.4655 5.71229L22.1369 4.36963Z" fill="#8D94A0"/>
</g>
<defs>
<clipPath id="clip0_18424_2394">
<rect width="24" height="24" fill="white"/>
</clipPath>
</defs>
</svg>
