<svg width="24" height="24" viewBox="0 0 24 24" fill="none" xmlns="http://www.w3.org/2000/svg">
<path fill-rule="evenodd" clip-rule="evenodd" d="M1.5 11.065C1.5 5.818 6.201 1.565 12 1.565C17.799 1.565 22.5 5.818 22.5 11.065C22.5 16.312 17.799 20.565 12 20.565C10.9668 20.5653 9.93827 20.4267 8.942 20.153L4.211 22.386C4.1271 22.4255 4.03386 22.4409 3.94171 22.4305C3.84956 22.42 3.76212 22.3842 3.68918 22.3269C3.61624 22.2696 3.56066 22.1932 3.52867 22.1062C3.49667 22.0191 3.48952 21.9249 3.508 21.834L4.376 17.585C2.598 15.882 1.5 13.592 1.5 11.065ZM6.97884 8.34375C6.43393 8.34375 5.99219 8.78549 5.99219 9.33041V13.3516C5.99219 13.7097 6.2825 14 6.64062 14C6.99875 14 7.28906 13.7097 7.28906 13.3516V10.4966C7.28906 10.4812 7.30154 10.4688 7.31694 10.4688C7.3284 10.4688 7.33869 10.4758 7.34288 10.4864L8.55655 13.5758C8.64969 13.8128 8.87844 13.9688 9.13316 13.9688C9.38753 13.9688 9.61605 13.8133 9.70942 13.5766L10.9227 10.502C10.9269 10.4914 10.9372 10.4844 10.9487 10.4844C10.9641 10.4844 10.9766 10.4969 10.9766 10.5123V13.3516C10.9766 13.7097 11.2669 14 11.625 14C11.9831 14 12.2734 13.7097 12.2734 13.3516V9.33041C12.2734 8.78549 11.8317 8.34375 11.2868 8.34375C10.8864 8.34375 10.5258 8.58565 10.3739 8.95605L9.17592 11.8773C9.16875 11.8948 9.15172 11.9062 9.13281 11.9062C9.11391 11.9062 9.09688 11.8948 9.08971 11.8773L7.89172 8.95605C7.73983 8.58565 7.37918 8.34375 6.97884 8.34375ZM13.933 8.34375C13.4403 8.34375 13.1285 8.8726 13.367 9.30372L14.7813 11.86C14.8632 12.0082 14.9062 12.1748 14.9062 12.3441V13.3359C14.9062 13.7027 15.2036 14 15.5703 14C15.9371 14 16.2344 13.7027 16.2344 13.3359V12.3433C16.2344 12.1745 16.2771 12.0084 16.3586 11.8606L17.7703 9.29907C18.007 8.86966 17.6964 8.34375 17.2061 8.34375C16.9644 8.34375 16.7431 8.47893 16.6328 8.6939L15.6045 10.6979C15.5979 10.7107 15.5847 10.7188 15.5703 10.7188C15.5559 10.7188 15.5427 10.7107 15.5362 10.6979L14.5085 8.69527C14.3978 8.47946 14.1756 8.34375 13.933 8.34375Z" fill="#8D94A0"/>
</svg>
