<svg width="24" height="24" viewBox="0 0 24 24" fill="none" xmlns="http://www.w3.org/2000/svg">
<g clip-path="url(#clip0_13636_37)">
<path d="M5.68655 8.245C6.17344 8.245 6.56814 8.6397 6.56814 9.12659V14.7674C6.56814 15.3123 6.12639 15.7541 5.58146 15.7541C5.25756 15.7541 4.95428 15.5951 4.77001 15.3287L2.02514 11.3608C2.01878 11.3516 2.00832 11.3461 1.99716 11.3461C1.97836 11.3461 1.96313 11.3614 1.96313 11.3801V14.8725C1.96313 15.3594 1.56843 15.7541 1.08154 15.7541C0.594653 15.7541 0.199951 15.3594 0.199951 14.8725V9.24328C0.199951 8.69194 0.646901 8.245 1.19824 8.245C1.52765 8.245 1.83585 8.40749 2.02195 8.67929L4.7306 12.6352C4.73819 12.6463 4.75077 12.6529 4.76422 12.6529C4.78672 12.6529 4.80496 12.6347 4.80496 12.6122V9.12658C4.80496 8.6397 5.19967 8.245 5.68655 8.245Z" fill="#8D94A0"/>
<path d="M8.70903 15.7541C8.15674 15.7541 7.70903 15.3064 7.70903 14.7541V9.24499C7.70903 8.69271 8.15674 8.245 8.70903 8.245H12.1844C12.5825 8.245 12.9052 8.56772 12.9052 8.96582C12.9052 9.36393 12.5825 9.68665 12.1844 9.68665H10.2656C9.82744 9.68665 9.47221 10.0419 9.47221 10.4801C9.47221 10.9183 9.82744 11.2735 10.2656 11.2735H11.9147C12.3128 11.2735 12.6356 11.5962 12.6356 11.9943C12.6356 12.3925 12.3128 12.7152 11.9147 12.7152H10.2708C9.82976 12.7152 9.47221 13.0727 9.47221 13.5138C9.47221 13.9549 9.82976 14.3124 10.2708 14.3124H12.1948C12.5929 14.3124 12.9156 14.6351 12.9156 15.0332C12.9156 15.4313 12.5929 15.7541 12.1948 15.7541H8.70903Z" fill="#8D94A0"/>
<path d="M16.5614 15.7541C16.116 15.7541 15.7242 15.4594 15.6007 15.0314L13.98 9.41727C13.8106 8.83046 14.251 8.245 14.8618 8.245C15.2889 8.245 15.6596 8.53975 15.7559 8.95596L16.7356 13.1926C16.7398 13.2106 16.7558 13.2234 16.7743 13.2234C16.7924 13.2234 16.8082 13.2112 16.8127 13.1937L17.9159 8.9911C18.0313 8.55149 18.4287 8.245 18.8832 8.245H18.9492C19.4031 8.245 19.8001 8.55079 19.916 8.98971L21.0301 13.2091C21.0339 13.2236 21.0471 13.2338 21.0621 13.2338C21.0775 13.2338 21.0909 13.2231 21.0944 13.2081L22.0849 8.95443C22.1816 8.53898 22.5519 8.245 22.9785 8.245C23.5896 8.245 24.0299 8.83118 23.8597 9.4181L22.2312 15.0326C22.1072 15.46 21.7157 15.7541 21.2707 15.7541H21.0679C20.6249 15.7541 20.2347 15.4626 20.109 15.0379L18.9607 11.1581C18.9555 11.1405 18.9392 11.1283 18.9208 11.1283C18.9023 11.1283 18.8861 11.1405 18.8808 11.1581L17.7326 15.0379C17.6069 15.4626 17.2167 15.7541 16.7737 15.7541H16.5614Z" fill="#8D94A0"/>
</g>
<defs>
<clipPath id="clip0_13636_37">
<rect width="24" height="24" fill="white"/>
</clipPath>
</defs>
</svg>
