<svg width="24" height="24" viewBox="0 0 24 24" fill="none" xmlns="http://www.w3.org/2000/svg">
<path fill-rule="evenodd" clip-rule="evenodd" d="M4.5 2H19.5C20.0523 2 20.5 2.44772 20.5 3V21C20.5 21.5523 20.0523 22 19.5 22H4.5C3.94772 22 3.5 21.5523 3.5 21V3C3.5 2.44772 3.94772 2 4.5 2ZM7 6C6.44772 6 6 6.44772 6 7C6 7.55228 6.44772 8 7 8H12C12.5523 8 13 7.55228 13 7C13 6.44772 12.5523 6 12 6H7ZM7 10C6.44772 10 6 10.4477 6 11C6 11.5523 6.44772 12 7 12H17C17.5523 12 18 11.5523 18 11C18 10.4477 17.5523 10 17 10H7Z" fill="#8D94A0"/>
</svg>
