<svg width="24" height="24" viewBox="0 0 24 24" fill="none" xmlns="http://www.w3.org/2000/svg">
<path fill-rule="evenodd" clip-rule="evenodd" d="M21.3409 3.44654C21.1522 3.25394 20.9264 3.1015 20.6772 2.99839C20.428 2.89528 20.1606 2.84363 19.8909 2.84654H18.2109V1.84654C18.2131 1.71087 18.1876 1.57619 18.136 1.45069C18.0844 1.32519 18.0078 1.2115 17.9109 1.11654C17.8175 1.0182 17.7051 0.939899 17.5804 0.886391C17.4558 0.832883 17.3216 0.80529 17.1859 0.80529C17.0503 0.80529 16.9161 0.832883 16.7914 0.886391C16.6668 0.939899 16.5543 1.0182 16.4609 1.11654C16.364 1.2115 16.2874 1.32519 16.2359 1.45069C16.1843 1.57619 16.1588 1.71087 16.1609 1.84654V2.84654H7.79093V1.84654C7.79306 1.71087 7.76757 1.57619 7.71599 1.45069C7.66442 1.32519 7.58784 1.2115 7.49093 1.11654C7.39739 1.01663 7.28433 0.936983 7.15877 0.882533C7.0332 0.828083 6.89779 0.799988 6.76093 0.799988C6.62406 0.799988 6.48866 0.828083 6.36309 0.882533C6.23752 0.936983 6.12447 1.01663 6.03093 1.11654C5.93401 1.2115 5.85744 1.32519 5.80586 1.45069C5.75429 1.57619 5.72879 1.71087 5.73093 1.84654V2.84654H4.06093C3.78902 2.83829 3.51828 2.8856 3.26528 2.98557C3.01228 3.08555 2.78234 3.23608 2.58951 3.42797C2.39669 3.61986 2.24503 3.84907 2.14383 4.10158C2.04263 4.35409 1.994 4.62459 2.00093 4.89654V20.7265C1.99261 20.9993 2.04021 21.2709 2.1408 21.5246C2.24138 21.7783 2.39282 22.0087 2.58579 22.2017C2.77876 22.3947 3.00918 22.5461 3.26287 22.6467C3.51656 22.7473 3.78815 22.7949 4.06093 22.7865H19.8909C20.1587 22.7867 20.4238 22.733 20.6704 22.6288C20.9171 22.5245 21.1403 22.3718 21.3268 22.1797C21.5133 21.9876 21.6594 21.76 21.7563 21.5103C21.8532 21.2607 21.899 20.9942 21.8909 20.7265V4.89654C21.9004 4.6304 21.8566 4.36506 21.7622 4.11606C21.6677 3.86707 21.5245 3.63944 21.3409 3.44654ZM6.85093 6.98654H12.5609C12.8261 6.98654 13.0805 7.0919 13.268 7.27943C13.4556 7.46697 13.5609 7.72132 13.5609 7.98654C13.5609 8.25176 13.4556 8.50611 13.268 8.69365C13.0805 8.88118 12.8261 8.98654 12.5609 8.98654H6.85093C6.58571 8.98654 6.33136 8.88118 6.14382 8.69365C5.95628 8.50611 5.85093 8.25176 5.85093 7.98654C5.85093 7.72132 5.95628 7.46697 6.14382 7.27943C6.33136 7.0919 6.58571 6.98654 6.85093 6.98654ZM17.1909 12.8365H6.85093C6.58571 12.8365 6.33136 12.7312 6.14382 12.5436C5.95628 12.3561 5.85093 12.1018 5.85093 11.8365C5.85093 11.5713 5.95628 11.317 6.14382 11.1294C6.33136 10.9419 6.58571 10.8365 6.85093 10.8365H17.1909C17.4561 10.8365 17.7105 10.9419 17.898 11.1294C18.0856 11.317 18.1909 11.5713 18.1909 11.8365C18.1909 12.1018 18.0856 12.3561 17.898 12.5436C17.7105 12.7312 17.4561 12.8365 17.1909 12.8365Z" fill="#8D94A0"/>
</svg>
