<svg width="24" height="24" viewBox="0 0 24 24" fill="none" xmlns="http://www.w3.org/2000/svg">
<path d="M19.8465 5.57993C20.536 5.57993 21.0956 6.13949 21.0956 6.82906C21.0956 7.51863 20.536 8.07819 19.8465 8.07819H10.3602C9.67059 8.07819 9.11104 7.51863 9.11104 6.82906C9.11104 6.13949 9.67059 5.57993 10.3602 5.57993H19.8465Z" fill="#8D94A0"/>
<path d="M19.8465 15.9848C20.536 15.9848 21.0956 16.5444 21.0956 17.2339C21.0956 17.9235 20.536 18.483 19.8465 18.483H10.3602C9.67059 18.483 9.11104 17.9235 9.11104 17.2339C9.11104 16.5444 9.67059 15.9848 10.3602 15.9848H19.8465Z" fill="#8D94A0"/>
<path d="M4.97881 14.143C5.66057 14.143 6.23535 14.3191 6.64287 14.643C7.05361 14.9696 7.28345 15.4396 7.28349 15.9965C7.28336 16.7142 6.91437 17.2948 5.65849 18.351L5.65752 18.35L5.36943 18.6H6.60869C7.01546 18.6001 7.34489 18.9296 7.34502 19.3363C7.34502 19.7432 7.01554 20.0736 6.60869 20.0736H3.68584C3.20726 20.0735 2.81968 19.6851 2.81963 19.2065C2.81967 18.9505 2.93223 18.7071 3.12822 18.5424L4.93584 17.0238C5.36187 16.6636 5.56041 16.4444 5.56474 16.1205L5.55302 15.9936C5.52996 15.8762 5.47611 15.7841 5.40361 15.7172C5.30558 15.6268 5.1606 15.5707 4.97881 15.5707C4.82927 15.5707 4.70811 15.6098 4.61845 15.6742C4.54773 15.7251 4.47711 15.7861 4.40166 15.8539C4.32804 15.9201 4.24829 15.9941 4.16631 16.06C4.0033 16.1909 3.80457 16.3148 3.55986 16.3149C3.32892 16.3148 3.11034 16.2191 2.96709 16.0619C2.82115 15.9017 2.75251 15.675 2.83623 15.4369C3.12804 14.6083 3.93075 14.143 4.97881 14.143Z" fill="#8D94A0"/>
<path d="M5.30774 3.38559C5.88757 3.38567 6.35754 3.85554 6.35754 4.43539V9.18246C6.35733 9.67344 5.95892 10.0711 5.46789 10.0711C4.9771 10.0709 4.57943 9.67328 4.57922 9.18246V5.04868L4.14563 5.30942C3.70218 5.5754 3.13782 5.25623 3.13782 4.73911C3.13782 4.50698 3.25892 4.2915 3.45715 4.17075L4.49524 3.53891C4.65969 3.43877 4.84859 3.38564 5.04114 3.38559H5.30774Z" fill="#8D94A0"/>
</svg>
