<svg width="24" height="24" viewBox="0 0 24 24" fill="none" xmlns="http://www.w3.org/2000/svg">
<path fill-rule="evenodd" clip-rule="evenodd" d="M12 3.9C7.52648 3.9 3.9 7.52648 3.9 12C3.9 16.4735 7.52648 20.1 12 20.1C16.4735 20.1 20.1 16.4735 20.1 12C20.1 7.52648 16.4735 3.9 12 3.9ZM1.5 12C1.5 6.201 6.201 1.5 12 1.5C17.799 1.5 22.5 6.201 22.5 12C22.5 17.799 17.799 22.5 12 22.5C6.201 22.5 1.5 17.799 1.5 12Z" fill="#8D94A0"/>
<path d="M12.1094 17.1367C14.3379 17.1367 15.8555 15.708 15.8555 13.7051C15.8555 11.8047 14.502 10.4443 12.6836 10.4512C11.8154 10.4443 11.0635 10.7998 10.7012 11.2852H10.6191L10.8926 8.7832H15.2949V7.10156H9.19727L8.66406 12.8027H10.5234C10.8174 12.249 11.3369 11.9688 12.082 11.9688C13.1211 11.9756 13.8662 12.707 13.8594 13.7598C13.8662 14.792 13.1348 15.5166 12.1094 15.5098C11.248 15.5166 10.5439 14.9834 10.4961 14.2109H8.5C8.53418 15.9199 10.0449 17.1367 12.1094 17.1367Z" fill="#8D94A0"/>
</svg>
