<svg width="24" height="24" viewBox="0 0 24 24" fill="none" xmlns="http://www.w3.org/2000/svg">
<path d="M19.6976 5.54844C20.3872 5.54844 20.9467 6.108 20.9467 6.79757C20.9467 7.48714 20.3872 8.04669 19.6976 8.04669H10.2113C9.52172 8.04669 8.96217 7.48714 8.96217 6.79757C8.96217 6.108 9.52172 5.54844 10.2113 5.54844H19.6976Z" fill="#8D94A0"/>
<path d="M19.6976 15.9533C20.3872 15.9533 20.9467 16.5129 20.9467 17.2024C20.9467 17.892 20.3872 18.4516 19.6976 18.4516H10.2113C9.52172 18.4516 8.96217 17.892 8.96217 17.2024C8.96217 16.5129 9.52172 15.9533 10.2113 15.9533H19.6976Z" fill="#8D94A0"/>
<path d="M4.82994 13.6641C5.51171 13.6641 6.08648 13.8402 6.494 14.1641C6.90475 14.4907 7.13459 14.9607 7.13463 15.5176C7.1345 16.2353 6.7655 16.8159 5.50963 17.8721L5.50865 17.8711L5.22057 18.1211H6.45982C6.8666 18.1212 7.19603 18.4507 7.19615 18.8574C7.19615 19.2643 6.86668 19.5947 6.45982 19.5947H3.53697C3.0584 19.5946 2.67081 19.2061 2.67076 18.7275C2.67081 18.4716 2.78336 18.2281 2.97936 18.0635L4.78697 16.5449C5.213 16.1847 5.41154 15.9655 5.41588 15.6416L5.40416 15.5146C5.38109 15.3973 5.32724 15.3052 5.25475 15.2383C5.15672 15.1479 5.01174 15.0918 4.82994 15.0918C4.68041 15.0918 4.55924 15.1309 4.46959 15.1953C4.39886 15.2462 4.32824 15.3072 4.25279 15.375C4.17918 15.4411 4.09943 15.5152 4.01744 15.5811C3.85443 15.712 3.65571 15.8359 3.411 15.8359C3.18005 15.8359 2.96148 15.7402 2.81822 15.583C2.67228 15.4228 2.60365 15.1961 2.68736 14.958C2.97917 14.1294 3.78188 13.6641 4.82994 13.6641Z" fill="#8D94A0"/>
<path d="M4.84068 3.23047C5.42052 3.23055 5.89049 3.70042 5.89049 4.28027V9.02734C5.89028 9.51832 5.49187 9.91602 5.00084 9.91602C4.51004 9.91574 4.11238 9.51816 4.11217 9.02734V4.89355L3.67857 5.1543C3.23512 5.42028 2.67076 5.10111 2.67076 4.58398C2.67076 4.35186 2.79186 4.13638 2.9901 4.01562L4.02818 3.38379C4.19264 3.28365 4.38154 3.23052 4.57408 3.23047H4.84068Z" fill="#8D94A0"/>
</svg>
