<svg width="24" height="24" viewBox="0 0 24 24" fill="none" xmlns="http://www.w3.org/2000/svg">
<path fill-rule="evenodd" clip-rule="evenodd" d="M12 3.9C7.52648 3.9 3.9 7.52648 3.9 12C3.9 16.4735 7.52648 20.1 12 20.1C16.4735 20.1 20.1 16.4735 20.1 12C20.1 7.52648 16.4735 3.9 12 3.9ZM1.5 12C1.5 6.201 6.201 1.5 12 1.5C17.799 1.5 22.5 6.201 22.5 12C22.5 17.799 17.799 22.5 12 22.5C6.201 22.5 1.5 17.799 1.5 12Z" fill="#8D94A0"/>
<path d="M8.39573 17.0352H15.4778V15.3398H11.2531V15.2852L12.7571 13.8223C14.7942 11.9766 15.341 11.0537 15.341 9.92578C15.341 8.20996 13.9328 7 11.8137 7C9.72873 7 8.29319 8.2373 8.30002 10.1719H10.2551C10.2483 9.22168 10.8567 8.63379 11.7864 8.64062C12.6955 8.63379 13.3586 9.18066 13.3586 10.0625C13.3586 10.8486 12.8596 11.3955 11.9367 12.2773L8.38206 15.5449L8.39573 17.0352Z" fill="#8D94A0"/>
</svg>
