<svg width="24" height="24" viewBox="0 0 24 24" fill="none" xmlns="http://www.w3.org/2000/svg">
<path fill-rule="evenodd" clip-rule="evenodd" d="M12 3.9C7.52648 3.9 3.9 7.52648 3.9 12C3.9 16.4735 7.52648 20.1 12 20.1C16.4735 20.1 20.1 16.4735 20.1 12C20.1 7.52648 16.4735 3.9 12 3.9ZM1.5 12C1.5 6.201 6.201 1.5 12 1.5C17.799 1.5 22.5 6.201 22.5 12C22.5 17.799 17.799 22.5 12 22.5C6.201 22.5 1.5 17.799 1.5 12Z" fill="#8D94A0"/>
<path d="M8 15.25H12.8125V17H14.7676V15.25H16.0254V13.5957H14.7676V7.10156H12.1836L8 13.623V15.25ZM10.0781 13.5957V13.5137L12.7441 9.35742H12.8398V13.5957H10.0781Z" fill="#8D94A0"/>
</svg>
