<svg width="24" height="24" viewBox="0 0 24 24" fill="none" xmlns="http://www.w3.org/2000/svg">
<path fill-rule="evenodd" clip-rule="evenodd" d="M12 1.5C6.201 1.5 1.5 6.201 1.5 12C1.5 17.799 6.201 22.5 12 22.5C17.799 22.5 22.5 17.799 22.5 12C22.5 6.201 17.799 1.5 12 1.5ZM15.4777 15.3398V17.0352H8.39572L8.38204 15.5449L11.9367 12.2773C12.8596 11.3955 13.3586 10.8486 13.3586 10.0625C13.3586 9.18066 12.6955 8.63379 11.7863 8.64062C10.8567 8.63379 10.2483 9.22168 10.2551 10.1719H8.30001C8.29318 8.2373 9.72872 7 11.8137 7C13.9328 7 15.341 8.20996 15.341 9.92578C15.341 11.0537 14.7942 11.9766 12.757 13.8223L11.2531 15.2852V15.3398H15.4777Z" fill="#8D94A0"/>
</svg>
