<svg width="24" height="24" viewBox="0 0 24 24" fill="none" xmlns="http://www.w3.org/2000/svg">
<path fill-rule="evenodd" clip-rule="evenodd" d="M12 3.9C7.52648 3.9 3.9 7.52648 3.9 12C3.9 16.4735 7.52648 20.1 12 20.1C16.4735 20.1 20.1 16.4735 20.1 12C20.1 7.52648 16.4735 3.9 12 3.9ZM1.5 12C1.5 6.201 6.201 1.5 12 1.5C17.799 1.5 22.5 6.201 22.5 12C22.5 17.799 17.799 22.5 12 22.5C6.201 22.5 1.5 17.799 1.5 12Z" fill="#8D94A0"/>
<path d="M11.7734 17.1367C14.0088 17.1367 15.6152 15.9199 15.6016 14.2246C15.6152 12.9873 14.8154 12.1055 13.3594 11.9277V11.8457C14.4668 11.6475 15.2393 10.8613 15.2324 9.75391C15.2393 8.18848 13.8652 6.96484 11.8008 6.96484C9.77051 6.96484 8.23926 8.14746 8.20508 9.84961H10.1738C10.208 9.09082 10.9258 8.59863 11.8008 8.60547C12.6758 8.59863 13.2568 9.11816 13.25 9.87695C13.2568 10.6562 12.5732 11.1895 11.5957 11.1895H10.6797V12.707H11.5957C12.7578 12.7139 13.4756 13.2812 13.4688 14.0879C13.4756 14.8877 12.7715 15.4346 11.7871 15.4414C10.8301 15.4346 10.1123 14.9492 10.0781 14.2109H8C8.04102 15.9404 9.59961 17.1367 11.7734 17.1367Z" fill="#8D94A0"/>
</svg>
