<svg width="24" height="24" viewBox="0 0 24 24" fill="none" xmlns="http://www.w3.org/2000/svg">
<path fill-rule="evenodd" clip-rule="evenodd" d="M6.65723 4.28572C6.65723 2.6762 7.962 1.37143 9.57151 1.37143H19.0001C20.6096 1.37143 21.9144 2.6762 21.9144 4.28572V19.7143C21.9144 21.3238 20.6096 22.6286 19.0001 22.6286H9.57151C7.962 22.6286 6.65723 21.3238 6.65723 19.7143V17.5714C6.65723 16.9087 7.19448 16.3714 7.85723 16.3714C8.51997 16.3714 9.05723 16.9087 9.05723 17.5714V19.7143C9.05723 19.9983 9.28748 20.2286 9.57151 20.2286H19.0001C19.2841 20.2286 19.5144 19.9983 19.5144 19.7143V4.28572C19.5144 4.00168 19.2841 3.77143 19.0001 3.77143H9.57151C9.28748 3.77143 9.05723 4.00168 9.05723 4.28572V6.42857C9.05723 7.09131 8.51997 7.62857 7.85723 7.62857C7.19448 7.62857 6.65723 7.09131 6.65723 6.42857V4.28572ZM12.8286 12.2C12.8286 11.5373 12.2914 11 11.6286 11H4.80904L5.68252 9.98097C6.11383 9.47778 6.05555 8.72022 5.55236 8.28891C5.04917 7.85761 4.29161 7.91588 3.86031 8.41907L1.28888 11.4191C0.903687 11.8685 0.903687 12.5316 1.28888 12.981L3.86031 15.981C4.29161 16.4842 5.04917 16.5424 5.55236 16.1111C6.05555 15.6798 6.11383 14.9223 5.68252 14.4191L4.80906 13.4H11.6286C12.2914 13.4 12.8286 12.8628 12.8286 12.2Z" fill="#8D94A0"/>
</svg>
