<svg width="32" height="32" viewBox="0 0 32 32" fill="none" xmlns="http://www.w3.org/2000/svg">
<rect x="3.22754" y="2.19263" width="21.9423" height="26.9292" rx="1.17548" fill="#D1D5DB"/>
<circle cx="23.6027" cy="24.1634" r="6.79168" fill="#E5E7EB"/>
<g clip-path="url(#clip0_34741_95684)">
<path fill-rule="evenodd" clip-rule="evenodd" d="M27.0031 22.9978L23.3572 26.6444C23.2343 26.7664 23.0682 26.8349 22.8951 26.8349C22.722 26.8349 22.5559 26.7664 22.4331 26.6444L20.2023 24.4136C20.1417 24.353 20.0936 24.281 20.0607 24.2018C20.0279 24.1226 20.011 24.0376 20.011 23.9519C20.011 23.7787 20.0798 23.6126 20.2023 23.4902C20.3247 23.3677 20.4908 23.299 20.664 23.299C20.8372 23.299 21.0032 23.3677 21.1257 23.4902L22.8948 25.2593L26.0797 22.0744C26.1403 22.0138 26.2123 21.9657 26.2915 21.9329C26.3708 21.9 26.4557 21.8831 26.5414 21.8831C26.6271 21.8831 26.7121 21.9 26.7913 21.9329C26.8705 21.9657 26.9425 22.0138 27.0031 22.0744C27.0637 22.135 27.1118 22.207 27.1446 22.2862C27.1775 22.3654 27.1944 22.4503 27.1944 22.5361C27.1944 22.6218 27.1775 22.7067 27.1446 22.786C27.1118 22.8652 27.0637 22.9372 27.0031 22.9978ZM23.6027 16.98C19.6354 16.98 16.4192 20.1962 16.4192 24.1635C16.4192 28.1307 19.6354 31.347 23.6027 31.347C27.57 31.347 30.7862 28.1307 30.7862 24.1635C30.7862 20.1962 27.57 16.98 23.6027 16.98Z" fill="#8D94A0"/>
</g>
<defs>
<clipPath id="clip0_34741_95684">
<rect width="15.6731" height="15.6731" fill="white" transform="translate(15.7661 16.3269)"/>
</clipPath>
</defs>
</svg>
