<svg width="20" height="20" viewBox="0 0 20 20" fill="none" xmlns="http://www.w3.org/2000/svg">
<g clip-path="url(#clip0_4805_9677)">
<rect x="2.91699" y="1.37061" width="13.714" height="16.8308" rx="1.17548" fill="#C6D8FA"/>
<path fill-rule="evenodd" clip-rule="evenodd" d="M16.0045 9.90832L12.4722 13.4406L11.9905 15.2375L11.6736 16.4213C11.6648 16.4544 11.6648 16.4892 11.6737 16.5222C11.6826 16.5553 11.7 16.5854 11.7242 16.6096C11.7484 16.6338 11.7785 16.6512 11.8116 16.6601C11.8446 16.669 11.8794 16.6691 11.9125 16.6603L13.0955 16.343L14.8928 15.8612L18.4255 12.3289L16.0045 9.90832ZM19.886 10.3176L18.0166 8.44778C17.9804 8.41155 17.9375 8.38281 17.8902 8.3632C17.8429 8.34359 17.7922 8.3335 17.741 8.3335C17.6898 8.3335 17.6391 8.34359 17.5919 8.3632C17.5446 8.38281 17.5016 8.41155 17.4654 8.44778L16.5007 9.41212L18.9217 11.8331L19.886 10.8684C19.9223 10.8322 19.951 10.7893 19.9706 10.742C19.9902 10.6947 20.0003 10.644 20.0003 10.5928C20.0003 10.5416 19.9902 10.4909 19.9706 10.4436C19.951 10.3963 19.9223 10.3538 19.886 10.3176Z" fill="#6D99F1"/>
</g>
<defs>
<clipPath id="clip0_4805_9677">
<rect width="20" height="20" fill="white"/>
</clipPath>
</defs>
</svg>
