<svg width="24" height="24" viewBox="0 0 24 24" fill="none" xmlns="http://www.w3.org/2000/svg">
<path d="M8.10001 1.5C7.2715 1.5 6.59985 2.17164 6.59985 3.00016V4.41049H17.2014C18.0299 4.41049 18.7016 5.08214 18.7016 5.91065V18.3768H20.1013C20.9298 18.3768 21.6015 17.7052 21.6015 16.8766V3.00016C21.6015 2.17164 20.9298 1.5 20.1013 1.5H8.10001Z" fill="#8D94A0"/>
<path d="M2.5 7.12336C2.5 6.29484 3.17164 5.6232 4.00016 5.6232H16.0014C16.83 5.6232 17.5016 6.29484 17.5016 7.12336V20.9998C17.5016 21.8284 16.83 22.5 16.0014 22.5H4.00016C3.17165 22.5 2.5 21.8284 2.5 20.9998V7.12336Z" fill="#8D94A0"/>
</svg>
