<svg width="24" height="24" viewBox="0 0 24 24" fill="none" xmlns="http://www.w3.org/2000/svg">
<path d="M3.5 2.82003C3.5 2.17083 4.02628 1.64455 4.67548 1.64455H18.7813C19.4305 1.64455 19.9568 2.17083 19.9568 2.82003V20.666C19.9568 21.3152 19.4305 21.8415 18.7813 21.8415H4.67548C4.02628 21.8415 3.5 21.3152 3.5 20.666V2.82003Z" fill="#D9CDF9"/>
<path fill-rule="evenodd" clip-rule="evenodd" d="M19.205 11.8899L14.9663 16.1286L14.3882 18.2849L14.0079 19.7055C13.9973 19.7452 13.9974 19.7869 14.008 19.8266C14.0187 19.8662 14.0396 19.9024 14.0686 19.9314C14.0977 19.9605 14.1338 19.9814 14.1735 19.992C14.2132 20.0027 14.2549 20.0028 14.2946 19.9922L15.7142 19.6114L17.871 19.0333L22.1102 14.7946L19.205 11.8899ZM23.8629 12.381L21.6195 10.1372C21.5761 10.0937 21.5246 10.0593 21.4678 10.0357C21.4111 10.0122 21.3503 10.0001 21.2888 10.0001C21.2274 10.0001 21.1666 10.0122 21.1098 10.0357C21.0531 10.0593 21.0015 10.0937 20.9581 10.1372L19.8005 11.2944L22.7056 14.1996L23.8629 13.0419C23.9063 12.9985 23.9408 12.947 23.9644 12.8902C23.9879 12.8335 24 12.7727 24 12.7112C24 12.6498 23.9879 12.589 23.9644 12.5322C23.9408 12.4755 23.9063 12.4244 23.8629 12.381Z" fill="#9C7EEF"/>
</svg>
