<svg width="24" height="24" viewBox="0 0 24 24" fill="none" xmlns="http://www.w3.org/2000/svg">
<path d="M0.883936 1.88388C1.37209 1.39572 2.16335 1.39572 2.65151 1.88388L22.0967 21.3291C22.5849 21.8173 22.5849 22.6085 22.0967 23.0967C21.6086 23.5848 20.8173 23.5848 20.3292 23.0967L18.9825 21.75H4.71302C4.05992 21.75 3.43367 21.4901 2.97182 21.0283C2.50999 20.5665 2.25022 19.9402 2.25014 19.2871V5.01765L0.883936 3.65145C0.395784 3.16329 0.395785 2.37203 0.883936 1.88388ZM19.2872 2.25009C19.9403 2.25016 20.5666 2.50993 21.0284 2.97176C21.4901 3.43362 21.75 4.05987 21.7501 4.71297V17.9219L6.07825 2.25009H19.2872ZM7.25891 14.959C7.14414 15.1377 7.07989 15.3445 7.07239 15.5567C7.06499 15.7687 7.11509 15.9789 7.21692 16.1651C7.31883 16.3513 7.46881 16.5071 7.65149 16.6153C7.83415 16.7233 8.04277 16.7806 8.255 16.7803H14.0128L9.18664 11.9541L7.25891 14.959ZM16.004 7.09284C15.7658 7.08715 15.5285 7.12966 15.3067 7.21686C15.085 7.3041 14.8825 7.43422 14.712 7.60065C14.5414 7.76714 14.4061 7.96694 14.3136 8.18658C14.2212 8.40604 14.173 8.64181 14.1729 8.87994C14.1729 9.11824 14.2211 9.35463 14.3136 9.57427C14.406 9.79378 14.5416 9.99277 14.712 10.1592C14.8824 10.3256 15.0842 10.4567 15.3057 10.544C15.5274 10.6313 15.7648 10.6736 16.003 10.668C16.4697 10.6571 16.9141 10.4638 17.2403 10.1299C17.5664 9.79608 17.7489 9.34763 17.7491 8.88092C17.7492 8.41434 17.567 7.96592 17.2413 7.6319C16.9152 7.29784 16.4707 7.10406 16.004 7.09284Z" fill="#8D94A0"/>
</svg>
