<svg width="24" height="24" viewBox="0 0 24 24" fill="none" xmlns="http://www.w3.org/2000/svg">
<path fill-rule="evenodd" clip-rule="evenodd" d="M16.5658 2.83023H18.7203C18.9993 2.14088 19.6752 1.6546 20.4646 1.6546C21.5034 1.6546 22.3456 2.49676 22.3456 3.5356C22.3456 4.32501 21.8593 5.00084 21.1699 5.27988V7.43434C21.8593 7.71338 22.3456 8.38921 22.3456 9.17861C22.3456 9.96802 21.8593 10.6438 21.1699 10.9229V13.0773C21.8593 13.3564 22.3456 14.0322 22.3456 14.8216C22.3456 15.611 21.8593 16.2868 21.1699 16.5659V18.7204C21.8593 18.9994 22.3456 19.6752 22.3456 20.4646C22.3456 21.5035 21.5034 22.3456 20.4646 22.3456C19.6752 22.3456 18.9993 21.8593 18.7203 21.17H16.5658C16.2868 21.8593 15.611 22.3456 14.8216 22.3456C14.0322 22.3456 13.3563 21.8593 13.0773 21.17H10.9228C10.6438 21.8593 9.96796 22.3456 9.17855 22.3456C8.38915 22.3456 7.71332 21.8593 7.43428 21.17H5.27982C5.00077 21.8593 4.32495 22.3456 3.53554 22.3456C2.49669 22.3456 1.65454 21.5035 1.65454 20.4646C1.65454 19.6752 2.14082 18.9994 2.83017 18.7204V16.5659C2.14082 16.2869 1.65454 15.611 1.65454 14.8216C1.65454 14.0322 2.14082 13.3564 2.83017 13.0773V10.9229C2.14082 10.6438 1.65454 9.96802 1.65454 9.17861C1.65454 8.38921 2.14082 7.71338 2.83017 7.43434V5.2799C2.14085 5.00084 1.6546 4.32503 1.6546 3.53565C1.6546 2.4968 2.49675 1.65464 3.5356 1.65464C4.32499 1.65464 5.0008 2.1409 5.27985 2.83023H7.43428C7.71332 2.14088 8.38915 1.6546 9.17855 1.6546C9.96796 1.6546 10.6438 2.14088 10.9228 2.83023H13.0773C13.3563 2.14088 14.0322 1.6546 14.8216 1.6546C15.611 1.6546 16.2868 2.14088 16.5658 2.83023ZM6.35705 5.41661C5.83762 5.41661 5.41655 5.83768 5.41655 6.35711V17.6431C5.41655 18.1625 5.83762 18.5836 6.35705 18.5836H17.6431C18.1625 18.5836 18.5836 18.1625 18.5836 17.6431V6.35711C18.5836 5.83768 18.1625 5.41661 17.6431 5.41661H6.35705Z" fill="#8D94A0"/>
</svg>
