<svg width="16" height="17" viewBox="0 0 16 17" fill="none" xmlns="http://www.w3.org/2000/svg">
<g clip-path="url(#clip0_37723_33210)">
<path d="M8.65931 0.926676L14.0526 4.04001C14.1571 4.10009 14.2438 4.18664 14.3041 4.29092C14.3644 4.39521 14.3961 4.51354 14.3961 4.63401C14.3961 4.75447 14.3644 4.87281 14.3041 4.9771C14.2438 5.08138 14.1571 5.16792 14.0526 5.22801L13.2206 5.70801C12.16 6.32001 11.5073 7.45134 11.5073 8.67601V13.2587C11.5073 13.379 11.4756 13.4971 11.4154 13.6013C11.3553 13.7054 11.2687 13.7919 11.1646 13.8521C11.0604 13.9122 10.9422 13.9438 10.8219 13.9438C10.7016 13.9438 10.5835 13.9122 10.4793 13.852L6.88197 11.776L5.54531 11.0033L1.94864 8.92734C1.84439 8.86721 1.7578 8.78069 1.69761 8.67647C1.63741 8.57226 1.60571 8.45403 1.60571 8.33368C1.60571 8.21332 1.63741 8.09509 1.69761 7.99088C1.7578 7.88666 1.84439 7.80014 1.94864 7.74001L5.91731 5.44801C6.43833 5.14727 6.87099 4.71464 7.17175 4.19363C7.47251 3.67262 7.63078 3.0816 7.63064 2.48001V1.52001C7.63081 1.3997 7.66261 1.28156 7.72286 1.17743C7.7831 1.07329 7.86967 0.986835 7.97389 0.926726C8.0781 0.866616 8.19628 0.83497 8.31659 0.834961C8.43689 0.834952 8.55509 0.866581 8.65931 0.926676Z" fill="#F5525D"/>
<path d="M3.58273 15.3452L5.7033 11.6728L6.22279 11.9731L4.10209 15.6451C4.06142 15.7109 3.99686 15.7585 3.92185 15.7779C3.84572 15.7975 3.76493 15.7865 3.69685 15.7472C3.62877 15.7079 3.57884 15.6434 3.55781 15.5676C3.53709 15.493 3.54605 15.4133 3.58273 15.3452Z" fill="#7A828D" stroke="#8D94A0"/>
</g>
<defs>
<clipPath id="clip0_37723_33210">
<rect width="16" height="16" fill="white" transform="translate(0 0.5)"/>
</clipPath>
</defs>
</svg>
