<svg width="33" height="32" viewBox="0 0 33 32" fill="none" xmlns="http://www.w3.org/2000/svg">
<path d="M14.772 23.7283C14.772 23.3601 15.0704 23.0616 15.4386 23.0616H17.3647C17.7328 23.0616 18.0313 23.3601 18.0313 23.7283V30.0001C18.0313 30.3683 17.7328 30.6668 17.3647 30.6668H15.4386C15.0704 30.6668 14.772 30.3683 14.772 30.0001V23.7283Z" fill="#6F7680"/>
<path d="M9.3396 2.96311C9.3396 2.06306 10.0692 1.33344 10.9693 1.33344V1.33344C11.8693 1.33344 12.5989 2.06307 12.5989 2.96311V12.7412C12.5989 13.6412 11.8693 14.3708 10.9693 14.3708V14.3708C10.0692 14.3708 9.3396 13.6412 9.3396 12.7412V2.96311Z" fill="#D1D5DB"/>
<path d="M20.2041 2.96311C20.2041 2.06306 20.9337 1.33344 21.8338 1.33344V1.33344C22.7338 1.33344 23.4634 2.06307 23.4634 2.96311V12.7412C23.4634 13.6412 22.7338 14.3708 21.8338 14.3708V14.3708C20.9337 14.3708 20.2041 13.6412 20.2041 12.7412V2.96311Z" fill="#D1D5DB"/>
<path d="M7.16675 10.7035C7.16675 10.0285 7.71396 9.48126 8.38897 9.48126H24.4142C25.0892 9.48126 25.6364 10.0285 25.6364 10.7035V15.4567C25.6364 20.557 21.5018 24.6916 16.4016 24.6916C11.3013 24.6916 7.16675 20.557 7.16675 15.4567V10.7035Z" fill="#33373B"/>
<path d="M12.5989 23.1982C12.5989 22.5232 13.1461 21.976 13.8211 21.976H18.9818C19.6568 21.976 20.204 22.5232 20.204 23.1982V25.0996C20.204 25.7746 19.6568 26.3218 18.9818 26.3218H13.8211C13.1461 26.3218 12.5989 25.7746 12.5989 25.0996V23.1982Z" fill="#33373B"/>
<g clip-path="url(#clip0_34741_95081)">
<path fill-rule="evenodd" clip-rule="evenodd" d="M19.9026 16.0612L17.5757 15.3224L18.2788 12.1662C18.3918 11.6574 17.7012 11.3328 17.3103 11.7104L12.6743 16.1866C12.6095 16.2491 12.5629 16.3254 12.5388 16.4085C12.5147 16.4916 12.5138 16.5788 12.5362 16.6623C12.5586 16.7458 12.6036 16.8229 12.6671 16.8865C12.7307 16.9502 12.8107 16.9984 12.8999 17.0267L15.2263 17.7655L14.5242 20.9217C14.4102 21.43 15.1008 21.7546 15.4922 21.3775L20.1287 16.9004C20.4101 16.6288 20.29 16.1838 19.9026 16.0612" fill="#84AAF4"/>
</g>
<defs>
<clipPath id="clip0_34741_95081">
<rect width="11.9509" height="10.8645" fill="white" transform="translate(10.426 11.1115)"/>
</clipPath>
</defs>
</svg>
