<svg width="24" height="24" viewBox="0 0 24 24" fill="none" xmlns="http://www.w3.org/2000/svg">
<g clip-path="url(#clip0_13405_39)">
<path fill-rule="evenodd" clip-rule="evenodd" d="M13.357 14.146H10.982V16.861C10.9679 17.1215 10.8544 17.3668 10.6649 17.5462C10.4755 17.7257 10.2245 17.8257 9.96351 17.8257C9.70256 17.8257 9.45153 17.7257 9.26208 17.5462C9.07263 17.3668 8.95915 17.1215 8.94501 16.861V6.67798H13.357C14.3471 6.67904 15.2963 7.07295 15.9962 7.77323C16.6961 8.4735 17.0895 9.4229 17.09 10.413C17.089 11.4027 16.6953 12.3516 15.9955 13.0514C15.2956 13.7513 14.3467 14.1449 13.357 14.146ZM10.9821 8.715H13.3571C14.2941 8.715 15.0541 9.476 15.0541 10.412C15.0541 11.349 14.2931 12.109 13.3571 12.109H10.9821V8.715Z" fill="white"/>
<path fill-rule="evenodd" clip-rule="evenodd" d="M10.9818 14.146H13.3568C14.3465 14.1449 15.2954 13.7513 15.9953 13.0514C16.6951 12.3516 17.0887 11.4027 17.0898 10.413C17.0893 9.42291 16.6959 8.47351 15.996 7.77324C15.2961 7.07296 14.3469 6.67905 13.3568 6.67799H8.9448V16.861C8.95895 17.1216 9.07242 17.3668 9.26188 17.5462C9.45133 17.7257 9.70236 17.8257 9.9633 17.8257C10.2243 17.8257 10.4753 17.7257 10.6647 17.5462C10.8542 17.3668 10.9677 17.1216 10.9818 16.861V14.146ZM0.799805 12C0.799805 5.81499 5.8138 0.799988 11.9998 0.799988C18.1848 0.799988 23.1998 5.81499 23.1998 12C23.1998 18.186 18.1848 23.2 11.9998 23.2C5.8138 23.2 0.799805 18.186 0.799805 12ZM10.9819 8.71503H13.3569C14.2939 8.71503 15.0539 9.47603 15.0539 10.412C15.0539 11.349 14.2929 12.109 13.3569 12.109H10.9819V8.71503Z" fill="#C6B5F6"/>
</g>
<defs>
<clipPath id="clip0_13405_39">
<rect width="24" height="24" fill="white"/>
</clipPath>
</defs>
</svg>
