<svg width="24" height="24" viewBox="0 0 24 24" fill="none" xmlns="http://www.w3.org/2000/svg">
<path fill-rule="evenodd" clip-rule="evenodd" d="M16.5 1C18.433 1 20 2.567 20 4.5V19.5C20 21.433 18.433 23 16.5 23H7.5C5.567 23 4 21.433 4 19.5V4.5C4 2.567 5.567 1 7.5 1H16.5ZM7.5 3.5C6.94772 3.5 6.5 3.94772 6.5 4.5V19.5L6.50488 19.6025C6.55278 20.073 6.92703 20.4472 7.39746 20.4951L7.5 20.5H16.5L16.6025 20.4951C17.1067 20.4438 17.5 20.0177 17.5 19.5V4.5C17.5 3.94772 17.0523 3.5 16.5 3.5H7.5Z" fill="#8D94A0"/>
<path d="M11.3676 5.20847C11.7251 4.85117 12.2749 4.85119 12.6323 5.20847L15.0356 7.61179C15.1133 7.68947 15.1838 7.77881 15.2329 7.88913C15.2825 8.00082 15.3031 8.1187 15.3032 8.24363C15.3032 8.36875 15.2826 8.48725 15.2329 8.59909C15.1838 8.70945 15.1133 8.79874 15.0356 8.87644C14.6782 9.23386 14.1284 9.23378 13.771 8.87644L12.9008 8.00632V15.9936L13.771 15.1235C14.1284 14.7662 14.6782 14.7661 15.0356 15.1235C15.1133 15.2012 15.1838 15.2905 15.2329 15.4009C15.2825 15.5125 15.3031 15.6304 15.3032 15.7553C15.3032 15.8805 15.2826 15.999 15.2329 16.1108C15.1838 16.2212 15.1133 16.3105 15.0356 16.3882L12.6323 18.7915C12.2749 19.1487 11.725 19.1487 11.3676 18.7915L8.96432 16.3882C8.60706 16.0308 8.6071 15.4809 8.96432 15.1235C9.32178 14.7661 9.87251 14.7661 10.2299 15.1235L11.0991 15.9936V8.00632L10.2299 8.87644C9.87248 9.2339 9.32179 9.2339 8.96432 8.87644C8.60706 8.51902 8.60706 7.96921 8.96432 7.61179L11.3676 5.20847Z" fill="#8D94A0"/>
</svg>
