<svg width="25" height="25" viewBox="0 0 25 25" fill="none" xmlns="http://www.w3.org/2000/svg">
<path d="M3.39062 8.76367C3.39062 7.6591 4.28606 6.76367 5.39062 6.76367H10.8906V22.7637H5.39062C4.28606 22.7637 3.39062 21.8682 3.39062 20.7637V8.76367Z" fill="#8D94A0"/>
<path d="M13.8906 6.76367H19.3906C20.4952 6.76367 21.3906 7.6591 21.3906 8.76367V20.7637C21.3906 21.8682 20.4952 22.7637 19.3906 22.7637H13.8906V6.76367Z" fill="#8D94A0"/>
<path opacity="0.6" fill-rule="evenodd" clip-rule="evenodd" d="M10.8906 6.76367L6.74434 6.76367L6.3977 3.85553C6.31089 3.12717 7.03814 2.56781 7.7325 2.82889L12.3906 4.58038L17.0488 2.82889C17.7431 2.56781 18.4704 3.12717 18.3835 3.85553L18.0369 6.76367L13.8906 6.76367V22.7637H10.8906V6.76367Z" fill="#8D94A0"/>
</svg>
