<svg width="24" height="24" viewBox="0 0 24 24" fill="none" xmlns="http://www.w3.org/2000/svg">
<path fill-rule="evenodd" clip-rule="evenodd" d="M20.5898 7.42969C21.0956 7.43231 21.5799 7.63462 21.9375 7.99219C22.2951 8.34981 22.4974 8.8341 22.5 9.33984V16.0195C22.5 16.5261 22.2986 17.0119 21.9404 17.3701C21.5822 17.7283 21.0964 17.9297 20.5898 17.9297H17.7998V20C17.7998 21.2148 16.8153 22.1999 15.6006 22.2002H8.40039C7.18536 22.2002 6.2002 21.215 6.2002 20V17.9297H3.41016C2.90359 17.9297 2.41776 17.7283 2.05957 17.3701C1.70143 17.0119 1.5 16.5261 1.5 16.0195V9.33984C1.50263 8.8341 1.70488 8.34981 2.0625 7.99219C2.42012 7.63462 2.90445 7.43231 3.41016 7.42969H20.5898ZM8.40039 15C8.28993 15 8.2002 15.0897 8.2002 15.2002V20C8.2002 20.1105 8.28994 20.2002 8.40039 20.2002H15.6006C15.7108 20.1999 15.7998 20.1102 15.7998 20V15.2002C15.7998 15.0899 15.7107 15.0003 15.6006 15H8.40039ZM16.4561 13.1729C16.7193 13.2842 16.9562 13.4454 17.1553 13.6445C16.9066 13.3959 16.599 13.2058 16.2549 13.0986L16.4561 13.1729Z" fill="#8D94A0"/>
<path d="M16.8 2H7.2C6.53726 2 6 2.53726 6 3.2V5.6C6 6.26274 6.53726 6.8 7.2 6.8H16.8C17.4627 6.8 18 6.26274 18 5.6V3.2C18 2.53726 17.4627 2 16.8 2Z" fill="#8D94A0"/>
</svg>
