<svg width="24" height="24" viewBox="0 0 24 24" fill="none" xmlns="http://www.w3.org/2000/svg">
<path d="M19.531 12.0321C19.5309 7.85702 16.1455 4.4725 11.9705 4.4725C8.09226 4.47271 4.8951 7.3945 4.46166 11.1561C4.38256 11.8418 3.76168 12.3337 3.07592 12.2547C2.39043 12.1755 1.89846 11.5555 1.97729 10.87C2.55443 5.8613 6.80764 1.97271 11.9705 1.9725C17.5262 1.9725 22.0309 6.47631 22.031 12.0321C22.031 17.1746 18.173 21.4144 13.1931 22.0184C12.5078 22.1015 11.8846 21.6129 11.8015 20.9276C11.7186 20.2425 12.2064 19.6203 12.8914 19.537C16.6316 19.0835 19.531 15.8951 19.531 12.0321Z" fill="#8D94A0"/>
</svg>
