<svg width="24" height="24" viewBox="0 0 24 24" fill="none" xmlns="http://www.w3.org/2000/svg">
<path d="M21.443 4.23041L16.5823 3.11024C16.8551 3.52264 17.0012 4.00595 17.0023 4.50045V17.5024C17.0023 18.1656 16.7389 18.8016 16.27 19.2705C15.8011 19.7394 15.1651 20.0028 14.5019 20.0028H9.72121L17.3924 21.7731C18.0383 21.9229 18.7172 21.81 19.2799 21.4592C19.8426 21.1085 20.2429 20.5487 20.3928 19.9028L23.3133 7.23086C23.3888 6.91099 23.4003 6.57932 23.347 6.25499C23.2938 5.93066 23.1768 5.62008 23.003 5.34115C22.8291 5.06223 22.6018 4.82047 22.334 4.62984C22.0663 4.4392 21.7635 4.30345 21.443 4.23041Z" fill="#6D99F1"/>
<path d="M8.8949 7.77589C7.10315 7.77589 5.65065 9.22839 5.65065 11.0201C5.65065 12.8119 7.10315 14.2644 8.8949 14.2644C10.6866 14.2644 12.1391 12.8119 12.1391 11.0201C12.1391 9.22839 10.6866 7.77589 8.8949 7.77589Z" fill="#C6D8FA"/>
<path fill-rule="evenodd" clip-rule="evenodd" d="M17.0124 17.5024V4.5004C17.0124 4.1712 16.9474 3.84524 16.8212 3.54123C16.6949 3.23722 16.5098 2.96113 16.2766 2.72882C16.0433 2.49651 15.7665 2.31254 15.462 2.18747C15.1575 2.06241 14.8312 1.9987 14.5021 2.00002H3.50038C2.83724 2.00002 2.20126 2.26345 1.73234 2.73236C1.26343 3.20128 1 3.83726 1 4.5004V17.5024C1 18.1655 1.26343 18.8015 1.73234 19.2704C1.96453 19.5026 2.24017 19.6868 2.54353 19.8124C2.84689 19.9381 3.17203 20.0028 3.50038 20.0028H14.5121C15.1752 20.0028 15.8112 19.7393 16.2801 19.2704C16.749 18.8015 17.0124 18.1655 17.0124 17.5024ZM4.0004 11.0201C4.0004 8.31698 6.19174 6.12564 8.8949 6.12564C11.5981 6.12564 13.7894 8.31698 13.7894 11.0201C13.7894 13.7233 11.5981 15.9146 8.8949 15.9146C6.19174 15.9146 4.0004 13.7233 4.0004 11.0201Z" fill="#C6D8FA"/>
<path fill-rule="evenodd" clip-rule="evenodd" d="M8.8949 6.12564C6.19174 6.12564 4.0004 8.31698 4.0004 11.0201C4.0004 13.7233 6.19174 15.9146 8.8949 15.9146C11.5981 15.9146 13.7894 13.7233 13.7894 11.0201C13.7894 8.31698 11.5981 6.12564 8.8949 6.12564ZM5.65065 11.0201C5.65065 9.22839 7.10315 7.77589 8.8949 7.77589C10.6866 7.77589 12.1391 9.22839 12.1391 11.0201C12.1391 12.8119 10.6866 14.2644 8.8949 14.2644C7.10315 14.2644 5.65065 12.8119 5.65065 11.0201Z" fill="#6D99F1"/>
</svg>
