<svg width="24" height="24" viewBox="0 0 24 24" fill="none" xmlns="http://www.w3.org/2000/svg">
<g opacity="0.6">
<path d="M12.2 11C12.2 12.7673 10.7673 14.2 9 14.2C7.23269 14.2 5.8 12.7673 5.8 11C5.8 9.23269 7.23269 7.8 9 7.8C10.7673 7.8 12.2 9.23269 12.2 11Z" fill="#8D94A0"/>
<path fill-rule="evenodd" clip-rule="evenodd" d="M3.5 2C2.11929 2 1 3.11929 1 4.5V17.5C1 18.8807 2.11929 20 3.5 20H14.5C15.8807 20 17 18.8807 17 17.5V4.5C17 3.11929 15.8807 2 14.5 2H3.5ZM14 11C14 13.7614 11.7614 16 9 16C6.23858 16 4 13.7614 4 11C4 8.23858 6.23858 6 9 6C11.7614 6 14 8.23858 14 11Z" fill="#8D94A0"/>
</g>
<path d="M16.5777 3.10915C16.8444 3.50678 17 3.98522 17 4.5V17.5C17 18.8807 15.8807 20 14.5 20H9.7226L17.3912 21.7704C18.7366 22.081 20.079 21.2422 20.3895 19.8969L23.3139 7.23009C23.6245 5.88476 22.7857 4.54238 21.4404 4.23178L16.5777 3.10915Z" fill="#8D94A0"/>
</svg>
