<svg width="24" height="24" viewBox="0 0 24 24" fill="none" xmlns="http://www.w3.org/2000/svg">
<path d="M20.4586 9.87447C20.4586 14.5898 16.6361 18.4123 11.9208 18.4123C7.2055 18.4123 3.383 14.5898 3.383 9.87447C3.383 5.15917 7.2055 1.33667 11.9208 1.33667C16.6361 1.33667 20.4586 5.15917 20.4586 9.87447Z" fill="white"/>
<path fill-rule="evenodd" clip-rule="evenodd" d="M11.9208 18.049C16.4355 18.049 20.0953 14.3891 20.0953 9.87447C20.0953 5.35983 16.4355 1.69998 11.9208 1.69998C7.40615 1.69998 3.74631 5.35983 3.74631 9.87447C3.74631 14.3891 7.40615 18.049 11.9208 18.049ZM11.9208 18.4123C16.6361 18.4123 20.4586 14.5898 20.4586 9.87447C20.4586 5.15917 16.6361 1.33667 11.9208 1.33667C7.2055 1.33667 3.383 5.15917 3.383 9.87447C3.383 14.5898 7.2055 18.4123 11.9208 18.4123Z" fill="#E5E7EB"/>
<path d="M15.1575 5.44239C13.3829 5.0268 11.6075 6.12847 11.1919 7.90304L17.6182 9.40801C18.0338 7.63344 16.9321 5.85798 15.1575 5.44239Z" fill="#6D99F1"/>
<path d="M13.6525 11.8686C15.4271 12.2842 17.2026 11.1826 17.6182 9.40801L11.1919 7.90304C10.7763 9.6776 11.8779 11.4531 13.6525 11.8686Z" fill="#E5E7EB"/>
<path d="M7.37754 4.31344C5.92305 5.41173 5.63429 7.48117 6.73259 8.93567L11.9998 4.95839C10.9015 3.5039 8.83203 3.21514 7.37754 4.31344Z" fill="#6D99F1"/>
<path d="M11.3549 9.58066C12.8093 8.48237 13.0981 6.41288 11.9998 4.95839L6.73259 8.93567C7.83088 10.3902 9.90036 10.679 11.3549 9.58066Z" fill="#E5E7EB"/>
<path d="M8.06225 8.70086C6.23967 8.70086 4.76218 10.1784 4.76218 12.0009H11.3623C11.3623 10.1784 9.88484 8.70086 8.06225 8.70086Z" fill="#9C7EEF"/>
<path d="M8.06224 15.301C9.88483 15.301 11.3623 13.8235 11.3623 12.0009H4.76218C4.76218 13.8235 6.23966 15.301 8.06224 15.301Z" fill="#E5E7EB"/>
<path d="M10.9385 9.3095C9.36009 10.2208 8.81929 12.2391 9.73058 13.8175L15.4465 10.5174C14.5352 8.93901 12.5169 8.39821 10.9385 9.3095Z" fill="#FFC107"/>
<path d="M14.2386 15.0254C15.817 14.1141 16.3578 12.0958 15.4465 10.5174L9.73058 13.8175C10.6419 15.3959 12.6602 15.9367 14.2386 15.0254Z" fill="#E5E7EB"/>
<path d="M16.819 9.04981C15.0971 8.45235 13.2169 9.36387 12.6195 11.0857L18.8549 13.2493C19.4524 11.5275 18.5409 9.64727 16.819 9.04981Z" fill="#9C7EEF"/>
<path d="M14.6554 15.2852C16.3772 15.8827 18.2575 14.9712 18.8549 13.2493L12.6195 11.0857C12.022 12.8076 12.9335 14.6878 14.6554 15.2852Z" fill="#E5E7EB"/>
<path d="M5.26953 15.9454C5.26953 15.5292 5.6069 15.1918 6.02306 15.1918H17.5812C17.9973 15.1918 18.3347 15.5292 18.3347 15.9454V21.5647C18.3347 21.9809 17.9973 22.3183 17.5812 22.3183H6.02306C5.6069 22.3183 5.26953 21.9809 5.26953 21.5647V15.9454Z" fill="url(#paint0_linear_12781_25756)"/>
<path d="M6.27803 15.0753C6.27803 15.0159 6.32623 14.9677 6.38568 14.9677H10.8531C10.9125 14.9677 10.9607 15.0159 10.9607 15.0753V18.8054C10.9607 19.6378 10.286 20.3125 9.45364 20.3125H7.7851C6.95277 20.3125 6.27803 19.6378 6.27803 18.8054V15.0753Z" fill="white"/>
<path d="M10.4011 18.1031C10.4011 19.087 9.6034 19.8847 8.61944 19.8847C7.63548 19.8847 6.83783 19.087 6.83783 18.1031C6.83783 17.1191 7.63548 16.3214 8.61944 16.3214C9.6034 16.3214 10.4011 17.1191 10.4011 18.1031Z" fill="#D1D5DB"/>
<path d="M7.26322 17.8637C7.26322 17.805 7.31085 17.7573 7.36959 17.7573H9.86917C9.92791 17.7573 9.97553 17.805 9.97553 17.8637V18.2892C9.97553 18.3479 9.92791 18.3955 9.86917 18.3955H7.36959C7.31084 18.3955 7.26322 18.3479 7.26322 18.2892V17.8637Z" fill="#8D94A0"/>
<g filter="url(#filter0_i_12781_25756)">
<path d="M13.0599 19.3226C13.0599 18.9658 13.3491 18.6767 13.7058 18.6767H16.8276C17.1843 18.6767 17.4735 18.9658 17.4735 19.3226V22.3367H13.0599V19.3226Z" fill="#835EEB"/>
</g>
<defs>
<filter id="filter0_i_12781_25756" x="12.7908" y="18.6767" width="4.68269" height="3.8753" filterUnits="userSpaceOnUse" color-interpolation-filters="sRGB">
<feFlood flood-opacity="0" result="BackgroundImageFix"/>
<feBlend mode="normal" in="SourceGraphic" in2="BackgroundImageFix" result="shape"/>
<feColorMatrix in="SourceAlpha" type="matrix" values="0 0 0 0 0 0 0 0 0 0 0 0 0 0 0 0 0 0 127 0" result="hardAlpha"/>
<feOffset dx="-0.269119" dy="0.215295"/>
<feGaussianBlur stdDeviation="0.403679"/>
<feComposite in2="hardAlpha" operator="arithmetic" k2="-1" k3="1"/>
<feColorMatrix type="matrix" values="0 0 0 0 0 0 0 0 0 0 0 0 0 0 0 0 0 0 0.25 0"/>
<feBlend mode="normal" in2="shape" result="effect1_innerShadow_12781_25756"/>
</filter>
<linearGradient id="paint0_linear_12781_25756" x1="6.11035" y1="3.37655" x2="21.6403" y2="19.1751" gradientUnits="userSpaceOnUse">
<stop stop-color="#8E6CF0"/>
<stop offset="1" stop-color="#CF75F3"/>
</linearGradient>
</defs>
</svg>
