<svg width="24" height="24" viewBox="0 0 24 24" fill="none" xmlns="http://www.w3.org/2000/svg">
<path d="M19.8568 4.85727C19.8568 4.46279 19.5372 4.14317 19.1427 4.14317H4.85727C4.46279 4.14317 4.14317 4.46279 4.14317 4.85727V19.1427C4.14317 19.5372 4.46279 19.8568 4.85727 19.8568H19.1427C19.5372 19.8568 19.8568 19.5372 19.8568 19.1427V4.85727ZM22 19.1427C22 20.7207 20.7207 22 19.1427 22H4.85727C3.27934 22 2 20.7207 2 19.1427V4.85727C2 3.27934 3.27934 2 4.85727 2H19.1427C20.7207 2 22 3.27934 22 4.85727V19.1427Z" fill="#8D94A0"/>
</svg>
