<svg width="24" height="24" viewBox="0 0 24 24" fill="none" xmlns="http://www.w3.org/2000/svg">
<path fill-rule="evenodd" clip-rule="evenodd" d="M20.967 12.362C20.6535 12.3074 20.3312 12.3796 20.0709 12.5626C19.8106 12.7456 19.6337 13.0245 19.579 13.338C19.2677 15.1268 18.3341 16.7479 16.9432 17.915C15.5523 19.0821 13.7937 19.72 11.978 19.716C7.72401 19.716 4.26301 16.255 4.26301 12C4.26301 7.74599 7.72401 4.28499 11.978 4.28499C13.912 4.28499 15.731 4.99899 17.153 6.28899L16.161 7.28099C16.0312 7.41027 15.9399 7.57302 15.8971 7.75114C15.8543 7.92926 15.8618 8.11576 15.9187 8.28988C15.9756 8.46401 16.0797 8.61893 16.2194 8.73741C16.3591 8.85589 16.5289 8.93329 16.71 8.96099L20.922 9.61099C21.0759 9.63471 21.2332 9.6218 21.3811 9.57332C21.5291 9.52484 21.6635 9.44214 21.7735 9.33196C21.8835 9.22177 21.9659 9.0872 22.0142 8.93917C22.0624 8.79113 22.075 8.63382 22.051 8.47999L21.402 4.26899C21.3741 4.08803 21.2966 3.91833 21.1782 3.77873C21.0597 3.63912 20.9049 3.53507 20.7309 3.4781C20.5569 3.42113 20.3705 3.41349 20.1924 3.45601C20.0143 3.49853 19.8515 3.58955 19.722 3.71899L18.85 4.59199C16.9863 2.8496 14.5293 1.88177 11.978 1.88499C6.40101 1.88499 1.86301 6.42299 1.86301 12C1.86301 17.578 6.40101 22.115 11.978 22.115C16.906 22.115 21.096 18.597 21.943 13.75C21.9976 13.4365 21.9254 13.1142 21.7424 12.8539C21.5594 12.5936 21.2805 12.4167 20.967 12.362Z" fill="#8D94A0"/>
</svg>
