<svg width="24" height="24" viewBox="0 0 24 24" fill="none" xmlns="http://www.w3.org/2000/svg">
<path d="M17.0856 3.16406C17.5301 3.16406 17.8912 3.52423 17.8912 3.96875V21.2461C17.8911 21.6905 17.53 22.0518 17.0856 22.0518H3.67151C3.22707 22.0518 2.86695 21.6905 2.86682 21.2461V3.96875C2.86682 3.52423 3.22699 3.16406 3.67151 3.16406H17.0856Z" fill="white"/>
<path fill-rule="evenodd" clip-rule="evenodd" d="M13.3268 1.5C13.7458 1.5 14.0951 1.8002 14.1705 2.19727H17.0856C18.0635 2.19727 18.8571 2.9908 18.8571 3.96875V21.2461C18.8569 22.2239 18.0634 23.0176 17.0856 23.0176H3.67151C2.69364 23.0176 1.90016 22.2239 1.90002 21.2461V3.96875C1.90002 2.9908 2.69356 2.19727 3.67151 2.19727H6.68909C6.76458 1.80029 7.11292 1.50007 7.53186 1.5H13.3268ZM3.67151 3.16406C3.22699 3.16406 2.86682 3.52423 2.86682 3.96875V21.2461C2.86695 21.6905 3.22707 22.0518 3.67151 22.0518H17.0856C17.53 22.0518 17.8911 21.6905 17.8912 21.2461V3.96875C17.8912 3.52423 17.5301 3.16406 17.0856 3.16406H14.1862V3.53906C14.1861 3.6575 14.0897 3.75376 13.9713 3.75391H6.88831C6.76978 3.75391 6.67348 3.65759 6.67346 3.53906V3.16406H3.67151Z" fill="#C6B5F6"/>
<path d="M4.31595 6.31583C4.31595 6.02689 4.55018 5.79266 4.83912 5.79266H7.97815C8.26709 5.79266 8.50133 6.02689 8.50133 6.31583C8.50133 6.60477 8.26709 6.83901 7.97815 6.83901H4.83912C4.55018 6.83901 4.31595 6.60477 4.31595 6.31583Z" fill="#C6B5F6"/>
<path d="M4.31595 8.7573C4.31595 8.46836 4.55018 8.23413 4.83912 8.23413H15.9196C16.2086 8.23413 16.4428 8.46836 16.4428 8.7573C16.4428 9.04624 16.2086 9.28047 15.9196 9.28047H4.83912C4.55018 9.28047 4.31595 9.04624 4.31595 8.7573Z" fill="#C6B5F6"/>
<path d="M4.31595 11.1988C4.31595 10.9098 4.55018 10.6756 4.83912 10.6756H15.9196C16.2086 10.6756 16.4428 10.9098 16.4428 11.1988C16.4428 11.4877 16.2086 11.7219 15.9196 11.7219H4.83912C4.55018 11.7219 4.31595 11.4877 4.31595 11.1988Z" fill="#C6B5F6"/>
<path d="M22.261 21.5425L19.7889 19.0705C20.3711 18.2989 20.7205 17.3427 20.7205 16.3038C20.7205 13.7626 18.6525 11.6951 16.1117 11.6951C13.5704 11.6956 11.503 13.7631 11.503 16.3044C11.503 18.8451 13.5704 20.9131 16.1117 20.9131C17.15 20.9131 18.1067 20.5638 18.8784 19.9816L21.3504 22.4537C21.476 22.5792 21.6407 22.642 21.8054 22.642C21.9702 22.642 22.1349 22.5792 22.261 22.4531C22.5121 22.202 22.5121 21.7942 22.261 21.5425ZM12.7908 16.3044C12.7908 14.473 14.2803 12.9834 16.1117 12.9834C17.9425 12.9834 19.4321 14.473 19.4321 16.3038C19.4321 18.1347 17.9425 19.6242 16.1117 19.6242C14.2803 19.6248 12.7908 18.1352 12.7908 16.3044Z" fill="#9C7EEF"/>
<path d="M16.1129 12.9832C17.9437 12.9832 19.4331 14.4728 19.4332 16.3035C19.4332 18.1344 17.9437 19.6238 16.1129 19.6238C14.2817 19.6242 12.7927 18.1352 12.7926 16.3045C12.7926 14.4732 14.2817 12.9834 16.1129 12.9832Z" fill="#835EEB" fill-opacity="0.2"/>
</svg>
