<svg width="24" height="24" viewBox="0 0 24 24" fill="none" xmlns="http://www.w3.org/2000/svg">
<path d="M21.78 4C22.4538 4 23 4.54598 23 5.21947C23 5.89297 22.4538 6.43894 21.78 6.43895H10.2468L6.61416 18.5511C6.10523 20.2473 3.82022 20.5266 2.91697 19.0031L1.17058 16.0582C0.827061 15.4788 1.01877 14.7301 1.59844 14.3867C2.17805 14.0436 2.92619 14.2351 3.26964 14.8144L4.54264 16.9622L7.99624 5.44918L8.05131 5.2904C8.35418 4.51758 9.10223 4.00015 9.94386 4H21.78Z" fill="#8D94A0"/>
<path d="M19.0263 9.09027C19.4592 8.5744 20.2289 8.50645 20.7452 8.93889C21.2611 9.37163 21.3292 10.141 20.8966 10.657L17.8836 14.2455L20.8839 17.8214C21.3167 18.3374 21.2497 19.1067 20.7335 19.5394C20.2173 19.9721 19.4477 19.9038 19.0146 19.388L16.2918 16.1435L13.5689 19.388C13.136 19.9039 12.3663 19.972 11.8501 19.5394C11.3339 19.1066 11.2668 18.3374 11.6997 17.8214L14.699 14.2455L11.687 10.657C11.2544 10.141 11.3224 9.37161 11.8384 8.93889C12.3547 8.50645 13.1244 8.5744 13.5573 9.09027L16.2918 12.3485L19.0263 9.09027Z" fill="#8D94A0"/>
</svg>
