<svg width="24" height="24" viewBox="0 0 24 24" fill="none" xmlns="http://www.w3.org/2000/svg">
<path fill-rule="evenodd" clip-rule="evenodd" d="M11.5503 9.63626C11.2287 9.84943 11.1425 10.2839 11.3583 10.6037L14.4056 15.1192C15.2894 16.4288 14.0529 18.1269 12.5352 17.688L11.675 17.4392C11.4812 17.3831 11.2784 17.4939 11.2208 17.6874C11.164 17.8784 11.27 18.08 11.4596 18.1415L16.0938 19.6444C16.6641 19.8294 17.2877 19.7433 17.7866 19.4107L20.5988 17.5357C21.5035 16.9325 21.7446 15.7085 21.1364 14.8072L20.0218 13.1556C19.4175 12.26 18.2026 12.0221 17.305 12.6234L16.8527 12.9264C15.9957 13.5006 14.8357 13.2733 14.2587 12.4183L12.5097 9.82666C12.2964 9.51058 11.8682 9.42559 11.5503 9.63626ZM9.58026 11.8036C8.69782 10.496 9.05032 8.7198 10.3652 7.84827C11.6647 6.98694 13.4157 7.33442 14.2878 8.62674L15.8847 10.993L16.1111 10.8413C17.9906 9.58214 20.5344 10.0805 21.7999 11.9557L22.9145 13.6073C24.188 15.4944 23.683 18.0575 21.7888 19.3204L18.9765 21.1955C17.932 21.8919 16.6262 22.0722 15.432 21.6849L10.7979 20.1819C9.50092 19.7613 8.77618 18.383 9.16471 17.0761C9.52582 15.8614 10.7245 15.123 11.9445 15.3069L9.58026 11.8036Z" fill="#8D94A0"/>
<path fill-rule="evenodd" clip-rule="evenodd" d="M4.79949 1C5.06471 0.999982 5.31907 1.10532 5.50662 1.29284L9.00711 4.79284C9.39766 5.18334 9.3977 5.81651 9.00721 6.20706C8.61671 6.59761 7.98354 6.59765 7.59299 6.20716L5.79956 4.41398V15.7862L7.59299 13.993C7.98354 13.6025 8.61671 13.6026 9.00721 13.9931C9.3977 14.3837 9.39766 15.0169 9.00711 15.4074L5.50662 18.9074C5.31907 19.0949 5.06471 19.2002 4.79949 19.2002C4.53428 19.2002 4.27993 19.0948 4.09241 18.9073L0.592893 15.4073C0.202396 15.0167 0.20244 14.3835 0.592991 13.993C0.983543 13.6025 1.61671 13.6026 2.0072 13.9931L3.79956 15.7857V4.41445L2.0072 6.20706C1.61671 6.59761 0.983543 6.59765 0.592991 6.20716C0.20244 5.81666 0.202396 5.18349 0.592893 4.79294L4.09241 1.29294C4.27993 1.10539 4.53428 1.00002 4.79949 1Z" fill="#8D94A0"/>
</svg>
