<svg width="24" height="24" viewBox="0 0 24 24" fill="none" xmlns="http://www.w3.org/2000/svg">
<path d="M9.76972 21.7523L10.8848 8.70187C10.9132 8.33332 11.225 8.04037 11.603 8.04037H20.3631C20.7411 8.04037 21.053 8.32387 21.0813 8.70187L22.1964 21.7523C22.1964 21.8468 22.1303 21.9318 22.0358 21.9318H18.1802C18.1046 21.9318 18.0479 21.8846 18.029 21.8184L16.139 15.4491C16.0918 15.2979 15.8744 15.2979 15.8272 15.4491L13.9372 21.8184C13.9183 21.8846 13.8521 21.9318 13.786 21.9318H9.93037C9.83587 21.9318 9.76027 21.8468 9.76972 21.7523Z" fill="#8D94A0"/>
<path d="M4.29088 22.067C4.22562 22.0681 4.17972 22.0298 4.15716 21.9517C4.09481 21.7353 4.03379 21.5184 3.97144 21.302C3.7621 20.5747 3.29514 20.1029 2.57029 19.8886C2.35459 19.8248 2.13808 19.7645 1.92185 19.7025C1.8327 19.677 1.7929 19.6345 1.79397 19.5656C1.79503 19.4987 1.8335 19.458 1.9192 19.4333C2.17125 19.3602 2.42596 19.2961 2.67429 19.2124C3.32725 18.9923 3.75176 18.5441 3.95552 17.8867C4.02556 17.661 4.08606 17.4324 4.15106 17.2054C4.17627 17.1188 4.22243 17.077 4.28982 17.0776C4.35695 17.0781 4.40152 17.1201 4.42673 17.2073C4.49783 17.4534 4.55965 17.7025 4.64137 17.9452C4.86848 18.6196 5.33173 19.0497 6.01201 19.2475C6.22798 19.3102 6.44448 19.3711 6.66045 19.4335C6.74588 19.4583 6.78356 19.5008 6.78356 19.568C6.78356 19.635 6.74562 19.6768 6.65965 19.7017C6.40787 19.7751 6.15263 19.8381 5.90429 19.9224C5.23409 20.1494 4.80613 20.6127 4.60847 21.2916C4.54479 21.5101 4.48404 21.7292 4.42142 21.9479C4.39834 22.0282 4.35562 22.0662 4.29062 22.0673L4.29088 22.067Z" fill="#8D94A0"/>
<path d="M20.4558 6.15769C20.4014 6.15857 20.3632 6.12668 20.3444 6.06155C20.2924 5.88124 20.2415 5.70048 20.1896 5.52017C20.0151 4.91411 19.626 4.52093 19.022 4.34239C18.8422 4.28922 18.6618 4.23894 18.4816 4.18733C18.4073 4.16606 18.3741 4.13062 18.375 4.07325C18.3759 4.01743 18.408 3.98353 18.4794 3.96293C18.6894 3.90202 18.9017 3.84863 19.1086 3.77886C19.6528 3.59544 20.0065 3.22197 20.1763 2.67417C20.2347 2.4861 20.2851 2.2956 20.3393 2.10643C20.3603 2.03422 20.3987 1.99944 20.4549 1.99988C20.5108 2.00033 20.548 2.03532 20.569 2.10798C20.6283 2.3131 20.6798 2.52066 20.7479 2.7229C20.9371 3.28488 21.3232 3.64329 21.8901 3.8081C22.07 3.86037 22.2505 3.9111 22.4304 3.96316C22.5016 3.98376 22.533 4.0192 22.533 4.07524C22.533 4.13106 22.5014 4.16584 22.4298 4.18666C22.22 4.2478 22.0073 4.3003 21.8003 4.37052C21.2418 4.55969 20.8852 4.94579 20.7205 5.51153C20.6674 5.69362 20.6168 5.87615 20.5646 6.05845C20.5453 6.12535 20.5097 6.15702 20.4556 6.15791L20.4558 6.15769Z" fill="#8D94A0"/>
<path fill-rule="evenodd" clip-rule="evenodd" d="M9.53351 7.91754C9.59966 7.18044 10.2139 6.6229 10.9416 6.6229H18.5015L15.7232 3.00357C15.3736 2.54997 14.8349 2.28537 14.268 2.28537H12.5103C12.4158 2.28537 12.3402 2.36097 12.3307 2.45547C12.2457 3.55166 11.329 4.40216 10.2139 4.40216C9.09881 4.40216 8.19162 3.55166 8.10657 2.45547C8.10657 2.36097 8.02152 2.28537 7.92702 2.28537H6.16932C5.60233 2.28537 5.06368 2.54997 4.71403 3.00357L1.83179 6.7552C1.77509 6.8308 1.78454 6.9253 1.85069 6.99145L4.43998 9.58073C4.51558 9.65633 4.62898 9.65633 4.69513 9.58073L5.27158 9.00429V15.6476C5.27158 16.0823 5.62122 16.4225 6.04647 16.4225H8.79642L9.52406 7.90809L9.53351 7.91754Z" fill="#8D94A0"/>
</svg>
