<svg width="24" height="24" viewBox="0 0 24 24" fill="none" xmlns="http://www.w3.org/2000/svg">
<path d="M21.1 4.3L12.4 0.7C12.2 0.6 11.9 0.6 11.6 0.7L2.9 4.3C2.5 4.4 2.3 4.8 2.3 5.2V13.5C2.3 17.3 7.1 21 11.6 23.3C11.9 23.4 12.2 23.4 12.5 23.3C17 21 21.8 17.3 21.8 13.5V5.2C21.7 4.8 21.5 4.4 21.1 4.3ZM17.4 9.8L11.6 15.6C11.4 15.8 11.1 15.9 10.9 15.9C10.7 15.9 10.4 15.8 10.2 15.6L6.6 12C6.2 11.6 6.2 10.9 6.6 10.5C7 10.1 7.7 10.1 8.1 10.5L10.9 13.3L16 8.3C16.4 7.9 17.1 7.9 17.5 8.3C17.9 8.7 17.9 9.4 17.4 9.8Z" fill="#8D94A0"/>
</svg>
