<svg width="24" height="24" viewBox="0 0 24 24" fill="none" xmlns="http://www.w3.org/2000/svg">
<path fill-rule="evenodd" clip-rule="evenodd" d="M4.05002 2.5C4.05002 2.08579 4.3858 1.75 4.80002 1.75C5.21423 1.75 5.55002 2.08579 5.55002 2.5V4.16292C6.88191 3.06681 8.48 2.32121 10.1982 2.01129C12.5486 1.58734 14.9733 2.00579 17.0456 3.19306C19.1179 4.38032 20.7052 6.26033 21.5282 8.50239C22.3513 10.7444 22.3573 13.2049 21.5453 15.451C20.7333 17.697 19.1553 19.5848 17.0888 20.7823C15.0223 21.9797 12.5998 22.41 10.2473 21.9976C7.89483 21.5852 5.76314 20.3565 4.22721 18.5275C2.83674 16.8718 2.01517 14.8201 1.87235 12.6744C1.8417 12.2138 2.21847 11.8483 2.66662 11.8484C3.12033 11.8484 3.47463 12.2151 3.50829 12.653C3.64426 14.4219 4.33009 16.1103 5.47797 17.4771C6.76674 19.0118 8.55541 20.0428 10.5293 20.3889C12.5032 20.7349 14.536 20.3738 16.2699 19.3691C18.0039 18.3643 19.328 16.7803 20.0093 14.8957C20.6906 13.011 20.6856 10.9465 19.995 9.06522C19.3044 7.18395 17.9725 5.60646 16.2337 4.61025C14.4948 3.61404 12.4603 3.26291 10.4881 3.61865C9.08545 3.87166 7.77816 4.47071 6.67916 5.35H8.40002C8.81423 5.35 9.15002 5.68579 9.15002 6.1C9.15002 6.51421 8.81423 6.85 8.40002 6.85H4.80002C4.3858 6.85 4.05002 6.51421 4.05002 6.1V2.5ZM16.2891 11.9063C16.2891 13.7656 15.4297 14.8125 14.0156 14.8125C12.5977 14.8125 11.7422 13.7578 11.7422 11.9063C11.7422 10.0586 12.6055 9 14.0156 9C15.4258 9 16.2891 10.0586 16.2891 11.9063ZM14.0156 9.96094C13.3633 9.96484 12.9453 10.6133 12.9453 11.9063C12.9375 13.2109 13.3594 13.8438 14.0156 13.8438C14.6719 13.8438 15.0898 13.2109 15.0859 11.9063C15.0898 10.6133 14.668 9.96484 14.0156 9.96094ZM9.39844 9.07813H10.5078V14.7344H9.32813V10.1953H9.29688L8 11.0078V9.96875L9.39844 9.07813Z" fill="#8D94A0"/>
</svg>
