<svg width="24" height="24" viewBox="0 0 24 24" fill="none" xmlns="http://www.w3.org/2000/svg">
<path fill-rule="evenodd" clip-rule="evenodd" d="M18.8076 2.5C20.5565 2.5 21.9742 3.91776 21.9742 5.66664V13.9486C21.9742 15.6975 20.5565 17.1153 18.8076 17.1153H16.6372L17.9484 19.7377C18.2489 20.3392 18.0046 21.0707 17.4031 21.3714C16.8016 21.6719 16.0701 21.4277 15.7694 20.8262L13.9139 17.1153H10.0603L8.20483 20.8262C7.90408 21.4277 7.17265 21.6719 6.57108 21.3714C5.96957 21.0707 5.72534 20.3392 6.02586 19.7377L7.33705 17.1153H5.16664C3.41776 17.1153 2 15.6975 2 13.9486V5.66664C2 3.91776 3.41775 2.5 5.16664 2.5H18.8076ZM5.16664 4.93588C4.76306 4.93588 4.43588 5.26305 4.43588 5.66664V13.9486C4.43588 14.3522 4.76305 14.6794 5.16664 14.6794H18.8076C19.2112 14.6794 19.5383 14.3522 19.5383 13.9486V5.66664C19.5383 5.26305 19.2112 4.93588 18.8076 4.93588H5.16664Z" fill="#8D94A0"/>
<path d="M6.141 7.32304C6.141 6.94636 6.44636 6.641 6.82304 6.641H7.89483C8.27151 6.641 8.57688 6.94636 8.57688 7.32304V8.39483C8.57688 8.77151 8.27151 9.07688 7.89483 9.07688H6.82304C6.44636 9.07688 6.141 8.77151 6.141 8.39483V7.32304Z" fill="#8D94A0"/>
<path d="M6.141 11.2205C6.141 10.8438 6.44636 10.5384 6.82304 10.5384H7.89483C8.27151 10.5384 8.57688 10.8438 8.57688 11.2205V12.2922C8.57688 12.6689 8.27151 12.9743 7.89483 12.9743H6.82304C6.44636 12.9743 6.141 12.6689 6.141 12.2922V11.2205Z" fill="#8D94A0"/>
</svg>
