<svg width="24" height="24" viewBox="0 0 24 24" fill="none" xmlns="http://www.w3.org/2000/svg">
<path d="M1 16.5878V8.79387C1 8.36343 1.34894 8.01448 1.77939 8.01448H4.9638C5.17051 8.01448 5.36875 7.93237 5.51491 7.78621L10.9706 2.33049C11.4616 1.8395 12.3011 2.18723 12.3011 2.8816V22.1838C12.3011 22.8675 11.4836 23.2199 10.9866 22.7505L5.51191 17.5799C5.36723 17.4433 5.17577 17.3672 4.97676 17.3672H1.77939C1.34894 17.3672 1 17.0182 1 16.5878Z" fill="#8D94A0"/>
<path fill-rule="evenodd" clip-rule="evenodd" d="M17.5848 12.4625C17.5848 11.174 16.7938 10.068 15.6673 9.60777C15.1783 9.40799 14.9438 8.8496 15.1436 8.36055C15.3433 7.87151 15.9017 7.63702 16.3908 7.8368C18.2118 8.58071 19.4979 10.3703 19.4979 12.4625C19.4979 14.5548 18.2118 16.3444 16.3908 17.0883C15.9017 17.2881 15.3433 17.0536 15.1436 16.5645C14.9438 16.0755 15.1783 15.5171 15.6673 15.3173C16.7938 14.8571 17.5848 13.7511 17.5848 12.4625Z" fill="#8D94A0"/>
<path fill-rule="evenodd" clip-rule="evenodd" d="M22.0435 12.4244C22.0435 9.62784 20.3391 7.23521 17.9242 6.24127C17.4357 6.04021 17.2027 5.48119 17.4038 4.99268C17.6048 4.50417 18.1638 4.27115 18.6523 4.47221C21.7656 5.75358 23.9566 8.83259 23.9566 12.4244C23.9566 16.0162 21.7656 19.0952 18.6523 20.3765C18.1638 20.5776 17.6048 20.3446 17.4038 19.8561C17.2027 19.3676 17.4357 18.8085 17.9242 18.6075C20.3391 17.6135 22.0435 15.2209 22.0435 12.4244Z" fill="#8D94A0"/>
</svg>
