<svg width="24" height="24" viewBox="0 0 24 24" fill="none" xmlns="http://www.w3.org/2000/svg">
<path fill-rule="evenodd" clip-rule="evenodd" d="M19.5 22.0005C19.7652 22.0005 20.02 21.895 20.2075 21.7075C20.3951 21.52 20.5005 21.2652 20.5005 21V9.49951H15.4995C14.1219 9.49921 13.0008 8.37807 13.0005 7.00049V1.99951H4.5C4.23481 1.99953 3.98 2.10496 3.79248 2.29248C3.60497 2.48001 3.49951 2.7348 3.49951 3V21C3.49952 21.2652 3.60496 21.52 3.79248 21.7075C3.98 21.895 4.23481 22.0005 4.5 22.0005H19.5ZM12.2007 18.75C11.6484 18.75 11.2002 18.3018 11.2002 17.7495V10.7505C11.2002 10.1982 11.6484 9.75 12.2007 9.75C12.7527 9.75033 13.1997 10.1984 13.1997 10.7505V17.7495C13.1997 18.3016 12.7527 18.7497 12.2007 18.75ZM8.2002 16.7505C7.64791 16.7505 7.19971 16.3023 7.19971 15.75V12.2505C7.19971 11.6982 7.64791 11.25 8.2002 11.25C8.75242 11.2501 9.20068 11.6982 9.20068 12.2505V15.75C9.20068 16.3022 8.75242 16.7504 8.2002 16.7505ZM15.7002 16.7505C15.1479 16.7505 14.6997 16.3023 14.6997 15.75V13.7505C14.6997 13.1982 15.1479 12.75 15.7002 12.75C16.2524 12.7501 16.7007 13.1982 16.7007 13.7505V15.75C16.7007 16.3022 16.2524 16.7504 15.7002 16.7505Z" fill="#8D94A0"/>
<path d="M14.5005 1.99951V7.00049C14.5006 7.26551 14.6061 7.51913 14.7935 7.70654C14.9809 7.89395 15.2345 7.99937 15.4995 7.99951H20.5005L14.5005 1.99951Z" fill="#8D94A0"/>
</svg>
