<svg width="24" height="24" viewBox="0 0 24 24" fill="none" xmlns="http://www.w3.org/2000/svg">
<path d="M16.8944 5.55279C16.6474 5.05882 16.0467 4.85859 15.5528 5.10558C15.0588 5.35257 14.8586 5.95324 15.1055 6.44722L18.132 12.5001L15.1056 18.5528C14.8586 19.0468 15.0588 19.6474 15.5528 19.8944C16.0468 20.1414 16.6475 19.9412 16.8945 19.4472L19.25 14.7361L21.6055 19.4472C21.8525 19.9412 22.4532 20.1414 22.9472 19.8944C23.4412 19.6474 23.6414 19.0468 23.3944 18.5528L20.368 12.5001L23.3945 6.44722C23.6414 5.95324 23.4412 5.35257 22.9472 5.10558C22.4533 4.85859 21.8526 5.05882 21.6056 5.55279L19.25 10.264L16.8944 5.55279Z" fill="#8D94A0"/>
<path d="M1 16.4871V8.69323C1 8.26278 1.34894 7.91384 1.77939 7.91384H4.9638C5.17051 7.91384 5.36875 7.83172 5.51491 7.68556L10.9706 2.22984C11.4616 1.73885 12.3011 2.08659 12.3011 2.78095V22.0832C12.3011 22.7669 11.4836 23.1192 10.9866 22.6498L5.51191 17.4793C5.36723 17.3426 5.17577 17.2665 4.97676 17.2665H1.77939C1.34894 17.2665 1 16.9176 1 16.4871Z" fill="#8D94A0"/>
</svg>
