<svg width="24" height="24" viewBox="0 0 24 24" fill="none" xmlns="http://www.w3.org/2000/svg">
<path fill-rule="evenodd" clip-rule="evenodd" d="M16.517 2.14999L6.035 7.53699H2.921C2.351 7.53699 1.888 7.99999 1.888 8.56999V15.43C1.888 16 2.351 16.463 2.921 16.463H6.035L16.517 21.85C16.6695 21.9283 16.8395 21.9662 17.0109 21.9598C17.1822 21.9535 17.349 21.9033 17.4953 21.8139C17.6416 21.7245 17.7624 21.5991 17.8463 21.4495C17.9301 21.3 17.9741 21.1314 17.974 20.96V3.03999C17.9741 2.86856 17.9301 2.69999 17.8463 2.55045C17.7624 2.40091 17.6416 2.27544 17.4953 2.18608C17.349 2.09671 17.1822 2.04646 17.0109 2.04014C16.8395 2.03382 16.6695 2.07165 16.517 2.14999ZM21.236 9.16699H19.28V14.833H21.235C21.959 14.833 22.545 14.246 22.545 13.522V10.479C22.545 9.75399 21.959 9.16699 21.235 9.16699" fill="#8D94A0"/>
</svg>
