<svg width="24" height="24" viewBox="0 0 24 24" fill="none" xmlns="http://www.w3.org/2000/svg">
<path fill-rule="evenodd" clip-rule="evenodd" d="M21.21 16.105L19.677 15.338L13.565 18.394C13.0789 18.6361 12.5431 18.7618 12 18.761C11.4569 18.7616 10.9211 18.636 10.435 18.394L4.32298 15.338L2.78898 16.105C2.62257 16.1879 2.48258 16.3156 2.38473 16.4737C2.28688 16.6318 2.23505 16.8141 2.23505 17C2.23505 17.1859 2.28688 17.3682 2.38473 17.5263C2.48258 17.6844 2.62257 17.812 2.78898 17.895L11.106 22.052C11.3836 22.1911 11.6899 22.2635 12.0005 22.2635C12.311 22.2635 12.6173 22.1911 12.895 22.052L21.211 17.894C21.3771 17.8109 21.5169 17.6833 21.6145 17.5253C21.7122 17.3673 21.7639 17.1852 21.7639 16.9995C21.7639 16.8137 21.7122 16.6317 21.6145 16.4737C21.5169 16.3157 21.3771 16.188 21.211 16.105" fill="#8D94A0"/>
<path fill-rule="evenodd" clip-rule="evenodd" d="M21.21 11.105L19.677 10.338L13.565 13.394C13.0789 13.6361 12.5431 13.7618 12 13.761C11.4569 13.7616 10.9211 13.636 10.435 13.394L4.32298 10.338L2.78898 11.105C2.62257 11.1879 2.48258 11.3156 2.38473 11.4737C2.28688 11.6318 2.23505 11.8141 2.23505 12C2.23505 12.1859 2.28688 12.3682 2.38473 12.5263C2.48258 12.6844 2.62257 12.812 2.78898 12.895L11.106 17.052C11.3836 17.1911 11.6899 17.2635 12.0005 17.2635C12.311 17.2635 12.6173 17.1911 12.895 17.052L21.211 12.894C21.3771 12.8109 21.5169 12.6833 21.6145 12.5253C21.7122 12.3673 21.7639 12.1852 21.7639 11.9995C21.7639 11.8137 21.7122 11.6317 21.6145 11.4737C21.5169 11.3157 21.3771 11.188 21.211 11.105" fill="#8D94A0"/>
<path fill-rule="evenodd" clip-rule="evenodd" d="M11.106 12.053L2.78997 7.89399C2.62409 7.81085 2.48461 7.6832 2.38714 7.52531C2.28966 7.36743 2.23804 7.18554 2.23804 6.99999C2.23804 6.81444 2.28966 6.63255 2.38714 6.47466C2.48461 6.31678 2.62409 6.18913 2.78997 6.10599L11.106 1.94799C11.3836 1.80888 11.6899 1.73645 12.0005 1.73645C12.311 1.73645 12.6173 1.80888 12.895 1.94799L21.211 6.10599C21.3771 6.18903 21.5168 6.3167 21.6145 6.47469C21.7122 6.63268 21.7639 6.81475 21.7639 7.00049C21.7639 7.18623 21.7122 7.3683 21.6145 7.52629C21.5168 7.68428 21.3771 7.81195 21.211 7.89499L12.895 12.053C12.617 12.1917 12.3106 12.2639 12 12.2639C11.6893 12.2639 11.3829 12.1917 11.105 12.053" fill="#8D94A0"/>
</svg>
