<svg width="20" height="20" viewBox="0 0 20 20" fill="none" xmlns="http://www.w3.org/2000/svg">
<path fill-rule="evenodd" clip-rule="evenodd" d="M10.9612 1.8475L12.9004 5.77667C13.0562 6.0925 13.3579 6.31167 13.7071 6.3625L18.0429 6.9925C18.9212 7.12 19.2729 8.20083 18.6362 8.82L15.4987 11.8783C15.3744 11.9996 15.2814 12.1493 15.2277 12.3145C15.1739 12.4797 15.1612 12.6554 15.1904 12.8267L15.9312 17.145C16.0812 18.0208 15.1629 18.6875 14.3771 18.275L10.4987 16.2358C10.3451 16.155 10.174 16.1127 10.0004 16.1127C9.82677 16.1127 9.65573 16.155 9.50207 16.2358L5.62374 18.275C4.83707 18.6875 3.91874 18.0208 4.06874 17.145L4.80957 12.8267C4.83875 12.6554 4.82593 12.4797 4.77222 12.3145C4.71852 12.1493 4.62553 11.9997 4.50124 11.8783L1.36374 8.82C0.727907 8.20083 1.07874 7.12 1.95791 6.9925L6.29291 6.3625C6.64207 6.31167 6.94457 6.0925 7.10041 5.77667L9.03874 1.8475C9.43207 1.05083 10.5679 1.05083 10.9612 1.8475Z" fill="#9C7EEF"/>
<path opacity="0.35" d="M7.25694 7.96004L5.3463 8.29281C5.05812 8.34301 5.00484 8.73384 5.26906 8.85935L10.04 11.1256C10.2581 11.2292 10.503 11.0458 10.465 10.8074L9.59034 5.32333C9.54399 5.03272 9.15047 4.97563 9.02346 5.2411L7.98742 7.40647C7.8478 7.69829 7.57564 7.90453 7.25694 7.96004Z" fill="white"/>
</svg>
