<svg width="24" height="24" viewBox="0 0 24 24" fill="none" xmlns="http://www.w3.org/2000/svg">
<path fill-rule="evenodd" clip-rule="evenodd" d="M13.154 2.217L15.481 6.932C15.668 7.311 16.03 7.574 16.449 7.635L21.652 8.391C22.706 8.544 23.128 9.841 22.364 10.584L18.599 14.254C18.4498 14.3995 18.3382 14.5792 18.2737 14.7774C18.2092 14.9756 18.1939 15.1865 18.229 15.392L19.118 20.574C19.298 21.625 18.196 22.425 17.253 21.93L12.599 19.483C12.4146 19.386 12.2094 19.3352 12.001 19.3352C11.7926 19.3352 11.5874 19.386 11.403 19.483L6.749 21.93C5.805 22.425 4.703 21.625 4.883 20.574L5.772 15.392C5.80701 15.1865 5.79163 14.9756 5.72719 14.7774C5.66274 14.5792 5.55115 14.3996 5.402 14.254L1.637 10.584C0.874004 9.841 1.295 8.544 2.35 8.391L7.552 7.635C7.971 7.574 8.334 7.311 8.521 6.932L10.847 2.217C11.319 1.261 12.682 1.261 13.154 2.217Z" fill="#8D94A0"/>
</svg>
