<svg width="24" height="24" viewBox="0 0 24 24" fill="none" xmlns="http://www.w3.org/2000/svg">
<path d="M16.8149 12.0001C16.8149 14.6592 14.6592 16.8149 12.0001 16.8149C9.34091 16.8149 7.18524 14.6592 7.18524 12.0001C7.18524 9.34091 9.34091 7.18524 12.0001 7.18524C14.6592 7.18524 16.8149 9.34091 16.8149 12.0001Z" fill="#8D94A0"/>
<path d="M10.8887 3.11112C10.8887 2.49746 11.3862 2 11.9998 2C12.6135 2 13.1109 2.49746 13.1109 3.11112V4.5926C13.1109 5.20626 12.6135 5.70372 11.9998 5.70372C11.3862 5.70372 10.8887 5.20626 10.8887 4.5926V3.11112Z" fill="#8D94A0"/>
<path d="M10.8887 19.4074C10.8887 18.7937 11.3862 18.2963 11.9998 18.2963C12.6135 18.2963 13.1109 18.7937 13.1109 19.4074V20.8889C13.1109 21.5025 12.6135 22 11.9998 22C11.3862 22 10.8887 21.5025 10.8887 20.8889V19.4074Z" fill="#8D94A0"/>
<path d="M3.11112 13.1114C2.49746 13.1114 2 12.6139 2 12.0002C2 11.3866 2.49746 10.8891 3.11112 10.8891H4.5926C5.20626 10.8891 5.70372 11.3866 5.70372 12.0002C5.70372 12.6139 5.20626 13.1114 4.5926 13.1114H3.11112Z" fill="#8D94A0"/>
<path d="M19.4074 13.1114C18.7937 13.1114 18.2963 12.6139 18.2963 12.0002C18.2963 11.3866 18.7937 10.8891 19.4074 10.8891H20.8889C21.5025 10.8891 22 11.3866 22 12.0002C22 12.6139 21.5025 13.1114 20.8889 13.1114H19.4074Z" fill="#8D94A0"/>
<path d="M4.92891 6.50053C4.495 6.06662 4.495 5.3631 4.92891 4.92918C5.36283 4.49526 6.06635 4.49526 6.50027 4.92918L7.54784 5.97675C7.98176 6.41067 7.98176 7.11419 7.54784 7.5481C7.11392 7.98202 6.4104 7.98202 5.97648 7.5481L4.92891 6.50053Z" fill="#8D94A0"/>
<path d="M16.4524 18.0237C16.0185 17.5898 16.0185 16.8862 16.4524 16.4523C16.8863 16.0184 17.5898 16.0184 18.0237 16.4523L19.0713 17.4999C19.5052 17.9338 19.5052 18.6373 19.0713 19.0713C18.6374 19.5052 17.9339 19.5052 17.5 19.0713L16.4524 18.0237Z" fill="#8D94A0"/>
<path d="M6.50053 19.0712C6.06662 19.5051 5.3631 19.5051 4.92918 19.0712C4.49526 18.6372 4.49526 17.9337 4.92918 17.4998L5.97675 16.4522C6.41067 16.0183 7.11419 16.0183 7.5481 16.4522C7.98202 16.8861 7.98202 17.5897 7.5481 18.0236L6.50053 19.0712Z" fill="#8D94A0"/>
<path d="M18.0237 7.54768C17.5898 7.9816 16.8862 7.9816 16.4523 7.54768C16.0184 7.11376 16.0184 6.41024 16.4523 5.97632L17.4999 4.92875C17.9338 4.49483 18.6373 4.49483 19.0713 4.92875C19.5052 5.36267 19.5052 6.06619 19.0713 6.50011L18.0237 7.54768Z" fill="#8D94A0"/>
</svg>
