<svg width="24" height="24" viewBox="0 0 24 24" fill="none" xmlns="http://www.w3.org/2000/svg">
<path d="M16.8816 1.7041C17.1669 1.53938 17.5317 1.63713 17.6965 1.92243L21.92 9.23779C22.0847 9.52309 21.987 9.88789 21.7017 10.0526L19.1982 11.498C18.9129 11.6627 18.5481 11.565 18.3833 11.2797L14.1598 3.96431C13.9951 3.67901 14.0929 3.31421 14.3781 3.1495L16.8816 1.7041Z" fill="#8D94A0"/>
<path d="M13.8448 15.5127C13.8448 16.7489 12.8427 17.7511 11.6065 17.7511C10.3703 17.7511 9.36812 16.7489 9.36812 15.5127C9.36812 14.2765 10.3703 13.2744 11.6065 13.2744C12.8427 13.2744 13.8448 14.2765 13.8448 15.5127Z" fill="#8D94A0"/>
<path d="M8.94937 17.6835C9.41174 18.249 10.051 18.6635 10.7827 18.844L7.75773 22.0428C7.35385 22.4696 6.68037 22.489 6.2533 22.0853C5.82628 21.6814 5.80792 21.0071 6.21172 20.5799L8.94937 17.6835Z" fill="#8D94A0"/>
<path d="M16.9336 20.5799C17.3373 21.0069 17.3186 21.6804 16.8921 22.0844C16.4649 22.4882 15.7906 22.4699 15.3867 22.0428L12.374 18.8563C13.1123 18.6875 13.7592 18.2813 14.2309 17.7213L16.9336 20.5799Z" fill="#8D94A0"/>
<path d="M12.928 4.70524C13.053 4.6182 13.2253 4.6557 13.3003 4.78556L17.3128 11.7341C17.3874 11.8641 17.3328 12.0315 17.1947 12.096L14.3313 13.4275C13.7042 12.6095 12.7172 12.082 11.6069 12.0819C9.71183 12.0819 8.17562 13.6181 8.17562 15.5131C8.17565 15.7676 8.20432 16.0154 8.25689 16.254L6.88003 16.8957C6.75931 16.9518 6.63559 16.9951 6.51149 17.0317C6.12366 17.1939 5.69942 17.2874 5.25464 17.2907C3.44493 17.3036 1.98744 15.8573 2.00008 14.0626C2.00819 12.9621 2.56817 11.9869 3.41663 11.393C3.47939 11.3395 3.54536 11.2881 3.61413 11.2399L12.928 4.70524Z" fill="#8D94A0"/>
</svg>
