<svg width="24" height="24" viewBox="0 0 24 24" fill="none" xmlns="http://www.w3.org/2000/svg">
<g clip-path="url(#clip0_20504_64)">
<path d="M18.2002 9.34961H16.2998V7.7002H12.9502V16.2998H14.9004V18.2002H9.09961V16.2998H11.0498V7.7002H7.7002V9.34961H5.7998V5.7998H18.2002V9.34961Z" fill="#8D94A0"/>
<path fill-rule="evenodd" clip-rule="evenodd" d="M19.0283 21.8623C19.035 21.9085 19.0406 21.9547 19.0498 22H4.9502C4.71858 23.1411 3.70949 24 2.5 24C1.11929 24 0 22.8807 0 21.5C0 20.2428 0.928327 19.2044 2.13672 19.0283C2.09084 19.035 2.04503 19.0407 2 19.0498V4.94922C0.858955 4.71753 0 3.70943 0 2.5C0 1.11929 1.11929 0 2.5 0C3.88071 0 5 1.11929 5 2.5C5 2.32878 4.98298 2.16154 4.9502 2H19.0498C19.017 2.16154 19 2.32878 19 2.5C19 1.11929 20.1193 0 21.5 0C22.8807 0 24 1.11929 24 2.5C24 3.70943 23.141 4.71753 22 4.94922V19.0498C21.9547 19.0406 21.9085 19.035 21.8623 19.0283C23.0712 19.204 24 20.2424 24 21.5C24 22.8807 22.8807 24 21.5 24C20.2424 24 19.204 23.0712 19.0283 21.8623ZM2.5 20.7998C2.1134 20.7998 1.7998 21.1134 1.7998 21.5C1.7998 21.8866 2.1134 22.2002 2.5 22.2002C2.8866 22.2002 3.2002 21.8866 3.2002 21.5C3.2002 21.1134 2.8866 20.7998 2.5 20.7998ZM21.5 20.7998C21.1134 20.7998 20.7998 21.1134 20.7998 21.5C20.7998 21.8866 21.1134 22.2002 21.5 22.2002C21.8866 22.2002 22.2002 21.8866 22.2002 21.5C22.2002 21.1134 21.8866 20.7998 21.5 20.7998ZM4.9873 21.7559C4.97908 21.8368 4.96694 21.9166 4.95117 21.9951C4.96706 21.916 4.97912 21.8355 4.9873 21.7539V21.7559ZM4.49609 4C4.35464 4.18794 4.18794 4.35464 4 4.49609V19.5029C3.99459 19.4989 3.98884 19.4952 3.9834 19.4912C4.17816 19.6353 4.35045 19.8065 4.49609 20H19.5039C19.6494 19.8067 19.8211 19.6352 20.0156 19.4912C20.0104 19.4951 20.0052 19.499 20 19.5029V4.49609C19.8121 4.35464 19.6454 4.18794 19.5039 4H4.49609ZM2.5 1.7998C2.1134 1.7998 1.7998 2.1134 1.7998 2.5C1.7998 2.8866 2.1134 3.2002 2.5 3.2002C2.8866 3.2002 3.2002 2.8866 3.2002 2.5C3.2002 2.1134 2.8866 1.7998 2.5 1.7998ZM21.5 1.7998C21.1134 1.7998 20.7998 2.1134 20.7998 2.5C20.7998 2.8866 21.1134 3.2002 21.5 3.2002C21.8866 3.2002 22.2002 2.8866 22.2002 2.5C22.2002 2.1134 21.8866 1.7998 21.5 1.7998ZM19.0127 21.7559V21.7539C19.0164 21.7904 19.0231 21.8263 19.0283 21.8623C19.0232 21.8269 19.0163 21.7917 19.0127 21.7559Z" fill="#8D94A0"/>
</g>
<defs>
<clipPath id="clip0_20504_64">
<rect width="24" height="24" fill="white"/>
</clipPath>
</defs>
</svg>
