<svg width="24" height="24" viewBox="0 0 24 24" fill="none" xmlns="http://www.w3.org/2000/svg">
<path fill-rule="evenodd" clip-rule="evenodd" d="M3.904 10.205C3.39903 10.205 2.91474 10.4056 2.55767 10.7627C2.2006 11.1197 2 11.604 2 12.109V20.096C2 21.148 2.852 22.001 3.904 22.001H5.834V10.205H3.904ZM19.363 7.99801H14.821V3.73701C14.8212 3.35467 14.6952 2.98295 14.4625 2.67956C14.2299 2.37617 13.9036 2.15807 13.5342 2.05913C13.1649 1.96019 12.7733 1.98594 12.4201 2.13238C12.0669 2.27882 11.7719 2.53776 11.581 2.86901L7.345 10.205H7.334V22.001H16.568C17.4194 22.001 18.2462 21.7158 18.9165 21.1909C19.5868 20.6659 20.0619 19.9316 20.266 19.105L22.136 11.541C22.2401 11.1202 22.2471 10.6811 22.1563 10.2572C22.0656 9.83326 21.8796 9.43553 21.6124 9.09413C21.3452 8.75273 21.0038 8.47662 20.6141 8.28671C20.2244 8.0968 19.7965 7.99807 19.363 7.99801Z" fill="#8D94A0"/>
</svg>
