<svg width="24" height="24" viewBox="0 0 24 24" fill="none" xmlns="http://www.w3.org/2000/svg">
<path fill-rule="evenodd" clip-rule="evenodd" d="M2.5 4.5C1.94772 4.5 1.5 4.94772 1.5 5.5V10C2.60457 10 3.5 10.8954 3.5 12C3.5 13.1046 2.60457 14 1.5 14V18.5C1.5 19.0523 1.94772 19.5 2.5 19.5H21.5C22.0523 19.5 22.5 19.0523 22.5 18.5V14C21.3954 14 20.5 13.1046 20.5 12C20.5 10.8954 21.3954 10 22.5 10V5.5C22.5 4.94772 22.0523 4.5 21.5 4.5H2.5ZM9.10682 14.3516C9.12707 14.5312 9.27486 14.6667 9.45052 14.6667H14.5495C14.7251 14.6667 14.8729 14.5312 14.8932 14.3516L15.3308 10.4717C15.37 10.1236 14.9486 9.93261 14.7256 10.1974L13.4287 11.7375L12.4696 9.64004C12.2826 9.2311 11.7174 9.2311 11.5304 9.64004L10.5713 11.7375L9.2744 10.1974C9.05142 9.93261 8.62997 10.1236 8.66923 10.4717L9.10682 14.3516Z" fill="#8D94A0"/>
</svg>
