<svg width="24" height="24" viewBox="0 0 24 24" fill="none" xmlns="http://www.w3.org/2000/svg">
<path fill-rule="evenodd" clip-rule="evenodd" d="M9 2C9 1.44772 9.44772 1 10 1H14C14.5523 1 15 1.44772 15 2C15 2.55228 14.5523 3 14 3H13V4.052C14.749 4.23497 16.3568 4.8925 17.6923 5.89353L18.3875 5.19832C18.2984 4.8647 18.3847 4.49398 18.6465 4.23225C19.037 3.84173 19.6702 3.84173 20.0607 4.23225L20.7678 4.93936C21.1583 5.32988 21.1583 5.96305 20.7678 6.35357C20.5061 6.6153 20.1353 6.70162 19.8017 6.61253L19.1592 7.25509C20.6169 8.92487 21.5 11.1093 21.5 13.5C21.5 18.7467 17.2467 23 12 23C6.75329 23 2.5 18.7467 2.5 13.5C2.5 8.59103 6.22334 4.5517 11 4.052V3H10C9.44772 3 9 2.55228 9 2ZM12 7C11.5029 7 11.1 7.40294 11.1 7.9V13.1C11.1 13.5971 11.5029 14 12 14C12.497 14 12.9 13.5971 12.9 13.1V7.9C12.9 7.40294 12.497 7 12 7Z" fill="#8D94A0"/>
</svg>
