<svg width="24" height="24" viewBox="0 0 24 24" fill="none" xmlns="http://www.w3.org/2000/svg">
<path fill-rule="evenodd" clip-rule="evenodd" d="M1.23123 8.688L4.91223 3.909C5.35323 3.333 6.03723 3 6.76623 3H8.99823C9.12423 3 9.21423 3.099 9.22323 3.216C9.33123 4.602 10.4922 5.7 11.9142 5.7C13.3362 5.7 14.4882 4.611 14.6052 3.216C14.6142 3.099 14.7042 3 14.8302 3H17.0622C17.7912 3 18.4752 3.333 18.9162 3.909L22.5882 8.688C22.6602 8.778 22.6512 8.913 22.5702 8.994L19.2762 12.288C19.1862 12.378 19.0422 12.378 18.9522 12.288L18.2142 11.55V20.01C18.2142 20.559 17.7732 21 17.2242 21H6.60423C6.05523 21 5.61423 20.559 5.61423 20.01V11.55L4.87623 12.288C4.78623 12.378 4.64223 12.378 4.55223 12.288L1.25823 8.994C1.17723 8.913 1.16823 8.778 1.24023 8.688H1.23123Z" fill="#8D94A0"/>
</svg>
