<svg width="24" height="24" viewBox="0 0 24 24" fill="none" xmlns="http://www.w3.org/2000/svg">
<g clip-path="url(#clip0_15151_2451)">
<path fill-rule="evenodd" clip-rule="evenodd" d="M0.599976 5.90597C0.599976 3.6383 2.43828 1.79999 4.70596 1.79999H13.8063C16.0739 1.79999 17.9123 3.6383 17.9123 5.90597V8.77402C17.9123 9.36636 17.4321 9.84655 16.8397 9.84655C16.2474 9.84655 15.7672 9.36636 15.7672 8.77402V5.90597C15.7672 4.82299 14.8893 3.94506 13.8063 3.94506H4.70596C3.62298 3.94506 2.74505 4.82299 2.74505 5.90597V15.0063C2.74505 16.0893 3.62298 16.9672 4.70596 16.9672H6.55355C7.1459 16.9672 7.62609 17.4474 7.62609 18.0397C7.62609 18.6321 7.1459 19.1123 6.55355 19.1123H4.70596C2.43829 19.1123 0.599976 17.274 0.599976 15.0063V5.90597Z" fill="#8D94A0"/>
<path fill-rule="evenodd" clip-rule="evenodd" d="M11.4834 10.6362C11.1618 10.8494 11.0756 11.2838 11.2914 11.6036L14.3387 16.1191C15.2225 17.4287 13.986 19.1269 12.4683 18.6879L11.6081 18.4391C11.4143 18.383 11.2115 18.4938 11.154 18.6873C11.0972 18.8784 11.2031 19.0799 11.3927 19.1414L16.0269 20.6444C16.5972 20.8294 17.2208 20.7433 17.7197 20.4106L20.5319 18.5356C21.4366 17.9324 21.6777 16.7084 21.0695 15.8072L19.9549 14.1555C19.3506 13.26 18.1357 13.022 17.2381 13.6233L16.7858 13.9264C15.9288 14.5005 14.7688 14.2733 14.1918 13.4182L12.4428 10.8266C12.2295 10.5105 11.8013 10.4255 11.4834 10.6362ZM9.51337 12.8036C8.63094 11.496 8.98343 9.71975 10.2983 8.84822C11.5979 7.98688 13.3488 8.33436 14.2209 9.62668L15.8178 11.9929L16.0442 11.8412C17.9237 10.5821 20.4675 11.0804 21.733 12.9556L22.8476 14.6073C24.1211 16.4944 23.6161 19.0574 21.7219 20.3203L18.9096 22.1954C17.8651 22.8918 16.5593 23.0721 15.3652 22.6848L10.731 21.1818C9.43403 20.7612 8.70929 19.3829 9.09782 18.076C9.45893 16.8614 10.6576 16.123 11.8776 16.3069L9.51337 12.8036Z" fill="#8D94A0"/>
</g>
<defs>
<clipPath id="clip0_15151_2451">
<rect width="24" height="24" fill="white"/>
</clipPath>
</defs>
</svg>
