<svg width="24" height="24" viewBox="0 0 24 24" fill="none" xmlns="http://www.w3.org/2000/svg">
<path fill-rule="evenodd" clip-rule="evenodd" d="M16.1091 3H7.89284C6.79489 3 5.78464 3.5998 5.25899 4.56375L2.50929 9.60625C2.26793 10.0489 2.09817 10.5189 2 11H8.19897C8.63482 9.27477 10.172 8 12.0015 8C13.8309 8 15.3681 9.27477 15.804 11H22.002C21.9038 10.5189 21.734 10.0489 21.4927 9.60625L18.743 4.56375C18.2173 3.5998 17.2071 3 16.1091 3ZM8.19897 13C8.63482 14.7252 10.172 16 12.0015 16C13.8309 16 15.3681 14.7252 15.804 13H22.002C21.9038 13.4811 21.734 13.9511 21.4927 14.3938L18.743 19.4362C18.2173 20.4002 17.2071 21 16.1091 21H7.89284C6.79489 21 5.78464 20.4002 5.25899 19.4363L2.5093 14.3938C2.26793 13.9511 2.09817 13.4811 2 13H8.19897Z" fill="#8D94A0"/>
<path fill-rule="evenodd" clip-rule="evenodd" d="M12.9812 12.6873C13.4269 12.3712 13.7186 11.8453 13.7186 11.2501C13.7186 10.2836 12.9496 9.50006 12.0009 9.50006C11.0523 9.50006 10.2832 10.2836 10.2832 11.2501C10.2832 11.8442 10.5738 12.3691 11.0181 12.6855V13.5185C11.0181 14.0605 11.4576 14.5 11.9997 14.5C12.5418 14.5 12.9812 14.0605 12.9812 13.5185V12.6873Z" fill="#8D94A0"/>
</svg>
