<svg width="24" height="24" viewBox="0 0 24 24" fill="none" xmlns="http://www.w3.org/2000/svg">
<path d="M19.4192 18.6963C19.4974 18.54 19.6241 18.4133 19.7804 18.3352L21.8639 17.2934C22.4591 16.9958 22.4591 16.1463 21.8639 15.8487L19.7804 14.807C19.6241 14.7288 19.4974 14.6021 19.4192 14.4458L18.3775 12.3624C18.0799 11.7671 17.2304 11.7671 16.9328 12.3624L15.8911 14.4458C15.8129 14.6021 15.6862 14.7288 15.5299 14.807L13.4465 15.8487C12.8512 16.1463 12.8512 16.9958 13.4465 17.2934L15.5299 18.3352C15.6862 18.4133 15.8129 18.54 15.8911 18.6963L16.9328 20.7798C17.2304 21.375 18.0799 21.375 18.3775 20.7798L19.4192 18.6963Z" fill="#8D94A0"/>
<path d="M10.8766 11.8093C10.9548 11.653 11.0815 11.5262 11.2378 11.4481L14.5865 9.77371C15.1818 9.47608 15.1818 8.6266 14.5865 8.32897L11.2378 6.65461C11.0815 6.57646 10.9548 6.44972 10.8766 6.29342L9.20224 2.9447C8.90461 2.34944 8.05513 2.34943 7.7575 2.9447L6.08314 6.29342C6.00499 6.44972 5.87825 6.57646 5.72195 6.65461L2.37323 8.32897C1.77796 8.6266 1.77796 9.47608 2.37323 9.77371L5.72195 11.4481C5.87825 11.5262 6.00499 11.653 6.08314 11.8093L7.7575 15.158C8.05513 15.7532 8.90461 15.7532 9.20224 15.158L10.8766 11.8093Z" fill="#8D94A0"/>
</svg>
