<svg width="24" height="24" viewBox="0 0 24 24" fill="none" xmlns="http://www.w3.org/2000/svg">
<path d="M19.4192 18.6963C19.4974 18.54 19.6241 18.4133 19.7804 18.3351L21.8638 17.2934C22.4591 16.9958 22.4591 16.1463 21.8638 15.8487L19.7804 14.807C19.6241 14.7288 19.4974 14.6021 19.4192 14.4458L18.3775 12.3624C18.0799 11.7671 17.2304 11.7671 16.9328 12.3624L15.891 14.4458C15.8129 14.6021 15.6862 14.7288 15.5299 14.807L13.4464 15.8487C12.8512 16.1463 12.8512 16.9958 13.4464 17.2934L15.5299 18.3351C15.6862 18.4133 15.8129 18.54 15.891 18.6963L16.9328 20.7798C17.2304 21.375 18.0799 21.375 18.3775 20.7798L19.4192 18.6963Z" fill="url(#paint0_linear_18888_2710)"/>
<path d="M10.8766 11.8092C10.9547 11.6529 11.0815 11.5262 11.2378 11.4481L14.5865 9.77369C15.1818 9.47606 15.1818 8.62658 14.5865 8.32895L11.2378 6.65459C11.0815 6.57644 10.9547 6.4497 10.8766 6.2934L9.20222 2.94468C8.90459 2.34941 8.05511 2.34941 7.75748 2.94468L6.08312 6.2934C6.00497 6.4497 5.87823 6.57644 5.72193 6.65459L2.37321 8.32895C1.77794 8.62658 1.77794 9.47606 2.37321 9.77369L5.72193 11.4481C5.87823 11.5262 6.00496 11.6529 6.08311 11.8092L7.75748 15.158C8.05511 15.7532 8.90458 15.7532 9.20222 15.158L10.8766 11.8092Z" fill="url(#paint1_linear_18888_2710)"/>
<defs>
<linearGradient id="paint0_linear_18888_2710" x1="1.92676" y1="2.49823" x2="24.2437" y2="5.14349" gradientUnits="userSpaceOnUse">
<stop stop-color="#FF6DEB"/>
<stop offset="0.5" stop-color="#8E6EF1"/>
<stop offset="1" stop-color="#5F9EFF"/>
</linearGradient>
<linearGradient id="paint1_linear_18888_2710" x1="1.92676" y1="2.49823" x2="24.2437" y2="5.14349" gradientUnits="userSpaceOnUse">
<stop stop-color="#FF6DEB"/>
<stop offset="0.5" stop-color="#8E6EF1"/>
<stop offset="1" stop-color="#5F9EFF"/>
</linearGradient>
</defs>
</svg>
