<svg width="24" height="24" viewBox="0 0 24 24" fill="none" xmlns="http://www.w3.org/2000/svg">
<path d="M14.0094 15.8277C14.0094 13.4627 16.0253 12.9213 17.7481 12.7883C18.3895 12.7408 19.9932 12.6459 20.4422 12.6364V11.8005C20.4422 10.4898 19.6908 9.72999 18.1879 9.72999C16.9325 9.72999 16.172 10.3284 15.952 11.1167H14.3026C14.5042 9.45455 16.062 8.30529 18.2613 8.30529C19.5625 8.30529 22.0091 8.70421 22 11.9525V18.7531H20.4422V17.3474H20.3689C20.039 18.0407 19.1318 18.9905 17.3999 19C15.5122 18.9905 14.0094 17.8412 14.0094 15.8277ZM15.5855 15.9037C15.5947 16.9959 16.4652 17.5468 17.6748 17.5373C19.4525 17.5468 20.4422 16.3121 20.4422 15.0109V13.9756C19.9748 14.0041 18.4079 14.1275 17.9314 14.156C16.5019 14.251 15.5947 14.7734 15.5855 15.9037Z" fill="#8D94A0"/>
<path d="M3.72275 18.7531H2L6.85668 5H8.59775L13.4544 18.7531H11.7134L10.3846 14.8779H5.05146L3.72275 18.7531ZM5.55545 13.3772H9.88064L7.77303 7.22252H7.66307L5.55545 13.3772Z" fill="#8D94A0"/>
</svg>
