<svg width="24" height="24" viewBox="0 0 24 24" fill="none" xmlns="http://www.w3.org/2000/svg">
<path fill-rule="evenodd" clip-rule="evenodd" d="M2.95884 12.362C3.27232 12.3074 3.59464 12.3796 3.85493 12.5626C4.11522 12.7456 4.29216 13.0245 4.34684 13.338C4.65817 15.1268 5.59176 16.7479 6.98264 17.915C8.37352 19.0821 10.1322 19.72 11.9478 19.716C16.2018 19.716 19.6628 16.255 19.6628 12C19.6628 7.74599 16.2018 4.28499 11.9478 4.28499C10.0138 4.28499 8.19484 4.99899 6.77284 6.28899L7.76484 7.28099C7.89462 7.41027 7.98598 7.57302 8.02877 7.75114C8.07155 7.92926 8.06408 8.11576 8.00718 8.28988C7.95028 8.46401 7.84618 8.61893 7.70647 8.73741C7.56676 8.85589 7.39692 8.93329 7.21584 8.96099L3.00384 9.61099C2.84996 9.63471 2.69267 9.6218 2.54472 9.57332C2.39677 9.52484 2.26235 9.44214 2.15236 9.33196C2.04237 9.22177 1.95991 9.0872 1.91169 8.93917C1.86347 8.79113 1.85085 8.63382 1.87484 8.47999L2.52384 4.26899C2.55172 4.08803 2.62919 3.91833 2.74765 3.77873C2.86612 3.63912 3.02094 3.53507 3.19494 3.4781C3.36895 3.42113 3.55534 3.41349 3.73342 3.45601C3.91151 3.49853 4.07434 3.58955 4.20384 3.71899L5.07584 4.59199C6.93955 2.8496 9.3965 1.88177 11.9478 1.88499C17.5248 1.88499 22.0628 6.42299 22.0628 12C22.0628 17.578 17.5248 22.115 11.9478 22.115C7.01984 22.115 2.82984 18.597 1.98284 13.75C1.92825 13.4365 2.00041 13.1142 2.18343 12.8539C2.36646 12.5936 2.64537 12.4167 2.95884 12.362Z" fill="#8D94A0"/>
</svg>
