<svg width="24" height="24" viewBox="0 0 24 24" fill="none" xmlns="http://www.w3.org/2000/svg">
<path d="M3.7998 1C4.46255 1 5 1.53745 5 2.2002V3H10V2.2002C10 1.53745 10.5375 1 11.2002 1H12.7998C13.4625 1 14 1.53745 14 2.2002V3.7998C14 4.46255 13.4625 5 12.7998 5H12V10H12.7998C13.4625 10 14 10.5375 14 11.2002V12H19V11.2002C19 10.5375 19.5375 10 20.2002 10H21.7998C22.4625 10 23 10.5375 23 11.2002V12.7998C23 13.4625 22.4625 14 21.7998 14H21V19H21.7998C22.4625 19 23 19.5375 23 20.2002V21.7998C23 22.4625 22.4625 23 21.7998 23H20.2002C19.5375 23 19 22.4625 19 21.7998V21H14V21.7998C14 22.4625 13.4625 23 12.7998 23H11.2002C10.5375 23 10 22.4625 10 21.7998V20.2002C10 19.5375 10.5375 19 11.2002 19H12V14H11.2002C10.5375 14 10 13.4625 10 12.7998V12H5V12.7998C5 13.4625 4.46255 14 3.7998 14H2.2002C1.53745 14 1 13.4625 1 12.7998V11.2002C1 10.5375 1.53745 10 2.2002 10H3V5H2.2002C1.53745 5 1 4.46255 1 3.7998V2.2002C1 1.53745 1.53745 1 2.2002 1H3.7998ZM11.1602 20.0039C11.0688 20.0224 11 20.1034 11 20.2002V21.7998C11 21.8966 11.0688 21.9776 11.1602 21.9961L11.2002 22H12.7998C12.9103 22 13 21.9103 13 21.7998V20.2002C13 20.0897 12.9103 20 12.7998 20H11.2002L11.1602 20.0039ZM20.1602 20.0039C20.0688 20.0224 20 20.1034 20 20.2002V21.7998C20 21.8966 20.0688 21.9776 20.1602 21.9961L20.2002 22H21.7998C21.9103 22 22 21.9103 22 21.7998V20.2002C22 20.0897 21.9103 20 21.7998 20H20.2002L20.1602 20.0039ZM2.16016 11.0039C2.06878 11.0224 2 11.1034 2 11.2002V12.7998C2 12.8966 2.06878 12.9776 2.16016 12.9961L2.2002 13H3.7998C3.91026 13 4 12.9103 4 12.7998V11.2002C4 11.0897 3.91026 11 3.7998 11H2.2002L2.16016 11.0039ZM11.1602 11.0039C11.0688 11.0224 11 11.1034 11 11.2002V12.7998C11 12.8966 11.0688 12.9776 11.1602 12.9961L11.2002 13H12.7998C12.9103 13 13 12.9103 13 12.7998V11.2002C13 11.0897 12.9103 11 12.7998 11H11.2002L11.1602 11.0039ZM20.1602 11.0039C20.0688 11.0224 20 11.1034 20 11.2002V12.7998C20 12.8966 20.0688 12.9776 20.1602 12.9961L20.2002 13H21.7998C21.9103 13 22 12.9103 22 12.7998V11.2002C22 11.0897 21.9103 11 21.7998 11H20.2002L20.1602 11.0039ZM2.16016 2.00391C2.06878 2.02237 2 2.10338 2 2.2002V3.7998C2 3.89662 2.06878 3.97763 2.16016 3.99609L2.2002 4H3.7998C3.91026 4 4 3.91026 4 3.7998V2.2002C4 2.08974 3.91026 2 3.7998 2H2.2002L2.16016 2.00391ZM11.1602 2.00391C11.0688 2.02237 11 2.10338 11 2.2002V3.7998C11 3.89662 11.0688 3.97763 11.1602 3.99609L11.2002 4H12.7998C12.9103 4 13 3.91026 13 3.7998V2.2002C13 2.08974 12.9103 2 12.7998 2H11.2002L11.1602 2.00391Z" fill="#8D94A0"/>
</svg>
