<svg width="32" height="32" viewBox="0 0 32 32" fill="none" xmlns="http://www.w3.org/2000/svg">
<path fill-rule="evenodd" clip-rule="evenodd" d="M2.39583 8.3125C1.86656 8.3125 1.4375 8.74156 1.4375 9.27083V13.5833C2.49605 13.5833 3.35417 14.4415 3.35417 15.5C3.35417 16.5585 2.49605 17.4167 1.4375 17.4167V21.7292C1.4375 22.2584 1.86656 22.6875 2.39583 22.6875H20.6042C21.1334 22.6875 21.5625 22.2584 21.5625 21.7292V17.4167C20.504 17.4167 19.6458 16.5585 19.6458 15.5C19.6458 14.4415 20.504 13.5833 21.5625 13.5833V9.27083C21.5625 8.74156 21.1334 8.3125 20.6042 8.3125H2.39583ZM8.72737 17.7536C8.74678 17.9257 8.88841 18.0556 9.05675 18.0556H13.9433C14.1116 18.0556 14.2532 17.9257 14.2726 17.7536L14.692 14.0354C14.7296 13.7018 14.3257 13.5188 14.112 13.7725L12.8691 15.2484L11.95 13.2384C11.7708 12.8465 11.2292 12.8465 11.05 13.2384L10.1309 15.2484L8.88797 13.7725C8.67428 13.5188 8.27039 13.7018 8.30801 14.0354L8.72737 17.7536Z" fill="url(#paint0_linear_41568_21481)"/>
<path d="M29.3824 17.3899C28.5852 16.6474 27.5371 16.2655 26.4447 16.3009C24.5551 16.3645 23.3888 17.5808 22.0381 18.9881C22.0381 18.9881 22.0381 18.9881 22.0307 18.9952C22.0307 18.9952 22.0307 18.9952 22.0233 18.9881C20.6725 17.5808 19.5137 16.3645 17.6167 16.3009C16.5464 16.2655 15.4983 16.6474 14.7011 17.3899C13.8818 18.1395 13.4167 19.2002 13.4167 20.2893C13.4167 21.4066 13.867 22.439 14.6863 23.1957C15.4466 23.8958 16.4357 24.2847 17.4838 24.2847C17.5355 24.2847 17.5798 24.2847 17.6314 24.2847C19.521 24.2211 20.6873 23.0048 22.0381 21.5975C22.0381 21.5975 22.0381 21.5975 22.0381 21.5904C22.0381 21.5904 22.0381 21.5904 22.0454 21.5975C23.3962 23.0048 24.5551 24.2211 26.4521 24.2847C26.5037 24.2847 26.548 24.2847 26.5997 24.2847C27.6478 24.2847 28.6369 23.9029 29.3972 23.1957C30.2165 22.439 30.6667 21.4066 30.6667 20.2893C30.6667 19.2002 30.2017 18.1395 29.3824 17.3899ZM17.565 22.5168C16.9671 22.538 16.3988 22.3259 15.9707 21.9299C15.513 21.5056 15.2621 20.9257 15.2621 20.2893C15.2621 19.667 15.5204 19.0871 15.978 18.6557C16.3914 18.2738 16.9302 18.0617 17.4838 18.0617C17.5133 18.0617 17.5355 18.0617 17.565 18.0617C18.6353 18.0971 19.3734 18.8113 20.6799 20.1761C20.7094 20.2115 20.7463 20.2468 20.7759 20.2751L20.7685 20.2893L20.7759 20.2963C20.7463 20.3317 20.7094 20.367 20.6799 20.3953C19.3734 21.7672 18.6353 22.4815 17.565 22.5168ZM28.1128 21.9299C27.6773 22.333 27.1016 22.538 26.5185 22.5168C25.4482 22.4815 24.7101 21.7672 23.4036 20.4024C23.3741 20.367 23.3372 20.3317 23.3076 20.3034L23.315 20.2893H23.3076C23.3372 20.2539 23.3741 20.2185 23.4036 20.1903C24.7101 18.8254 25.4482 18.1112 26.5185 18.0758C27.1016 18.0688 27.67 18.2668 28.1055 18.6699C28.5705 19.0942 28.8214 19.674 28.8214 20.3034C28.8214 20.9257 28.5705 21.5056 28.1128 21.9299Z" fill="#9C7EEF"/>
<path fill-rule="evenodd" clip-rule="evenodd" d="M22.5305 18.4786C23.6871 17.2987 24.7878 16.3567 26.4447 16.3009C27.5371 16.2655 28.5852 16.6474 29.3824 17.3899C30.2017 18.1395 30.6667 19.2002 30.6667 20.2893C30.6667 21.4066 30.2165 22.439 29.3972 23.1957C28.6369 23.9029 27.6478 24.2847 26.5997 24.2847H26.4521C24.7906 24.229 23.6953 23.289 22.5415 22.111C22.4567 22.0244 22.3716 21.9366 22.2859 21.8477C22.2348 21.7947 22.1835 21.7413 22.132 21.6877L22.0419 21.6012L22.0454 21.5975L22.0381 21.5904V21.5975L22.0353 21.6004C22.0329 21.6029 22.0306 21.6053 22.0282 21.6078C22.0025 21.6345 21.9769 21.6612 21.9514 21.6878C21.8135 21.8313 21.6774 21.9726 21.5421 22.1106C20.3868 23.2887 19.2865 24.229 17.6314 24.2847H17.4838C16.4357 24.2847 15.4466 23.8958 14.6863 23.1957C13.867 22.439 13.4167 21.4066 13.4167 20.2893C13.4167 19.2002 13.8818 18.1395 14.7011 17.3899C15.4983 16.6474 16.5464 16.2655 17.6167 16.3009C19.2799 16.3567 20.3757 17.2986 21.531 18.4784C21.6364 18.586 21.7423 18.6956 21.8491 18.8067C21.9006 18.8603 21.9524 18.9142 22.0044 18.9684L22.0233 18.9881L22.0307 18.9952L22.0381 18.9881L22.0409 18.9852C22.0985 18.9251 22.1558 18.8655 22.2128 18.8062C22.3194 18.6954 22.4252 18.5859 22.5305 18.4786ZM22.0308 17.9603C23.1969 16.7687 24.4804 15.6479 26.4205 15.5825C27.6961 15.5412 28.9302 15.9876 29.8699 16.8618C30.8358 17.7466 31.3855 18.9985 31.3855 20.2893C31.3855 21.6058 30.8525 22.8296 29.8858 23.7228C28.9895 24.556 27.8248 25.0035 26.5997 25.0035H26.44L26.4279 25.0031C24.4832 24.9378 23.2049 23.8188 22.0416 22.629C20.8765 23.8192 19.5937 24.9378 17.6556 25.0031L17.6435 25.0035H17.4838C16.2553 25.0035 15.0924 24.5467 14.1994 23.7244L14.1987 23.7237C13.2314 22.8304 12.698 21.6062 12.698 20.2893C12.698 18.9985 13.2477 17.7466 14.2135 16.8618C15.1518 15.989 16.3845 15.541 17.6404 15.5825C19.5872 15.6478 20.8665 16.7692 22.0308 17.9603ZM21.862 18.8191L22.0233 18.9881L21.862 18.8191ZM17.565 22.5168C18.6353 22.4815 19.3734 21.7672 20.6799 20.3953C20.7094 20.367 20.7463 20.3317 20.7759 20.2963L20.7685 20.2893L20.7759 20.2751C20.7463 20.2468 20.7094 20.2115 20.6799 20.1761C19.3734 18.8113 18.6353 18.0971 17.565 18.0617H17.4838C16.9302 18.0617 16.3914 18.2738 15.978 18.6557C15.5204 19.0871 15.2621 19.667 15.2621 20.2893C15.2621 20.9257 15.513 21.5056 15.9707 21.9299C16.3988 22.3259 16.9671 22.538 17.565 22.5168ZM22.0419 21.6012L22.0381 21.5975H22.0454L22.0419 21.6012ZM24.0054 19.5705C23.8174 19.7595 23.6182 19.9661 23.4036 20.1903C23.3765 20.2162 23.3431 20.2482 23.315 20.2806C23.3125 20.2835 23.31 20.2864 23.3076 20.2893H23.315L23.3076 20.3034C23.3372 20.3317 23.3741 20.3671 23.4036 20.4024C24.7101 21.7672 25.4482 22.4815 26.5185 22.5168C27.1016 22.538 27.6773 22.333 28.1128 21.9299C28.5705 21.5056 28.8214 20.9257 28.8214 20.3034C28.8214 19.674 28.5705 19.0942 28.1055 18.6699C27.67 18.2668 27.1016 18.0688 26.5185 18.0758C25.624 18.1054 24.9615 18.6091 24.0054 19.5705Z" fill="white"/>
<defs>
<linearGradient id="paint0_linear_41568_21481" x1="2.5875" y1="10.058" x2="14.3428" y2="25.6857" gradientUnits="userSpaceOnUse">
<stop stop-color="#0F0E0F"/>
<stop offset="1" stop-color="#595959"/>
</linearGradient>
</defs>
</svg>
