<svg width="24" height="24" viewBox="0 0 24 24" fill="none" xmlns="http://www.w3.org/2000/svg">
<path fill-rule="evenodd" clip-rule="evenodd" d="M20.273 9.99999L21.757 8.51499C21.8436 8.43213 21.9127 8.33284 21.9604 8.22291C22.008 8.11299 22.0333 7.99466 22.0346 7.87485C22.0359 7.75505 22.0133 7.63618 21.9681 7.52523C21.9229 7.41427 21.856 7.31347 21.7713 7.22871C21.6866 7.14396 21.5858 7.07697 21.4749 7.03167C21.364 6.98637 21.2452 6.96367 21.1254 6.96491C21.0056 6.96614 20.8872 6.99129 20.7772 7.03887C20.6673 7.08645 20.5679 7.1555 20.485 7.24199L19 8.72699L17.515 7.24199C17.3438 7.08511 17.1187 7.00037 16.8866 7.00542C16.6545 7.01047 16.4333 7.10493 16.2691 7.2691C16.1049 7.43327 16.0105 7.65448 16.0054 7.8866C16.0004 8.11872 16.0851 8.34383 16.242 8.51499L17.727 9.99999L16.242 11.485C16.1584 11.5686 16.0921 11.6678 16.0469 11.777C16.0016 11.8862 15.9784 12.0033 15.9784 12.1215C15.9784 12.2397 16.0016 12.3567 16.0469 12.466C16.0921 12.5752 16.1584 12.6744 16.242 12.758C16.3256 12.8416 16.4248 12.9079 16.534 12.9531C16.6432 12.9983 16.7603 13.0216 16.8785 13.0216C16.9967 13.0216 17.1138 12.9983 17.223 12.9531C17.3322 12.9079 17.4314 12.8416 17.515 12.758L19 11.273L20.485 12.758C20.655 12.9207 20.882 13.0104 21.1174 13.0078C21.3527 13.0052 21.5777 12.9105 21.744 12.744C21.9104 12.5775 22.0049 12.3525 22.0073 12.1171C22.0097 11.8818 21.9199 11.6549 21.757 11.485L20.273 9.99999ZM10 11.456C11.1548 11.456 12.2622 10.9973 13.0787 10.1807C13.8953 9.3642 14.354 8.25674 14.354 7.10199C14.354 5.94723 13.8953 4.83978 13.0787 4.02324C12.2622 3.20671 11.1548 2.74799 10 2.74799C8.84525 2.74799 7.7378 3.20671 6.92126 4.02324C6.10473 4.83978 5.64601 5.94723 5.64601 7.10199C5.64601 8.25674 6.10473 9.3642 6.92126 10.1807C7.7378 10.9973 8.84525 11.456 10 11.456ZM10 12.788C3.73101 12.788 1.29401 16.777 1.29401 18.633C1.29401 20.488 6.48301 20.982 10 20.982C13.517 20.982 18.706 20.488 18.706 18.632C18.706 16.777 16.269 12.788 10 12.788Z" fill="#8D94A0"/>
</svg>
