<svg width="24" height="24" viewBox="0 0 24 24" fill="none" xmlns="http://www.w3.org/2000/svg">
<path fill-rule="evenodd" clip-rule="evenodd" d="M23 10.1H20.9V7.99999C20.8922 7.76661 20.794 7.5454 20.6262 7.38307C20.4584 7.22073 20.234 7.12998 20.0005 7.12998C19.767 7.12998 19.5426 7.22073 19.3748 7.38307C19.207 7.5454 19.1088 7.76661 19.101 7.99999V10.1H17C16.7613 10.1 16.5324 10.1948 16.3636 10.3636C16.1948 10.5324 16.1 10.7613 16.1 11C16.1 11.2387 16.1948 11.4676 16.3636 11.6364C16.5324 11.8052 16.7613 11.9 17 11.9H19.101V14C19.097 14.1206 19.1173 14.2409 19.1607 14.3535C19.2041 14.4661 19.2697 14.5689 19.3536 14.6557C19.4375 14.7425 19.538 14.8115 19.6492 14.8586C19.7603 14.9057 19.8798 14.93 20.0005 14.93C20.1212 14.93 20.2407 14.9057 20.3518 14.8586C20.463 14.8115 20.5635 14.7425 20.6474 14.6557C20.7313 14.5689 20.797 14.4661 20.8403 14.3535C20.8837 14.2409 20.904 14.1206 20.9 14V11.9H23C23.2387 11.9 23.4676 11.8052 23.6364 11.6364C23.8052 11.4676 23.9 11.2387 23.9 11C23.9 10.7613 23.8052 10.5324 23.6364 10.3636C23.4676 10.1948 23.2387 10.1 23 10.1ZM10 11.456C11.1548 11.456 12.2622 10.9973 13.0787 10.1807C13.8953 9.3642 14.354 8.25674 14.354 7.10199C14.354 5.94723 13.8953 4.83978 13.0787 4.02324C12.2622 3.20671 11.1548 2.74799 10 2.74799C8.84525 2.74799 7.7378 3.20671 6.92126 4.02324C6.10473 4.83978 5.64601 5.94723 5.64601 7.10199C5.64601 8.25674 6.10473 9.3642 6.92126 10.1807C7.7378 10.9973 8.84525 11.456 10 11.456ZM10 12.788C3.73101 12.788 1.29401 16.777 1.29401 18.633C1.29401 20.488 6.48301 20.982 10 20.982C13.517 20.982 18.706 20.488 18.706 18.632C18.706 16.777 16.269 12.788 10 12.788Z" fill="#8D94A0"/>
</svg>
