<svg width="24" height="24" viewBox="0 0 24 24" fill="none" xmlns="http://www.w3.org/2000/svg">
<g clip-path="url(#clip0_20417_107)">
<path d="M4.9873 2.25H19.0137C19.1391 0.986697 20.2047 0 21.501 0C22.8816 0.000131934 24.001 1.11937 24.001 2.5C24.001 3.79657 23.0137 4.86219 21.75 4.9873V19.0117C21.6681 19.0036 21.585 19 21.501 19L21.7559 19.0127C23.0167 19.1405 24.001 20.2054 24.001 21.5C24.0008 22.8805 22.8815 23.9999 21.501 24C20.2064 24 19.1415 23.0157 19.0137 21.7549V21.75H4.9873V21.7549C4.85945 23.0157 3.79455 24 2.5 24C1.11941 24 0.000197894 22.8805 0 21.5C0 20.1193 1.11929 19 2.5 19C2.41563 19 2.33222 19.0036 2.25 19.0117V4.9873C0.986686 4.86186 0 3.79633 0 2.5C0 1.11929 1.11929 0 2.5 0C3.79633 0 4.86186 0.986686 4.9873 2.25ZM2.5 20.7998C2.1134 20.7998 1.7998 21.1134 1.7998 21.5C1.8 21.8864 2.11352 22.2002 2.5 22.2002C2.88648 22.2002 3.2 21.8864 3.2002 21.5C3.2002 21.1134 2.8866 20.7998 2.5 20.7998ZM21.501 20.7998C21.1144 20.7998 20.8008 21.1134 20.8008 21.5C20.801 21.8864 21.1145 22.2002 21.501 22.2002C21.8873 22.2001 22.201 21.8864 22.2012 21.5C22.2012 21.1135 21.8875 20.7999 21.501 20.7998ZM11.2676 9.71973C11.0693 9.71973 10.8741 9.7691 10.7002 9.86426C10.5264 9.95937 10.3794 10.0969 10.2725 10.2637L7.25879 14.959C7.144 15.1376 7.07977 15.3444 7.07227 15.5566C7.06484 15.7688 7.11494 15.9788 7.2168 16.165C7.31871 16.3514 7.46862 16.5071 7.65137 16.6152C7.83408 16.7234 8.04257 16.7805 8.25488 16.7803H14.2793C14.4915 16.7803 14.7003 16.7234 14.8828 16.6152C15.0652 16.5071 15.2146 16.3511 15.3164 16.165C15.4182 15.9787 15.4685 15.7678 15.4609 15.5557C15.4533 15.3437 15.3891 15.1375 15.2744 14.959L12.2627 10.2637C12.1558 10.0968 12.0088 9.95938 11.835 9.86426C11.661 9.76908 11.4659 9.71974 11.2676 9.71973ZM16.0039 7.09277C15.7656 7.08708 15.5284 7.12957 15.3066 7.2168C15.0849 7.30403 14.8824 7.43416 14.7119 7.60059C14.5413 7.76708 14.4061 7.96688 14.3135 8.18652C14.221 8.40601 14.1729 8.64172 14.1729 8.87988C14.1728 9.11824 14.221 9.35452 14.3135 9.57422C14.4059 9.79381 14.5415 9.99266 14.7119 10.1592C14.8823 10.3257 15.084 10.4566 15.3057 10.5439C15.5274 10.6313 15.7647 10.6735 16.0029 10.668C16.4697 10.6571 16.9139 10.4638 17.2402 10.1299C17.5664 9.79598 17.7489 9.34764 17.749 8.88086C17.7491 8.41419 17.5671 7.96588 17.2412 7.63184C16.9151 7.29773 16.4707 7.10394 16.0039 7.09277ZM2.5 1.7998C2.1134 1.7998 1.7998 2.1134 1.7998 2.5C1.7998 2.8866 2.1134 3.2002 2.5 3.2002C2.8866 3.2002 3.2002 2.8866 3.2002 2.5C3.2002 2.1134 2.8866 1.7998 2.5 1.7998ZM21.501 1.7998C21.1144 1.7998 20.8008 2.1134 20.8008 2.5C20.8008 2.8866 21.1144 3.2002 21.501 3.2002C21.8875 3.20006 22.2012 2.88652 22.2012 2.5C22.2012 2.11348 21.8875 1.79994 21.501 1.7998Z" fill="#8D94A0"/>
</g>
<defs>
<clipPath id="clip0_20417_107">
<rect width="24" height="24" fill="white"/>
</clipPath>
</defs>
</svg>
