<svg width="24" height="24" viewBox="0 0 24 24" fill="none" xmlns="http://www.w3.org/2000/svg">
<path fill-rule="evenodd" clip-rule="evenodd" d="M12 18.879C11.8424 18.879 11.6864 18.848 11.5408 18.7877C11.3952 18.7273 11.2629 18.639 11.1515 18.5275C11.04 18.4161 10.9516 18.2838 10.8913 18.1382C10.831 17.9926 10.8 17.8366 10.8 17.679C10.8 17.5214 10.831 17.3654 10.8913 17.2198C10.9516 17.0742 11.04 16.9419 11.1515 16.8305C11.2629 16.719 11.3952 16.6307 11.5408 16.5703C11.6864 16.51 11.8424 16.479 12 16.479C12.3183 16.479 12.6235 16.6054 12.8485 16.8305C13.0736 17.0555 13.2 17.3607 13.2 17.679C13.2 17.9973 13.0736 18.3025 12.8485 18.5275C12.6235 18.7526 12.3183 18.879 12 18.879ZM11 8.896C11 8.63078 11.1054 8.37643 11.2929 8.18889C11.4804 8.00136 11.7348 7.896 12 7.896C12.2652 7.896 12.5196 8.00136 12.7071 8.18889C12.8946 8.37643 13 8.63078 13 8.896V13.896C13 14.1612 12.8946 14.4156 12.7071 14.6031C12.5196 14.7906 12.2652 14.896 12 14.896C11.7348 14.896 11.4804 14.7906 11.2929 14.6031C11.1054 14.4156 11 14.1612 11 13.896V8.896ZM22.914 18.503L14.079 3.2C13.155 1.6 10.845 1.6 9.921 3.2L1.086 18.503C0.162998 20.103 1.316 22.103 3.165 22.103H20.835C22.683 22.103 23.837 20.103 22.914 18.503Z" fill="#8D94A0"/>
</svg>
