<svg width="24" height="24" viewBox="0 0 24 24" fill="none" xmlns="http://www.w3.org/2000/svg">
<path d="M3 3.04629C3 2.1923 3.6923 1.5 4.5463 1.5H5.70602V22.375H4.5463C3.6923 22.375 3 21.6827 3 20.8287V3.04629Z" fill="#8D94A0"/>
<rect x="8.7522" y="4.91188" width="9.27777" height="2.31944" rx="1.15972" fill="#8D94A0"/>
<path opacity="0.6" fill-rule="evenodd" clip-rule="evenodd" d="M20.0093 22.375H5.70605V1.5H20.0093C20.8633 1.5 21.5556 2.1923 21.5556 3.0463V20.8287C21.5556 21.6827 20.8633 22.375 20.0093 22.375ZM9.91192 4.9119C9.27142 4.9119 8.7522 5.43112 8.7522 6.07162C8.7522 6.71211 9.27142 7.23134 9.91192 7.23134H16.8702C17.5107 7.23134 18.03 6.71211 18.03 6.07162C18.03 5.43112 17.5107 4.9119 16.8702 4.9119H9.91192Z" fill="#8D94A0"/>
</svg>
