<svg width="24" height="24" viewBox="0 0 24 24" fill="none" xmlns="http://www.w3.org/2000/svg">
<path d="M8.10014 1.5C7.27162 1.5 6.59998 2.17164 6.59998 3.00016V4.41049H17.2015C18.03 4.41049 18.7017 5.08214 18.7017 5.91065V18.3768H20.1014C20.9299 18.3768 21.6016 17.7052 21.6016 16.8766V3.00016C21.6016 2.17164 20.9299 1.5 20.1014 1.5H8.10014Z" fill="#D9CDF9"/>
<path d="M2.5 7.12336C2.5 6.29484 3.17164 5.6232 4.00016 5.6232H16.0014C16.83 5.6232 17.5016 6.29484 17.5016 7.12336V20.9998C17.5016 21.8284 16.83 22.5 16.0014 22.5H4.00016C3.17165 22.5 2.5 21.8284 2.5 20.9998V7.12336Z" fill="#D9CDF9"/>
<path d="M2.5 7.12336C2.5 6.29484 3.17164 5.6232 4.00016 5.6232H4.68773V22.5H4.00016C3.17165 22.5 2.5 21.8284 2.5 20.9998V7.12336Z" fill="#9C7EEF"/>
<path d="M7.15044 9.3192C7.15044 8.80138 7.57022 8.3816 8.08804 8.3816H13.7136C14.2315 8.3816 14.6512 8.80138 14.6512 9.3192C14.6512 9.83702 14.2315 10.2568 13.7136 10.2568H8.08804C7.57022 10.2568 7.15044 9.83702 7.15044 9.3192Z" fill="#9C7EEF"/>
</svg>
