<svg width="24" height="24" viewBox="0 0 24 24" fill="none" xmlns="http://www.w3.org/2000/svg">
<path d="M4.80719 20.69C4.39368 21.1035 3.72326 21.1035 3.30975 20.69C2.89625 20.2765 2.89625 19.6061 3.30975 19.1926L10.5025 11.9998L3.30985 4.80706C2.89634 4.39356 2.89634 3.72313 3.30985 3.30963C3.72335 2.89612 4.39378 2.89612 4.80728 3.30963L12 10.5023L19.1925 3.30985C19.606 2.89635 20.2764 2.89635 20.6899 3.30985C21.1034 3.72336 21.1034 4.39378 20.6899 4.80729L13.4974 11.9998L20.69 19.1923C21.1035 19.6058 21.1035 20.2763 20.69 20.6898C20.2765 21.1033 19.6061 21.1033 19.1925 20.6898L12 13.4972L4.80719 20.69Z" fill="#8D94A0"/>
<path fill-rule="evenodd" clip-rule="evenodd" d="M4.66586 3.45105C4.33046 3.11565 3.78667 3.11565 3.45127 3.45105C3.11587 3.78645 3.11587 4.33024 3.45127 4.66564L10.7854 11.9998L3.45117 19.334C3.11577 19.6694 3.11577 20.2132 3.45117 20.5486C3.78657 20.884 4.33036 20.884 4.66576 20.5486L12 13.2144L19.334 20.5483C19.6694 20.8837 20.2132 20.8837 20.5486 20.5483C20.884 20.2129 20.884 19.6692 20.5486 19.3338L13.2146 11.9998L20.5485 4.66587C20.8839 4.33047 20.8839 3.78668 20.5485 3.45128C20.2131 3.11587 19.6693 3.11587 19.3339 3.45128L12 10.7852L4.66586 3.45105ZM3.16843 3.16821C3.66004 2.6766 4.45709 2.6766 4.9487 3.16821L12 10.2195L19.051 3.16843C19.5426 2.67682 20.3397 2.67682 20.8313 3.16843C21.3229 3.66004 21.3229 4.4571 20.8313 4.94871L13.7803 11.9998L20.8314 19.0509C21.323 19.5425 21.323 20.3396 20.8314 20.8312C20.3398 21.3228 19.5427 21.3228 19.0511 20.8312L12 13.78L4.94861 20.8314C4.457 21.323 3.65994 21.323 3.16833 20.8314C2.67672 20.3398 2.67672 19.5427 3.16833 19.0511L10.2197 11.9998L3.16843 4.94848C2.67682 4.45687 2.67682 3.65982 3.16843 3.16821Z" fill="#8D94A0"/>
</svg>
