<svg width="24" height="24" viewBox="0 0 24 24" fill="none" xmlns="http://www.w3.org/2000/svg">
<path d="M4.32092 11.9328C4.32092 11.5539 4.0137 11.2466 3.63472 11.2466H3.55861C2.42167 11.2466 1.5 12.1683 1.5 13.3052V14.4269C1.5 15.5638 2.42167 16.4855 3.55861 16.4855H3.63472C4.0137 16.4855 4.32092 16.1783 4.32092 15.7993V11.9328Z" fill="#8D94A0"/>
<path fill-rule="evenodd" clip-rule="evenodd" d="M13.6112 4.91046C13.6112 5.56184 13.1696 6.11009 12.5695 6.27222V6.72331H15.4617C17.3343 6.72331 18.8524 8.24138 18.8524 10.114V17.0342C18.8524 18.9069 17.3343 20.4249 15.4617 20.4249H8.54145C6.66882 20.4249 5.15076 18.9069 5.15076 17.0342V10.114C5.15076 8.24137 6.66882 6.72331 8.54145 6.72331H11.3606V6.25186C10.7956 6.06785 10.3873 5.53684 10.3873 4.91046C10.3873 4.13148 11.0188 3.5 11.7977 3.5H12.2007C12.9797 3.5 13.6112 4.13148 13.6112 4.91046ZM14.2068 12.2029C14.2068 11.6185 13.8759 11.1447 13.4677 11.1446C13.0595 11.1446 12.7286 11.6184 12.7286 12.2028C12.7286 12.7872 13.0595 13.2611 13.4677 13.2611C13.8759 13.2611 14.2068 12.7874 14.2068 12.2029ZM11.3472 12.2046C11.3472 11.6209 11.0163 11.1477 10.6081 11.1477C10.1999 11.1476 9.86896 11.6206 9.86896 12.2043C9.86896 12.7879 10.1999 13.2611 10.6081 13.2612C11.0163 13.2613 11.3472 12.7882 11.3472 12.2046ZM10.5877 14.8864C10.3908 14.6404 10.0318 14.6005 9.78571 14.7973C9.53964 14.9942 9.49975 15.3532 9.6966 15.5993C10.6675 16.8129 12.8649 17.3143 14.3221 15.6142C14.5272 15.3749 14.4995 15.0147 14.2603 14.8096C14.021 14.6046 13.6608 14.6323 13.4557 14.8715C12.5466 15.9322 11.1944 15.6448 10.5877 14.8864Z" fill="#8D94A0"/>
<path d="M19.6791 11.9328C19.6791 11.5539 19.9863 11.2466 20.3653 11.2466H20.4414C21.5783 11.2466 22.5 12.1683 22.5 13.3052V14.4269C22.5 15.5638 21.5783 16.4855 20.4414 16.4855H20.3653C19.9863 16.4855 19.6791 16.1783 19.6791 15.7993V11.9328Z" fill="#8D94A0"/>
</svg>
