<svg width="24" height="24" viewBox="0 0 24 24" fill="none" xmlns="http://www.w3.org/2000/svg">
<path fill-rule="evenodd" clip-rule="evenodd" d="M13.6112 4.91052C13.6112 5.5619 13.1696 6.11015 12.5695 6.27228V6.72337H15.4617C17.3343 6.72337 18.8524 8.24144 18.8524 10.1141V17.0343C18.8524 18.9069 17.3343 20.425 15.4617 20.425H8.54145C6.66882 20.425 5.15076 18.9069 5.15076 17.0343V10.1141C5.15076 8.24143 6.66882 6.72337 8.54145 6.72337H11.3606V6.25192C10.7956 6.06791 10.3873 5.5369 10.3873 4.91052C10.3873 4.13155 11.0188 3.50006 11.7977 3.50006H12.2007C12.9797 3.50006 13.6112 4.13155 13.6112 4.91052ZM14.2068 12.203C14.2068 11.6185 13.8759 11.1447 13.4677 11.1447C13.0595 11.1447 12.7286 11.6184 12.7286 12.2029C12.7286 12.7873 13.0595 13.2611 13.4677 13.2612C13.8759 13.2612 14.2068 12.7874 14.2068 12.203ZM11.3472 12.2046C11.3472 11.621 11.0163 11.1478 10.6081 11.1477C10.1999 11.1476 9.86896 11.6207 9.86896 12.2043C9.86896 12.788 10.1999 13.2612 10.6081 13.2612C11.0163 13.2613 11.3472 12.7883 11.3472 12.2046ZM4.32092 11.9329C4.32092 11.5539 4.0137 11.2467 3.63472 11.2467H3.55861C2.42167 11.2467 1.5 12.1684 1.5 13.3053V14.4269C1.5 15.5639 2.42167 16.4855 3.55861 16.4855H3.63472C4.0137 16.4855 4.32092 16.1783 4.32092 15.7993V11.9329ZM20.3653 11.2467C19.9863 11.2467 19.6791 11.5539 19.6791 11.9329V15.7993C19.6791 16.1783 19.9863 16.4855 20.3653 16.4855H20.4414C21.5783 16.4855 22.5 15.5639 22.5 14.4269V13.3053C22.5 12.1684 21.5783 11.2467 20.4414 11.2467H20.3653ZM14.2453 16.5828C13.9993 16.7796 13.6402 16.7397 13.4433 16.4937C12.8366 15.7353 11.4845 15.4479 10.5753 16.5086C10.3702 16.7478 10.01 16.7755 9.77076 16.5704C9.53151 16.3654 9.5038 16.0052 9.70888 15.7659C11.1661 14.0658 13.3635 14.5672 14.3344 15.7808C14.5313 16.0269 14.4914 16.3859 14.2453 16.5828Z" fill="#8D94A0"/>
</svg>
