<svg width="24" height="24" viewBox="0 0 24 24" fill="none" xmlns="http://www.w3.org/2000/svg">
<path d="M2 12C2 6.47715 6.47715 2 12 2C17.5228 2 22 6.47715 22 12C22 17.5228 17.5228 22 12 22C6.47715 22 2 17.5228 2 12Z" fill="black"/>
<path d="M14.5145 11.7813C14.504 10.6424 15.4664 10.0957 15.5089 10.0703C14.9681 9.29653 14.125 9.18869 13.8259 9.17575C13.108 9.10511 12.4249 9.58933 12.0618 9.58933C11.6987 9.58933 11.1359 9.18761 10.5422 9.19893C9.75862 9.20918 9.03908 9.64379 8.63572 10.3259C7.82348 11.7031 8.42714 13.7445 9.22007 14.8613C9.60633 15.408 10.0671 16.0222 10.6724 16.0001C11.2567 15.978 11.4775 15.6318 12.1827 15.6318C12.8878 15.6318 13.0859 16.0001 13.7034 15.9909C14.3308 15.978 14.7286 15.4312 15.1116 14.8845C15.5552 14.2498 15.7395 13.6356 15.75 13.6033C15.7362 13.5984 14.5267 13.1444 14.5145 11.7813Z" fill="white"/>
<path d="M13.3541 8.43648C13.6764 8.05633 13.8932 7.52682 13.8336 7C13.3707 7.01725 12.8095 7.3025 12.4779 7.68103C12.1793 8.01912 11.9172 8.55942 11.9884 9.07491C12.5043 9.1132 13.0335 8.81771 13.3541 8.43648Z" fill="white"/>
</svg>
