<svg width="24" height="24" viewBox="0 0 24 24" fill="none" xmlns="http://www.w3.org/2000/svg">
<path fill-rule="evenodd" clip-rule="evenodd" d="M7 12C7 12.7634 7.37333 13.5267 8.12 13.9629L19.64 20.693C21.1333 21.5654 23 20.4748 23 18.73V5.26997C23 3.52515 21.1333 2.43464 19.64 3.30705L8.12 10.0371C7.37333 10.4733 7 11.2366 7 12ZM2.38462 3C1.61991 3 1 3.61991 1 4.38462V19.6154C1 20.3801 1.61991 21 2.38462 21H5.61538C6.38009 21 7 20.3801 7 19.6154V12V4.38462C7 3.61991 6.38009 3 5.61538 3H2.38462Z" fill="#8D94A0"/>
</svg>
