<svg width="41" height="40" viewBox="0 0 41 40" fill="none" xmlns="http://www.w3.org/2000/svg">
<path d="M2.1665 8.79632C2.1665 7.10878 3.53452 5.74076 5.22206 5.74076H35.7776C37.4652 5.74076 38.8332 7.10878 38.8332 8.79632V28.1482C38.8332 29.8357 37.4652 31.2037 35.7776 31.2037H5.22206C3.53452 31.2037 2.1665 29.8357 2.1665 28.1482V8.79632Z" fill="#FFCD39"/>
<path d="M2.1665 23.0556H38.8332V28.1482C38.8332 29.8357 37.4652 31.2037 35.7776 31.2037H5.22206C3.53452 31.2037 2.1665 29.8357 2.1665 28.1482V23.0556Z" fill="#E8B006"/>
<path d="M13.3702 29.676C13.3702 32.2073 11.3182 34.2593 8.78687 34.2593C6.25557 34.2593 4.20354 32.2073 4.20354 29.676C4.20354 27.1446 6.25557 25.0926 8.78687 25.0926C11.3182 25.0926 13.3702 27.1446 13.3702 29.676Z" fill="#575C64"/>
<path d="M10.3147 29.676C10.3147 30.5197 9.63064 31.2037 8.78687 31.2037C7.94311 31.2037 7.2591 30.5197 7.2591 29.676C7.2591 28.8322 7.94311 28.1482 8.78687 28.1482C9.63064 28.1482 10.3147 28.8322 10.3147 29.676Z" fill="#8D94A0"/>
<path d="M36.7961 29.676C36.7961 32.2073 34.7441 34.2593 32.2128 34.2593C29.6815 34.2593 27.6295 32.2073 27.6295 29.676C27.6295 27.1446 29.6815 25.0926 32.2128 25.0926C34.7441 25.0926 36.7961 27.1446 36.7961 29.676Z" fill="#575C64"/>
<path d="M33.7406 29.676C33.7406 30.5197 33.0566 31.2037 32.2128 31.2037C31.369 31.2037 30.685 30.5197 30.685 29.676C30.685 28.8322 31.369 28.1482 32.2128 28.1482C33.0566 28.1482 33.7406 28.8322 33.7406 29.676Z" fill="#8D94A0"/>
<path d="M34.7591 10.8334C34.7591 9.70833 35.6711 8.79632 36.7961 8.79632L38.8332 8.79632V20H36.7961C35.6711 20 34.7591 19.088 34.7591 17.963V10.8334Z" fill="#575C64"/>
<path d="M5.22206 10.8334C5.22206 9.70833 6.13407 8.79632 7.2591 8.79632H17.9535C18.2348 8.79632 18.4628 9.02432 18.4628 9.30558V17.4537C18.4628 17.735 18.2348 17.963 17.9535 17.963H7.2591C6.13407 17.963 5.22206 17.051 5.22206 15.926V10.8334Z" fill="#575C64"/>
<path d="M32.7221 15.926C32.7221 17.051 31.81 17.963 30.685 17.963H19.9906C19.7093 17.963 19.4813 17.735 19.4813 17.4537V9.30558C19.4813 9.02432 19.7093 8.79632 19.9906 8.79632H30.685C31.81 8.79632 32.7221 9.70833 32.7221 10.8334V15.926Z" fill="#575C64"/>
<path d="M36.7961 25.6019C36.7961 24.7581 37.4801 24.0741 38.3239 24.0741H38.8332V27.1297H38.3239C37.4801 27.1297 36.7961 26.4456 36.7961 25.6019Z" fill="white"/>
</svg>
