<svg width="24" height="24" viewBox="0 0 24 24" fill="none" xmlns="http://www.w3.org/2000/svg">
<path fill-rule="evenodd" clip-rule="evenodd" d="M17.207 10.415L11.623 15.999C11.4355 16.1865 11.1812 16.2918 10.916 16.2918C10.6508 16.2918 10.3965 16.1865 10.209 15.999L6.79299 12.582C6.70014 12.4892 6.6265 12.3789 6.57625 12.2576C6.526 12.1363 6.50014 12.0063 6.50014 11.875C6.50014 11.7437 6.526 11.6137 6.57625 11.4924C6.6265 11.3711 6.70014 11.2608 6.79299 11.168C6.88583 11.0752 6.99605 11.0015 7.11736 10.9513C7.23867 10.901 7.36869 10.8752 7.49999 10.8752C7.63129 10.8752 7.76131 10.901 7.88261 10.9513C8.00392 11.0015 8.11414 11.0752 8.20699 11.168L10.916 13.877L15.793 9.001C15.8858 8.90816 15.9961 8.83451 16.1174 8.78426C16.2387 8.73402 16.3687 8.70815 16.5 8.70815C16.6313 8.70815 16.7613 8.73402 16.8826 8.78426C17.0039 8.83451 17.1141 8.90816 17.207 9.001C17.2998 9.09385 17.3735 9.20407 17.4237 9.32538C17.474 9.44668 17.4998 9.5767 17.4998 9.708C17.4998 9.8393 17.474 9.96932 17.4237 10.0906C17.3735 10.2119 17.2998 10.3222 17.207 10.415ZM19.7 2.8H18.07V1.8C18.07 1.53479 17.9646 1.28043 17.7771 1.0929C17.5896 0.90536 17.3352 0.800003 17.07 0.800003C16.8048 0.800003 16.5504 0.90536 16.3629 1.0929C16.1753 1.28043 16.07 1.53479 16.07 1.8V2.8H7.92999V1.8C7.92999 1.53479 7.82463 1.28043 7.63709 1.0929C7.44956 0.90536 7.1952 0.800003 6.92999 0.800003C6.66477 0.800003 6.41042 0.90536 6.22288 1.0929C6.03534 1.28043 5.92999 1.53479 5.92999 1.8V2.8H4.29999C3.76956 2.8 3.26085 3.01072 2.88577 3.38579C2.5107 3.76086 2.29999 4.26957 2.29999 4.8V20.2C2.29999 20.7304 2.5107 21.2391 2.88577 21.6142C3.26085 21.9893 3.76956 22.2 4.29999 22.2H19.7C20.2304 22.2 20.7391 21.9893 21.1142 21.6142C21.4893 21.2391 21.7 20.7304 21.7 20.2V4.8C21.7 4.26957 21.4893 3.76086 21.1142 3.38579C20.7391 3.01072 20.2304 2.8 19.7 2.8Z" fill="#E5E7EB"/>
<path d="M11.623 15.999L17.207 10.415C17.2998 10.3222 17.3735 10.2119 17.4237 10.0906C17.474 9.96933 17.4999 9.83931 17.4999 9.70801C17.4999 9.57671 17.474 9.44669 17.4237 9.32538C17.3735 9.20408 17.2998 9.09385 17.207 9.00101C17.1142 8.90817 17.0039 8.83452 16.8826 8.78427C16.7613 8.73402 16.6313 8.70816 16.5 8.70816C16.3687 8.70816 16.2387 8.73402 16.1174 8.78427C15.9961 8.83452 15.8858 8.90817 15.793 9.00101L10.916 13.877L8.207 11.168C8.11416 11.0752 8.00393 11.0015 7.88263 10.9513C7.76132 10.901 7.6313 10.8752 7.5 10.8752C7.3687 10.8752 7.23868 10.901 7.11738 10.9513C6.99607 11.0015 6.88585 11.0752 6.793 11.168C6.70016 11.2609 6.62651 11.3711 6.57626 11.4924C6.52601 11.6137 6.50015 11.7437 6.50015 11.875C6.50015 12.0063 6.52601 12.1363 6.57626 12.2576C6.62651 12.3789 6.70016 12.4892 6.793 12.582L10.209 15.999C10.3965 16.1865 10.6508 16.2918 10.916 16.2918C11.1812 16.2918 11.4355 16.1865 11.623 15.999Z" fill="#835EEB"/>
</svg>
