<svg width="24" height="24" viewBox="0 0 24 24" fill="none" xmlns="http://www.w3.org/2000/svg">
<path fill-rule="evenodd" clip-rule="evenodd" d="M12 18.267C10.6092 18.2654 9.27574 17.7122 8.29227 16.7288C7.3088 15.7453 6.75559 14.4119 6.754 13.021C6.75532 11.63 7.30842 10.2963 8.29192 9.31265C9.27542 8.32896 10.609 7.77561 12 7.77403C13.391 7.77561 14.7246 8.32896 15.7081 9.31265C16.6916 10.2963 17.2447 11.63 17.246 13.021C17.2444 14.4119 16.6912 15.7453 15.7077 16.7288C14.7243 17.7122 13.3908 18.2654 12 18.267ZM20.113 5.13603H17.159L16.046 2.96703C15.8695 2.62366 15.6018 2.33559 15.2722 2.13447C14.9427 1.93335 14.5641 1.82698 14.178 1.82703H9.765C9.37133 1.82698 8.98558 1.93759 8.65175 2.14623C8.31792 2.35487 8.04946 2.65315 7.877 3.00703L6.841 5.13603H3.887C3.55598 5.1359 3.22818 5.20098 2.92233 5.32756C2.61647 5.45415 2.33855 5.63975 2.10444 5.87376C1.87033 6.10778 1.68462 6.38563 1.55792 6.69143C1.43121 6.99724 1.366 7.32501 1.366 7.65603V19.257C1.366 19.588 1.43121 19.9158 1.55792 20.2216C1.68462 20.5274 1.87033 20.8053 2.10444 21.0393C2.33855 21.2733 2.61647 21.4589 2.92233 21.5855C3.22818 21.7121 3.55598 21.7772 3.887 21.777H20.113C20.444 21.7772 20.7718 21.7121 21.0777 21.5855C21.3835 21.4589 21.6614 21.2733 21.8956 21.0393C22.1297 20.8053 22.3154 20.5274 22.4421 20.2216C22.5688 19.9158 22.634 19.588 22.634 19.257V7.65603C22.634 7.32501 22.5688 6.99724 22.4421 6.69143C22.3154 6.38563 22.1297 6.10778 21.8956 5.87376C21.6614 5.63975 21.3835 5.45415 21.0777 5.32756C20.7718 5.20098 20.444 5.1359 20.113 5.13603Z" fill="#8D94A0"/>
<path fill-rule="evenodd" clip-rule="evenodd" d="M12 9.66403C11.1103 9.66509 10.2574 10.019 9.62846 10.6482C8.99948 11.2774 8.64578 12.1304 8.64499 13.02C8.64552 13.9098 8.99913 14.7629 9.62817 15.3921C10.2572 16.0214 11.1103 16.3752 12 16.376C12.8897 16.3752 13.7428 16.0214 14.3718 15.3921C15.0008 14.7629 15.3545 13.9098 15.355 13.02C15.3542 12.1304 15.0005 11.2774 14.3715 10.6482C13.7425 10.019 12.8896 9.66509 12 9.66403Z" fill="#8D94A0"/>
</svg>
