<svg width="24" height="24" viewBox="0 0 24 24" fill="none" xmlns="http://www.w3.org/2000/svg">
<path d="M21.24 4.23005L16.38 3.11005C16.6528 3.52239 16.7988 4.00563 16.8 4.50005V17.5C16.8 18.1631 16.5366 18.799 16.0678 19.2678C15.5989 19.7367 14.9631 20 14.3 20H9.52002L17.19 21.77C17.8358 21.9198 18.5147 21.8069 19.0772 21.4563C19.6398 21.1056 20.0401 20.5458 20.19 19.9L23.11 7.23005C23.1855 6.91022 23.197 6.5786 23.1438 6.25432C23.0905 5.93004 22.9736 5.6195 22.7998 5.34062C22.6259 5.06174 22.3986 4.82002 22.1309 4.62942C21.8632 4.43881 21.5604 4.30308 21.24 4.23005Z" fill="#9C7EEF"/>
<path d="M0.800049 4.5C0.800049 3.11929 1.91934 2 3.30005 2H14.3C15.6808 2 16.8 3.11929 16.8 4.5V17.5C16.8 18.8807 15.6808 20 14.3 20H3.30005C1.91934 20 0.800049 18.8807 0.800049 17.5V4.5Z" fill="#D9CDF9"/>
<path fill-rule="evenodd" clip-rule="evenodd" d="M9.63985 14.0431C9.93205 14.3353 10.3283 14.4996 10.7415 14.5C11.1547 14.4995 11.5508 14.3351 11.8429 14.0429C12.1351 13.7508 12.2995 13.3547 12.3 12.9415C12.2993 12.5284 12.1349 12.1325 11.8427 11.8405C11.5506 11.5485 11.1546 11.3842 10.7415 11.3836C10.3284 11.384 9.93227 11.5482 9.64008 11.8403C9.3479 12.1323 9.18351 12.5284 9.18298 12.9415C9.18334 13.3547 9.34765 13.7509 9.63985 14.0431ZM6.63022 13.8638C6.69472 13.8371 6.75333 13.798 6.80271 13.7486L11.5486 9.00337C11.6384 8.90173 11.6859 8.76972 11.6817 8.63422C11.6775 8.49872 11.6218 8.36993 11.5259 8.27407C11.4301 8.17821 11.3013 8.1225 11.1658 8.11828C11.0303 8.11406 10.8983 8.16165 10.7966 8.25135L6.05135 12.9966C6.00197 13.046 5.9628 13.1045 5.93606 13.169C5.90932 13.2335 5.89554 13.3026 5.89551 13.3724C5.89548 13.4422 5.90919 13.5113 5.93588 13.5758C5.96256 13.6403 6.00169 13.6989 6.05102 13.7483C6.10036 13.7977 6.15893 13.8369 6.22341 13.8636C6.28788 13.8903 6.35699 13.9041 6.42679 13.9042C6.49659 13.9042 6.56572 13.8905 6.63022 13.8638ZM5.75682 7.95729C5.4648 8.24944 5.30053 8.64544 5.3 9.05851C5.30035 9.47163 5.46457 9.86774 5.75663 10.1599C6.04869 10.4521 6.44473 10.6165 6.85784 10.617C7.27114 10.6167 7.66742 10.4524 7.95972 10.1602C8.25203 9.86801 8.41649 9.4718 8.41702 9.05851C8.41631 8.64527 8.2518 8.24916 7.95953 7.95702C7.66726 7.66487 7.27109 7.50053 6.85784 7.5C6.44478 7.5007 6.04884 7.66515 5.75682 7.95729ZM10.7416 12.4466C10.675 12.4442 10.6085 12.4553 10.5462 12.4791C10.484 12.503 10.4271 12.5392 10.3791 12.5855C10.3312 12.6318 10.293 12.6873 10.267 12.7487C10.2409 12.8101 10.2275 12.8761 10.2276 12.9428C10.2276 13.0095 10.2411 13.0755 10.2672 13.1369C10.2933 13.1983 10.3316 13.2537 10.3796 13.3C10.4277 13.3463 10.4845 13.3824 10.5469 13.4061C10.6092 13.4299 10.6756 13.4409 10.7423 13.4384C10.8707 13.4336 10.9922 13.3792 11.0813 13.2867C11.1704 13.1941 11.2201 13.0707 11.2201 12.9422C11.22 12.8137 11.1701 12.6903 11.0808 12.5978C10.9916 12.5054 10.87 12.4512 10.7416 12.4466ZM7.35356 9.05852C7.35596 8.99187 7.34489 8.92541 7.32102 8.86313C7.29716 8.80085 7.26098 8.74402 7.21466 8.69604C7.16834 8.64805 7.11282 8.60989 7.05142 8.58385C6.99002 8.55781 6.92399 8.5444 6.8573 8.54445C6.7906 8.54449 6.7246 8.55798 6.66323 8.58411C6.60186 8.61024 6.5464 8.64847 6.50014 8.69651C6.45388 8.74456 6.41778 8.80144 6.394 8.86375C6.37021 8.92607 6.35924 8.99253 6.36172 9.05918C6.36642 9.18757 6.42073 9.30913 6.51322 9.39829C6.60571 9.48746 6.72917 9.53728 6.85764 9.53728C6.98611 9.53728 7.10958 9.48746 7.20207 9.39829C7.29456 9.30913 7.34886 9.1869 7.35356 9.05852Z" fill="#9C7EEF"/>
</svg>
