<svg width="33" height="32" viewBox="0 0 33 32" fill="none" xmlns="http://www.w3.org/2000/svg">
<path fill-rule="evenodd" clip-rule="evenodd" d="M16.5 2.09338C8.76667 2.09338 2.5 7.76005 2.5 14.76C2.51439 16.3942 2.86241 18.0082 3.52272 19.5031C4.18303 20.9979 5.14172 22.3422 6.34 23.4534L5.18 29.1067C5.14718 29.229 5.14718 29.3578 5.18 29.48C5.2264 29.5936 5.29959 29.6943 5.39333 29.7734C5.49168 29.8448 5.60622 29.8906 5.72667 29.9067C5.8444 29.9397 5.96894 29.9397 6.08667 29.9067L12.3933 26.92C13.7215 27.2918 15.0942 27.4802 16.4733 27.4801C24.2067 27.4801 30.4733 21.8 30.4733 14.8134C30.4733 7.82672 24.2333 2.09338 16.5 2.09338ZM16.5 22C15.0496 22 13.6318 21.57 12.4258 20.7642C11.2199 19.9584 10.2799 18.8131 9.72488 17.4731C9.16984 16.1331 9.02462 14.6586 9.30757 13.2361C9.59053 11.8135 10.289 10.5069 11.3146 9.48127C12.3401 8.45568 13.6468 7.75725 15.0693 7.47429C16.4919 7.19133 17.9664 7.33656 19.3063 7.8916C20.6463 8.44664 21.7916 9.38657 22.5974 10.5925C23.4032 11.7985 23.8333 13.2163 23.8333 14.6667C23.8298 16.6106 23.0561 18.4738 21.6816 19.8483C20.3071 21.2228 18.4438 21.9965 16.5 22ZM21.1667 14.6667C21.1667 15.5897 20.893 16.4919 20.3802 17.2594C19.8674 18.0268 19.1386 18.6249 18.2859 18.9782C17.4331 19.3314 16.4948 19.4238 15.5896 19.2437C14.6843 19.0637 13.8528 18.6192 13.2002 17.9665C12.5475 17.3139 12.1031 16.4824 11.923 15.5771C11.7429 14.6719 11.8354 13.7336 12.1886 12.8809C12.5418 12.0281 13.1399 11.2993 13.9073 10.7865C14.6748 10.2737 15.577 10 16.5 10C17.7377 10 18.9247 10.4917 19.7998 11.3669C20.675 12.2421 21.1667 13.429 21.1667 14.6667Z" fill="#C6D8FA"/>
<path fill-rule="evenodd" clip-rule="evenodd" d="M16.5 10C13.9227 10 11.8333 12.0894 11.8333 14.6667C11.8333 17.244 13.9227 19.3334 16.5 19.3334C19.0773 19.3334 21.1667 17.244 21.1667 14.6667C21.1667 12.0894 19.0773 10 16.5 10ZM9.16667 14.6667C9.16667 10.6166 12.4499 7.33338 16.5 7.33338C20.5501 7.33338 23.8333 10.6166 23.8333 14.6667C23.8333 18.7168 20.5501 22 16.5 22C12.4499 22 9.16667 18.7168 9.16667 14.6667Z" fill="#6D99F1"/>
</svg>
