<svg width="24" height="24" viewBox="0 0 24 24" fill="none" xmlns="http://www.w3.org/2000/svg">
<g clip-path="url(#clip0_9998_32386)">
<path fill-rule="evenodd" clip-rule="evenodd" d="M12 1.57001C6.2 1.57001 1.5 5.82001 1.5 11.07C1.51079 12.2956 1.7718 13.5061 2.26704 14.6273C2.76227 15.7484 3.48129 16.7566 4.38 17.59L3.51 21.83C3.48538 21.9217 3.48538 22.0183 3.51 22.11C3.5448 22.1952 3.59969 22.2707 3.67 22.33C3.74376 22.3835 3.82967 22.4179 3.92 22.43C4.0083 22.4548 4.1017 22.4548 4.19 22.43L8.92 20.19C9.9161 20.4688 10.9456 20.6101 11.98 20.61C17.78 20.61 22.48 16.35 22.48 11.11C22.48 5.87001 17.8 1.57001 12 1.57001ZM12 16.5C10.9122 16.5 9.84883 16.1774 8.94436 15.5731C8.03989 14.9687 7.33494 14.1098 6.91866 13.1048C6.50238 12.0998 6.39346 10.9939 6.60568 9.92701C6.8179 8.86012 7.34172 7.88011 8.11091 7.11092C8.8801 6.34173 9.86011 5.81791 10.927 5.60569C11.9939 5.39347 13.0998 5.50239 14.1048 5.91867C15.1098 6.33495 15.9687 7.0399 16.5731 7.94437C17.1774 8.84884 17.5 9.91221 17.5 11C17.4974 12.4579 16.917 13.8553 15.8862 14.8862C14.8553 15.9171 13.4579 16.4974 12 16.5ZM15.5 11C15.5 11.6922 15.2947 12.3689 14.9101 12.9445C14.5256 13.5201 13.9789 13.9687 13.3394 14.2336C12.6999 14.4985 11.9961 14.5678 11.3172 14.4328C10.6383 14.2977 10.0146 13.9644 9.52513 13.4749C9.03564 12.9854 8.7023 12.3618 8.56725 11.6828C8.4322 11.0039 8.50151 10.3002 8.76642 9.66062C9.03133 9.02107 9.47993 8.47445 10.0555 8.08986C10.6311 7.70528 11.3078 7.50001 12 7.50001C12.9283 7.50001 13.8185 7.86876 14.4749 8.52513C15.1313 9.18151 15.5 10.0717 15.5 11Z" fill="#8D94A0"/>
</g>
<defs>
<clipPath id="clip0_9998_32386">
<rect width="24" height="24" fill="white"/>
</clipPath>
</defs>
</svg>
