<svg width="24" height="24" viewBox="0 0 24 24" fill="none" xmlns="http://www.w3.org/2000/svg">
<path fill-rule="evenodd" clip-rule="evenodd" d="M17.207 10.215L11.624 15.799C11.4359 15.9858 11.1816 16.0906 10.9165 16.0906C10.6514 16.0906 10.3971 15.9858 10.209 15.799L6.793 12.383C6.70016 12.2902 6.62651 12.1799 6.57626 12.0586C6.52601 11.9373 6.50015 11.8073 6.50015 11.676C6.50015 11.4108 6.60549 11.1565 6.793 10.969C6.98051 10.7815 7.23482 10.6762 7.5 10.6762C7.76518 10.6762 8.01949 10.7815 8.207 10.969L10.916 13.678L15.793 8.801C15.8858 8.70816 15.9961 8.63451 16.1174 8.58426C16.2387 8.53401 16.3687 8.50815 16.5 8.50815C16.6313 8.50815 16.7613 8.53401 16.8826 8.58426C17.0039 8.63451 17.1142 8.70816 17.207 8.801C17.2998 8.89384 17.3735 9.00407 17.4237 9.12537C17.474 9.24668 17.4998 9.3767 17.4998 9.508C17.4998 9.6393 17.474 9.76932 17.4237 9.89063C17.3735 10.0119 17.2998 10.1222 17.207 10.215ZM12 1C5.925 1 1 5.925 1 12C1 18.075 5.925 23 12 23C18.075 23 23 18.075 23 12C23 5.925 18.075 1 12 1Z" fill="#D9CDF9"/>
<path d="M11.623 15.7908L17.207 10.2068C17.2998 10.114 17.3735 10.0038 17.4237 9.88247C17.474 9.76117 17.4998 9.63115 17.4998 9.49985C17.4998 9.36855 17.474 9.23853 17.4237 9.11722C17.3735 8.99592 17.2998 8.88569 17.207 8.79285C17.1141 8.7 17.0039 8.62636 16.8826 8.57611C16.7613 8.52586 16.6313 8.5 16.5 8.5C16.3687 8.5 16.2387 8.52586 16.1173 8.57611C15.996 8.62636 15.8858 8.7 15.793 8.79285L10.916 13.6688L8.20697 10.9598C8.11413 10.867 8.0039 10.7934 7.8826 10.7431C7.76129 10.6929 7.63127 10.667 7.49997 10.667C7.36867 10.667 7.23865 10.6929 7.11734 10.7431C6.99604 10.7934 6.88582 10.867 6.79297 10.9598C6.70013 11.0527 6.62648 11.1629 6.57623 11.2842C6.52598 11.4055 6.50012 11.5355 6.50012 11.6668C6.50012 11.7982 6.52598 11.9282 6.57623 12.0495C6.62648 12.1708 6.70013 12.281 6.79297 12.3738L10.209 15.7908C10.3965 15.9783 10.6508 16.0836 10.916 16.0836C11.1811 16.0836 11.4354 15.9783 11.623 15.7908Z" fill="#9C7EEF"/>
</svg>
