<svg width="24" height="24" viewBox="0 0 24 24" fill="none" xmlns="http://www.w3.org/2000/svg">
<path fill-rule="evenodd" clip-rule="evenodd" d="M3.89987 15.354C3.89978 15.1767 3.93472 15.0012 4.00268 14.8374C4.07064 14.6737 4.17028 14.525 4.29587 14.4L11.0459 7.64996C11.1712 7.52455 11.3201 7.42507 11.4839 7.3572C11.6477 7.28933 11.8233 7.25439 12.0006 7.25439C12.1779 7.25439 12.3535 7.28933 12.5173 7.3572C12.6812 7.42507 12.83 7.52455 12.9554 7.64996L19.7054 14.4C19.8351 14.5243 19.9387 14.6734 20.01 14.8383C20.0814 15.0032 20.1191 15.1808 20.121 15.3605C20.1228 15.5402 20.0888 15.7185 20.0208 15.8848C19.9529 16.0512 19.8524 16.2024 19.7253 16.3294C19.5982 16.4564 19.4469 16.5568 19.2805 16.6246C19.1141 16.6924 18.9358 16.7263 18.7561 16.7243C18.5764 16.7223 18.3989 16.6845 18.234 16.613C18.0691 16.5415 17.9201 16.4378 17.7959 16.308L11.9999 10.5135L6.20537 16.308C6.01665 16.497 5.77608 16.6259 5.51411 16.6782C5.25214 16.7304 4.98054 16.7038 4.7337 16.6017C4.48685 16.4996 4.27586 16.3265 4.12743 16.1044C3.979 15.8823 3.89981 15.6211 3.89987 15.354Z" fill="#8D94A0"/>
</svg>
