<svg width="24" height="24" viewBox="0 0 24 24" fill="none" xmlns="http://www.w3.org/2000/svg">
<path fill-rule="evenodd" clip-rule="evenodd" d="M8.64592 3.87881C8.82319 3.87872 8.99872 3.91366 9.16244 3.98162C9.32615 4.04958 9.47483 4.14922 9.59992 4.27481L16.3499 11.0248C16.4753 11.1502 16.5748 11.299 16.6427 11.4628C16.7106 11.6267 16.7455 11.8022 16.7455 11.9796C16.7455 12.1569 16.7106 12.3325 16.6427 12.4963C16.5748 12.6601 16.4753 12.8089 16.3499 12.9343L9.59992 19.6843C9.47554 19.814 9.32651 19.9176 9.16157 19.989C8.99663 20.0604 8.8191 20.0981 8.63939 20.0999C8.45969 20.1018 8.28141 20.0677 8.11504 19.9998C7.94866 19.9318 7.79752 19.8314 7.67049 19.7042C7.54346 19.5771 7.4431 19.4259 7.37528 19.2594C7.30746 19.093 7.27355 18.9147 7.27555 18.735C7.27754 18.5553 7.3154 18.3778 7.3869 18.2129C7.4584 18.048 7.5621 17.8991 7.69192 17.7748L13.4864 11.9788L7.69192 6.18431C7.50285 5.9956 7.37401 5.75503 7.32172 5.49305C7.26944 5.23108 7.29605 4.95948 7.39819 4.71264C7.50033 4.4658 7.67341 4.25481 7.89552 4.10638C8.11763 3.95795 8.37878 3.87875 8.64592 3.87881Z" fill="#8D94A0"/>
</svg>
