<svg width="24" height="24" viewBox="0 0 24 24" fill="none" xmlns="http://www.w3.org/2000/svg">
<path fill-rule="evenodd" clip-rule="evenodd" d="M20.1211 8.62486C20.1212 8.80213 20.0862 8.97766 20.0183 9.14138C19.9503 9.3051 19.8507 9.45377 19.7251 9.57886L12.9751 16.3289C12.8497 16.4543 12.7009 16.5537 12.537 16.6216C12.3732 16.6895 12.1976 16.7244 12.0203 16.7244C11.843 16.7244 11.6674 16.6895 11.5036 16.6216C11.3398 16.5537 11.1909 16.4543 11.0656 16.3289L4.31556 9.57886C4.18584 9.45448 4.08226 9.30546 4.01089 9.14052C3.93952 8.97558 3.9018 8.79805 3.89994 8.61834C3.89809 8.43863 3.93214 8.26036 4.00009 8.09398C4.06804 7.9276 4.16852 7.77647 4.29565 7.64944C4.42278 7.52241 4.574 7.42204 4.74043 7.35422C4.90686 7.2864 5.08516 7.25249 5.26486 7.25449C5.44457 7.25648 5.62207 7.29434 5.78695 7.36584C5.95184 7.43734 6.10079 7.54104 6.22506 7.67086L12.0211 13.4654L17.8156 7.67086C18.0043 7.48179 18.2449 7.35295 18.5068 7.30066C18.7688 7.24838 19.0404 7.27499 19.2872 7.37713C19.5341 7.47927 19.7451 7.65235 19.8935 7.87446C20.0419 8.09657 20.1211 8.35772 20.1211 8.62486Z" fill="#8D94A0"/>
</svg>
