<svg width="20" height="20" viewBox="0 0 20 20" fill="none" xmlns="http://www.w3.org/2000/svg">
<path fill-rule="evenodd" clip-rule="evenodd" d="M3.12146 3.02043C3.26918 3.02035 3.41546 3.04947 3.55189 3.1061C3.68832 3.16273 3.81222 3.24576 3.91646 3.35043L9.54146 8.97543C9.64596 9.0799 9.72886 9.20393 9.78542 9.34045C9.84198 9.47696 9.87109 9.62328 9.87109 9.77105C9.87109 9.91882 9.84198 10.0651 9.78542 10.2017C9.72886 10.3382 9.64596 10.4622 9.54146 10.5667L3.91646 16.1917C3.81281 16.2998 3.68862 16.3861 3.55117 16.4456C3.41372 16.505 3.26578 16.5365 3.11602 16.538C2.96626 16.5396 2.8177 16.5112 2.67906 16.4546C2.54041 16.3979 2.41446 16.3142 2.3086 16.2083C2.20274 16.1023 2.1191 15.9763 2.06259 15.8376C2.00607 15.6989 1.97782 15.5503 1.97948 15.4006C1.98114 15.2508 2.01269 15.1029 2.07227 14.9655C2.13186 14.8281 2.21827 14.704 2.32646 14.6004L7.15521 9.77043L2.32646 4.94167C2.1689 4.78441 2.06153 4.58394 2.01796 4.36562C1.97439 4.14731 1.99656 3.92098 2.08168 3.71528C2.1668 3.50958 2.31103 3.33375 2.49612 3.21006C2.68121 3.08637 2.89884 3.02037 3.12146 3.02043Z" fill="white"/>
<path opacity="0.6" fill-rule="evenodd" clip-rule="evenodd" d="M11.455 3.02043C11.6027 3.02035 11.749 3.04947 11.8854 3.1061C12.0218 3.16273 12.1457 3.24576 12.25 3.35043L17.875 8.97543C17.9795 9.0799 18.0624 9.20393 18.1189 9.34045C18.1755 9.47696 18.2046 9.62328 18.2046 9.77105C18.2046 9.91882 18.1755 10.0651 18.1189 10.2017C18.0624 10.3382 17.9795 10.4622 17.875 10.5667L12.25 16.1917C12.1463 16.2998 12.0221 16.3861 11.8847 16.4456C11.7472 16.505 11.5993 16.5365 11.4495 16.538C11.2998 16.5396 11.1512 16.5112 11.0126 16.4546C10.8739 16.3979 10.748 16.3142 10.6421 16.2083C10.5362 16.1023 10.4526 15.9763 10.3961 15.8376C10.3396 15.6989 10.3113 15.5503 10.313 15.4006C10.3146 15.2508 10.3462 15.1029 10.4058 14.9655C10.4654 14.8281 10.5518 14.704 10.66 14.6004L15.4887 9.77043L10.66 4.94167C10.5024 4.78441 10.395 4.58394 10.3515 4.36562C10.3079 4.14731 10.3301 3.92098 10.4152 3.71528C10.5003 3.50958 10.6445 3.33375 10.8296 3.21006C11.0147 3.08637 11.2323 3.02037 11.455 3.02043Z" fill="white"/>
</svg>
