<svg width="24" height="24" viewBox="0 0 24 24" fill="none" xmlns="http://www.w3.org/2000/svg">
<path fill-rule="evenodd" clip-rule="evenodd" d="M16.7 7.3C15.7 4.2 12.9 2 9.5 2C5.4 2 2 5.4 2 9.5C2 12.9 4.2 15.7 7.3 16.7C8.2 19.8 11.1 22 14.5 22C18.6 22 22 18.6 22 14.5C22 11.1 19.8 8.3 16.7 7.3ZM15 9.5C15 12.5 12.5 15 9.5 15C9.3 15 9.2 15 9 15C9 14.8 9 14.7 9 14.5C9 11.5 11.5 9 14.5 9C14.7 9 14.8 9 15 9C15 9.2 15 9.3 15 9.5ZM4 9.5C4 6.5 6.5 4 9.5 4C11.6 4 13.5 5.2 14.4 7C10.3 7.1 7.1 10.3 7 14.4C5.2 13.5 4 11.6 4 9.5ZM14.5 20C12.4 20 10.5 18.8 9.6 17C13.7 16.9 16.9 13.7 17 9.6C18.8 10.5 20 12.4 20 14.5C20 17.5 17.5 20 14.5 20Z" fill="#8D94A0"/>
</svg>
