<svg width="24" height="24" viewBox="0 0 24 24" fill="none" xmlns="http://www.w3.org/2000/svg">
<path fill-rule="evenodd" clip-rule="evenodd" d="M21.5 4H18.5L17 5L15.5 4H3.5C2.4 4 1.5 4.9 1.5 6V18C1.5 19.1 2.4 20 3.5 20H15.5L17 19L18.5 20H21.5C22.1 20 22.5 19.6 22.5 19V5C22.5 4.4 22.1 4 21.5 4ZM12 14.9C11.3 15.6 10.4 16 9.3 16C7.1 16 5.5 14.3 5.5 12C5.5 9.7 7.1 8 9.3 8C10.3 8 11.3 8.4 12 9.1C12.3 9.4 12.2 10 11.8 10.2C11.4 10.4 10.9 10.3 10.5 10C10.2 9.8 9.8 9.7 9.4 9.7C8 9.7 7.2 10.6 7.2 12C7.2 13.4 8 14.3 9.4 14.3C9.8 14.3 10.2 14.2 10.5 14C10.9 13.7 11.4 13.6 11.8 13.8C12.2 14 12.3 14.5 12 14.9ZM17.5 18.3H16.5V17.2H17.5V18.3ZM17.5 16H16.5V14.9H17.5V16ZM17.5 13.7H16.5V12.6H17.5V13.7ZM17.5 11.4H16.5V10.3H17.5V11.4ZM17.5 9.1H16.5V8H17.5V9.1ZM17.5 6.9H16.5V5.7H17.5V6.9Z" fill="#8D94A0"/>
</svg>
