<svg width="32" height="33" viewBox="0 0 32 33" fill="none" xmlns="http://www.w3.org/2000/svg">
<g clip-path="url(#clip0_22322_86180)">
<path fill-rule="evenodd" clip-rule="evenodd" d="M1.33325 5.5068C1.33325 2.74162 3.57487 0.5 6.34005 0.5C8.59724 0.5 10.5056 1.99365 11.1305 4.04647H23.0295C26.7164 4.04647 29.7052 7.0353 29.7052 10.7222C29.7052 14.4091 26.7164 17.3979 23.0295 17.3979H10.2343C10.1421 17.3979 10.0516 17.3905 9.96345 17.3761L8.56531 17.398C6.72185 17.398 5.22744 18.8924 5.22744 20.7358C5.22744 22.5793 6.72185 24.0737 8.5653 24.0737L19.5892 24.0737C20.3802 22.3501 22.1213 21.1531 24.142 21.1531C26.9072 21.1531 29.1488 23.3947 29.1488 26.1599C29.1488 28.9251 26.9072 31.1667 24.142 31.1667C21.809 31.1667 19.8487 29.571 19.2929 27.4116H8.5653C4.87839 27.4116 1.88957 24.4228 1.88957 20.7358C1.88957 17.0489 4.8784 14.0601 8.56531 14.0601H10.2236L10.2343 14.0601H23.0295C24.8729 14.0601 26.3673 12.5657 26.3673 10.7222C26.3673 8.87875 24.8729 7.38434 23.0295 7.38434H10.9829C10.2402 9.21923 8.44128 10.5136 6.34005 10.5136C3.57487 10.5136 1.33325 8.27198 1.33325 5.5068Z" fill="#D9CDF9"/>
<rect x="1.33325" y="0.5" width="10.0136" height="10.0136" rx="5.0068" fill="#9C7EEF"/>
<rect x="19.1333" y="21.1667" width="10.0136" height="10.0136" rx="5.0068" fill="#9C7EEF"/>
</g>
<defs>
<clipPath id="clip0_22322_86180">
<rect width="32" height="32" fill="white" transform="translate(0 0.5)"/>
</clipPath>
</defs>
</svg>
