<svg width="24" height="24" viewBox="0 0 24 24" fill="none" xmlns="http://www.w3.org/2000/svg">
<path fill-rule="evenodd" clip-rule="evenodd" d="M9.41422 3.5C8.88378 3.5 8.37507 3.71071 8 4.08579L1.5 10.5858C0.718952 11.3668 0.718954 12.6332 1.5 13.4142L8 19.9142C8.37507 20.2893 8.88378 20.5 9.41421 20.5H21.5C22.6046 20.5 23.5 19.6046 23.5 18.5V5.5C23.5 4.39543 22.6046 3.5 21.5 3.5H9.41422ZM9.41422 5.5H21.5V18.5H9.41422L2.91421 12L9.41422 5.5ZM17.5714 8.14286C17.9265 7.78782 18.5021 7.78782 18.8572 8.14286C19.2122 8.4979 19.2122 9.07353 18.8572 9.42857L16.2857 12L18.8571 14.5714C19.2122 14.9265 19.2122 15.5021 18.8571 15.8571C18.5021 16.2122 17.9265 16.2122 17.5714 15.8571L15 13.2857L12.4286 15.8571C12.0735 16.2122 11.4979 16.2122 11.1429 15.8571C10.7878 15.5021 10.7878 14.9265 11.1429 14.5714L13.7143 12L11.1429 9.42858C10.7878 9.07354 10.7878 8.4979 11.1429 8.14286C11.4979 7.78782 12.0735 7.78782 12.4286 8.14286L15 10.7143L17.5714 8.14286Z" fill="#8D94A0"/>
</svg>
