<svg width="24" height="24" viewBox="0 0 24 24" fill="none" xmlns="http://www.w3.org/2000/svg">
<path fill-rule="evenodd" clip-rule="evenodd" d="M5 14.001C4.73729 14.0009 4.47717 13.9491 4.23448 13.8485C3.99179 13.7479 3.7713 13.6005 3.58558 13.4147C3.39986 13.2289 3.25256 13.0083 3.15209 12.7656C3.05161 12.5229 2.99993 12.2627 3 12C3.00007 11.7373 3.05188 11.4772 3.15247 11.2345C3.25307 10.9918 3.40048 10.7713 3.58629 10.5856C3.7721 10.3999 3.99267 10.2526 4.2354 10.1521C4.47814 10.0516 4.73829 9.99993 5.001 10C5.53157 10.0001 6.04035 10.211 6.41542 10.5863C6.79049 10.9615 7.00113 11.4704 7.001 12.001C7.00087 12.5316 6.78997 13.0403 6.41471 13.4154C6.03945 13.7905 5.53057 14.0011 5 14.001ZM11.771 14.001C11.2406 14.001 10.7319 13.7903 10.3568 13.4152C9.98171 13.0401 9.771 12.5314 9.771 12.001C9.771 11.4706 9.98171 10.9619 10.3568 10.5868C10.7319 10.2117 11.2406 10.001 11.771 10.001C12.3014 10.001 12.8101 10.2117 13.1852 10.5868C13.5603 10.9619 13.771 11.4706 13.771 12.001C13.771 12.5314 13.5603 13.0401 13.1852 13.4152C12.8101 13.7903 12.3014 14.001 11.771 14.001ZM18.541 14.001C18.2783 14.0009 18.0182 13.9491 17.7755 13.8485C17.5328 13.7479 17.3123 13.6005 17.1266 13.4147C16.9409 13.2289 16.7936 13.0083 16.6931 12.7656C16.5926 12.5229 16.5409 12.2627 16.541 12C16.5411 11.7373 16.5929 11.4772 16.6935 11.2345C16.7941 10.9918 16.9415 10.7713 17.1273 10.5856C17.3131 10.3999 17.5337 10.2526 17.7764 10.1521C18.0191 10.0516 18.2793 9.99993 18.542 10C19.0726 10.0001 19.5813 10.211 19.9564 10.5863C20.3315 10.9615 20.5421 11.4704 20.542 12.001C20.5419 12.5316 20.331 13.0403 19.9557 13.4154C19.5805 13.7905 19.0716 14.0011 18.541 14.001Z" fill="#8D94A0"/>
</svg>
