<svg width="24" height="24" viewBox="0 0 24 24" fill="none" xmlns="http://www.w3.org/2000/svg">
<path fill-rule="evenodd" clip-rule="evenodd" d="M12.157 18.2601C12.9381 19.0411 14.2044 19.0411 14.9855 18.2601L21.5187 11.7269C22.2997 10.9458 22.2997 9.67947 21.5187 8.89843L15.0791 2.45883C14.298 1.67779 13.0317 1.67779 12.2506 2.45883L5.71744 8.99204C4.93639 9.77309 4.93639 11.0394 5.71744 11.8205L12.157 18.2601ZM2.04089 16.7974C1.9657 16.4436 1.99463 16.0755 2.12417 15.7378L3.50577 12.1318L11.8682 20.4942L8.26225 21.8758C7.92448 22.0054 7.55642 22.0343 7.20257 21.9591C6.84871 21.8839 6.52421 21.7078 6.2683 21.4522L2.54785 17.7317C2.29216 17.4758 2.11608 17.1513 2.04089 16.7974Z" fill="#8D94A0"/>
</svg>
