<svg width="24" height="24" viewBox="0 0 24 24" fill="none" xmlns="http://www.w3.org/2000/svg">
<path fill-rule="evenodd" clip-rule="evenodd" d="M12.125 9.22498C10.525 9.22498 9.22501 10.525 9.22501 12.125C9.22501 13.725 10.525 15.025 12.125 15.025C13.725 15.025 15.025 13.725 15.025 12.125C15.025 10.525 13.725 9.22498 12.125 9.22498Z" fill="#8D94A0"/>
<path fill-rule="evenodd" clip-rule="evenodd" d="M12.125 17.125C9.325 17.125 7.125 14.825 7.125 12.125C7.125 9.42499 9.425 7.12499 12.125 7.12499C14.825 7.12499 17.125 9.42499 17.125 12.125C17.125 14.825 14.925 17.125 12.125 17.125ZM23.125 10.825C20.525 6.82499 16.425 4.42499 12.125 4.42499C7.825 4.42499 3.725 6.82499 1.125 10.825C0.625 11.625 0.625 12.625 1.125 13.425C3.725 17.425 7.825 19.825 12.125 19.825C16.425 19.825 20.525 17.425 23.125 13.425C23.725 12.625 23.725 11.625 23.125 10.825Z" fill="#8D94A0"/>
</svg>
