<svg width="24" height="24" viewBox="0 0 24 24" fill="none" xmlns="http://www.w3.org/2000/svg">
<path d="M1 12C1 5.92487 5.92487 1 12 1C18.0751 1 23 5.92487 23 12C23 18.0751 18.0751 23 12 23C5.92487 23 1 18.0751 1 12Z" fill="#1877F2"/>
<path fill-rule="evenodd" clip-rule="evenodd" d="M14.5253 12.4299L14.8179 10.5221H12.9874V9.28402C12.9874 8.76207 13.2431 8.25332 14.063 8.25332H14.8953V6.6291C14.8953 6.6291 14.14 6.5002 13.4179 6.5002C11.9103 6.5002 10.9249 7.41388 10.9249 9.06801V10.5221H9.24916V12.4299H10.9249V17.0419C11.261 17.0946 11.6054 17.1221 11.9562 17.1221C12.307 17.1221 12.6514 17.0946 12.9874 17.0419V12.4299H14.5253Z" fill="white"/>
</svg>
