<svg width="24" height="24" viewBox="0 0 24 24" fill="none" xmlns="http://www.w3.org/2000/svg">
<path fill-rule="evenodd" clip-rule="evenodd" d="M14.771 4.60002C15.0175 4.60802 15.2512 4.71157 15.4228 4.88876C15.5943 5.06595 15.6902 5.3029 15.6902 5.54952C15.6902 5.79614 15.5943 6.0331 15.4228 6.21029C15.2512 6.38748 15.0175 6.49102 14.771 6.49902C14.5245 6.49102 14.2908 6.38748 14.1193 6.21029C13.9477 6.0331 13.8518 5.79614 13.8518 5.54952C13.8518 5.3029 13.9477 5.06595 14.1193 4.88876C14.2908 4.71157 14.5245 4.60802 14.771 4.60002ZM3.50002 6.64902H11.83C12.0532 7.24953 12.4544 7.76758 12.98 8.13392C13.5055 8.50026 14.1304 8.69741 14.771 8.69902C15.4115 8.69721 16.0361 8.49996 16.5615 8.13364C17.0869 7.76731 17.4879 7.24937 17.711 6.64902H20.5C20.7918 6.64902 21.0716 6.53313 21.2778 6.32684C21.4841 6.12055 21.6 5.84076 21.6 5.54902C21.6 5.25729 21.4841 4.9775 21.2778 4.77121C21.0716 4.56492 20.7918 4.44902 20.5 4.44902H17.711C17.4877 3.84887 17.0866 3.33114 16.5613 2.965C16.0359 2.59887 15.4114 2.40176 14.771 2.40002C14.1306 2.40184 13.5059 2.59896 12.9804 2.96507C12.4549 3.33118 12.0536 3.84887 11.83 4.44902H3.50002C3.20829 4.44902 2.9285 4.56492 2.72221 4.77121C2.51592 4.9775 2.40002 5.25729 2.40002 5.54902C2.40002 5.84076 2.51592 6.12055 2.72221 6.32684C2.9285 6.53313 3.20829 6.64902 3.50002 6.64902ZM20.5 10.899H3.50002C3.20829 10.899 2.9285 11.0149 2.72221 11.2212C2.51592 11.4275 2.40002 11.7073 2.40002 11.999C2.40002 12.2908 2.51592 12.5706 2.72221 12.7768C2.9285 12.9831 3.20829 13.099 3.50002 13.099H20.5C20.7918 13.099 21.0716 12.9831 21.2778 12.7768C21.4841 12.5706 21.6 12.2908 21.6 11.999C21.6 11.7073 21.4841 11.4275 21.2778 11.2212C21.0716 11.0149 20.7918 10.899 20.5 10.899ZM9.22902 19.4C8.98487 19.3888 8.75443 19.2839 8.58562 19.1072C8.4168 18.9304 8.3226 18.6954 8.3226 18.451C8.3226 18.2066 8.4168 17.9716 8.58562 17.7949C8.75443 17.6181 8.98487 17.5132 9.22902 17.502C9.47551 17.51 9.70923 17.6136 9.88077 17.7908C10.0523 17.968 10.1482 18.2049 10.1482 18.4515C10.1482 18.6981 10.0523 18.9351 9.88077 19.1123C9.70923 19.2895 9.47551 19.393 9.22902 19.401M20.5 17.35H12.17C11.9468 16.7495 11.5456 16.2315 11.0201 15.8651C10.4945 15.4988 9.86966 15.3016 9.22902 15.3C8.58856 15.3018 7.96391 15.4991 7.43855 15.8654C6.91319 16.2317 6.51215 16.7497 6.28902 17.35H3.50002C3.20829 17.35 2.9285 17.4659 2.72221 17.6722C2.51592 17.8785 2.40002 18.1583 2.40002 18.45C2.40002 18.7418 2.51592 19.0216 2.72221 19.2278C2.9285 19.4341 3.20829 19.55 3.50002 19.55H6.28902C6.51215 20.1504 6.91319 20.6683 7.43855 21.0346C7.96391 21.401 8.58856 21.5982 9.22902 21.6C9.86959 21.5981 10.4943 21.4009 11.0198 21.0346C11.5453 20.6683 11.9466 20.1504 12.17 19.55H20.5C20.7918 19.55 21.0716 19.4341 21.2778 19.2278C21.4841 19.0216 21.6 18.7418 21.6 18.45C21.6 18.1583 21.4841 17.8785 21.2778 17.6722C21.0716 17.4659 20.7918 17.35 20.5 17.35Z" fill="#8D94A0"/>
</svg>
