<svg width="24" height="24" viewBox="0 0 24 24" fill="none" xmlns="http://www.w3.org/2000/svg">
<path fill-rule="evenodd" clip-rule="evenodd" d="M12 1C5.925 1 1 5.924 1 12C1 18.075 5.925 23 12 23C18.075 23 23 18.075 23 12C23 5.924 18.075 1 12 1ZM17.6221 8.21709C18.0545 8.56069 18.1265 9.18975 17.7829 9.62214L14.0987 14.2585C13.9151 14.4895 13.6389 14.6277 13.3439 14.636C13.0489 14.6443 12.7653 14.5218 12.569 14.3015L10.2867 11.7391L7.84102 15.541C7.54223 16.0055 6.92348 16.1398 6.45899 15.841C5.99451 15.5422 5.86019 14.9235 6.15898 14.459L9.31688 9.54991C9.48599 9.28701 9.76832 9.11832 10.08 9.09396C10.3916 9.0696 10.6967 9.19237 10.9046 9.4258L13.2722 12.0839L16.2171 8.37788C16.5607 7.94549 17.1897 7.8735 17.6221 8.21709Z" fill="#8D94A0"/>
</svg>
