<svg width="24" height="24" viewBox="0 0 24 24" fill="none" xmlns="http://www.w3.org/2000/svg">
<path d="M23 10.5V4.5C23 4.23478 22.8946 3.98043 22.7071 3.79289C22.5196 3.60536 22.2652 3.5 22 3.5H2C1.73478 3.5 1.48043 3.60536 1.29289 3.79289C1.10536 3.98043 1 4.23478 1 4.5V10.5C1 10.7652 1.10536 11.0196 1.29289 11.2071C1.48043 11.3946 1.73478 11.5 2 11.5H8.25V13.25C8.25 14.0456 8.56607 14.8087 9.12868 15.3713C9.69129 15.9339 10.4544 16.25 11.25 16.25H15.38L15.89 20.13C15.9217 20.3721 16.0409 20.5942 16.2252 20.7545C16.4094 20.9147 16.6458 21.0021 16.89 21H21.89C22.033 21.0012 22.1746 20.9717 22.3053 20.9136C22.4359 20.8554 22.5526 20.7699 22.6474 20.6628C22.7421 20.5556 22.8128 20.4295 22.8547 20.2927C22.8966 20.1559 22.9086 20.0118 22.89 19.87L21.76 11.5H22C22.2652 11.5 22.5196 11.3946 22.7071 11.2071C22.8946 11.0196 23 10.7652 23 10.5ZM11.25 14C11.0519 13.9974 10.8626 13.9176 10.7225 13.7775C10.5824 13.6374 10.5026 13.4481 10.5 13.25V11.5H14.76L15.09 14H11.25Z" fill="#8D94A0"/>
</svg>
