<svg width="24" height="24" viewBox="0 0 24 24" fill="none" xmlns="http://www.w3.org/2000/svg">
<path fill-rule="evenodd" clip-rule="evenodd" d="M10.904 21.306C11.57 21.746 12.429 21.746 13.094 21.306C15.209 19.91 19.814 16.573 21.798 12.839C24.413 7.913 21.342 3 17.282 3C14.968 3 13.576 4.209 12.806 5.248C12.7135 5.37525 12.5922 5.47882 12.4521 5.55022C12.3119 5.62163 12.1568 5.65885 11.9995 5.65885C11.8422 5.65885 11.6871 5.62163 11.5469 5.55022C11.4068 5.47882 11.2855 5.37525 11.193 5.248C10.423 4.209 9.031 3 6.717 3C2.657 3 -0.414 7.913 2.202 12.839C4.184 16.573 8.791 19.91 10.904 21.306Z" fill="#8D94A0"/>
</svg>
