<svg width="24" height="24" viewBox="0 0 24 24" fill="none" xmlns="http://www.w3.org/2000/svg">
<path fill-rule="evenodd" clip-rule="evenodd" d="M3 5C2.44772 5 2 5.44772 2 6V7.99973C2.09503 7.99976 2.19165 8.01346 2.28734 8.04216L12 10.956L21.7126 8.04216C21.8083 8.01345 21.905 7.99976 22 7.99973V6C22 5.44772 21.5523 5 21 5H3ZM22 10.044L12.2873 12.9578C12.0999 13.014 11.9001 13.014 11.7126 12.9578L2 10.044V19C2 19.5523 2.44772 20 3 20H21C21.5523 20 22 19.5523 22 19V10.044Z" fill="#8D94A0"/>
</svg>
