<svg width="24" height="24" viewBox="0 0 24 24" fill="none" xmlns="http://www.w3.org/2000/svg">
<path fill-rule="evenodd" clip-rule="evenodd" d="M14.9231 14.123C14.8228 14.1194 14.7227 14.136 14.629 14.1719C14.5352 14.2079 14.4497 14.2623 14.3775 14.3321C14.3052 14.4018 14.2478 14.4854 14.2086 14.5778C14.1694 14.6702 14.1492 14.7696 14.1493 14.87C14.1494 14.9704 14.1697 15.0697 14.209 15.1621C14.2483 15.2545 14.3059 15.338 14.3782 15.4076C14.4505 15.4772 14.5361 15.5316 14.6299 15.5674C14.7237 15.6032 14.8238 15.6197 14.9241 15.616C15.1174 15.6088 15.3003 15.5269 15.4344 15.3876C15.5685 15.2483 15.6434 15.0624 15.6433 14.869C15.6432 14.6756 15.568 14.4898 15.4337 14.3507C15.2994 14.2115 15.1164 14.1299 14.9231 14.123ZM9.82311 9.02297C9.82671 8.92264 9.81006 8.82261 9.77413 8.72886C9.73821 8.63511 9.68375 8.54956 9.61403 8.47733C9.5443 8.4051 9.46072 8.34766 9.36829 8.30846C9.27587 8.26925 9.17649 8.24908 9.07609 8.24915C8.97569 8.24921 8.87634 8.26952 8.78396 8.30885C8.69159 8.34818 8.60809 8.40572 8.53846 8.47805C8.46883 8.55037 8.41449 8.63599 8.37869 8.72979C8.34289 8.82359 8.32637 8.92364 8.33011 9.02397C8.33718 9.21722 8.41893 9.4002 8.55815 9.53442C8.69737 9.66864 8.88322 9.74364 9.07661 9.74364C9.26999 9.74364 9.45584 9.66864 9.59507 9.53442C9.73429 9.4002 9.81603 9.21722 9.82311 9.02397M14.923 17.214C14.301 17.2135 13.7046 16.9661 13.2647 16.5263C12.8249 16.0864 12.5775 15.49 12.577 14.868C12.5778 14.2461 12.8252 13.65 13.2651 13.2104C13.7049 12.7707 14.3011 12.5235 14.923 12.523C15.5448 12.5238 16.1409 12.7711 16.5806 13.2107C17.0204 13.6502 17.2679 14.2462 17.269 14.868C17.2682 15.49 17.0208 16.0862 16.581 16.526C16.1412 16.9658 15.545 17.2132 14.923 17.214ZM8.994 16.083C8.91967 16.1573 8.83144 16.2162 8.73435 16.2563C8.63727 16.2965 8.53322 16.3171 8.42815 16.3171C8.32308 16.317 8.21905 16.2963 8.12199 16.2561C8.02494 16.2158 7.93676 16.1568 7.8625 16.0825C7.78824 16.0082 7.72934 15.9199 7.68918 15.8229C7.64901 15.7258 7.62836 15.6217 7.62841 15.5166C7.62846 15.4116 7.6492 15.3075 7.68945 15.2105C7.7297 15.1134 7.78867 15.0253 7.863 14.951L15.006 7.808C15.159 7.67297 15.3577 7.60133 15.5617 7.60769C15.7656 7.61404 15.9595 7.69791 16.1038 7.8422C16.2481 7.98649 16.332 8.18036 16.3383 8.38433C16.3447 8.58829 16.273 8.787 16.138 8.94L8.994 16.083ZM6.732 9.023C6.73279 8.40122 6.98008 7.80512 7.41965 7.36536C7.85922 6.9256 8.45522 6.67806 9.077 6.677C9.69905 6.67779 10.2954 6.92518 10.7354 7.36494C11.1753 7.8047 11.4229 8.40095 11.424 9.023C11.4232 9.64513 11.1756 10.2415 10.7356 10.6813C10.2956 11.1212 9.69913 11.3685 9.077 11.369C8.45514 11.3682 7.85899 11.1208 7.41936 10.6809C6.97973 10.2411 6.73253 9.64486 6.732 9.023ZM12 1C5.925 1 1 5.924 1 12C1 18.075 5.925 23 12 23C18.075 23 23 18.075 23 12C23 5.924 18.075 1 12 1Z" fill="#8D94A0"/>
<path fill-rule="evenodd" clip-rule="evenodd" d="M6.72998 9.016C6.73077 8.39422 6.97806 7.79811 7.41763 7.35836C7.8572 6.9186 8.4532 6.67106 9.07498 6.67C9.69703 6.67079 10.2934 6.91818 10.7333 7.35794C11.1733 7.7977 11.4209 8.39395 11.422 9.016C11.4212 9.63813 11.1736 10.2345 10.7336 10.6743C10.2936 11.1142 9.69711 11.3615 9.07498 11.362C8.45312 11.3612 7.85697 11.1137 7.41734 10.6739C6.97771 10.2341 6.73051 9.63786 6.72998 9.016ZM8.73234 16.2493C8.82942 16.2092 8.91765 16.1503 8.99198 16.076L16.136 8.933C16.271 8.78 16.3426 8.58129 16.3363 8.37733C16.3299 8.17336 16.2461 7.97949 16.1018 7.8352C15.9575 7.6909 15.7636 7.60704 15.5597 7.60069C15.3557 7.59433 15.157 7.66597 15.004 7.801L7.86098 14.944C7.78665 15.0183 7.72768 15.1064 7.68743 15.2035C7.64718 15.3005 7.62644 15.4046 7.62639 15.5096C7.62634 15.6147 7.64699 15.7188 7.68716 15.8159C7.72732 15.9129 7.78622 16.0012 7.86048 16.0755C7.93474 16.1498 8.02292 16.2088 8.11997 16.2491C8.21703 16.2893 8.32106 16.31 8.42613 16.3101C8.5312 16.3101 8.63525 16.2895 8.73234 16.2493ZM13.2627 16.5193C13.7025 16.9591 14.2989 17.2065 14.921 17.207C15.5429 17.2062 16.1392 16.9588 16.579 16.519C17.0188 16.0792 17.2662 15.483 17.267 14.861C17.2659 14.2392 17.0184 13.6432 16.5786 13.2036C16.1389 12.7641 15.5428 12.5168 14.921 12.516C14.2991 12.5165 13.7029 12.7637 13.263 13.2034C12.8232 13.643 12.5758 14.2391 12.575 14.861C12.5755 15.483 12.8228 16.0794 13.2627 16.5193ZM14.627 14.1649C14.7208 14.129 14.8208 14.1124 14.9212 14.116C15.1144 14.1229 15.2975 14.2045 15.4318 14.3437C15.5661 14.4828 15.6412 14.6686 15.6413 14.862C15.6415 15.0554 15.5666 15.2413 15.4325 15.3806C15.2983 15.5199 15.1154 15.6018 14.9222 15.609C14.8218 15.6127 14.7218 15.5962 14.628 15.5604C14.5342 15.5246 14.4486 15.4702 14.3762 15.4006C14.3039 15.331 14.2464 15.2475 14.207 15.1551C14.1677 15.0627 14.1474 14.9634 14.1473 14.863C14.1473 14.7626 14.1674 14.6632 14.2066 14.5708C14.2458 14.4784 14.3033 14.3948 14.3755 14.325C14.4477 14.2553 14.5333 14.2009 14.627 14.1649ZM9.77218 8.72185C9.8081 8.8156 9.82476 8.91563 9.82116 9.01596V9.01696C9.81408 9.21022 9.73234 9.3932 9.59311 9.52742C9.45389 9.66164 9.26804 9.73664 9.07466 9.73664C8.88127 9.73664 8.69542 9.66164 8.5562 9.52742C8.41697 9.3932 8.33523 9.21022 8.32816 9.01696C8.32442 8.91664 8.34094 8.81658 8.37674 8.72279C8.41254 8.62899 8.46688 8.54337 8.53651 8.47104C8.60614 8.39872 8.68964 8.34117 8.78201 8.30184C8.87439 8.26251 8.97374 8.24221 9.07414 8.24214C9.17453 8.24207 9.27392 8.26225 9.36634 8.30145C9.45877 8.34066 9.54234 8.39809 9.61207 8.47032C9.6818 8.54255 9.73626 8.6281 9.77218 8.72185Z" fill="white"/>
</svg>
