<svg width="24" height="24" viewBox="0 0 24 24" fill="none" xmlns="http://www.w3.org/2000/svg">
<path d="M4.65 8.9H2.25V5.2C2.25 3.4 3.65 2 5.45 2H9.25V4.4H5.45C5.05 4.4 4.65 4.8 4.65 5.2V8.9ZM9.15 21.6H5.45C3.65 21.6 2.25 20.2 2.25 18.4V14.6H4.65V18.4C4.65 18.8 5.05 19.2 5.45 19.2H9.25V21.6H9.15ZM18.65 21.6H14.85V19.2H18.65C19.05 19.2 19.45 18.8 19.45 18.4V14.6H21.85V18.4C21.85 20.2 20.45 21.6 18.65 21.6ZM21.85 8.9H19.45V5.2C19.45 4.8 19.05 4.4 18.65 4.4H14.85V2H18.65C20.45 2 21.85 3.4 21.85 5.2V8.9Z" fill="#8D94A0"/>
</svg>
