<svg width="24" height="24" viewBox="0 0 24 24" fill="none" xmlns="http://www.w3.org/2000/svg">
<path fill-rule="evenodd" clip-rule="evenodd" d="M2.3 9.20001L2.3 6.80001L6 6.80001C6.4 6.80001 6.8 6.40001 6.8 6.00001L6.8 2.20001H9.2V6.00001C9.2 7.80001 7.8 9.20001 6 9.20001L2.3 9.20001ZM14.83 2.25002L17.23 2.25002L17.23 5.95002C17.23 6.35002 17.63 6.75002 18.03 6.75002L21.83 6.75002V9.15002L18.03 9.15002C16.23 9.15002 14.83 7.75002 14.83 5.95002L14.83 2.25002ZM6.79999 21.8H9.19999L9.19999 18.1C9.19999 16.3 7.8 14.9 6 14.9L2.2 14.9V17.3L6 17.3C6.4 17.3 6.79999 17.7 6.79999 18.1L6.79999 21.8ZM21.73 14.8V17.2H18.03C17.63 17.2 17.23 17.6 17.23 18V21.8H14.83V18C14.83 16.2 16.23 14.8 18.03 14.8H21.73Z" fill="#8D94A0"/>
</svg>
