<svg width="24" height="24" viewBox="0 0 24 24" fill="none" xmlns="http://www.w3.org/2000/svg">
<path fill-rule="evenodd" clip-rule="evenodd" d="M7.5 2.9C7.2 2.2 7.7 1.5 8.4 1.5H15.2C15.9 1.5 16.4 2.2 16.1 2.9L15.3 4.9H8.3L7.5 2.9ZM20.6 13.7C20.6 18.6 16.7 22.5 11.8 22.5C6.9 22.5 3 18.6 3 13.7C3 10.3 5 7.3 7.8 5.9H15.8C18.6 7.4 20.6 10.3 20.6 13.7ZM16.5 14.2C16.5 13.9 16.2 13.6 15.9 13.6H14.8L15.2 12.2C15.3 11.9 15.1 11.5 14.8 11.4C14.5 11.3 14.1 11.5 14 11.8L13.3 14.1L12.5 12.1C12.4 11.9 12.2 11.7 11.9 11.7C11.6 11.7 11.4 11.9 11.3 12.1L10.5 14.1L10 11.8C9.9 11.5 9.6 11.3 9.2 11.4C8.9 11.5 8.7 11.8 8.8 12.2L9.2 13.6H8.1C7.8 13.6 7.5 13.9 7.5 14.2C7.5 14.5 7.8 14.8 8.1 14.8H9.6L10 16.2C10.1 16.5 10.3 16.6 10.6 16.6C10.9 16.6 11.1 16.4 11.2 16.2L12 14L12.8 16.2C12.9 16.4 13.1 16.6 13.4 16.6C13.7 16.6 13.9 16.4 14 16.2L14.4 14.8H15.9C16.2 14.8 16.5 14.5 16.5 14.2Z" fill="#8D94A0"/>
</svg>
