<svg width="24" height="24" viewBox="0 0 24 24" fill="none" xmlns="http://www.w3.org/2000/svg">
<path fill-rule="evenodd" clip-rule="evenodd" d="M7.70001 2.9C7.40001 2.2 7.90001 1.5 8.60001 1.5H15.4C16.1 1.5 16.6 2.2 16.3 2.9L15.5 4.9H8.50001L7.70001 2.9ZM20.8 13.7C20.8 18.6 16.9 22.5 12 22.5C7.10001 22.5 3.20001 18.6 3.20001 13.7C3.20001 10.3 5.20001 7.3 8.00001 5.9H16C18.8 7.4 20.8 10.3 20.8 13.7ZM16.7 14.2C16.7 13.9 16.4 13.6 16.1 13.6H15L15.4 12.2C15.5 11.9 15.3 11.5 15 11.4C14.7 11.3 14.3 11.5 14.2 11.8L13.5 14.1L12.7 12.1C12.6 11.9 12.4 11.7 12.1 11.7C11.8 11.7 11.6 11.9 11.5 12.1L10.7 14.1L10.2 11.8C10.1 11.5 9.80001 11.3 9.40001 11.4C9.10001 11.5 8.90001 11.8 9.00001 12.2L9.40001 13.6H8.30001C8.00001 13.6 7.70001 13.9 7.70001 14.2C7.70001 14.5 8.00001 14.8 8.30001 14.8H9.80001L10.2 16.2C10.3 16.5 10.5 16.6 10.8 16.6C11.1 16.6 11.3 16.4 11.4 16.2L12.2 14L13 16.2C13.1 16.4 13.3 16.6 13.6 16.6C13.9 16.6 14.1 16.4 14.2 16.2L14.6 14.8H16.1C16.4 14.8 16.7 14.5 16.7 14.2Z" fill="#FFDB70"/>
<path d="M16.1 13.6C16.4 13.6 16.7 13.9 16.7 14.2C16.7 14.5 16.4 14.8 16.1 14.8H14.6L14.2 16.2C14.1 16.4 13.9 16.6 13.6 16.6C13.3 16.6 13.1 16.4 13 16.2L12.2 14L11.4 16.2C11.3 16.4 11.1 16.6 10.8 16.6C10.5 16.6 10.3 16.5 10.2 16.2L9.80001 14.8H8.30001C8.00001 14.8 7.70001 14.5 7.70001 14.2C7.70001 13.9 8.00001 13.6 8.30001 13.6H9.40001L9.00001 12.2C8.90001 11.8 9.10001 11.5 9.40001 11.4C9.80001 11.3 10.1 11.5 10.2 11.8L10.7 14.1L11.5 12.1C11.6 11.9 11.8 11.7 12.1 11.7C12.4 11.7 12.6 11.9 12.7 12.1L13.5 14.1L14.2 11.8C14.3 11.5 14.7 11.3 15 11.4C15.3 11.5 15.5 11.9 15.4 12.2L15 13.6H16.1Z" fill="#FF9C07"/>
</svg>
