<svg width="32" height="33" viewBox="0 0 32 33" fill="none" xmlns="http://www.w3.org/2000/svg">
<path fill-rule="evenodd" clip-rule="evenodd" d="M25.5063 5.21802H7.10912C6.28453 5.21802 5.49371 5.54558 4.91064 6.12866C4.32757 6.71173 4 7.50255 4 8.32714V26.7243C4 27.5489 4.32757 28.3397 4.91064 28.9228C5.49371 29.5059 6.28453 29.8334 7.10912 29.8334H25.5063C26.3309 29.8334 27.1217 29.5059 27.7048 28.9228C28.2879 28.3397 28.6154 27.5489 28.6154 26.7243V8.32714C28.6154 7.50255 28.2879 6.71173 27.7048 6.12866C27.1217 5.54558 26.3309 5.21802 25.5063 5.21802Z" fill="#D9CDF9"/>
<rect x="24.5132" y="3.16675" width="4.66667" height="2.46154" rx="1.23077" transform="rotate(90 24.5132 3.16675)" fill="#9C7EEF"/>
<rect x="17.3337" y="3.16675" width="4.66667" height="2.46154" rx="1.23077" transform="rotate(90 17.3337 3.16675)" fill="#9C7EEF"/>
<rect x="10.5649" y="3.16675" width="4.66667" height="2.46154" rx="1.23077" transform="rotate(90 10.5649 3.16675)" fill="#9C7EEF"/>
<path fill-rule="evenodd" clip-rule="evenodd" d="M25.287 14.5454L19.3528 20.4796L18.5434 23.4984L18.011 25.4872C17.9962 25.5428 17.9963 25.6012 18.0113 25.6568C18.0262 25.7123 18.0554 25.7629 18.0961 25.8036C18.1367 25.8442 18.1874 25.8735 18.2429 25.8884C18.2984 25.9033 18.3569 25.9034 18.4125 25.8886L20.3999 25.3556L23.4194 24.5462L29.3543 18.612L25.287 14.5454ZM31.808 15.233L28.6674 12.0917C28.6066 12.0308 28.5344 11.9825 28.455 11.9496C28.3755 11.9166 28.2904 11.8997 28.2044 11.8997C28.1184 11.8997 28.0332 11.9166 27.9538 11.9496C27.8743 11.9825 27.8022 12.0308 27.7414 12.0917L26.1207 13.7118L30.1879 17.779L31.808 16.1583C31.8689 16.0975 31.9172 16.0253 31.9501 15.9459C31.983 15.8664 32 15.7813 32 15.6953C32 15.6093 31.983 15.5241 31.9501 15.4447C31.9172 15.3652 31.8689 15.2937 31.808 15.233Z" fill="#9C7EEF"/>
</svg>
