<svg width="24" height="24" viewBox="0 0 24 24" fill="none" xmlns="http://www.w3.org/2000/svg">
<path d="M3.5 3C3.5 2.44772 3.94772 2 4.5 2H19.5C20.0523 2 20.5 2.44772 20.5 3V21C20.5 21.5523 20.0523 22 19.5 22H4.5C3.94772 22 3.5 21.5523 3.5 21V3Z" fill="#C6D8FA"/>
<path d="M6 7C6 6.44772 6.44772 6 7 6H12C12.5523 6 13 6.44772 13 7C13 7.55228 12.5523 8 12 8H7C6.44772 8 6 7.55228 6 7Z" fill="#6D99F1"/>
<path d="M6 11C6 10.4477 6.44772 10 7 10H17C17.5523 10 18 10.4477 18 11C18 11.5523 17.5523 12 17 12H7C6.44772 12 6 11.5523 6 11Z" fill="#6D99F1"/>
</svg>
