<svg width="24" height="24" viewBox="0 0 24 24" fill="none" xmlns="http://www.w3.org/2000/svg">
<path fill-rule="evenodd" clip-rule="evenodd" d="M12 1.5C6.201 1.5 1.5 6.201 1.5 12C1.5 17.799 6.201 22.5 12 22.5C17.799 22.5 22.5 17.799 22.5 12C22.5 6.201 17.799 1.5 12 1.5ZM15.8555 13.7051C15.8555 15.708 14.3379 17.1367 12.1094 17.1367C10.0449 17.1367 8.53418 15.9199 8.5 14.2109H10.4961C10.5439 14.9834 11.248 15.5166 12.1094 15.5098C13.1348 15.5166 13.8662 14.792 13.8594 13.7598C13.8662 12.707 13.1211 11.9756 12.082 11.9688C11.3369 11.9688 10.8174 12.249 10.5234 12.8027H8.66406L9.19727 7.10156H15.2949V8.7832H10.8926L10.6191 11.2852H10.7012C11.0635 10.7998 11.8154 10.4443 12.6836 10.4512C14.502 10.4443 15.8555 11.8047 15.8555 13.7051Z" fill="#8D94A0"/>
</svg>
