<svg width="24" height="24" viewBox="0 0 24 24" fill="none" xmlns="http://www.w3.org/2000/svg">
<path fill-rule="evenodd" clip-rule="evenodd" d="M12 3.9C7.52648 3.9 3.9 7.52648 3.9 12C3.9 16.4735 7.52648 20.1 12 20.1C16.4735 20.1 20.1 16.4735 20.1 12C20.1 7.52648 16.4735 3.9 12 3.9ZM1.5 12C1.5 6.201 6.201 1.5 12 1.5C17.799 1.5 22.5 6.201 22.5 12C22.5 17.799 17.799 22.5 12 22.5C6.201 22.5 1.5 17.799 1.5 12Z" fill="#8D94A0"/>
<path d="M13.2637 7.10156H11.3223L8.875 8.66016V10.4785L11.1445 9.05664H11.1992V17H13.2637V7.10156Z" fill="#8D94A0"/>
</svg>
