<svg width="24" height="24" viewBox="0 0 24 24" fill="none" xmlns="http://www.w3.org/2000/svg">
<path fill-rule="evenodd" clip-rule="evenodd" d="M12 1.5C6.201 1.5 1.5 6.201 1.5 12C1.5 17.799 6.201 22.5 12 22.5C17.799 22.5 22.5 17.799 22.5 12C22.5 6.201 17.799 1.5 12 1.5ZM15.6016 14.2246C15.6152 15.9199 14.0088 17.1367 11.7734 17.1367C9.59961 17.1367 8.04102 15.9404 8 14.2109H10.0781C10.1123 14.9492 10.8301 15.4346 11.7871 15.4414C12.7715 15.4346 13.4756 14.8877 13.4688 14.0879C13.4756 13.2812 12.7578 12.7139 11.5957 12.707H10.6797V11.1895H11.5957C12.5732 11.1895 13.2568 10.6562 13.25 9.87695C13.2568 9.11816 12.6758 8.59863 11.8008 8.60547C10.9258 8.59863 10.208 9.09082 10.1738 9.84961H8.20508C8.23926 8.14746 9.77051 6.96484 11.8008 6.96484C13.8652 6.96484 15.2393 8.18848 15.2324 9.75391C15.2393 10.8613 14.4668 11.6475 13.3594 11.8457V11.9277C14.8154 12.1055 15.6152 12.9873 15.6016 14.2246Z" fill="#8D94A0"/>
</svg>
