<svg width="41" height="40" viewBox="0 0 41 40" fill="none" xmlns="http://www.w3.org/2000/svg">
<path d="M18.7142 16.7365C18.7582 16.2312 19.1812 15.8434 19.6884 15.8434H21.8067C22.3139 15.8434 22.7369 16.2312 22.7809 16.7365L24.5665 37.2708C24.6161 37.8421 24.1658 38.3333 23.5923 38.3333H17.9028C17.3293 38.3333 16.879 37.8421 16.9287 37.2708L18.7142 16.7365Z" fill="#A96850"/>
<path fill-rule="evenodd" clip-rule="evenodd" d="M15.9496 5.99019C19.4897 8.37805 21.0752 12.4003 19.4908 14.9741L6.67072 6.32692C8.25513 3.75308 12.4094 3.60232 15.9496 5.99019Z" fill="#169172"/>
<path fill-rule="evenodd" clip-rule="evenodd" d="M24.2209 6.02313C20.6808 8.411 19.0953 12.4333 20.6797 15.0071L33.4998 6.35986C31.9154 3.78603 27.7611 3.63527 24.2209 6.02313Z" fill="#169172"/>
<path fill-rule="evenodd" clip-rule="evenodd" d="M20.2572 13.1033C19.4134 9.8177 15.1071 7.73147 10.328 8.39252C5.31966 9.08528 1.68858 12.5328 2.21772 16.0927L20.2563 13.5976L38.2967 16.093C38.8258 12.533 35.1947 9.08551 30.1864 8.39276C25.4074 7.73173 21.1012 9.81783 20.2572 13.1033Z" fill="#1FCCA1"/>
<path fill-rule="evenodd" clip-rule="evenodd" d="M19.7673 13.2687C17.0488 12.0006 13.0774 12.7659 9.93737 15.4053C6.04905 18.6738 4.90783 23.5784 7.38838 26.3601L19.7673 15.9545L32.1463 26.3601C34.6268 23.5784 33.4856 18.6738 29.5973 15.4053C26.4573 12.7659 22.4859 12.0006 19.7673 13.2687Z" fill="#4CD6B4"/>
<path d="M20.2088 18.25C20.9912 19.8954 22.7369 20.7006 24.108 20.0487C25.4791 19.3967 25.9564 17.5344 25.174 15.8891C24.3917 14.2437 22.6459 13.4385 21.2748 14.0904C19.9037 14.7424 19.4265 16.6047 20.2088 18.25Z" fill="#FFCD39"/>
<path d="M21.2634 18.25C20.481 19.8954 18.7353 20.7006 17.3642 20.0487C15.9931 19.3967 15.5158 17.5344 16.2982 15.8891C17.0805 14.2437 18.8263 13.4385 20.1974 14.0904C21.5685 14.7424 22.0457 16.6047 21.2634 18.25Z" fill="#FFECB2"/>
</svg>
