<svg width="24" height="24" viewBox="0 0 24 24" fill="none" xmlns="http://www.w3.org/2000/svg">
<path fill-rule="evenodd" clip-rule="evenodd" d="M6.08481 3.40002C5.32011 3.40002 4.7002 3.99042 4.7002 4.71871V19.2242C4.7002 19.9525 5.32011 20.5429 6.08481 20.5429H9.31558C10.0803 20.5429 10.7002 19.9525 10.7002 19.2242V4.71871C10.7002 3.99042 10.0803 3.40002 9.31558 3.40002H6.08481ZM14.6562 3.40002C13.8915 3.40002 13.2716 3.99042 13.2716 4.71871V19.2242C13.2716 19.9525 13.8915 20.5429 14.6562 20.5429H17.887C18.6517 20.5429 19.2716 19.9525 19.2716 19.2242V4.71871C19.2716 3.99042 18.6517 3.40002 17.887 3.40002H14.6562Z" fill="#8D94A0"/>
</svg>
