<svg width="24" height="24" viewBox="0 0 24 24" fill="none" xmlns="http://www.w3.org/2000/svg">
<path fill-rule="evenodd" clip-rule="evenodd" d="M12.4101 5.77959L3.9326 14.257L2.77632 18.5697L2.01577 21.4108C1.99464 21.4901 1.99475 21.5737 2.01607 21.653C2.0374 21.7323 2.07919 21.8046 2.13727 21.8627C2.19535 21.9208 2.26768 21.9626 2.347 21.9839C2.42632 22.0053 2.50985 22.0054 2.58922 21.9842L5.42845 21.2227L9.74202 20.0665H9.74296L18.2204 11.589L12.411 5.77959H12.4101ZM21.7257 6.76186L17.2391 2.27429C17.1523 2.18734 17.0492 2.11836 16.9357 2.07129C16.8222 2.02423 16.7005 2 16.5777 2C16.4548 2 16.3332 2.02423 16.2197 2.07129C16.1062 2.11836 16.0031 2.18734 15.9163 2.27429L13.6009 4.5887L19.4113 10.3991L21.7257 8.08371C21.8127 7.99691 21.8816 7.89381 21.9287 7.78032C21.9758 7.66684 22 7.54518 22 7.42232C22 7.29946 21.9758 7.1778 21.9287 7.06431C21.8816 6.95082 21.8127 6.84772 21.7257 6.76092" fill="#8D94A0"/>
</svg>
