<svg width="24" height="24" viewBox="0 0 24 24" fill="none" xmlns="http://www.w3.org/2000/svg">
<path fill-rule="evenodd" clip-rule="evenodd" d="M13.357 8.715H10.982V12.109H13.357C14.293 12.109 15.054 11.349 15.054 10.412C15.054 9.476 14.294 8.715 13.357 8.715Z" fill="#8D94A0"/>
<path fill-rule="evenodd" clip-rule="evenodd" d="M13.357 14.146H10.982V16.861C10.9678 17.1216 10.8544 17.3668 10.6649 17.5462C10.4755 17.7257 10.2244 17.8257 9.96349 17.8257C9.70254 17.8257 9.45152 17.7257 9.26206 17.5462C9.07261 17.3668 8.95913 17.1216 8.94499 16.861V6.67799H13.357C14.3471 6.67905 15.2963 7.07296 15.9962 7.77324C16.6961 8.47351 17.0895 9.42291 17.09 10.413C17.0889 11.4027 16.6953 12.3516 15.9954 13.0514C15.2956 13.7513 14.3467 14.1449 13.357 14.146ZM12 0.799988C5.81399 0.799988 0.799988 5.81499 0.799988 12C0.799988 18.186 5.81399 23.2 12 23.2C18.185 23.2 23.2 18.186 23.2 12C23.2 5.81499 18.185 0.799988 12 0.799988Z" fill="#8D94A0"/>
</svg>
