<svg width="24" height="24" viewBox="0 0 24 24" fill="none" xmlns="http://www.w3.org/2000/svg">
<path d="M3 8C3 6.89543 3.89543 6 5 6H10.5V22H5C3.89543 22 3 21.1046 3 20V8Z" fill="#E5E7EB"/>
<path d="M13.5 6H19C20.1046 6 21 6.89543 21 8V20C21 21.1046 20.1046 22 19 22H13.5V6Z" fill="#E5E7EB"/>
<path fill-rule="evenodd" clip-rule="evenodd" d="M10.5 5.99999H6.35371L6.00708 3.09185C5.92026 2.36349 6.64752 1.80413 7.34187 2.06522L12 3.8167L16.6581 2.06522C17.3525 1.80413 18.0797 2.36349 17.9929 3.09185L17.6463 5.99999H13.5V22H10.5V5.99999Z" fill="#8D94A0"/>
</svg>
