<svg width="24" height="24" viewBox="0 0 24 24" fill="none" xmlns="http://www.w3.org/2000/svg">
<path d="M3 8C3 6.89543 3.89543 6 5 6H10.5V22H5C3.89543 22 3 21.1046 3 20V8Z" fill="#FFDB70"/>
<path d="M13.5 6H19C20.1046 6 21 6.89543 21 8V20C21 21.1046 20.1046 22 19 22H13.5V6Z" fill="#FFDB70"/>
<path fill-rule="evenodd" clip-rule="evenodd" d="M10.5 6H6.35371L6.00708 3.09186C5.92026 2.3635 6.64752 1.80414 7.34187 2.06522L12 3.81671L16.6581 2.06522C17.3525 1.80414 18.0797 2.3635 17.9929 3.09186L17.6463 6H13.5V22H10.5V6Z" fill="#FF9C07"/>
</svg>
