<svg width="24" height="24" viewBox="0 0 24 24" fill="none" xmlns="http://www.w3.org/2000/svg">
<path d="M20.7293 2.3574L13.8404 4.2949C13.4091 4.41619 13.1111 4.80953 13.1111 5.25755V20.68C13.1111 21.3426 13.7439 21.822 14.3819 21.6426L21.2707 19.7051C21.702 19.5838 22 19.1905 22 18.7425V3.32005C22 2.65739 21.3672 2.17798 20.7293 2.3574Z" fill="#8D94A0"/>
<path d="M3.27075 2.3574L10.1596 4.2949C10.5909 4.41619 10.8889 4.80953 10.8889 5.25755V20.68C10.8889 21.3426 10.2561 21.822 9.61814 21.6426L2.72925 19.7051C2.29797 19.5838 2 19.1905 2 18.7425V3.32005C2 2.65739 2.63283 2.17798 3.27075 2.3574Z" fill="#8D94A0"/>
</svg>
