<svg width="24" height="24" viewBox="0 0 24 24" fill="none" xmlns="http://www.w3.org/2000/svg">
<path fill-rule="evenodd" clip-rule="evenodd" d="M12 1.39999C11.7083 1.39999 11.4285 1.51589 11.2222 1.72218C11.0159 1.92847 10.9 2.20826 10.9 2.49999V5.54199C10.9 5.83373 11.0159 6.11352 11.2222 6.31981C11.4285 6.5261 11.7083 6.64199 12 6.64199C12.2917 6.64199 12.5715 6.5261 12.7778 6.31981C12.9841 6.11352 13.1 5.83373 13.1 5.54199V2.49999C13.1 2.35554 13.0715 2.2125 13.0163 2.07904C12.961 1.94558 12.88 1.82432 12.7778 1.72218C12.6757 1.62003 12.5544 1.53901 12.4209 1.48373C12.2875 1.42845 12.1444 1.39999 12 1.39999Z" fill="#8D94A0"/>
<path opacity="0.16" fill-rule="evenodd" clip-rule="evenodd" d="M6.65599 8.21101C6.75794 8.31357 6.87916 8.39496 7.01268 8.45049C7.1462 8.50603 7.28938 8.53462 7.43399 8.53462C7.5786 8.53462 7.72178 8.50603 7.8553 8.45049C7.98882 8.39496 8.11004 8.31357 8.21199 8.21101C8.41815 8.00457 8.53394 7.72475 8.53394 7.43301C8.53394 7.14126 8.41815 6.86144 8.21199 6.65501L6.05999 4.50501C5.85045 4.31594 5.57631 4.21456 5.29418 4.2218C5.01204 4.22904 4.74346 4.34435 4.5439 4.54391C4.34433 4.74348 4.22902 5.01206 4.22178 5.29419C4.21454 5.57633 4.31593 5.85047 4.50499 6.06001L6.65499 8.21101H6.65599Z" fill="#8D94A0"/>
<path opacity="0.32" fill-rule="evenodd" clip-rule="evenodd" d="M6.64199 12C6.64199 11.7083 6.5261 11.4285 6.31981 11.2222C6.11352 11.0159 5.83373 10.9 5.54199 10.9H2.49999C2.20826 10.9 1.92847 11.0159 1.72218 11.2222C1.51589 11.4285 1.39999 11.7083 1.39999 12C1.39999 12.2917 1.51589 12.5715 1.72218 12.7778C1.92847 12.9841 2.20826 13.1 2.49999 13.1H5.54199C5.83373 13.1 6.11352 12.9841 6.31981 12.7778C6.5261 12.5715 6.64199 12.2917 6.64199 12Z" fill="#8D94A0"/>
<path opacity="0.56" fill-rule="evenodd" clip-rule="evenodd" d="M6.656 15.789L4.505 17.939C4.40283 18.0412 4.32178 18.1625 4.26649 18.2959C4.2112 18.4294 4.18274 18.5725 4.18274 18.717C4.18274 18.8615 4.2112 19.0046 4.26649 19.138C4.32178 19.2715 4.40283 19.3928 4.505 19.495C4.71134 19.7013 4.99119 19.8173 5.283 19.8173C5.42749 19.8173 5.57056 19.7888 5.70405 19.7335C5.83754 19.6782 5.95883 19.5972 6.061 19.495L8.211 17.345C8.40239 17.1358 8.50573 16.8609 8.4995 16.5775C8.49327 16.2941 8.37795 16.024 8.17754 15.8234C7.97714 15.6229 7.70711 15.5074 7.42368 15.501C7.14025 15.4946 6.86527 15.5977 6.656 15.789Z" fill="#8D94A0"/>
<path opacity="0.56" fill-rule="evenodd" clip-rule="evenodd" d="M12 17.358C11.7083 17.358 11.4285 17.4739 11.2222 17.6802C11.0159 17.8865 10.9 18.1663 10.9 18.458V21.5C10.9 21.7917 11.0159 22.0715 11.2222 22.2778C11.4285 22.4841 11.7083 22.6 12 22.6C12.2917 22.6 12.5715 22.4841 12.7778 22.2778C12.9841 22.0715 13.1 21.7917 13.1 21.5V18.458C13.1 18.1663 12.9841 17.8865 12.7778 17.6802C12.5715 17.4739 12.2917 17.358 12 17.358Z" fill="#8D94A0"/>
<path opacity="0.72" fill-rule="evenodd" clip-rule="evenodd" d="M17.344 15.789C17.2418 15.6868 17.1205 15.6058 16.987 15.5505C16.8535 15.4952 16.7105 15.4667 16.566 15.4667C16.4215 15.4667 16.2784 15.4952 16.1449 15.5505C16.0114 15.6058 15.8902 15.6868 15.788 15.789C15.6858 15.8912 15.6048 16.0125 15.5495 16.1459C15.4942 16.2794 15.4657 16.4225 15.4657 16.567C15.4657 16.7115 15.4942 16.8546 15.5495 16.988C15.6048 17.1215 15.6858 17.2428 15.788 17.345L17.939 19.495C18.041 19.5974 18.1622 19.6787 18.2958 19.7342C18.4293 19.7896 18.5724 19.8182 18.717 19.8182C18.8616 19.8182 19.0047 19.7896 19.1382 19.7342C19.2717 19.6787 19.393 19.5974 19.495 19.495C19.5972 19.3928 19.6783 19.2716 19.7336 19.1381C19.7889 19.0046 19.8174 18.8615 19.8174 18.717C19.8174 18.5725 19.7889 18.4294 19.7336 18.2959C19.6783 18.1624 19.5972 18.0411 19.495 17.939L17.345 15.789H17.344Z" fill="#8D94A0"/>
<path opacity="0.72" fill-rule="evenodd" clip-rule="evenodd" d="M21.5 10.9H18.458C18.1663 10.9 17.8865 11.0159 17.6802 11.2222C17.4739 11.4285 17.358 11.7083 17.358 12C17.358 12.2917 17.4739 12.5715 17.6802 12.7778C17.8865 12.9841 18.1663 13.1 18.458 13.1H21.5C21.7917 13.1 22.0715 12.9841 22.2778 12.7778C22.4841 12.5715 22.6 12.2917 22.6 12C22.6 11.7083 22.4841 11.4285 22.2778 11.2222C22.0715 11.0159 21.7917 10.9 21.5 10.9Z" fill="#8D94A0"/>
<path opacity="0.72" fill-rule="evenodd" clip-rule="evenodd" d="M16.566 8.534C16.847 8.534 17.129 8.427 17.344 8.212L19.495 6.061C19.689 5.85221 19.7945 5.57632 19.7892 5.29136C19.784 5.0064 19.6685 4.73458 19.4669 4.53305C19.2654 4.33152 18.9936 4.21599 18.7086 4.21076C18.4237 4.20553 18.1478 4.311 17.939 4.505L15.789 6.655C15.6353 6.80891 15.5306 7.0049 15.4882 7.21825C15.4458 7.43159 15.4675 7.65272 15.5506 7.85373C15.6337 8.05474 15.7745 8.22663 15.9552 8.3477C16.1359 8.46877 16.3485 8.53359 16.566 8.534Z" fill="#8D94A0"/>
</svg>
