<svg width="24" height="24" viewBox="0 0 24 24" fill="none" xmlns="http://www.w3.org/2000/svg">
<path fill-rule="evenodd" clip-rule="evenodd" d="M12 3.9C7.52648 3.9 3.9 7.52648 3.9 12C3.9 16.4735 7.52648 20.1 12 20.1C16.4735 20.1 20.1 16.4735 20.1 12C20.1 7.52648 16.4735 3.9 12 3.9ZM1.5 12C1.5 6.201 6.201 1.5 12 1.5C17.799 1.5 22.5 6.201 22.5 12C22.5 17.799 17.799 22.5 12 22.5C6.201 22.5 1.5 17.799 1.5 12Z" fill="#8D94A0"/>
<path d="M13.6518 12.5689C14.2806 12.166 15.1393 11.6159 15.426 10.368C15.65 9.39405 15.442 8.44105 14.84 7.68505C14.159 6.83005 13.023 6.30005 11.874 6.30005C10.9264 6.30111 10.018 6.67799 9.34797 7.34802C8.67794 8.01804 8.30106 8.92649 8.3 9.87405C8.3 10.1127 8.39482 10.3417 8.5636 10.5104C8.73239 10.6792 8.96131 10.774 9.2 10.774C9.4387 10.774 9.66761 10.6792 9.8364 10.5104C10.0052 10.3417 10.1 10.1127 10.1 9.87405C10.1 8.89605 10.896 8.09905 11.874 8.09905C12.479 8.09905 13.09 8.37705 13.432 8.80605C13.693 9.13405 13.773 9.52405 13.672 9.96505C13.555 10.473 13.252 10.688 12.68 11.053L12.6782 11.0542C11.9584 11.5151 10.974 12.1454 10.974 13.749C10.974 13.9877 11.0688 14.2167 11.2376 14.3854C11.4064 14.5542 11.6353 14.649 11.874 14.649C12.1127 14.649 12.3416 14.5542 12.5104 14.3854C12.6792 14.2167 12.774 13.9877 12.774 13.749C12.774 13.16 12.999 12.986 13.65 12.57L13.6518 12.5689Z" fill="#8D94A0"/>
<path d="M11.0415 17.7556C11.2665 17.9806 11.5717 18.107 11.89 18.107C12.2083 18.107 12.5135 17.9806 12.7385 17.7556C12.9636 17.5305 13.09 17.2253 13.09 16.907C13.09 16.5888 12.9636 16.2836 12.7385 16.0585C12.5135 15.8335 12.2083 15.707 11.89 15.707C11.5717 15.707 11.2665 15.8335 11.0415 16.0585C10.8164 16.2836 10.69 16.5888 10.69 16.907C10.69 17.2253 10.8164 17.5305 11.0415 17.7556Z" fill="#8D94A0"/>
</svg>
