<svg width="24" height="24" viewBox="0 0 24 24" fill="none" xmlns="http://www.w3.org/2000/svg">
<path fill-rule="evenodd" clip-rule="evenodd" d="M18 13.3H15.913L15.172 15.992C15.1149 16.2051 14.9887 16.3933 14.8132 16.5271C14.6376 16.6608 14.4227 16.7325 14.202 16.731C13.9814 16.7326 13.7665 16.661 13.5911 16.5272C13.4157 16.3934 13.2898 16.2052 13.233 15.992L12 11.514L10.768 15.992C10.7111 16.2051 10.5851 16.3932 10.4097 16.527C10.2343 16.6607 10.0195 16.7325 9.79901 16.731H9.79801C9.57747 16.7326 9.36262 16.661 9.1871 16.5275C9.01158 16.3939 8.88529 16.206 8.82801 15.993L8.08701 13.3H6.00001C5.78783 13.3 5.58435 13.2157 5.43432 13.0657C5.28429 12.9156 5.20001 12.7122 5.20001 12.5C5.20001 12.2878 5.28429 12.0843 5.43432 11.9343C5.58435 11.7843 5.78783 11.7 6.00001 11.7H7.64601L6.98101 9.28098C6.94941 9.1786 6.9387 9.07092 6.94952 8.96432C6.96033 8.85772 6.99245 8.75438 7.04396 8.66044C7.09548 8.56649 7.16534 8.48385 7.2494 8.41741C7.33347 8.35098 7.43002 8.30211 7.53333 8.2737C7.63664 8.24529 7.7446 8.23793 7.85082 8.25204C7.95703 8.26616 8.05932 8.30146 8.15163 8.35587C8.24393 8.41027 8.32437 8.48266 8.38817 8.56874C8.45196 8.65482 8.49782 8.75284 8.52301 8.85698L9.79801 13.486L11.03 9.00798C11.0871 8.79482 11.2133 8.60663 11.3889 8.4729C11.5644 8.33916 11.7793 8.26744 12 8.26898C12.458 8.26898 12.848 8.56598 12.97 9.00798L14.202 13.486L15.477 8.85698C15.5332 8.65237 15.6684 8.47847 15.8529 8.37354C15.9442 8.32159 16.0449 8.28813 16.1491 8.27508C16.2534 8.26203 16.3592 8.26964 16.4605 8.29748C16.5618 8.32532 16.6567 8.37285 16.7396 8.43734C16.8226 8.50183 16.892 8.58203 16.9439 8.67336C16.9959 8.76468 17.0294 8.86535 17.0424 8.96961C17.0555 9.07386 17.0478 9.17967 17.02 9.28098L16.354 11.7H18C18.1051 11.7 18.2091 11.7207 18.3062 11.7609C18.4032 11.8011 18.4914 11.86 18.5657 11.9343C18.64 12.0086 18.6989 12.0968 18.7391 12.1938C18.7793 12.2909 18.8 12.3949 18.8 12.5C18.8 12.605 18.7793 12.7091 18.7391 12.8061C18.6989 12.9032 18.64 12.9914 18.5657 13.0657C18.4914 13.14 18.4032 13.1989 18.3062 13.2391C18.2091 13.2793 18.1051 13.3 18 13.3ZM21 1.94598H3.00001C2.76131 1.94598 2.53239 2.0408 2.36361 2.20959C2.19483 2.37837 2.10001 2.60729 2.10001 2.84598C2.10001 3.08468 2.19483 3.3136 2.36361 3.48238C2.53239 3.65116 2.76131 3.74598 3.00001 3.74598V20.846C3.00001 21.1112 3.10536 21.3656 3.2929 21.5531C3.48044 21.7406 3.73479 21.846 4.00001 21.846H20C20.2652 21.846 20.5196 21.7406 20.7071 21.5531C20.8946 21.3656 21 21.1112 21 20.846V3.74598C21.2387 3.74598 21.4676 3.65116 21.6364 3.48238C21.8052 3.3136 21.9 3.08468 21.9 2.84598C21.9 2.60729 21.8052 2.37837 21.6364 2.20959C21.4676 2.0408 21.2387 1.94598 21 1.94598Z" fill="#8D94A0"/>
</svg>
