<svg width="24" height="24" viewBox="0 0 24 24" fill="none" xmlns="http://www.w3.org/2000/svg">
<path d="M4.29999 12.37V11.36C4.29999 8.56998 6.56999 6.29998 9.35999 6.29998H16.95L16.39 6.85998C16.1646 7.08542 16.0379 7.39117 16.0379 7.70998C16.0379 8.0288 16.1646 8.33455 16.39 8.55998C16.6154 8.78542 16.9212 8.91207 17.24 8.91207C17.5588 8.91207 17.8646 8.78542 18.09 8.55998L20.7 5.94998C20.92 5.71998 21.05 5.41998 21.05 5.09998C21.05 4.77998 20.92 4.47998 20.7 4.24998L18.09 1.63998C17.9784 1.52836 17.8459 1.43982 17.7 1.37941C17.5542 1.319 17.3979 1.2879 17.24 1.2879C17.0821 1.2879 16.9258 1.319 16.78 1.37941C16.6341 1.43982 16.5016 1.52836 16.39 1.63998C16.1646 1.86542 16.0379 2.17117 16.0379 2.48998C16.0379 2.8088 16.1646 3.11455 16.39 3.33998L16.95 3.89998H9.35999C5.24999 3.89998 1.89999 7.24998 1.89999 11.36V12.37C1.89999 13.03 2.43999 13.57 3.09999 13.57C3.75999 13.57 4.29999 13.04 4.29999 12.37ZM20.9 10.43C20.24 10.43 19.7 10.97 19.7 11.63V12.64C19.7 15.43 17.43 17.7 14.64 17.7H7.04999L7.60999 17.14C7.83543 16.9145 7.96208 16.6088 7.96208 16.29C7.96208 15.9712 7.83543 15.6654 7.60999 15.44C7.38456 15.2146 7.07881 15.0879 6.75999 15.0879C6.44118 15.0879 6.13543 15.2146 5.90999 15.44L3.29999 18.05C3.06999 18.27 2.94999 18.58 2.94999 18.9C2.94999 19.22 3.07999 19.52 3.29999 19.75L5.90999 22.36C6.13568 22.5849 6.44134 22.7113 6.75999 22.7113C7.07865 22.7113 7.38431 22.5849 7.60999 22.36C8.07999 21.89 8.07999 21.13 7.60999 20.66L7.04999 20.1H14.64C18.75 20.1 22.1 16.75 22.1 12.64V11.63C22.1 10.96 21.56 10.43 20.9 10.43Z" fill="#8D94A0"/>
</svg>
