<svg width="32" height="32" viewBox="0 0 32 32" fill="none" xmlns="http://www.w3.org/2000/svg">
<g clip-path="url(#clip0_22261_88240)">
<path fill-rule="evenodd" clip-rule="evenodd" d="M20.8951 3.2944C21.0714 3.18859 21.0714 2.933 20.8951 2.82719L16.2485 0.0392433C16.0669 -0.0697036 15.8359 0.0610915 15.8359 0.272846L15.8354 6.04623C15.7058 6.07967 15.5789 6.12768 15.4574 6.19028L9.10079 9.46395C8.49615 9.77534 8.11616 10.3985 8.11616 11.0786V16.5707L3.79735 18.3312C3.11368 18.6099 2.66675 19.2747 2.66675 20.013V28.8505C2.66675 29.8535 3.47987 30.6667 4.48292 30.6667H13.5637V25.6947C13.5637 24.6916 14.3769 23.8785 15.3799 23.8785H17.1961C18.1991 23.8785 19.0122 24.6916 19.0122 25.6947V30.6667H28.0931C29.0961 30.6667 29.9093 29.8535 29.9093 28.8505V20.0414C29.9093 19.2889 29.4453 18.6144 28.7426 18.3453L24.4617 16.706V11.0786C24.4617 10.3985 24.0817 9.77534 23.477 9.46395L17.1205 6.19028C17.0567 6.15744 16.9915 6.12862 16.9251 6.1038V5.67635L20.8951 3.2944Z" fill="#C6D8FA"/>
<path fill-rule="evenodd" clip-rule="evenodd" d="M20.8711 2.82778C21.0437 2.93136 21.0437 3.18154 20.8711 3.28511L16.9224 5.65431V6.07745C16.5752 5.94536 16.1965 5.92599 15.8401 6.01933L15.8405 0.280412C15.8405 0.0731336 16.0666 -0.0548969 16.2444 0.051747L20.8711 2.82778Z" fill="#6D99F1"/>
<path fill-rule="evenodd" clip-rule="evenodd" d="M16.7863 14.8228C16.7863 14.8376 16.7791 14.8505 16.7777 14.8649C16.7752 14.8952 16.769 14.9251 16.7592 14.954C16.7429 15.0076 16.7163 15.0575 16.6808 15.1009C16.6609 15.1247 16.6402 15.1457 16.6158 15.1654C16.6046 15.1744 16.5978 15.1874 16.5856 15.1954L14.4543 16.6064C14.3548 16.6698 14.2342 16.6919 14.1184 16.6678C14.0027 16.6437 13.9011 16.5755 13.8355 16.4778C13.77 16.3801 13.7456 16.2607 13.7678 16.1453C13.79 16.03 13.8569 15.9279 13.9542 15.8611L15.8843 14.5831V12.4914C15.8843 12.3726 15.9319 12.2586 16.0164 12.1746C16.101 12.0906 16.2157 12.0434 16.3353 12.0434C16.4549 12.0434 16.5696 12.0906 16.6542 12.1746C16.7388 12.2586 16.7863 12.3726 16.7863 12.4914V14.8228ZM16.3353 10.2267C13.7201 10.2267 11.6001 12.3323 11.6001 14.9298C11.6001 17.5273 13.7201 19.633 16.3353 19.633C18.9505 19.633 21.0706 17.5273 21.0706 14.9298C21.0706 12.3323 18.9505 10.2267 16.3353 10.2267Z" fill="#6D99F1"/>
</g>
<defs>
<clipPath id="clip0_22261_88240">
<rect width="32" height="32" fill="white"/>
</clipPath>
</defs>
</svg>
