<svg width="24" height="24" viewBox="0 0 24 24" fill="none" xmlns="http://www.w3.org/2000/svg">
<path d="M12.5534 11.1415C12.5551 11.1357 12.5567 11.13 12.5567 11.1238V9.36335C12.5567 9.27365 12.5209 9.18762 12.457 9.12419C12.3931 9.06077 12.3065 9.02513 12.2162 9.02513C12.1259 9.02513 12.0393 9.06077 11.9754 9.12419C11.9116 9.18762 11.8757 9.27365 11.8757 9.36335V10.9429L10.4182 11.9078C10.3448 11.9583 10.2943 12.0354 10.2775 12.1225C10.2607 12.2096 10.2791 12.2997 10.3286 12.3735C10.3781 12.4473 10.4548 12.4988 10.5422 12.517C10.6296 12.5351 10.7207 12.5185 10.7959 12.4706L12.4052 11.4052C12.4102 11.4019 12.4141 11.3974 12.4179 11.393C12.421 11.3893 12.4242 11.3856 12.428 11.3825C12.4464 11.3677 12.4621 11.3518 12.4771 11.3338C12.5039 11.301 12.524 11.2634 12.5363 11.2229C12.5437 11.2011 12.5484 11.1785 12.5503 11.1556C12.5507 11.1508 12.5521 11.1461 12.5534 11.1415Z" fill="#8D94A0"/>
<path fill-rule="evenodd" clip-rule="evenodd" d="M15.6712 2.4708C15.8035 2.39144 15.8035 2.19975 15.6712 2.12039L12.1863 0.0294324C12.0501 -0.0522777 11.8769 0.0458186 11.8769 0.204635L11.8765 4.53468C11.7793 4.55975 11.6841 4.59576 11.593 4.64271L6.82553 7.09796C6.37205 7.33151 6.08706 7.79884 6.08706 8.30893V12.428L2.84795 13.7484C2.3352 13.9574 2 14.456 2 15.0097V21.6379C2 22.3902 2.60984 23 3.36213 23H10.1727V19.271C10.1727 18.5187 10.7826 17.9089 11.5349 17.9089H12.897C13.6493 17.9089 14.2591 18.5187 14.2591 19.271V23H21.0698C21.822 23 22.4319 22.3902 22.4319 21.6379V15.031C22.4319 14.4667 22.0839 13.9608 21.5569 13.759L18.3462 12.5295V8.30893C18.3462 7.79885 18.0612 7.33151 17.6077 7.09796L12.8403 4.64271C12.7925 4.61808 12.7435 4.59646 12.6938 4.57785V4.25726L15.6712 2.4708ZM8.64063 11.2046C8.64063 9.24329 10.2415 7.6533 12.2162 7.6533C14.191 7.6533 15.7918 9.24329 15.7918 11.2046C15.7918 13.166 14.191 14.756 12.2162 14.756C10.2415 14.756 8.64063 13.166 8.64063 11.2046Z" fill="#8D94A0"/>
</svg>
