<svg width="24" height="24" viewBox="0 0 24 24" fill="none" xmlns="http://www.w3.org/2000/svg">
<path fill-rule="evenodd" clip-rule="evenodd" d="M7.53301 9.211L10.887 5.856V15.037C10.887 15.3289 11.003 15.6088 11.2093 15.8152C11.4157 16.0216 11.6956 16.1375 11.9875 16.1375C12.2794 16.1375 12.5593 16.0216 12.7657 15.8152C12.9721 15.6088 13.088 15.3289 13.088 15.037V5.857L16.443 9.211C16.5448 9.31365 16.6659 9.39512 16.7994 9.45072C16.9328 9.50632 17.0759 9.53495 17.2205 9.53495C17.3651 9.53495 17.5082 9.50632 17.6417 9.45072C17.7751 9.39512 17.8962 9.31365 17.998 9.211C18.1002 9.10885 18.1813 8.98756 18.2366 8.85407C18.2919 8.72058 18.3204 8.57749 18.3204 8.433C18.3204 8.2885 18.2919 8.14542 18.2366 8.01193C18.1813 7.87843 18.1002 7.75715 17.998 7.655L12.765 2.422C12.5582 2.21687 12.2788 2.10178 11.9875 2.10178C11.6963 2.10178 11.4168 2.21687 11.21 2.422L5.97701 7.655C5.78302 7.86379 5.67754 8.13967 5.68277 8.42463C5.688 8.70959 5.80353 8.98142 6.00506 9.18295C6.20659 9.38448 6.47842 9.50001 6.76338 9.50524C7.04834 9.51047 7.32422 9.40499 7.53301 9.211Z" fill="#8D94A0"/>
<path fill-rule="evenodd" clip-rule="evenodd" d="M20.381 13.093C19.774 13.093 19.28 13.586 19.28 14.193V18.4C19.28 19.117 18.697 19.7 17.981 19.7H5.996C5.279 19.7 4.696 19.117 4.696 18.4V14.192C4.696 13.9003 4.58011 13.6205 4.37382 13.4142C4.16753 13.2079 3.88774 13.092 3.596 13.092C3.30426 13.092 3.02447 13.2079 2.81818 13.4142C2.61189 13.6205 2.496 13.9003 2.496 14.192V18.4C2.496 20.33 4.066 21.9 5.996 21.9H17.981C19.91 21.9 21.481 20.33 21.481 18.4V14.192C21.481 13.9003 21.3651 13.6205 21.1588 13.4142C20.9525 13.2079 20.6727 13.092 20.381 13.092" fill="#8D94A0"/>
</svg>
