<svg width="24" height="24" viewBox="0 0 24 24" fill="none" xmlns="http://www.w3.org/2000/svg">
<path fill-rule="evenodd" clip-rule="evenodd" d="M19.9705 2.5C19.9705 2.08579 19.6347 1.75 19.2205 1.75C18.8063 1.75 18.4705 2.08579 18.4705 2.5V4.16292C17.1386 3.06681 15.5406 2.32121 13.8223 2.01129C11.4719 1.58734 9.04729 2.00579 6.97496 3.19306C4.90262 4.38032 3.31533 6.26033 2.49231 8.50239C1.66928 10.7444 1.66324 13.2049 2.47524 15.451C3.28725 17.697 4.86529 19.5848 6.93177 20.7823C8.99824 21.9797 11.4208 22.41 13.7733 21.9976C16.1257 21.5852 18.2574 20.3565 19.7933 18.5275C21.1838 16.8718 22.0054 14.8201 22.1482 12.6744C22.1789 12.2138 21.8021 11.8483 21.3539 11.8484C20.9002 11.8484 20.5459 12.2151 20.5123 12.653C20.3763 14.4219 19.6905 16.1103 18.5426 17.4771C17.2538 19.0118 15.4651 20.0428 13.4912 20.3889C11.5173 20.7349 9.48459 20.3738 7.75064 19.3691C6.01669 18.3643 4.69258 16.7803 4.01124 14.8957C3.3299 13.011 3.33497 10.9465 4.02556 9.06522C4.71615 7.18395 6.04802 5.60646 7.78688 4.61025C9.52575 3.61404 11.5602 3.26291 13.5324 3.61865C14.9351 3.87166 16.2424 4.47071 17.3414 5.35H15.6205C15.2063 5.35 14.8705 5.68579 14.8705 6.1C14.8705 6.51421 15.2063 6.85 15.6205 6.85H19.2205C19.6347 6.85 19.9705 6.51421 19.9705 6.1V2.5ZM16.2891 11.9062C16.2891 13.7656 15.4297 14.8125 14.0157 14.8125C12.5977 14.8125 11.7422 13.7578 11.7422 11.9062C11.7422 10.0586 12.6055 9 14.0157 9C15.4258 9 16.2891 10.0586 16.2891 11.9062ZM14.0157 9.96094C13.3633 9.96484 12.9454 10.6133 12.9454 11.9062C12.9375 13.2109 13.3594 13.8438 14.0157 13.8438C14.6719 13.8438 15.0899 13.2109 15.086 11.9062C15.0899 10.6133 14.668 9.96484 14.0157 9.96094ZM9.39848 9.07813H10.5079V14.7344H9.32817V10.1953H9.29692L8.00004 11.0078V9.96875L9.39848 9.07813Z" fill="#8D94A0"/>
</svg>
