<svg width="24" height="24" viewBox="0 0 24 24" fill="none" xmlns="http://www.w3.org/2000/svg">
<path fill-rule="evenodd" clip-rule="evenodd" d="M23.723 10.94L21.686 8.16001C21.5746 8.0079 21.4288 7.8842 21.2606 7.79893C21.0925 7.71366 20.9066 7.66922 20.718 7.66922C20.5294 7.66922 20.3435 7.71366 20.1753 7.79893C20.0072 7.8842 19.8614 8.0079 19.75 8.16001L17.713 10.94C17.133 11.733 17.699 12.849 18.681 12.849H19.561C19.4291 14.0242 19.0228 15.1519 18.3749 16.1412C17.727 17.1304 16.8556 17.9535 15.831 18.544C13.53 19.878 10.581 19.878 8.27799 18.544C8.02568 18.4009 7.72707 18.3633 7.44716 18.4393C7.16725 18.5153 6.92869 18.6988 6.78339 18.9499C6.6381 19.2009 6.59783 19.4992 6.67136 19.7797C6.74489 20.0603 6.92626 20.3005 7.17599 20.448C8.65899 21.3071 10.3421 21.7603 12.056 21.762C13.7691 21.7602 15.4515 21.3073 16.934 20.449C18.4152 19.5911 19.6461 18.3603 20.504 16.879C21.2129 15.6438 21.6423 14.2682 21.762 12.849H22.755C22.9768 12.8491 23.1944 12.7877 23.3834 12.6717C23.5725 12.5556 23.7257 12.3894 23.826 12.1915C23.9262 11.9936 23.9697 11.7718 23.9515 11.5507C23.9334 11.3296 23.8542 11.1179 23.723 10.939M5.53999 11.152H4.54799C4.66489 10.1198 4.9923 9.1226 5.50999 8.22201C6.17578 7.0745 7.13 6.12097 8.27799 5.45601C10.58 4.12401 13.529 4.12401 15.832 5.45601C16.0846 5.60215 16.3849 5.64194 16.6669 5.56665C16.9489 5.49135 17.1894 5.30713 17.3355 5.05451C17.4816 4.80189 17.5214 4.50157 17.4461 4.21961C17.3708 3.93765 17.1866 3.69715 16.934 3.55101C13.962 1.83301 10.147 1.83301 7.17599 3.55101C5.69497 4.40924 4.46422 5.63999 3.60599 7.12101C2.89811 8.35667 2.46877 9.73208 2.34799 11.151H1.24399C1.02215 11.1509 0.804613 11.2123 0.615556 11.3284C0.426498 11.4444 0.273318 11.6107 0.173029 11.8085C0.0727405 12.0064 0.02927 12.2282 0.0474462 12.4493C0.0656224 12.6704 0.144734 12.8822 0.275993 13.061L2.42399 15.993C2.53544 16.1451 2.68115 16.2688 2.84934 16.3541C3.01752 16.4394 3.20343 16.4838 3.39199 16.4838C3.58056 16.4838 3.76647 16.4394 3.93465 16.3541C4.10283 16.2688 4.24855 16.1451 4.35999 15.993L6.50799 13.061C6.63925 12.8822 6.71836 12.6704 6.73654 12.4493C6.75472 12.2282 6.71124 12.0064 6.61096 11.8085C6.51067 11.6107 6.35749 11.4444 6.16843 11.3284C5.97937 11.2123 5.76184 11.1509 5.53999 11.151" fill="#8D94A0"/>
</svg>
