<svg width="24" height="24" viewBox="0 0 24 24" fill="none" xmlns="http://www.w3.org/2000/svg">
<path fill-rule="evenodd" clip-rule="evenodd" d="M20.3156 13.796C20.8206 13.796 21.3049 13.5954 21.6619 13.2383C22.019 12.8813 22.2196 12.397 22.2196 11.892L22.2196 3.905C22.2196 2.853 21.3676 2 20.3156 2L18.3856 2L18.3856 13.796L20.3156 13.796ZM4.8566 16.003L9.3986 16.003L9.3986 20.264C9.39838 20.6463 9.52439 21.0181 9.75706 21.3214C9.98973 21.6248 10.3161 21.8429 10.6854 21.9419C11.0547 22.0408 11.4463 22.0151 11.7995 21.8686C12.1527 21.7222 12.4477 21.4632 12.6386 21.132L16.8746 13.796L16.8856 13.796L16.8856 2L7.65161 2C6.80023 1.99999 5.97338 2.28522 5.30309 2.81014C4.63279 3.33507 4.15768 4.06944 3.95361 4.896L2.0836 12.46C1.97951 12.8808 1.97255 13.3199 2.06327 13.7438C2.15398 14.1677 2.33999 14.5655 2.60719 14.9069C2.87439 15.2483 3.21579 15.5244 3.60551 15.7143C3.99524 15.9042 4.42307 16.0029 4.8566 16.003Z" fill="#8D94A0"/>
</svg>
