<svg width="25" height="25" viewBox="0 0 25 25" fill="none" xmlns="http://www.w3.org/2000/svg">
<path fill-rule="evenodd" clip-rule="evenodd" d="M3.25 5C2.69772 5 2.25 5.44772 2.25 6V10.5C3.35457 10.5 4.25 11.3954 4.25 12.5C4.25 13.6046 3.35457 14.5 2.25 14.5V19C2.25 19.5523 2.69772 20 3.25 20H22.25C22.8023 20 23.25 19.5523 23.25 19V14.5C22.1454 14.5 21.25 13.6046 21.25 12.5C21.25 11.3954 22.1454 10.5 23.25 10.5V6C23.25 5.44772 22.8023 5 22.25 5H3.25ZM9.85682 14.8516C9.87707 15.0312 10.0249 15.1667 10.2005 15.1667H15.2995C15.4751 15.1667 15.6229 15.0312 15.6432 14.8516L16.0808 10.9717C16.12 10.6236 15.6986 10.4326 15.4756 10.6974L14.1787 12.2375L13.2196 10.14C13.0326 9.7311 12.4674 9.7311 12.2804 10.14L11.3213 12.2375L10.0244 10.6974C9.80142 10.4326 9.37997 10.6236 9.41923 10.9717L9.85682 14.8516Z" fill="url(#paint0_linear_23093_90276)"/>
<defs>
<linearGradient id="paint0_linear_23093_90276" x1="3.45" y1="6.82143" x2="15.7164" y2="23.1286" gradientUnits="userSpaceOnUse">
<stop stop-color="#0F0E0F"/>
<stop offset="1" stop-color="#595959"/>
</linearGradient>
</defs>
</svg>
