<svg width="24" height="24" viewBox="0 0 24 24" fill="none" xmlns="http://www.w3.org/2000/svg">
<path fill-rule="evenodd" clip-rule="evenodd" d="M15.066 16.736C15.066 16.9747 14.9712 17.2036 14.8024 17.3724C14.6336 17.5412 14.4047 17.636 14.166 17.636C13.9273 17.636 13.6984 17.5412 13.5296 17.3724C13.3608 17.2036 13.266 16.9747 13.266 16.736V11.73C13.266 11.4913 13.3608 11.2624 13.5296 11.0936C13.6984 10.9248 13.9273 10.83 14.166 10.83C14.4047 10.83 14.6336 10.9248 14.8024 11.0936C14.9712 11.2624 15.066 11.4913 15.066 11.73V16.736ZM10.933 16.736C10.933 16.9747 10.8382 17.2036 10.6694 17.3724C10.5006 17.5412 10.2717 17.636 10.033 17.636C9.79431 17.636 9.56539 17.5412 9.3966 17.3724C9.22782 17.2036 9.133 16.9747 9.133 16.736V11.73C9.133 11.4913 9.22782 11.2624 9.3966 11.0936C9.56539 10.9248 9.79431 10.83 10.033 10.83C10.2717 10.83 10.5006 10.9248 10.6694 11.0936C10.8382 11.2624 10.933 11.4913 10.933 11.73V16.736ZM9.029 3.85901C9.029 3.59379 9.13436 3.33944 9.32189 3.1519C9.50943 2.96437 9.76378 2.85901 10.029 2.85901H14.173C14.724 2.85901 15.173 3.30701 15.173 3.85901V4.80001H9.029V3.85901ZM20.299 4.80001H17.173V3.85901C17.173 2.20501 15.828 0.859009 14.173 0.859009H10.029C8.375 0.859009 7.029 2.20501 7.029 3.85901V4.80001H3.7C3.38174 4.80001 3.07652 4.92644 2.85147 5.15148C2.62643 5.37652 2.5 5.68175 2.5 6.00001V6.60001C2.5 6.91827 2.62643 7.22349 2.85147 7.44854C3.07652 7.67358 3.38174 7.80001 3.7 7.80001H3.831L4.303 19.836C4.32755 20.4557 4.59107 21.0419 5.03831 21.4716C5.48555 21.9013 6.08178 22.1412 6.702 22.141H17.498C18.118 22.1412 18.714 21.9013 19.161 21.4715C19.6079 21.0417 19.871 20.4556 19.895 19.836L20.369 7.78601C20.6734 7.77041 20.9603 7.63879 21.1706 7.4182C21.381 7.19761 21.4989 6.90482 21.5 6.60001V6.00001C21.5 5.33801 20.962 4.80001 20.299 4.80001Z" fill="#8D94A0"/>
</svg>
