<svg width="24" height="24" viewBox="0 0 24 24" fill="none" xmlns="http://www.w3.org/2000/svg">
<path d="M1.44313 9.35659C0.8499 9.17131 0.853141 8.33057 1.44779 8.14988L11.679 5.04091C11.8577 4.98659 12.0485 4.98636 12.2274 5.04023L22.5507 8.14943C23.1474 8.32913 23.1506 9.17281 22.5553 9.35707L12.2344 12.5519C12.0512 12.6086 11.8551 12.6084 11.672 12.5512L1.44313 9.35659Z" fill="#8D94A0"/>
<path fill-rule="evenodd" clip-rule="evenodd" d="M5.64266 12.2188V16.3993C5.64266 17.8522 6.82042 19.0299 8.27326 19.0299H15.6916C17.1444 19.0299 18.3222 17.8522 18.3222 16.3993V12.2181L12.2344 14.1026C12.0512 14.1593 11.8551 14.159 11.672 14.1018L5.64266 12.2188Z" fill="#8D94A0"/>
<path d="M20.1636 9.74531H20.9002V14.7961H20.1636V9.74531Z" fill="#8D94A0"/>
<path d="M21.4263 15.4011C21.4263 15.9096 21.0141 16.3218 20.5056 16.3218C19.9971 16.3218 19.5849 15.9096 19.5849 15.4011C19.5849 14.8926 19.9971 14.4804 20.5056 14.4804C21.0141 14.4804 21.4263 14.8926 21.4263 15.4011Z" fill="#8D94A0"/>
</svg>
