<svg width="24" height="24" viewBox="0 0 24 24" fill="none" xmlns="http://www.w3.org/2000/svg">
<path fill-rule="evenodd" clip-rule="evenodd" d="M23.436 8.45499C23.3524 8.37138 23.2532 8.30506 23.144 8.25981C23.0348 8.21457 22.9177 8.19128 22.7995 8.19128C22.6813 8.19128 22.5642 8.21457 22.455 8.25981C22.3458 8.30506 22.2466 8.37138 22.163 8.45499L18.982 11.637L17.436 10.091C17.2672 9.92217 17.0382 9.82734 16.7995 9.82734C16.5608 9.82734 16.3318 9.92217 16.163 10.091C15.9942 10.2598 15.8994 10.4888 15.8994 10.7275C15.8994 10.9662 15.9942 11.1952 16.163 11.364L18.981 14.182L23.435 9.72799C23.5186 9.64441 23.5849 9.54518 23.6302 9.43597C23.6754 9.32676 23.6987 9.2097 23.6987 9.09149C23.6987 8.97327 23.6754 8.85622 23.6302 8.747C23.5849 8.63779 23.5186 8.53856 23.435 8.45499M10 11.456C11.1548 11.456 12.2622 10.9973 13.0787 10.1807C13.8953 9.3642 14.354 8.25674 14.354 7.10199C14.354 5.94723 13.8953 4.83978 13.0787 4.02324C12.2622 3.20671 11.1548 2.74799 10 2.74799C8.84525 2.74799 7.7378 3.20671 6.92126 4.02324C6.10473 4.83978 5.64601 5.94723 5.64601 7.10199C5.64601 8.25674 6.10473 9.3642 6.92126 10.1807C7.7378 10.9973 8.84525 11.456 10 11.456ZM10 12.788C3.73101 12.788 1.29401 16.777 1.29401 18.633C1.29401 20.488 6.48301 20.982 10 20.982C13.517 20.982 18.706 20.488 18.706 18.632C18.706 16.777 16.269 12.788 10 12.788Z" fill="#8D94A0"/>
</svg>
