<svg width="24" height="24" viewBox="0 0 24 24" fill="none" xmlns="http://www.w3.org/2000/svg">
<path opacity="0.76" fill-rule="evenodd" clip-rule="evenodd" d="M7.5 11.647C7.99246 11.647 8.48009 11.55 8.93506 11.3616C9.39003 11.1731 9.80343 10.8969 10.1517 10.5487C10.4999 10.2004 10.7761 9.78704 10.9645 9.33207C11.153 8.8771 11.25 8.38946 11.25 7.897C11.25 7.40455 11.153 6.91691 10.9645 6.46194C10.7761 6.00697 10.4999 5.59357 10.1517 5.24535C9.80343 4.89713 9.39003 4.62091 8.93506 4.43246C8.48009 4.244 7.99246 4.147 7.5 4.147C6.50544 4.147 5.55161 4.54209 4.84835 5.24535C4.14509 5.94861 3.75 6.90244 3.75 7.897C3.75 8.89156 4.14509 9.84539 4.84835 10.5487C5.55161 11.2519 6.50544 11.647 7.5 11.647ZM8 17.828C8 16.564 8.771 14.693 10.48 13.276C9.637 12.979 8.652 12.793 7.5 12.793C2.46 12.793 0.5 16.231 0.5 17.828C0.5 19.428 4.673 19.852 7.5 19.852C7.971 19.852 8.48 19.839 9.001 19.812C8.34 19.285 8 18.625 8 17.828Z" fill="#8D94A0"/>
<path fill-rule="evenodd" clip-rule="evenodd" d="M16.5 12.794C11.46 12.794 9.5 16.231 9.5 17.829C9.5 19.427 13.673 19.853 16.5 19.853C19.327 19.853 23.5 19.427 23.5 17.829C23.5 16.231 21.54 12.794 16.5 12.794ZM16.5 11.647C16.9925 11.647 17.4801 11.55 17.9351 11.3616C18.39 11.1731 18.8034 10.8969 19.1517 10.5487C19.4999 10.2004 19.7761 9.78704 19.9645 9.33207C20.153 8.8771 20.25 8.38946 20.25 7.897C20.25 7.40455 20.153 6.91691 19.9645 6.46194C19.7761 6.00697 19.4999 5.59357 19.1517 5.24535C18.8034 4.89713 18.39 4.62091 17.9351 4.43246C17.4801 4.244 16.9925 4.147 16.5 4.147C15.5054 4.147 14.5516 4.54209 13.8483 5.24535C13.1451 5.94861 12.75 6.90244 12.75 7.897C12.75 8.89156 13.1451 9.84539 13.8483 10.5487C14.5516 11.2519 15.5054 11.647 16.5 11.647Z" fill="#8D94A0"/>
</svg>
