<svg width="24" height="24" viewBox="0 0 24 24" fill="none" xmlns="http://www.w3.org/2000/svg">
<path fill-rule="evenodd" clip-rule="evenodd" d="M10.5 18.86C10.5001 19.0571 10.5391 19.2523 10.6146 19.4343C10.6902 19.6164 10.8009 19.7818 10.9403 19.9211C11.0798 20.0603 11.2454 20.1708 11.4275 20.2461C11.6097 20.3214 11.8049 20.3601 12.002 20.36C12.1991 20.3598 12.3943 20.3209 12.5763 20.2453C12.7584 20.1698 12.9238 20.0591 13.0631 19.9196C13.2024 19.7802 13.3128 19.6146 13.3881 19.4325C13.4634 19.2503 13.5021 19.0551 13.502 18.858C13.5019 18.4599 13.3436 18.0782 13.062 17.7968C12.7804 17.5154 12.3986 17.3573 12.0005 17.3575C11.6024 17.3576 11.2207 17.5159 10.9393 17.7975C10.6579 18.079 10.4999 18.4609 10.5 18.859M22.112 9.99798C21.801 9.99798 21.491 9.88298 21.249 9.65198C18.7596 7.27007 15.4453 5.94349 12 5.94998C8.555 5.94375 5.24111 7.2703 2.752 9.65198C2.51211 9.88086 2.19112 10.0051 1.85965 9.99729C1.52818 9.98951 1.21338 9.85037 0.984496 9.61048C0.755614 9.37059 0.631402 9.0496 0.639185 8.71813C0.646967 8.38666 0.786108 8.07186 1.026 7.84298C3.97954 5.01659 7.91198 3.44239 12 3.44998C16.106 3.44998 20.004 5.00998 22.973 7.84298C23.1538 8.01528 23.2789 8.2378 23.3321 8.48186C23.3853 8.72591 23.3641 8.9803 23.2713 9.21222C23.1786 9.44413 23.0185 9.64294 22.8116 9.78299C22.6048 9.92305 22.3608 9.99793 22.111 9.99798" fill="#8D94A0"/>
<path fill-rule="evenodd" clip-rule="evenodd" d="M18.744 13.366C18.439 13.366 18.133 13.255 17.892 13.03C16.2938 11.5366 14.1873 10.7072 12 10.71C9.81273 10.7075 7.70637 11.5369 6.10799 13.03C5.86532 13.2559 5.54282 13.3762 5.21144 13.3644C4.88007 13.3526 4.56695 13.2096 4.34099 12.967C4.11503 12.7243 3.99472 12.4018 4.00653 12.0704C4.01835 11.739 4.16132 11.4259 4.40399 11.2C6.46455 9.27506 9.18021 8.2061 12 8.20997C14.829 8.20997 17.527 9.27297 19.596 11.2C19.7797 11.3712 19.9076 11.5938 19.963 11.8388C20.0185 12.0837 19.9989 12.3397 19.9069 12.5734C19.8149 12.807 19.6546 13.0076 19.447 13.149C19.2395 13.2903 18.9941 13.366 18.743 13.366" fill="#8D94A0"/>
<path fill-rule="evenodd" clip-rule="evenodd" d="M15.434 16.675C15.142 16.675 14.849 16.573 14.612 16.365C13.166 15.101 10.834 15.101 9.38899 16.365C9.26609 16.477 9.12209 16.5633 8.96541 16.6189C8.80873 16.6746 8.64252 16.6984 8.47652 16.689C8.31052 16.6796 8.14806 16.6372 7.99865 16.5643C7.84924 16.4913 7.71589 16.3893 7.6064 16.2642C7.49691 16.139 7.41348 15.9933 7.361 15.8356C7.30851 15.6778 7.28803 15.5112 7.30075 15.3454C7.31347 15.1796 7.35914 15.018 7.43507 14.8701C7.51101 14.7222 7.61569 14.5909 7.74299 14.484C8.92135 13.4522 10.4343 12.8835 12.0005 12.8835C13.5667 12.8835 15.0796 13.4522 16.258 14.484C16.4492 14.6515 16.5847 14.8734 16.6465 15.12C16.7083 15.3666 16.6935 15.6262 16.604 15.8642C16.5144 16.1021 16.3545 16.3071 16.1454 16.4518C15.9364 16.5965 15.6882 16.674 15.434 16.674" fill="#8D94A0"/>
</svg>
